<svg id="Capa_1" data-name="Capa 1" xmlns="http://www.w3.org/2000/svg" viewBox="0 0 1080 1054.59"><defs><style>.cls-1{fill:#1e406a;}.cls-2{fill:#fff;}.cls-3{fill:#e8308a;}</style></defs><rect class="cls-1" y="-12.71" width="1080" height="1080"/><ellipse class="cls-2" cx="540" cy="527.29" rx="470.27" ry="470.47"/><path class="cls-3" d="M134.22,604.68c2.51,157.94,177.34,131.2,177.34,131.2l36,101.54C526.18,714.8,620.48,720.84,620.48,720.84c-146.43,5.61-261.19,76.38-261.19,76.38l-38.47-92.89S171,729.73,158.3,607.79s174-121.95,174-121.95C217.19,481.31,132.88,520.74,134.22,604.68Z"/><path class="cls-3" d="M930.84,323c30.9,55.38,37.62,143.79-61.5,275.89L921.4,764S685.74,710.8,404.62,853c0,0,151.6-139,474.88-129.57L849,620.49S657.17,557.1,405.76,687.3c0,0,120.76-103.65,326.45-122.7,0,0,29.21-83.84-20.31-141,0,0,50.67,59.14,50.87,132.72a3.5,3.5,0,0,0,5.13,3.21c17.07-9.41,69.4-47.76,54.46-158.79,0,0,23.55,64.47,2.07,161.58a1.35,1.35,0,0,0,2,1.53c15.78-11.75,90.07-79.3,56.85-174.55C846.12,282.7,743.92,304,722.05,305.47c-111.86,7.74-320.87,280.93-453.42,270,0,0,40.08-18.84,280.74-224.29C814.11,125.2,912.29,289.78,930.84,323Z"/><path class="cls-1" d="M329.61,824.82a3.53,3.53,0,0,1-1.11-.18,3.64,3.64,0,0,1-2.28-2.22l-35.07-98.79A227.86,227.86,0,0,1,265.63,725c-25.72,0-63-3.94-94.4-22.72-38-22.73-57.76-61-58.6-113.73-.47-29.5,9.23-54.56,28.84-74.48,15.67-15.92,37.36-28.17,64.46-36.4,26.14-7.94,56.69-12,90.79-12,5.78,0,11.73.12,17.68.36a3.6,3.6,0,0,1-.14,7.19c-1,0-104.74.62-150,50.84-16.29,18.08-23.15,40.66-20.39,67.14,8.65,83.1,83.51,95.51,127.36,95.51a207.82,207.82,0,0,0,31-2.15,4,4,0,0,1,.6-.05,3.61,3.61,0,0,1,3.33,2.22L343,775.82a550.15,550.15,0,0,1,66.91-32c40-16.11,102.74-36.44,174.35-41.79A137.74,137.74,0,0,1,600.21,701c1.59,0,2.42,0,2.51,0a3.6,3.6,0,0,1-.1,7.19c-5.82.22-11.76.56-17.63,1-31.27,3.69-118.39,22.29-253.34,114.94A3.59,3.59,0,0,1,329.61,824.82Z"/><path class="cls-2" d="M296.72,469.29q8.64,0,17.54.35s-186.65,0-173.95,122c9,86.08,86.25,98.74,130.94,98.74a208.51,208.51,0,0,0,31.58-2.2L341.3,781s105.55-65.08,243.34-75.37c-35.09,4.13-121.5,23.88-255,115.57L293.56,719.68a204.07,204.07,0,0,1-27.93,1.71c-49.48,0-147.53-14.92-149.4-132.91-1.27-79.62,74.5-119.19,180.49-119.19m303.49,235.3c1.52,0,2.28,0,2.28,0q-9,.35-17.85,1a135.65,135.65,0,0,1,15.57-1.06M296.72,462.1c-34.46,0-65.36,4.07-91.84,12.11-27.68,8.41-49.88,21-66,37.33C118.6,532.17,108.54,558.1,109,588.6c.46,28.75,6.55,53.64,18.12,74a116.49,116.49,0,0,0,42.24,42.78c32.13,19.2,70.07,23.23,96.24,23.23,10,0,18-.58,23.07-1.08l34.13,96.12a7.2,7.2,0,0,0,4.56,4.43,7.11,7.11,0,0,0,2.22.36,7.26,7.26,0,0,0,4.08-1.27C467.86,735,554.27,716.5,585.33,712.82c5.81-.43,11.67-.76,17.43-1a7.2,7.2,0,0,0,.19-14.38c-.17,0-1.08-.06-2.74-.06A142.3,142.3,0,0,0,584,698.49c-72,5.39-135.1,25.83-175.34,42a559.73,559.73,0,0,0-63.81,30.15l-35.32-85.29a7.2,7.2,0,0,0-6.65-4.45,7,7,0,0,0-1.2.1,204.23,204.23,0,0,1-30.38,2.1c-42.64,0-115.42-12-123.78-92.29-2.65-25.42,3.91-47.07,19.49-64.36,44.22-49.07,146.27-49.64,147.3-49.64a7.2,7.2,0,0,0,.28-14.39c-6-.23-12-.35-17.82-.35Z"/><path class="cls-1" d="M386.63,840.35a3.6,3.6,0,0,1-2.43-6.25c1.47-1.35,36.74-33.28,109.64-65.65,42.72-19,89.5-34.09,139.06-44.92,61.9-13.54,128.32-20.4,197.42-20.4,8.69,0,17.52.11,26.33.32l-28.52-96.28c-9.2-2.72-53.64-14.71-121.29-14.71-72.72,0-186.81,14.2-317.41,81.84a3.66,3.66,0,0,1-1.66.4,3.6,3.6,0,0,1-2.34-6.33c.3-.26,31.16-26.52,86.81-54.68,50.9-25.77,133.59-58.49,239.27-68.65,3.73-12.39,20.19-75.08-11.64-123.78-5.12-7.32-8.66-11.48-8.7-11.52a3.6,3.6,0,0,1,5.46-4.7,116.75,116.75,0,0,1,9.2,12.18c15.84,22.68,42.38,68.75,42.55,122.84,16.3-9.07,67-46.56,52.42-155a3.61,3.61,0,0,1,2.71-4,3.67,3.67,0,0,1,.86-.1,3.61,3.61,0,0,1,3.38,2.36c1,2.62,22.72,63.91,3.51,157.49A187.4,187.4,0,0,0,852.1,490c20.25-37.39,23.56-76.31,9.82-115.69-19.47-55.83-59.9-84.13-120.15-84.13a265.62,265.62,0,0,0-30.33,2c-2.81.31-5.25.58-7.13.71-49.86,3.45-120.43,61.65-195.15,123.27C421.5,488.43,330.85,563.2,258.51,563.2c-2.76,0-5.51-.12-8.17-.34A3.6,3.6,0,0,1,249.1,556c1.66-.8,43.78-22.16,279.94-223.76,91.74-78.31,173.2-118,242.11-118,39.1,0,73.63,12.71,102.62,37.78,24.4,21.1,37.81,45.14,42.22,53,18.39,33,24.59,70.46,18.43,111.47-7.61,50.59-34.21,106.72-79.08,166.86l51.5,163.37a3.59,3.59,0,0,1-3.43,4.68,3.55,3.55,0,0,1-.79-.09c-.43-.09-43.74-9.67-113.91-9.67-94,0-239.79,17.05-400.45,98.29A3.65,3.65,0,0,1,386.63,840.35Z"/><path class="cls-2" d="M771.15,217.84c89.72,0,130.42,68.76,141.69,89,30.91,55.38,37.63,143.79-61.49,275.89l52.06,165.13s-43.23-9.76-114.7-9.76c-95.46,0-241.33,17.4-402.08,98.68,0,0,141.88-130,443.69-130,10.23,0,20.59.15,31.19.45L831,604.29s-46.71-15.42-124.2-15.43c-79.6,0-191.68,16.27-319.07,82.25,0,0,120.76-103.66,326.45-122.71,0,0,25.42-73-11.37-129.16,14.56,20.84,41.78,67,41.93,120.88a3.58,3.58,0,0,0,3.48,3.64,3.3,3.3,0,0,0,1.64-.43c17.08-9.41,69.41-47.76,54.47-158.79,0,0,23.55,64.47,2.07,161.58a1.43,1.43,0,0,0,1.28,1.79,1.24,1.24,0,0,0,.75-.26c15.78-11.75,90.07-79.3,56.85-174.55-26-74.46-83.67-86.54-123.55-86.54-17.22,0-31.11,2.25-37.71,2.71C594.39,296.86,391.34,559.6,258.51,559.6q-4,0-7.88-.32S290.72,540.44,531.38,335c103.75-88.57,182-117.15,239.77-117.16M693.91,407.4a112.08,112.08,0,0,1,8.94,11.84c-5.32-7.61-8.94-11.84-8.94-11.84m77.27-196.76h0c-69.81,0-152,40-244.44,118.88-233,199-276.92,222.13-279.16,223.26a7.1,7.1,0,0,0-4.08,7.73,7.24,7.24,0,0,0,6.57,5.94c2.77.23,5.62.34,8.47.34,73.63,0,164.79-75.18,252.94-147.88,74.26-61.24,144.4-119.09,193.11-122.46,2-.14,4.42-.41,7.28-.73a262.79,262.79,0,0,1,29.93-2c58.56,0,97.84,27.49,116.75,81.71,13.39,38.39,10.17,76.34-9.58,112.79a185.31,185.31,0,0,1-32.11,42.51c7.66-43.5,6.43-79.3,3.78-102.67-3.26-28.78-9.23-45.34-9.48-46a7.2,7.2,0,0,0-13.89,3.43c6.18,46,1.33,84-14.43,113.12-10,18.48-22.27,29.25-31,35.1-2.09-52.28-27.57-96.36-43-118.51a118.41,118.41,0,0,0-9.46-12.52,7.2,7.2,0,0,0-10.91,9.39c.13.15,3.54,4.18,8.45,11.2,17.77,27.21,19.75,58.91,18.29,80.72a188.85,188.85,0,0,1-6.44,37.7,690.3,690.3,0,0,0-134.42,27,660.65,660.65,0,0,0-103.71,41.75c-56,28.36-86.27,54.08-87.53,55.16a7.2,7.2,0,0,0,8,11.86c130-67.31,243.43-81.44,315.73-81.44,63.61,0,106.3,10.59,118.43,14l26.56,89.67c-7.2-.15-14.39-.22-21.48-.22-69.36,0-136,6.89-198.19,20.48-49.79,10.89-96.81,26.08-139.75,45.15C419,797.77,383.25,830.08,381.77,831.44A7.2,7.2,0,0,0,386.64,844a7.12,7.12,0,0,0,3.24-.78c160-80.91,305.2-97.9,398.8-97.9,69.72,0,112.72,9.49,113.15,9.58a7,7,0,0,0,1.58.18,7.19,7.19,0,0,0,6.86-9.36L859.32,584.05c44.57-60.06,71-116.22,78.66-167,6.28-41.81-.06-80.08-18.85-113.75-4.48-8-18.13-32.48-43-54-29.66-25.65-65-38.66-105-38.66Z"/><path class="cls-1" d="M116.23,588.48c2.51,157.94,177.33,131.2,177.33,131.2l36.05,101.54C508.19,698.6,602.49,704.64,602.49,704.64,456.06,710.25,341.3,781,341.3,781l-38.47-92.89S153,713.53,140.31,591.59s174-122,174-122C199.2,465.11,114.89,504.54,116.23,588.48Z"/><path class="cls-1" d="M912.84,306.81c30.91,55.38,37.63,143.79-61.49,275.89l52.06,165.13s-235.66-53.22-516.78,88.92c0,0,151.6-139,474.88-129.57L831,604.29S639.18,540.9,387.77,671.11c0,0,120.76-103.66,326.45-122.71,0,0,29.2-83.84-20.31-141,0,0,50.67,59.14,50.87,132.72a3.49,3.49,0,0,0,5.12,3.21c17.08-9.41,69.41-47.76,54.47-158.79,0,0,23.55,64.47,2.07,161.58a1.35,1.35,0,0,0,2,1.53c15.78-11.75,90.07-79.3,56.85-174.55-37.19-106.6-139.39-85.35-161.26-83.83C592.2,297,383.19,570.2,250.63,559.28c0,0,40.09-18.84,280.75-224.28C796.12,109,894.3,273.58,912.84,306.81Z"/></svg>