<svg id="Capa_1" data-name="Capa 1" xmlns="http://www.w3.org/2000/svg" viewBox="0 0 1080 324.62"><defs><style>.cls-1{fill:#1e406a;}.cls-2{fill:#e8308a;}.cls-3,.cls-4{fill:#fff;}.cls-3{stroke:#1e406a;stroke-miterlimit:10;stroke-width:3.02px;}</style></defs><rect class="cls-1" width="1080" height="324.62"/><path class="cls-2" d="M355.53,209.78a51.53,51.53,0,0,1-12-1.43,33.73,33.73,0,0,1-10.75-4.55,25.86,25.86,0,0,1-7.84-8.05A21.82,21.82,0,0,1,321.91,184,27,27,0,0,1,324,173a36.89,36.89,0,0,1,5.35-8.69,37.67,37.67,0,0,1,7-6.55,79.12,79.12,0,0,1,7.05-4.56,47.07,47.07,0,0,1,5.63-2.78l2.77-1.07a10.28,10.28,0,0,1-1.56-.78,15.54,15.54,0,0,1-3.14-2.42,20.55,20.55,0,0,1-3.27-4.2,16.75,16.75,0,0,1-2.14-6.27q-10.83-1-16.17-4.28T320.2,123a13.3,13.3,0,0,1,2.06-7,29.56,29.56,0,0,1,4.92-6.13,31.83,31.83,0,0,1,5.77-4.42,10.13,10.13,0,0,1,4.49-1.7,1.11,1.11,0,0,1,1,.42,1.56,1.56,0,0,1,.29.86,5.75,5.75,0,0,1-1.28,2.49,7.23,7.23,0,0,0-1.29,4.35,11,11,0,0,0,2,6.34,19.1,19.1,0,0,0,5.55,5.2,29.68,29.68,0,0,1,6.49-8.27,48.08,48.08,0,0,1,9.4-6.69,49.66,49.66,0,0,1,11-4.42A44.06,44.06,0,0,1,382,102.5a26.76,26.76,0,0,1,7.19.93,20.65,20.65,0,0,1,5.84,2.56,12.73,12.73,0,0,1,3.92,4,9.85,9.85,0,0,1,1.43,5.2,11.08,11.08,0,0,1-2.85,7.13,26.29,26.29,0,0,1-8.2,6.19,59.79,59.79,0,0,1-12.89,4.7,90.5,90.5,0,0,1-17,2.5,22.46,22.46,0,0,0,.64,4.34,16.48,16.48,0,0,0,1.21,3.35,28.18,28.18,0,0,0,1.57,3q1.14-.13,2.7-.42c.86-.1,1.88-.19,3.07-.29s2.54-.14,4.06-.14q8.4,0,8.4,5,0,2.15-2.49,4.35a9.64,9.64,0,0,1-6.63,2.21,28.41,28.41,0,0,1-4.7-.36,20.38,20.38,0,0,1-3.7-.92,15.81,15.81,0,0,1-3.14-1.43,45.2,45.2,0,0,0-9.4,7.41,41.71,41.71,0,0,0-6.48,9.12,26.26,26.26,0,0,0-2.92,12.68q0,9,4.84,13.32t13.82,4.34A27,27,0,0,0,374.9,197a38.07,38.07,0,0,0,11.69-11.68,2.7,2.7,0,0,1,.71-1,5,5,0,0,1,.85-.64,2.36,2.36,0,0,1,1.29-.36,2.9,2.9,0,0,1,2.13.86,2.73,2.73,0,0,1,.86,2,6.46,6.46,0,0,1-.57,2.14l-.57,1.14a43.24,43.24,0,0,1-5.7,7.48,41,41,0,0,1-7.91,6.48,43.4,43.4,0,0,1-10,4.63A39.43,39.43,0,0,1,355.53,209.78ZM381.6,108.63a16.43,16.43,0,0,0-6.55,1.42,23.53,23.53,0,0,0-6.13,3.92,28.74,28.74,0,0,0-5.13,6,26.78,26.78,0,0,0-3.42,7.62,59.79,59.79,0,0,0,11.33-1,36.4,36.4,0,0,0,9-2.85,17.51,17.51,0,0,0,6-4.42,8.69,8.69,0,0,0,2.14-5.69,4.16,4.16,0,0,0-2.14-3.64A9.43,9.43,0,0,0,381.6,108.63Z"/><path class="cls-2" d="M403.54,165.9a105,105,0,0,1-6.77,14.6q-3.34,5.77-5.63,9.05a12.81,12.81,0,0,1-1.06,1.28,2.7,2.7,0,0,1-2.07.86,3.17,3.17,0,0,1-3-3,3.32,3.32,0,0,1,.64-1.92,12.35,12.35,0,0,0,.93-1.49q2-2.85,5.62-9.05A79.13,79.13,0,0,0,399,159.92a9.6,9.6,0,0,1,2.64-4.13,19.68,19.68,0,0,1,4.27-3.14,23.41,23.41,0,0,1,4.91-2,17.54,17.54,0,0,1,4.71-.72q5.26,0,7.26,5.42t2.57,18.23a34.47,34.47,0,0,0,5.34-9.54,24.15,24.15,0,0,0,1.64-6.7c0-.85.64-1.73,1.92-2.63a25,25,0,0,1,4.35-2.42,33.22,33.22,0,0,1,4.7-1.71,14.42,14.42,0,0,1,3-.65c1.8,0,2.71.86,2.71,2.57q0,1.43-2.07,5a70.54,70.54,0,0,1-5.41,7.83q-3.36,4.28-7.48,8.62a63.56,63.56,0,0,1-8.41,7.48q.57,8.4,3.21,12.25a8.25,8.25,0,0,0,7.19,3.85,10.09,10.09,0,0,0,5.63-1.85,25,25,0,0,0,4.91-4.28,31.92,31.92,0,0,0,4.71-6.12,2.7,2.7,0,0,1,.71-1,5,5,0,0,1,.85-.64,2.36,2.36,0,0,1,1.28-.36,3,3,0,0,1,2.07.86,2.62,2.62,0,0,1,.93,2,2.56,2.56,0,0,1-.22,1.07c-.14.33-.31.69-.5,1.07s-.38.81-.57,1.28a49.59,49.59,0,0,1-7,8.83,40.36,40.36,0,0,1-7.76,6,18.6,18.6,0,0,1-9.76,2.7,25.2,25.2,0,0,1-13.18-3.35q-5.62-3.34-7.91-11.46-2.42,2.42-5.34,5c-1.95,1.71-3.89,3.3-5.84,4.78a41.4,41.4,0,0,1-5.63,3.63,10.41,10.41,0,0,1-4.7,1.42,2.26,2.26,0,0,1-1.49-.42,2.21,2.21,0,0,1-.5-1.71,8.2,8.2,0,0,1,.64-2.71,22,22,0,0,1,1.71-3.49,23.46,23.46,0,0,1,2.28-3.21,4.87,4.87,0,0,1,2.35-1.71,25.2,25.2,0,0,0,7.91-3.42q4-2.57,7.33-5.12-.7-6-1.14-10c-.28-2.65-.52-4.82-.71-6.48a15.51,15.51,0,0,0-.71-3.56c-.29-.71-.67-1.07-1.14-1.07Q404.25,164.19,403.54,165.9Z"/><path class="cls-2" d="M522.07,189.55a23.51,23.51,0,0,1-6.13,6.13,32.32,32.32,0,0,1-7.76,4.27,29.17,29.17,0,0,1-10.9,1.85c-.66,0-1.38,0-2.14-.07s-1.52-.12-2.28-.21a27.8,27.8,0,0,1-7.12,4.06,22.33,22.33,0,0,1-8.12,1.49,15.82,15.82,0,0,1-6.05-1.07,18.86,18.86,0,0,1-4.49-2.49,17.13,17.13,0,0,1-3.71-3.7,68.9,68.9,0,0,0-2.63,8.33q-1.37,5.21-2.49,11c-.77,3.9-1.38,7.74-1.86,11.54a81.87,81.87,0,0,0-.71,9.83c0,2.09-.9,3.14-2.71,3.14a20.18,20.18,0,0,1-4.27-.5,14.25,14.25,0,0,1-4.2-1.64,9.78,9.78,0,0,1-3.21-3.13,8.85,8.85,0,0,1-1.28-4.85,50,50,0,0,1,1-8q1-5.49,2.56-12.61t3.71-15.31q2.13-8.19,4.34-16.24T456,166.19q2.2-7.12,4.06-12.11a4,4,0,0,1,4-2.71,9.62,9.62,0,0,1,4.06,1.28q2.49,1.29,5.77,6.41A53.33,53.33,0,0,1,480,154.5a46.43,46.43,0,0,1,5.92-3.13,15.78,15.78,0,0,1,6.48-1.43,14.88,14.88,0,0,1,7,1.64,18,18,0,0,1,5.34,4.21,20.71,20.71,0,0,1,3.49,5.69,16.35,16.35,0,0,1,1.28,6.27,40.51,40.51,0,0,1-2.63,13.39,49.29,49.29,0,0,1-7.48,13.68,4.14,4.14,0,0,0,1.28.14,14.89,14.89,0,0,0,6.7-1.49,28.64,28.64,0,0,0,5.27-3.35,39.51,39.51,0,0,0,4.84-4.84,2.7,2.7,0,0,1,.71-1,5.15,5.15,0,0,1,.86-.64,2.33,2.33,0,0,1,1.28-.36,3,3,0,0,1,2.07.86,2.65,2.65,0,0,1,.92,2,2.72,2.72,0,0,1-.21,1.07c-.14.33-.31.69-.5,1.07S522.26,189.08,522.07,189.55Zm-55-1.28a13.93,13.93,0,0,0,2.14,7.55,6.46,6.46,0,0,0,5.69,3.42,7.3,7.3,0,0,0,4.71-2.14,3.38,3.38,0,0,1-.72-2,4.32,4.32,0,0,1,.79-2.36,11.74,11.74,0,0,1,1.85-2.2,12.35,12.35,0,0,1,2.28-1.71,4.21,4.21,0,0,1,2.06-.72,58.2,58.2,0,0,0,2.57-5.91q1.14-3.06,1.92-6c.52-1.95.93-3.75,1.21-5.41a25.24,25.24,0,0,0,.43-4.21c0-2.56-.41-4.36-1.21-5.41a4.32,4.32,0,0,0-3.63-1.57c-1.91,0-4,1-6.27,3.06a45.28,45.28,0,0,0-6.56,7.48,48.93,48.93,0,0,0-5.2,9.34A23.07,23.07,0,0,0,467.08,188.27Z"/><path class="cls-2" d="M553.56,192.54a5,5,0,0,0,1.28,3.71,4.62,4.62,0,0,0,3.42,1.28,10.09,10.09,0,0,0,5.62-1.85,25,25,0,0,0,4.92-4.28,31.49,31.49,0,0,0,4.7-6.12,2.7,2.7,0,0,1,.71-1,5.15,5.15,0,0,1,.86-.64,2.33,2.33,0,0,1,1.28-.36,3,3,0,0,1,2.07.86,2.65,2.65,0,0,1,.92,2,2.72,2.72,0,0,1-.21,1.07c-.14.33-.31.69-.5,1.07s-.38.81-.57,1.28a50,50,0,0,1-7,8.83,40.44,40.44,0,0,1-7.77,6,18.56,18.56,0,0,1-9.75,2.7,22.43,22.43,0,0,1-7.41-1.14,19.17,19.17,0,0,1-5.7-3.06,13.31,13.31,0,0,1-3.71-4.49,12.3,12.3,0,0,1-1.28-5.55,27,27,0,0,1,1.43-8.84,70.08,70.08,0,0,1,3.06-7.55c1.09-2.28,2.11-4.29,3.06-6.05a9.79,9.79,0,0,0,1.43-4.35,1.86,1.86,0,0,0-1.36-1.71,22.19,22.19,0,0,0-2.92-1,38.51,38.51,0,0,0-4.27-.72,147,147,0,0,1-7.84,17c-2.47,4.41-4.46,7.72-6,9.9a13.3,13.3,0,0,1-1.07,1.28,2.66,2.66,0,0,1-2.06.86,3.19,3.19,0,0,1-3-3,3.33,3.33,0,0,1,.65-1.92,13.42,13.42,0,0,0,.92-1.49q2-2.85,5.63-9.05a79.69,79.69,0,0,0,6.77-16.31,8.92,8.92,0,0,1-2.43-2.57,14.7,14.7,0,0,1-1.56-3.27,13.88,13.88,0,0,1-.72-4.71,10.56,10.56,0,0,1,.79-4.06,11.38,11.38,0,0,1,2.06-3.34,12,12,0,0,1,2.71-2.28,5.29,5.29,0,0,1,2.71-.86,6.62,6.62,0,0,1,3,.79,15,15,0,0,1,2.85,1.85,10.43,10.43,0,0,1,2.14,2.42,4.6,4.6,0,0,1,.85,2.35,10.43,10.43,0,0,1-.93,4.7,8.05,8.05,0,0,0-.92,3.56,2.38,2.38,0,0,0,1.71,2.28,11,11,0,0,0,4.27.72,24.12,24.12,0,0,0,4.06-.29,29.65,29.65,0,0,0,2.92-.64c.86-.24,1.66-.45,2.42-.64a10,10,0,0,1,2.43-.29,5.19,5.19,0,0,1,4.2,2,7.39,7.39,0,0,1,1.64,4.84,13.61,13.61,0,0,1-1.64,5.77c-1.09,2.23-2.31,4.68-3.63,7.34a85.82,85.82,0,0,0-3.64,8.33A24.35,24.35,0,0,0,553.56,192.54Z"/><path class="cls-2" d="M628.92,189.55a36.09,36.09,0,0,1-7.84,8.83,45.22,45.22,0,0,1-9.9,6,33.54,33.54,0,0,1-14,2.7,30.57,30.57,0,0,1-10-1.56,24.08,24.08,0,0,1-7.84-4.35,19.81,19.81,0,0,1-5.13-6.62,19.22,19.22,0,0,1-1.85-8.41,36,36,0,0,1,3-14.82,40.18,40.18,0,0,1,7.55-11.46,34,34,0,0,1,9.9-7.34,23.31,23.31,0,0,1,10.05-2.57,14.67,14.67,0,0,1,6.12,1.29,17.46,17.46,0,0,1,5,3.34,15.36,15.36,0,0,1,3.35,4.78,13.54,13.54,0,0,1,1.21,5.55,21.3,21.3,0,0,1-1.14,6.2A21,21,0,0,1,613.6,178a22.17,22.17,0,0,1-7.12,5.63A24,24,0,0,1,595.3,186a13.27,13.27,0,0,1-3.28-.43,19.76,19.76,0,0,1-2.14-.43q0,6.42,3.71,9.83a12.55,12.55,0,0,0,8.83,3.42,20.23,20.23,0,0,0,9.12-2.06,34.73,34.73,0,0,0,7-4.49,29.6,29.6,0,0,0,5.84-6.55,2.7,2.7,0,0,1,.71-1,5.15,5.15,0,0,1,.86-.64,2.31,2.31,0,0,1,1.28-.36,3,3,0,0,1,2.06.86,2.62,2.62,0,0,1,.93,2,2.72,2.72,0,0,1-.21,1.07c-.15.33-.31.69-.5,1.07S629.11,189.08,628.92,189.55Zm-38.33-10.26a13.44,13.44,0,0,0,7.27-2.14,23.73,23.73,0,0,0,5.91-5.19,27.66,27.66,0,0,0,3.92-6.34,14.54,14.54,0,0,0,1.43-5.56c0-1.9-.86-2.85-2.57-2.85a9,9,0,0,0-5.84,2.42,26.42,26.42,0,0,0-5.06,5.84,37.12,37.12,0,0,0-3.63,7.27A19.49,19.49,0,0,0,590.59,179.29Z"/><path class="cls-2" d="M687.19,189.55a36.05,36.05,0,0,1-9.26,9.26,51.43,51.43,0,0,1-12.47,6.41q-7.62,2.85-18.59,2.85a24.43,24.43,0,0,1-10-2.07,30.34,30.34,0,0,1-8.2-5.2,26.43,26.43,0,0,1-5.55-6.83,14.2,14.2,0,0,1-2.07-6.84,7.13,7.13,0,0,1,2.14-5.27,21.23,21.23,0,0,1,4.7-3.57,32.38,32.38,0,0,1,6.84-2.56c.57-.95,1.33-2.14,2.28-3.56.76-1.23,1.75-2.78,3-4.63s2.66-4.06,4.27-6.63q5-7.54,8.55-10.47c2.37-1.94,4.46-2.92,6.27-2.92a5.1,5.1,0,0,1,2.35.64,14.47,14.47,0,0,1,2.28,1.5,9.85,9.85,0,0,1,1.71,1.71,2.56,2.56,0,0,1,.64,1.42,4,4,0,0,1-.57,1.78c-.38.72-.78,1.48-1.21,2.28a20.62,20.62,0,0,0-1.14,2.57,8,8,0,0,0-.5,2.78,28.22,28.22,0,0,0,.86,7.4q.86,3.14,1.92,5.92t1.92,5.41a19.12,19.12,0,0,1,.86,5.91,19.43,19.43,0,0,1-.5,4.77,16.86,16.86,0,0,1-1.21,3.35,14.65,14.65,0,0,1-1.57,2.71,28.64,28.64,0,0,0,7.48-3.21,41,41,0,0,0,5.63-4.06,38.28,38.28,0,0,0,4.56-5.12,2.7,2.7,0,0,1,.71-1,5,5,0,0,1,.85-.64,2.36,2.36,0,0,1,1.29-.36,3,3,0,0,1,2.06.86,2.62,2.62,0,0,1,.93,2,2.56,2.56,0,0,1-.22,1.07c-.14.33-.31.69-.49,1.07S687.38,189.08,687.19,189.55ZM647,167.61q-3,4.56-5.27,8.26-2,3.28-3.63,6.13a11.43,11.43,0,0,0-1.64,3.56,51.41,51.41,0,0,0,.35,6.05,22.57,22.57,0,0,0,1.22,5.2,10.64,10.64,0,0,0,2.13,3.64,4.34,4.34,0,0,0,3.28,1.35c2.18,0,4.06-1.18,5.63-3.56a15,15,0,0,0,2.35-8.41,24.81,24.81,0,0,0-.71-5.69q-.72-3-1.5-5.92t-1.5-5.7A20.29,20.29,0,0,1,647,167.61Z"/><path class="cls-2" d="M745.45,189.55a35.74,35.74,0,0,1-9.26,9.26,51.35,51.35,0,0,1-12.46,6.41q-7.62,2.85-18.59,2.85a24.51,24.51,0,0,1-10-2.07,30.44,30.44,0,0,1-8.19-5.2,26.22,26.22,0,0,1-5.55-6.83,14.2,14.2,0,0,1-2.07-6.84,7.13,7.13,0,0,1,2.14-5.27,21.23,21.23,0,0,1,4.7-3.57,32.38,32.38,0,0,1,6.84-2.56c.57-.95,1.33-2.14,2.28-3.56.76-1.23,1.75-2.78,3-4.63s2.66-4.06,4.27-6.63q5-7.54,8.55-10.47c2.37-1.94,4.46-2.92,6.27-2.92a5.1,5.1,0,0,1,2.35.64,15,15,0,0,1,2.28,1.5,9.85,9.85,0,0,1,1.71,1.71,2.56,2.56,0,0,1,.64,1.42,4,4,0,0,1-.57,1.78c-.38.72-.78,1.48-1.21,2.28a20.62,20.62,0,0,0-1.14,2.57,7.81,7.81,0,0,0-.5,2.78,28.26,28.26,0,0,0,.85,7.4c.57,2.09,1.22,4.06,1.93,5.92s1.35,3.65,1.92,5.41a19.12,19.12,0,0,1,.86,5.91,19.43,19.43,0,0,1-.5,4.77A17.52,17.52,0,0,1,724.8,195a14.65,14.65,0,0,1-1.57,2.71,28.64,28.64,0,0,0,7.48-3.21,41,41,0,0,0,5.63-4.06,39,39,0,0,0,4.56-5.12,2.7,2.7,0,0,1,.71-1,5,5,0,0,1,.85-.64,2.36,2.36,0,0,1,1.28-.36,3,3,0,0,1,2.07.86,2.62,2.62,0,0,1,.93,2,2.73,2.73,0,0,1-.22,1.07c-.14.33-.31.69-.5,1.07S745.64,189.08,745.45,189.55Zm-40.17-21.94q-3,4.56-5.27,8.26-2,3.28-3.64,6.13a11.55,11.55,0,0,0-1.63,3.56,49.34,49.34,0,0,0,.35,6.05,22.59,22.59,0,0,0,1.21,5.2,10.65,10.65,0,0,0,2.14,3.64,4.34,4.34,0,0,0,3.28,1.35c2.18,0,4.06-1.18,5.62-3.56a14.89,14.89,0,0,0,2.35-8.41,24.27,24.27,0,0,0-.71-5.69q-.71-3-1.49-5.92c-.53-1.94-1-3.84-1.5-5.7A19.81,19.81,0,0,1,705.28,167.61Z"/><path class="cls-2" d="M746.17,195.11a11.19,11.19,0,0,1,2.77.35,13.3,13.3,0,0,0,3.35.36,17,17,0,0,0,12.54-5.34,50.93,50.93,0,0,0,9.26-13.54,114.6,114.6,0,0,0,6.84-17.88q2.85-9.69,5.27-18.38a46.43,46.43,0,0,1,5-12.68,39.84,39.84,0,0,1,5.27-7,13,13,0,0,1,6-3.42,46.8,46.8,0,0,0-10.33-3.34,69.11,69.11,0,0,0-15.6-1.64q-6.4,0-10.47,2.92a9.23,9.23,0,0,0-4.06,7.91,12.56,12.56,0,0,0,1.07,5.48,15.49,15.49,0,0,0,2.42,3.7c.9,1,1.71,1.83,2.42,2.5a2.68,2.68,0,0,1,1.07,1.71c0,1.8-1,2.7-3,2.7a19.6,19.6,0,0,1-6.48-1.28,26.13,26.13,0,0,1-6.91-3.7,23.8,23.8,0,0,1-5.56-5.77,13.21,13.21,0,0,1-2.28-7.62,14.12,14.12,0,0,1,2.85-9.12,21.24,21.24,0,0,1,7-5.7,32.25,32.25,0,0,1,9.12-3,53.13,53.13,0,0,1,9-.86,103,103,0,0,1,12.82.72q5.7.7,11.54,1.63t12.54,1.64a150.43,150.43,0,0,0,15.81.71,43,43,0,0,0,8.83-.71,22,22,0,0,0,5.13-1.64,18.12,18.12,0,0,0,2.78-1.63,2.81,2.81,0,0,1,1.64-.72,2.9,2.9,0,0,1,2.13.86,2.73,2.73,0,0,1,.86,2c0,.67-.55,1.9-1.64,3.71a29.11,29.11,0,0,1-4.42,5.48,36.31,36.31,0,0,1-6.26,5,13.56,13.56,0,0,1-7.34,2.21,53.69,53.69,0,0,1-6.41-.36c-2-.24-3.75-.5-5.27-.78q-2.56-.57-4.85-1.29a5.44,5.44,0,0,0-1.42,1.29,15.77,15.77,0,0,0-2,3.49,59.47,59.47,0,0,0-2.49,6.84q-1.35,4.33-2.78,11.18-1.28,5.7-2.49,12.75t-3,14.25a127.45,127.45,0,0,1-4.35,14,53.43,53.43,0,0,1-6.34,12.18,29.91,29.91,0,0,1-9.12,8.55,24.08,24.08,0,0,1-12.6,3.2,34,34,0,0,1-8-.92,30.36,30.36,0,0,1-6.56-2.35,16,16,0,0,1-4.34-3.07,4.54,4.54,0,0,1-1.57-2.92,2.37,2.37,0,0,1,2.57-2.7Z"/><path class="cls-2" d="M879.66,189.55a50,50,0,0,1-7,8.83,40.75,40.75,0,0,1-7.77,6,18.6,18.6,0,0,1-9.76,2.7A16.49,16.49,0,0,1,845,204q-4.14-3.06-4.85-9a37.35,37.35,0,0,1-6.12,6.13,39,39,0,0,1-6.41,4.13,16.51,16.51,0,0,1-7.7,1.85,14.27,14.27,0,0,1-5.48-1.07,13,13,0,0,1-4.56-3.06,15,15,0,0,1-3.06-4.7,15.25,15.25,0,0,1-1.14-6A42,42,0,0,1,808.64,177a53.2,53.2,0,0,1,7.62-13.6,41.51,41.51,0,0,1,10.54-9.76,21.83,21.83,0,0,1,19-2.64,21.42,21.42,0,0,1,4.84,2.35,16.08,16.08,0,0,1,3.42,3.28,16.94,16.94,0,0,1,3.35.36,11.69,11.69,0,0,1,3.28,1.14,7.68,7.68,0,0,1,2.49,2.06,5,5,0,0,1,1,3.14,17.53,17.53,0,0,1-1.29,5.12q-1.27,3.57-2.84,7.91t-2.85,9a31,31,0,0,0-1.29,8.19,4,4,0,0,0,1.07,2.85,3.81,3.81,0,0,0,2.92,1.14,10.09,10.09,0,0,0,5.63-1.85,25.31,25.31,0,0,0,4.92-4.28,31.88,31.88,0,0,0,4.7-6.12,2.7,2.7,0,0,1,.71-1,5,5,0,0,1,.85-.64,2.36,2.36,0,0,1,1.29-.36,3,3,0,0,1,2.06.86,2.62,2.62,0,0,1,.93,2,2.56,2.56,0,0,1-.22,1.07c-.14.33-.3.69-.49,1.07S879.85,189.08,879.66,189.55ZM846.6,164.33a6.32,6.32,0,0,0-1.49-4.63,5,5,0,0,0-3.64-1.49c-2.09,0-4.22,1.09-6.41,3.27a36.07,36.07,0,0,0-5.91,8.05,54.54,54.54,0,0,0-4.34,10.33,34.35,34.35,0,0,0-1.71,10c0,4.28,1.37,6.42,4.13,6.42q2.57,0,5.91-3.42a44.93,44.93,0,0,0,6.34-8.41A64.78,64.78,0,0,0,844.54,174,28,28,0,0,0,846.6,164.33Z"/><path class="cls-2" d="M937.92,189.55a35.74,35.74,0,0,1-9.26,9.26,51.35,51.35,0,0,1-12.46,6.41q-7.62,2.85-18.59,2.85a24.51,24.51,0,0,1-10-2.07,30.44,30.44,0,0,1-8.19-5.2,26.47,26.47,0,0,1-5.56-6.83,14.29,14.29,0,0,1-2.06-6.84,7.13,7.13,0,0,1,2.14-5.27,21.23,21.23,0,0,1,4.7-3.57,32.38,32.38,0,0,1,6.84-2.56c.57-.95,1.32-2.14,2.27-3.56.76-1.23,1.76-2.78,3-4.63s2.65-4.06,4.27-6.63q5-7.54,8.55-10.47c2.37-1.94,4.46-2.92,6.27-2.92a5.1,5.1,0,0,1,2.35.64,15,15,0,0,1,2.28,1.5,9.85,9.85,0,0,1,1.71,1.71,2.64,2.64,0,0,1,.64,1.42,4,4,0,0,1-.57,1.78l-1.21,2.28a20.62,20.62,0,0,0-1.14,2.57,7.81,7.81,0,0,0-.5,2.78,28.26,28.26,0,0,0,.85,7.4,60.43,60.43,0,0,0,1.93,5.92q1.06,2.78,1.92,5.41a19.12,19.12,0,0,1,.86,5.91,19.43,19.43,0,0,1-.5,4.77,17.52,17.52,0,0,1-1.21,3.35,14.65,14.65,0,0,1-1.57,2.71,28.64,28.64,0,0,0,7.48-3.21,41,41,0,0,0,5.63-4.06,38.9,38.9,0,0,0,4.55-5.12,2.87,2.87,0,0,1,.72-1,5,5,0,0,1,.85-.64,2.36,2.36,0,0,1,1.28-.36,3,3,0,0,1,2.07.86,2.62,2.62,0,0,1,.93,2,2.73,2.73,0,0,1-.22,1.07c-.14.33-.31.69-.5,1.07S938.11,189.08,937.92,189.55Zm-40.17-21.94q-3,4.56-5.27,8.26c-1.33,2.19-2.55,4.23-3.64,6.13a11.55,11.55,0,0,0-1.63,3.56,49.34,49.34,0,0,0,.35,6.05,22.59,22.59,0,0,0,1.21,5.2,10.5,10.5,0,0,0,2.14,3.64,4.32,4.32,0,0,0,3.28,1.35c2.18,0,4.06-1.18,5.62-3.56a14.89,14.89,0,0,0,2.35-8.41,24.27,24.27,0,0,0-.71-5.69q-.71-3-1.49-5.92t-1.5-5.7A19.81,19.81,0,0,1,897.75,167.61Z"/><path class="cls-2" d="M956.87,197.53a10.09,10.09,0,0,0,5.63-1.85,25,25,0,0,0,4.91-4.28,31.49,31.49,0,0,0,4.7-6.12,2.87,2.87,0,0,1,.72-1,5,5,0,0,1,.85-.64,2.36,2.36,0,0,1,1.28-.36,3,3,0,0,1,2.07.86,2.62,2.62,0,0,1,.93,2,2.73,2.73,0,0,1-.22,1.07c-.14.33-.31.69-.5,1.07s-.38.81-.57,1.28a49.59,49.59,0,0,1-7,8.83,40.36,40.36,0,0,1-7.76,6,18.6,18.6,0,0,1-9.76,2.7,22.5,22.5,0,0,1-13.46-4.7,20.18,20.18,0,0,1-4.85-5.41,12.85,12.85,0,0,1-1.92-6.84,47.19,47.19,0,0,1,.71-7.34c.48-2.89,1.14-6.05,2-9.47s1.82-7,2.92-10.83,2.25-7.55,3.49-11.25h-3.85q-1.14,0-1.14-1.29a6,6,0,0,1,1.35-3.06,3.73,3.73,0,0,1,2.92-1.92h2.85q2.14-5.85,4.21-10.76a71.65,71.65,0,0,1,4.06-8.33,5.73,5.73,0,0,1,1.56-1.93,3.62,3.62,0,0,1,2.28-.78,7.62,7.62,0,0,1,3.49,1,22.16,22.16,0,0,1,3.64,2.35,17.57,17.57,0,0,1,2.85,2.78,4.2,4.2,0,0,1,1.14,2.42,17.81,17.81,0,0,1-1.36,4.49c-.9,2.32-2,5.25-3.35,8.76h9.55c.76,0,1.14.43,1.14,1.28a3.24,3.24,0,0,1-.43,1.42,8.38,8.38,0,0,1-1.07,1.64,8.69,8.69,0,0,1-1.35,1.36,2.29,2.29,0,0,1-1.42.57h-8.84q-1.71,4.7-3.49,10t-3.2,10.4q-1.43,5.13-2.35,9.9a45.43,45.43,0,0,0-.93,8.62,6.93,6.93,0,0,0,2.21,5.34A7.52,7.52,0,0,0,956.87,197.53Z"/><path class="cls-2" d="M1001.18,197.81A17.83,17.83,0,0,0,1007,197a19.81,19.81,0,0,0,7.33-4.35c.86-.8,1.52-1.44,2-1.92l1-1,1-.64a2.21,2.21,0,0,1,1.14-.36,2.9,2.9,0,0,1,2.14.86,2.73,2.73,0,0,1,.85,2,1.82,1.82,0,0,1-.35,1.07,8.18,8.18,0,0,0-.64,1.07c-.29.38-.57.81-.86,1.28a34,34,0,0,1-6.69,6.13,40.89,40.89,0,0,1-7.77,4.13,27,27,0,0,1-10.33,1.85,30.61,30.61,0,0,1-10-1.56,24.29,24.29,0,0,1-7.84-4.35,19.91,19.91,0,0,1-5.12-6.62,19.09,19.09,0,0,1-1.86-8.41,36,36,0,0,1,3-14.82,40.21,40.21,0,0,1,7.56-11.46,33.91,33.91,0,0,1,9.9-7.34,23.31,23.31,0,0,1,10-2.57,14.71,14.71,0,0,1,6.13,1.29,17.27,17.27,0,0,1,5,3.34,15.19,15.19,0,0,1,3.35,4.78,13.39,13.39,0,0,1,1.21,5.55,22.41,22.41,0,0,1-4.91,13.11,22.11,22.11,0,0,1-7.13,5.63A24,24,0,0,1,993.91,186a13.27,13.27,0,0,1-3.28-.43,20.1,20.1,0,0,1-2.13-.43q0,6.42,3.77,9.55A13.52,13.52,0,0,0,1001.18,197.81Zm-12-18.52a13.41,13.41,0,0,0,7.26-2.14,24,24,0,0,0,5.92-5.19,27.61,27.61,0,0,0,3.91-6.34,14.54,14.54,0,0,0,1.43-5.56c0-1.9-.86-2.85-2.56-2.85a9,9,0,0,0-5.85,2.42,26.38,26.38,0,0,0-5.05,5.84,36.61,36.61,0,0,0-3.64,7.27A19.44,19.44,0,0,0,989.21,179.29Z"/><path class="cls-1" d="M348.94,203.2a51.51,51.51,0,0,1-12-1.43,33.58,33.58,0,0,1-10.76-4.56,25.83,25.83,0,0,1-7.83-8.05,21.68,21.68,0,0,1-3.07-11.75,26.84,26.84,0,0,1,2.14-11,36.14,36.14,0,0,1,5.34-8.69,37.63,37.63,0,0,1,7-6.55,77.55,77.55,0,0,1,7.05-4.56,46.29,46.29,0,0,1,5.63-2.78c1.57-.62,2.5-1,2.78-1.07a9.62,9.62,0,0,1-1.57-.78,15.25,15.25,0,0,1-3.13-2.43,20.93,20.93,0,0,1-3.28-4.2,16.74,16.74,0,0,1-2.13-6.27q-10.83-1-16.17-4.27t-5.35-8.41a13.34,13.34,0,0,1,2.07-7,28.88,28.88,0,0,1,4.91-6.12,31.72,31.72,0,0,1,5.77-4.42,10.09,10.09,0,0,1,4.49-1.71,1.1,1.1,0,0,1,1,.43,1.51,1.51,0,0,1,.28.85,5.6,5.6,0,0,1-1.28,2.5,7.26,7.26,0,0,0-1.28,4.34,11,11,0,0,0,2,6.34,18.89,18.89,0,0,0,5.56,5.2,29.79,29.79,0,0,1,6.48-8.26,48,48,0,0,1,9.4-6.7,49.42,49.42,0,0,1,11.05-4.41,43.62,43.62,0,0,1,11.39-1.57,27.25,27.25,0,0,1,7.2.92,20.66,20.66,0,0,1,5.84,2.57,12.53,12.53,0,0,1,3.92,4,9.93,9.93,0,0,1,1.42,5.2,11,11,0,0,1-2.85,7.12,26.25,26.25,0,0,1-8.19,6.2,60.33,60.33,0,0,1-12.89,4.7,90.77,90.77,0,0,1-17,2.49,23.25,23.25,0,0,0,.64,4.35,17.32,17.32,0,0,0,1.22,3.35,29.12,29.12,0,0,0,1.56,3c.76-.09,1.66-.24,2.71-.43.85-.09,1.87-.19,3.06-.28s2.54-.15,4.06-.15q8.42,0,8.41,5,0,2.13-2.49,4.35a9.67,9.67,0,0,1-6.63,2.2,28.38,28.38,0,0,1-4.7-.35,21.32,21.32,0,0,1-3.71-.93,16,16,0,0,1-3.13-1.42,45.23,45.23,0,0,0-9.4,7.4,41.29,41.29,0,0,0-6.48,9.12A26.29,26.29,0,0,0,335.13,177q0,9,4.84,13.32t13.82,4.35a27,27,0,0,0,14.53-4.28A38,38,0,0,0,380,178.69a2.86,2.86,0,0,1,.71-1,5.78,5.78,0,0,1,.86-.64,2.41,2.41,0,0,1,1.28-.35,2.89,2.89,0,0,1,2.14.85,2.74,2.74,0,0,1,.85,2,6.42,6.42,0,0,1-.57,2.13l-.57,1.14a42.49,42.49,0,0,1-5.7,7.48,40.72,40.72,0,0,1-7.9,6.49,43.29,43.29,0,0,1-10.05,4.63A39.68,39.68,0,0,1,348.94,203.2ZM375,102a16.35,16.35,0,0,0-6.56,1.43,23.65,23.65,0,0,0-6.12,3.92,28.34,28.34,0,0,0-5.13,6,27,27,0,0,0-3.42,7.62,60.54,60.54,0,0,0,11.32-1,37.2,37.2,0,0,0,9.05-2.85,17.49,17.49,0,0,0,6-4.42,8.67,8.67,0,0,0,2.14-5.7,4.11,4.11,0,0,0-2.14-3.63A9.38,9.38,0,0,0,375,102Z"/><path class="cls-1" d="M397,159.32a104.48,104.48,0,0,1-6.76,14.6q-3.35,5.78-5.63,9.05a13.3,13.3,0,0,1-1.07,1.28,2.66,2.66,0,0,1-2.06.85,3.17,3.17,0,0,1-3-3,3.33,3.33,0,0,1,.65-1.92,14.36,14.36,0,0,0,.92-1.5q2-2.85,5.63-9a79.24,79.24,0,0,0,6.77-16.32A9.79,9.79,0,0,1,395,149.2a19.7,19.7,0,0,1,4.28-3.13,23,23,0,0,1,4.91-2,17.89,17.89,0,0,1,4.7-.71q5.26,0,7.27,5.41T418.75,167a34.51,34.51,0,0,0,5.34-9.55,24,24,0,0,0,1.64-6.69c0-.86.64-1.73,1.93-2.64a24.87,24.87,0,0,1,4.34-2.42,35.9,35.9,0,0,1,4.7-1.71,14.41,14.41,0,0,1,3-.64c1.81,0,2.71.86,2.71,2.56q0,1.44-2.06,5a69.86,69.86,0,0,1-5.42,7.84q-3.35,4.27-7.48,8.62a63.58,63.58,0,0,1-8.4,7.48q.57,8.4,3.2,12.25a8.29,8.29,0,0,0,7.2,3.84,10,10,0,0,0,5.62-1.85,25,25,0,0,0,4.92-4.27,31.27,31.27,0,0,0,4.7-6.13,2.86,2.86,0,0,1,.71-1,5.78,5.78,0,0,1,.86-.64,2.41,2.41,0,0,1,1.28-.35,3,3,0,0,1,2.07.85,2.67,2.67,0,0,1,.92,2,2.76,2.76,0,0,1-.21,1.07c-.14.33-.31.69-.5,1.06s-.38.81-.57,1.29a50.78,50.78,0,0,1-7,8.83,40.41,40.41,0,0,1-7.77,6,18.48,18.48,0,0,1-9.75,2.71,25.3,25.3,0,0,1-13.18-3.35q-5.64-3.34-7.91-11.47-2.43,2.43-5.34,5t-5.84,4.77a40.13,40.13,0,0,1-5.63,3.63,10.48,10.48,0,0,1-4.7,1.43,1.73,1.73,0,0,1-2-2.14,8.47,8.47,0,0,1,.64-2.7,22,22,0,0,1,1.71-3.5,25.93,25.93,0,0,1,2.28-3.2,4.85,4.85,0,0,1,2.35-1.71,25.11,25.11,0,0,0,7.91-3.42q4.07-2.56,7.34-5.13-.72-6-1.14-10c-.29-2.66-.52-4.82-.71-6.48a15.39,15.39,0,0,0-.72-3.56c-.28-.72-.66-1.07-1.14-1.07Q397.67,157.61,397,159.32Z"/><path class="cls-1" d="M515.49,183a23.62,23.62,0,0,1-6.13,6.12,32.33,32.33,0,0,1-7.76,4.28,29.41,29.41,0,0,1-10.9,1.85c-.67,0-1.38,0-2.14-.07s-1.52-.12-2.28-.22a27.84,27.84,0,0,1-7.12,4.06,22.17,22.17,0,0,1-8.12,1.5,16.1,16.1,0,0,1-6.06-1.07,19.06,19.06,0,0,1-4.49-2.49,17.13,17.13,0,0,1-3.7-3.71,70.14,70.14,0,0,0-2.64,8.34q-1.35,5.19-2.49,11t-1.85,11.54a79.72,79.72,0,0,0-.71,9.83c0,2.09-.91,3.13-2.71,3.13a19.55,19.55,0,0,1-4.27-.5,14.12,14.12,0,0,1-4.21-1.63,9.69,9.69,0,0,1-3.2-3.14,8.71,8.71,0,0,1-1.28-4.84,50.7,50.7,0,0,1,1-8.05q1-5.49,2.57-12.61t3.7-15.31q2.15-8.21,4.35-16.25t4.41-15.17q2.21-7.12,4.06-12.11a4,4,0,0,1,4-2.71,9.44,9.44,0,0,1,4.06,1.29q2.49,1.27,5.77,6.41a54.31,54.31,0,0,1,6.13-4.56,46.91,46.91,0,0,1,5.91-3.14,16,16,0,0,1,6.48-1.42,14.85,14.85,0,0,1,7,1.64,18,18,0,0,1,5.35,4.2,20.85,20.85,0,0,1,3.49,5.7,16.54,16.54,0,0,1,1.28,6.27,40.33,40.33,0,0,1-2.64,13.39,49.29,49.29,0,0,1-7.48,13.68,4.6,4.6,0,0,0,1.29.14,14.72,14.72,0,0,0,6.69-1.5,28.28,28.28,0,0,0,5.27-3.34,39,39,0,0,0,4.85-4.85,2.86,2.86,0,0,1,.71-1,5.6,5.6,0,0,1,.85-.64,2.45,2.45,0,0,1,1.29-.35,3,3,0,0,1,2.06.85,2.64,2.64,0,0,1,.93,2,2.6,2.6,0,0,1-.22,1.07c-.14.33-.31.69-.49,1.06A11.28,11.28,0,0,0,515.49,183Zm-55-1.29a14,14,0,0,0,2.14,7.55,6.48,6.48,0,0,0,5.7,3.42,7.26,7.26,0,0,0,4.7-2.13,3.39,3.39,0,0,1-.71-2,4.35,4.35,0,0,1,.78-2.35A12.13,12.13,0,0,1,475,184a14.14,14.14,0,0,1,2.28-1.71,4.35,4.35,0,0,1,2.07-.71,60.16,60.16,0,0,0,2.56-5.91c.76-2,1.4-4,1.93-6s.92-3.76,1.21-5.42a26.13,26.13,0,0,0,.43-4.2q0-3.85-1.22-5.41a4.27,4.27,0,0,0-3.63-1.57q-2.85,0-6.27,3.06a44.84,44.84,0,0,0-6.55,7.48,49.15,49.15,0,0,0-5.2,9.33A23,23,0,0,0,460.49,181.68Z"/><path class="cls-1" d="M547,186a5,5,0,0,0,1.28,3.7,4.62,4.62,0,0,0,3.42,1.28,10,10,0,0,0,5.63-1.85,24.91,24.91,0,0,0,4.91-4.27,31.69,31.69,0,0,0,4.71-6.13,2.86,2.86,0,0,1,.71-1,5.6,5.6,0,0,1,.85-.64,2.44,2.44,0,0,1,1.28-.35,3,3,0,0,1,2.07.85,2.64,2.64,0,0,1,.93,2,2.6,2.6,0,0,1-.22,1.07c-.14.33-.31.69-.5,1.06s-.38.81-.57,1.29a50.31,50.31,0,0,1-7,8.83,40.33,40.33,0,0,1-7.76,6,18.51,18.51,0,0,1-9.76,2.71,22.48,22.48,0,0,1-7.41-1.14,19.42,19.42,0,0,1-5.7-3.06,13.37,13.37,0,0,1-3.7-4.49,12.18,12.18,0,0,1-1.28-5.56,26.93,26.93,0,0,1,1.42-8.83,72.19,72.19,0,0,1,3.06-7.55q1.65-3.42,3.07-6.06a9.68,9.68,0,0,0,1.42-4.34,1.85,1.85,0,0,0-1.35-1.71,24.34,24.34,0,0,0-2.92-1,41.43,41.43,0,0,0-4.28-.71,145.25,145.25,0,0,1-7.83,17q-3.71,6.63-6,9.91a15,15,0,0,1-1.07,1.28,2.68,2.68,0,0,1-2.07.85,2.82,2.82,0,0,1-2.06-.92,2.87,2.87,0,0,1-.93-2.07,3.32,3.32,0,0,1,.64-1.92,13.15,13.15,0,0,0,.93-1.5q2-2.85,5.62-9a78.69,78.69,0,0,0,6.77-16.32,8.73,8.73,0,0,1-2.42-2.56,15.47,15.47,0,0,1-1.57-3.28,14.08,14.08,0,0,1-.71-4.7,10.71,10.71,0,0,1,.78-4.06,11.25,11.25,0,0,1,2.07-3.35,11.82,11.82,0,0,1,2.71-2.28,5.24,5.24,0,0,1,2.7-.85,6.7,6.7,0,0,1,3,.78,14.39,14.39,0,0,1,2.85,1.85,10.25,10.25,0,0,1,2.14,2.43,4.59,4.59,0,0,1,.86,2.35,10.46,10.46,0,0,1-.93,4.7,7.91,7.91,0,0,0-.93,3.56,2.39,2.39,0,0,0,1.71,2.28,11.1,11.1,0,0,0,4.28.71,24.41,24.41,0,0,0,4.06-.28c1.09-.19,2.06-.41,2.92-.65l2.42-.64a10,10,0,0,1,2.42-.28,5.18,5.18,0,0,1,4.2,2,7.38,7.38,0,0,1,1.64,4.85,13.5,13.5,0,0,1-1.64,5.77c-1.09,2.23-2.3,4.68-3.63,7.33a87.36,87.36,0,0,0-3.63,8.34A24.37,24.37,0,0,0,547,186Z"/><path class="cls-1" d="M622.33,183a36.63,36.63,0,0,1-7.83,8.83,45.21,45.21,0,0,1-9.9,6,33.43,33.43,0,0,1-14,2.71,30.34,30.34,0,0,1-10-1.57,23.93,23.93,0,0,1-7.83-4.34,19.85,19.85,0,0,1-5.13-6.63,19,19,0,0,1-1.86-8.4,35.85,35.85,0,0,1,3-14.82,40.17,40.17,0,0,1,7.55-11.47,34.22,34.22,0,0,1,9.9-7.34,23.43,23.43,0,0,1,10-2.56,14.83,14.83,0,0,1,6.13,1.28,17.5,17.5,0,0,1,5,3.35,15.27,15.27,0,0,1,3.35,4.77,13.46,13.46,0,0,1,1.21,5.56A22.41,22.41,0,0,1,607,171.43a22.08,22.08,0,0,1-7.13,5.62,23.88,23.88,0,0,1-11.18,2.35,13.79,13.79,0,0,1-3.28-.42c-.66-.1-1.37-.24-2.13-.43q0,6.4,3.7,9.83a12.58,12.58,0,0,0,8.83,3.42,20,20,0,0,0,9.12-2.07,34.43,34.43,0,0,0,7-4.48,29.4,29.4,0,0,0,5.84-6.56,3.06,3.06,0,0,1,.72-1,5.6,5.6,0,0,1,.85-.64,2.44,2.44,0,0,1,1.28-.35,3,3,0,0,1,2.07.85,2.64,2.64,0,0,1,.93,2,2.77,2.77,0,0,1-.22,1.07c-.14.33-.31.69-.5,1.06S622.52,182.49,622.33,183ZM584,172.71a13.46,13.46,0,0,0,7.27-2.14,23.57,23.57,0,0,0,5.91-5.2,27.24,27.24,0,0,0,3.92-6.34,14.6,14.6,0,0,0,1.42-5.55c0-1.9-.85-2.85-2.56-2.85a8.91,8.91,0,0,0-5.84,2.42,25.94,25.94,0,0,0-5.06,5.84,36.8,36.8,0,0,0-3.64,7.26A19.54,19.54,0,0,0,584,172.71Z"/><path class="cls-1" d="M680.6,183a35.74,35.74,0,0,1-9.26,9.26,51.7,51.7,0,0,1-12.46,6.41q-7.64,2.85-18.6,2.85a24.5,24.5,0,0,1-10-2.07,30.44,30.44,0,0,1-8.19-5.2,26.68,26.68,0,0,1-5.56-6.84,14.29,14.29,0,0,1-2.06-6.84,7.2,7.2,0,0,1,2.13-5.27,21.47,21.47,0,0,1,4.71-3.56,32,32,0,0,1,6.83-2.56q.86-1.43,2.28-3.57,1.14-1.85,3-4.63t4.27-6.62q5-7.54,8.55-10.47t6.27-2.92a5,5,0,0,1,2.35.64,15.46,15.46,0,0,1,2.28,1.5,10.18,10.18,0,0,1,1.71,1.7,2.66,2.66,0,0,1,.64,1.43A4,4,0,0,1,659,148c-.38.71-.79,1.47-1.21,2.28a20.48,20.48,0,0,0-1.14,2.56,7.85,7.85,0,0,0-.5,2.78A28.39,28.39,0,0,0,657,163a59.36,59.36,0,0,0,1.93,5.91c.71,1.86,1.35,3.66,1.92,5.42a21.83,21.83,0,0,1,.35,10.68,16.7,16.7,0,0,1-1.21,3.35,14.1,14.1,0,0,1-1.56,2.71,28.78,28.78,0,0,0,7.48-3.21,41.69,41.69,0,0,0,5.62-4.06,37.74,37.74,0,0,0,4.56-5.13,3,3,0,0,1,.71-1,5.78,5.78,0,0,1,.86-.64,2.44,2.44,0,0,1,1.28-.35,3,3,0,0,1,2.07.85,2.67,2.67,0,0,1,.92,2,2.76,2.76,0,0,1-.21,1.07c-.14.33-.31.69-.5,1.06S680.79,182.49,680.6,183ZM640.43,161q-3,4.56-5.28,8.26-2,3.28-3.63,6.13a11.59,11.59,0,0,0-1.64,3.56,49.31,49.31,0,0,0,.36,6.05,22.71,22.71,0,0,0,1.21,5.2,10.54,10.54,0,0,0,2.14,3.63,4.27,4.27,0,0,0,3.27,1.36c2.19,0,4.06-1.19,5.63-3.56a14.91,14.91,0,0,0,2.35-8.41,25,25,0,0,0-.71-5.7c-.48-2-1-4-1.5-5.91s-1-3.85-1.49-5.7A19.81,19.81,0,0,1,640.43,161Z"/><path class="cls-1" d="M738.87,183a35.9,35.9,0,0,1-9.26,9.26,51.79,51.79,0,0,1-12.47,6.41q-7.62,2.85-18.59,2.85a24.46,24.46,0,0,1-10-2.07,30.13,30.13,0,0,1-8.19-5.2,26.68,26.68,0,0,1-5.56-6.84,14.29,14.29,0,0,1-2.06-6.84,7.2,7.2,0,0,1,2.13-5.27,21.41,21.41,0,0,1,4.7-3.56,32.25,32.25,0,0,1,6.84-2.56q.85-1.43,2.28-3.57,1.14-1.85,3-4.63c1.24-1.85,2.66-4.06,4.28-6.62q5-7.54,8.55-10.47t6.26-2.92a5,5,0,0,1,2.35.64,14.47,14.47,0,0,1,2.28,1.5,9.48,9.48,0,0,1,1.71,1.7,2.59,2.59,0,0,1,.64,1.43,4,4,0,0,1-.57,1.78L716,150.27a23.88,23.88,0,0,0-1.14,2.56,8.06,8.06,0,0,0-.49,2.78,28.39,28.39,0,0,0,.85,7.41,62.1,62.1,0,0,0,1.92,5.91c.72,1.86,1.36,3.66,1.93,5.42a19.13,19.13,0,0,1,.85,5.91,19.43,19.43,0,0,1-.5,4.77,16.7,16.7,0,0,1-1.21,3.35,14.64,14.64,0,0,1-1.56,2.71,28.57,28.57,0,0,0,7.47-3.21,41.21,41.21,0,0,0,5.63-4.06,37.74,37.74,0,0,0,4.56-5.13,2.86,2.86,0,0,1,.71-1,5.78,5.78,0,0,1,.86-.64,2.41,2.41,0,0,1,1.28-.35,3,3,0,0,1,2.07.85,2.67,2.67,0,0,1,.92,2,2.76,2.76,0,0,1-.21,1.07c-.14.33-.31.69-.5,1.06S739.06,182.49,738.87,183ZM698.69,161q-3,4.56-5.27,8.26-2,3.28-3.63,6.13a11.59,11.59,0,0,0-1.64,3.56,49.31,49.31,0,0,0,.36,6.05,22.2,22.2,0,0,0,1.21,5.2,10.54,10.54,0,0,0,2.14,3.63,4.27,4.27,0,0,0,3.27,1.36c2.19,0,4.06-1.19,5.63-3.56a14.91,14.91,0,0,0,2.35-8.41,25,25,0,0,0-.71-5.7q-.72-3-1.5-5.91t-1.49-5.7A19.87,19.87,0,0,1,698.69,161Z"/><path class="cls-1" d="M739.58,188.52a10.76,10.76,0,0,1,2.78.36,13.29,13.29,0,0,0,3.35.35,17,17,0,0,0,12.53-5.34,50.49,50.49,0,0,0,9.27-13.53,115.6,115.6,0,0,0,6.83-17.88q2.85-9.69,5.27-18.38a47.08,47.08,0,0,1,5-12.68,40.46,40.46,0,0,1,5.27-7,13,13,0,0,1,6-3.42,47.25,47.25,0,0,0-10.33-3.35,69.11,69.11,0,0,0-15.6-1.64A17.53,17.53,0,0,0,759.46,109a9.25,9.25,0,0,0-4.06,7.91,12.59,12.59,0,0,0,1.06,5.49,15.71,15.71,0,0,0,2.43,3.7c.9,1,1.71,1.83,2.42,2.49a2.72,2.72,0,0,1,1.07,1.71c0,1.81-1,2.71-3,2.71a19.86,19.86,0,0,1-6.48-1.28A26.48,26.48,0,0,1,746,128a23.41,23.41,0,0,1-5.55-5.77,13.21,13.21,0,0,1-2.28-7.62,14.16,14.16,0,0,1,2.85-9.12,21.22,21.22,0,0,1,7-5.69,32,32,0,0,1,9.12-3,53,53,0,0,1,9-.85,105,105,0,0,1,12.82.71q5.7.72,11.54,1.64t12.54,1.64a153.54,153.54,0,0,0,15.82.71,43.8,43.8,0,0,0,8.83-.71,22.8,22.8,0,0,0,5.13-1.64,18,18,0,0,0,2.78-1.64,2.83,2.83,0,0,1,1.63-.71,2.89,2.89,0,0,1,2.14.85,2.75,2.75,0,0,1,.86,2,9.56,9.56,0,0,1-1.64,3.7,29.64,29.64,0,0,1-4.42,5.49,36,36,0,0,1-6.27,5,13.44,13.44,0,0,1-7.33,2.21,56.26,56.26,0,0,1-6.42-.35q-3-.36-5.27-.79c-1.71-.38-3.32-.8-4.84-1.28a5.36,5.36,0,0,0-1.43,1.28,16.08,16.08,0,0,0-2,3.49,60.92,60.92,0,0,0-2.49,6.84q-1.37,4.35-2.78,11.18-1.29,5.7-2.49,12.76t-3,14.24a124,124,0,0,1-4.34,14,54.12,54.12,0,0,1-6.34,12.19,30,30,0,0,1-9.12,8.54,24,24,0,0,1-12.61,3.21,33.58,33.58,0,0,1-8-.93,29.75,29.75,0,0,1-6.55-2.35,16.41,16.41,0,0,1-4.35-3.06,4.59,4.59,0,0,1-1.56-2.92,2.65,2.65,0,0,1,.71-2.07A2.68,2.68,0,0,1,739.58,188.52Z"/><path class="cls-1" d="M873.07,183a50.31,50.31,0,0,1-7,8.83,40.64,40.64,0,0,1-7.76,6,18.54,18.54,0,0,1-9.76,2.71,16.55,16.55,0,0,1-10.12-3.06,12.53,12.53,0,0,1-4.84-9.05,37.4,37.4,0,0,1-6.13,6.13,39.63,39.63,0,0,1-6.41,4.13,16.47,16.47,0,0,1-7.69,1.85,14.55,14.55,0,0,1-5.49-1.07,13.18,13.18,0,0,1-4.56-3.06,15.14,15.14,0,0,1-4.2-10.69,42.07,42.07,0,0,1,2.92-15.24,53.87,53.87,0,0,1,7.62-13.61,41.91,41.91,0,0,1,10.55-9.76,21.84,21.84,0,0,1,18.94-2.63,20.69,20.69,0,0,1,4.85,2.35,16.58,16.58,0,0,1,3.42,3.28,17.75,17.75,0,0,1,3.35.35,12.28,12.28,0,0,1,3.27,1.14,7.52,7.52,0,0,1,2.5,2.07,5,5,0,0,1,1,3.13,17.4,17.4,0,0,1-1.28,5.13c-.85,2.38-1.8,5-2.85,7.91s-2,5.89-2.85,9a31.39,31.39,0,0,0-1.28,8.19,4,4,0,0,0,1.07,2.85,3.76,3.76,0,0,0,2.92,1.14,10,10,0,0,0,5.63-1.85,24.91,24.91,0,0,0,4.91-4.27,31.27,31.27,0,0,0,4.7-6.13,2.92,2.92,0,0,1,.72-1,5.13,5.13,0,0,1,.85-.64,2.44,2.44,0,0,1,1.28-.35,3,3,0,0,1,2.07.85,2.67,2.67,0,0,1,.92,2,2.76,2.76,0,0,1-.21,1.07c-.14.33-.31.69-.5,1.06S873.26,182.49,873.07,183ZM840,157.75a6.3,6.3,0,0,0-1.5-4.63,4.91,4.91,0,0,0-3.63-1.5c-2.09,0-4.23,1.1-6.41,3.28a35.46,35.46,0,0,0-5.91,8,54,54,0,0,0-4.35,10.33,34.3,34.3,0,0,0-1.71,10q0,6.41,4.13,6.41,2.57,0,5.92-3.42a45.61,45.61,0,0,0,6.34-8.4A64.71,64.71,0,0,0,838,167.37,27.83,27.83,0,0,0,840,157.75Z"/><path class="cls-1" d="M931.34,183a35.9,35.9,0,0,1-9.26,9.26,51.79,51.79,0,0,1-12.47,6.41Q902,201.49,891,201.49a24.46,24.46,0,0,1-10-2.07,30.13,30.13,0,0,1-8.19-5.2,26.68,26.68,0,0,1-5.56-6.84,14.31,14.31,0,0,1-2.07-6.84,7.2,7.2,0,0,1,2.14-5.27,21.41,21.41,0,0,1,4.7-3.56,32.25,32.25,0,0,1,6.84-2.56q.86-1.43,2.28-3.57,1.14-1.85,3-4.63c1.24-1.85,2.66-4.06,4.28-6.62q5-7.54,8.54-10.47t6.27-2.92a5,5,0,0,1,2.35.64,14.47,14.47,0,0,1,2.28,1.5,9.48,9.48,0,0,1,1.71,1.7,2.59,2.59,0,0,1,.64,1.43,4,4,0,0,1-.57,1.78l-1.21,2.28a23.88,23.88,0,0,0-1.14,2.56,8.08,8.08,0,0,0-.5,2.78,28.36,28.36,0,0,0,.86,7.41,62.1,62.1,0,0,0,1.92,5.91c.72,1.86,1.36,3.66,1.93,5.42a19.13,19.13,0,0,1,.85,5.91,19.43,19.43,0,0,1-.5,4.77,16.7,16.7,0,0,1-1.21,3.35,14.11,14.11,0,0,1-1.57,2.71,28.49,28.49,0,0,0,7.48-3.21,41.85,41.85,0,0,0,5.63-4.06,37.74,37.74,0,0,0,4.56-5.13,2.86,2.86,0,0,1,.71-1,5.78,5.78,0,0,1,.86-.64,2.41,2.41,0,0,1,1.28-.35,3,3,0,0,1,2.07.85,2.67,2.67,0,0,1,.92,2,2.76,2.76,0,0,1-.21,1.07c-.15.33-.31.69-.5,1.06S931.53,182.49,931.34,183ZM891.16,161q-3,4.56-5.27,8.26-2,3.28-3.63,6.13a11.59,11.59,0,0,0-1.64,3.56A49.31,49.31,0,0,0,881,185a22.2,22.2,0,0,0,1.21,5.2,10.54,10.54,0,0,0,2.14,3.63,4.27,4.27,0,0,0,3.27,1.36c2.19,0,4.06-1.19,5.63-3.56a14.91,14.91,0,0,0,2.35-8.41,25,25,0,0,0-.71-5.7q-.72-3-1.5-5.91t-1.49-5.7A19.87,19.87,0,0,1,891.16,161Z"/><path class="cls-1" d="M950.29,190.94a10,10,0,0,0,5.62-1.85,25,25,0,0,0,4.92-4.27,31.27,31.27,0,0,0,4.7-6.13,2.86,2.86,0,0,1,.71-1,5.78,5.78,0,0,1,.86-.64,2.41,2.41,0,0,1,1.28-.35,3,3,0,0,1,2.07.85,2.67,2.67,0,0,1,.92,2,2.76,2.76,0,0,1-.21,1.07c-.14.33-.31.69-.5,1.06s-.38.81-.57,1.29a50.78,50.78,0,0,1-7,8.83,40.41,40.41,0,0,1-7.77,6,18.48,18.48,0,0,1-9.75,2.71,22.5,22.5,0,0,1-13.47-4.7,20.18,20.18,0,0,1-4.84-5.42,12.8,12.8,0,0,1-1.93-6.83,46.16,46.16,0,0,1,.72-7.34c.47-2.9,1.14-6.06,2-9.48s1.83-7,2.92-10.82,2.26-7.55,3.49-11.26h-3.84c-.76,0-1.14-.42-1.14-1.28a6,6,0,0,1,1.35-3.06,3.72,3.72,0,0,1,2.92-1.93h2.85q2.13-5.84,4.2-10.75a72.69,72.69,0,0,1,4.06-8.34,5.52,5.52,0,0,1,1.57-1.92,3.58,3.58,0,0,1,2.28-.78,7.76,7.76,0,0,1,3.49,1,23.21,23.21,0,0,1,3.63,2.35,18,18,0,0,1,2.85,2.78,4.23,4.23,0,0,1,1.14,2.42,17.39,17.39,0,0,1-1.35,4.49q-1.37,3.49-3.35,8.76h9.55c.75,0,1.14.43,1.14,1.29a3.43,3.43,0,0,1-.43,1.42,8.87,8.87,0,0,1-1.07,1.64,9.56,9.56,0,0,1-1.35,1.35,2.29,2.29,0,0,1-1.43.57h-8.83q-1.71,4.71-3.49,10T946,165c-1,3.41-1.73,6.72-2.35,9.9a45.35,45.35,0,0,0-.92,8.62,7,7,0,0,0,2.2,5.34A7.55,7.55,0,0,0,950.29,190.94Z"/><path class="cls-1" d="M994.59,191.23a17.74,17.74,0,0,0,5.77-.86,20.06,20.06,0,0,0,4.28-2,21.16,21.16,0,0,0,3.06-2.35c.85-.81,1.52-1.45,2-1.92l1-1,1-.64a2.12,2.12,0,0,1,1.14-.36,2.9,2.9,0,0,1,2.13.86,2.73,2.73,0,0,1,.86,2,1.79,1.79,0,0,1-.36,1.07,8.65,8.65,0,0,0-.64,1.07c-.28.38-.57.81-.85,1.28a34.33,34.33,0,0,1-6.7,6.13,41.05,41.05,0,0,1-7.76,4.13,27,27,0,0,1-10.33,1.85,30.3,30.3,0,0,1-10-1.57,24,24,0,0,1-7.84-4.34,19.85,19.85,0,0,1-5.13-6.63,19.14,19.14,0,0,1-1.85-8.4,36,36,0,0,1,3-14.82,40.38,40.38,0,0,1,7.55-11.47,34.22,34.22,0,0,1,9.9-7.34,23.43,23.43,0,0,1,10-2.56,14.82,14.82,0,0,1,6.12,1.28,17.69,17.69,0,0,1,5,3.35,15.43,15.43,0,0,1,3.35,4.77,13.63,13.63,0,0,1,1.21,5.56,21.36,21.36,0,0,1-1.14,6.2,21.11,21.11,0,0,1-3.78,6.91,22.15,22.15,0,0,1-7.12,5.62,23.88,23.88,0,0,1-11.18,2.35,13.73,13.73,0,0,1-3.28-.42c-.67-.1-1.38-.24-2.14-.43,0,4.27,1.26,7.46,3.78,9.54A13.48,13.48,0,0,0,994.59,191.23Zm-12-18.52a13.44,13.44,0,0,0,7.27-2.14,23.57,23.57,0,0,0,5.91-5.2,27.24,27.24,0,0,0,3.92-6.34,14.45,14.45,0,0,0,1.43-5.55c0-1.9-.86-2.85-2.57-2.85a9,9,0,0,0-5.84,2.42,26.19,26.19,0,0,0-5.06,5.84,37.31,37.31,0,0,0-3.63,7.26A19.59,19.59,0,0,0,982.62,172.71Z"/><path class="cls-3" d="M348.94,203.2a51.51,51.51,0,0,1-12-1.43,33.58,33.58,0,0,1-10.76-4.56,25.83,25.83,0,0,1-7.83-8.05,21.68,21.68,0,0,1-3.07-11.75,26.84,26.84,0,0,1,2.14-11,36.14,36.14,0,0,1,5.34-8.69,37.63,37.63,0,0,1,7-6.55,77.55,77.55,0,0,1,7.05-4.56,46.29,46.29,0,0,1,5.63-2.78c1.57-.62,2.5-1,2.78-1.07a9.62,9.62,0,0,1-1.57-.78,15.25,15.25,0,0,1-3.13-2.43,20.93,20.93,0,0,1-3.28-4.2,16.74,16.74,0,0,1-2.13-6.27q-10.83-1-16.17-4.27t-5.35-8.41a13.34,13.34,0,0,1,2.07-7,28.88,28.88,0,0,1,4.91-6.12,31.72,31.72,0,0,1,5.77-4.42,10.09,10.09,0,0,1,4.49-1.71,1.1,1.1,0,0,1,1,.43,1.51,1.51,0,0,1,.28.85,5.6,5.6,0,0,1-1.28,2.5,7.26,7.26,0,0,0-1.28,4.34,11,11,0,0,0,2,6.34,18.89,18.89,0,0,0,5.56,5.2,29.79,29.79,0,0,1,6.48-8.26,48,48,0,0,1,9.4-6.7,49.42,49.42,0,0,1,11.05-4.41,43.62,43.62,0,0,1,11.39-1.57,27.25,27.25,0,0,1,7.2.92,20.66,20.66,0,0,1,5.84,2.57,12.53,12.53,0,0,1,3.92,4,9.93,9.93,0,0,1,1.42,5.2,11,11,0,0,1-2.85,7.12,26.25,26.25,0,0,1-8.19,6.2,60.33,60.33,0,0,1-12.89,4.7,90.77,90.77,0,0,1-17,2.49,23.25,23.25,0,0,0,.64,4.35,17.32,17.32,0,0,0,1.22,3.35,29.12,29.12,0,0,0,1.56,3c.76-.09,1.66-.24,2.71-.43.85-.09,1.87-.19,3.06-.28s2.54-.15,4.06-.15q8.42,0,8.41,5,0,2.13-2.49,4.35a9.67,9.67,0,0,1-6.63,2.2,28.38,28.38,0,0,1-4.7-.35,21.32,21.32,0,0,1-3.71-.93,16,16,0,0,1-3.13-1.42,45.23,45.23,0,0,0-9.4,7.4,41.29,41.29,0,0,0-6.48,9.12A26.29,26.29,0,0,0,335.13,177q0,9,4.84,13.32t13.82,4.35a27,27,0,0,0,14.53-4.28A38,38,0,0,0,380,178.69a2.86,2.86,0,0,1,.71-1,5.78,5.78,0,0,1,.86-.64,2.41,2.41,0,0,1,1.28-.35,2.89,2.89,0,0,1,2.14.85,2.74,2.74,0,0,1,.85,2,6.42,6.42,0,0,1-.57,2.13l-.57,1.14a42.49,42.49,0,0,1-5.7,7.48,40.72,40.72,0,0,1-7.9,6.49,43.29,43.29,0,0,1-10.05,4.63A39.68,39.68,0,0,1,348.94,203.2ZM375,102a16.35,16.35,0,0,0-6.56,1.43,23.65,23.65,0,0,0-6.12,3.92,28.34,28.34,0,0,0-5.13,6,27,27,0,0,0-3.42,7.62,60.54,60.54,0,0,0,11.32-1,37.2,37.2,0,0,0,9.05-2.85,17.49,17.49,0,0,0,6-4.42,8.67,8.67,0,0,0,2.14-5.7,4.11,4.11,0,0,0-2.14-3.63A9.38,9.38,0,0,0,375,102Z"/><path class="cls-3" d="M397,159.32a104.48,104.48,0,0,1-6.76,14.6q-3.35,5.78-5.63,9.05a13.3,13.3,0,0,1-1.07,1.28,2.66,2.66,0,0,1-2.06.85,3.17,3.17,0,0,1-3-3,3.33,3.33,0,0,1,.65-1.92,14.36,14.36,0,0,0,.92-1.5q2-2.85,5.63-9a79.24,79.24,0,0,0,6.77-16.32A9.79,9.79,0,0,1,395,149.2a19.7,19.7,0,0,1,4.28-3.13,23,23,0,0,1,4.91-2,17.89,17.89,0,0,1,4.7-.71q5.26,0,7.27,5.41T418.75,167a34.51,34.51,0,0,0,5.34-9.55,24,24,0,0,0,1.64-6.69c0-.86.64-1.73,1.93-2.64a24.87,24.87,0,0,1,4.34-2.42,35.9,35.9,0,0,1,4.7-1.71,14.41,14.41,0,0,1,3-.64c1.81,0,2.71.86,2.71,2.56q0,1.44-2.06,5a69.86,69.86,0,0,1-5.42,7.84q-3.35,4.27-7.48,8.62a63.58,63.58,0,0,1-8.4,7.48q.57,8.4,3.2,12.25a8.29,8.29,0,0,0,7.2,3.84,10,10,0,0,0,5.62-1.85,25,25,0,0,0,4.92-4.27,31.27,31.27,0,0,0,4.7-6.13,2.86,2.86,0,0,1,.71-1,5.78,5.78,0,0,1,.86-.64,2.41,2.41,0,0,1,1.28-.35,3,3,0,0,1,2.07.85,2.67,2.67,0,0,1,.92,2,2.76,2.76,0,0,1-.21,1.07c-.14.33-.31.69-.5,1.06s-.38.81-.57,1.29a50.78,50.78,0,0,1-7,8.83,40.41,40.41,0,0,1-7.77,6,18.48,18.48,0,0,1-9.75,2.71,25.3,25.3,0,0,1-13.18-3.35q-5.64-3.34-7.91-11.47-2.43,2.43-5.34,5t-5.84,4.77a40.13,40.13,0,0,1-5.63,3.63,10.48,10.48,0,0,1-4.7,1.43,1.73,1.73,0,0,1-2-2.14,8.47,8.47,0,0,1,.64-2.7,22,22,0,0,1,1.71-3.5,25.93,25.93,0,0,1,2.28-3.2,4.85,4.85,0,0,1,2.35-1.71,25.11,25.11,0,0,0,7.91-3.42q4.07-2.56,7.34-5.13-.72-6-1.14-10c-.29-2.66-.52-4.82-.71-6.48a15.39,15.39,0,0,0-.72-3.56c-.28-.72-.66-1.07-1.14-1.07Q397.67,157.61,397,159.32Z"/><path class="cls-3" d="M515.49,183a23.62,23.62,0,0,1-6.13,6.12,32.33,32.33,0,0,1-7.76,4.28,29.41,29.41,0,0,1-10.9,1.85c-.67,0-1.38,0-2.14-.07s-1.52-.12-2.28-.22a27.84,27.84,0,0,1-7.12,4.06,22.17,22.17,0,0,1-8.12,1.5,16.1,16.1,0,0,1-6.06-1.07,19.06,19.06,0,0,1-4.49-2.49,17.13,17.13,0,0,1-3.7-3.71,70.14,70.14,0,0,0-2.64,8.34q-1.35,5.19-2.49,11t-1.85,11.54a79.72,79.72,0,0,0-.71,9.83c0,2.09-.91,3.13-2.71,3.13a19.55,19.55,0,0,1-4.27-.5,14.12,14.12,0,0,1-4.21-1.63,9.69,9.69,0,0,1-3.2-3.14,8.71,8.71,0,0,1-1.28-4.84,50.7,50.7,0,0,1,1-8.05q1-5.49,2.57-12.61t3.7-15.31q2.15-8.21,4.35-16.25t4.41-15.17q2.21-7.12,4.06-12.11a4,4,0,0,1,4-2.71,9.44,9.44,0,0,1,4.06,1.29q2.49,1.27,5.77,6.41a54.31,54.31,0,0,1,6.13-4.56,46.91,46.91,0,0,1,5.91-3.14,16,16,0,0,1,6.48-1.42,14.85,14.85,0,0,1,7,1.64,18,18,0,0,1,5.35,4.2,20.85,20.85,0,0,1,3.49,5.7,16.54,16.54,0,0,1,1.28,6.27,40.33,40.33,0,0,1-2.64,13.39,49.29,49.29,0,0,1-7.48,13.68,4.6,4.6,0,0,0,1.29.14,14.72,14.72,0,0,0,6.69-1.5,28.28,28.28,0,0,0,5.27-3.34,39,39,0,0,0,4.85-4.85,2.86,2.86,0,0,1,.71-1,5.6,5.6,0,0,1,.85-.64,2.45,2.45,0,0,1,1.29-.35,3,3,0,0,1,2.06.85,2.64,2.64,0,0,1,.93,2,2.6,2.6,0,0,1-.22,1.07c-.14.33-.31.69-.49,1.06A11.28,11.28,0,0,0,515.49,183Zm-55-1.29a14,14,0,0,0,2.14,7.55,6.48,6.48,0,0,0,5.7,3.42,7.26,7.26,0,0,0,4.7-2.13,3.39,3.39,0,0,1-.71-2,4.35,4.35,0,0,1,.78-2.35A12.13,12.13,0,0,1,475,184a14.14,14.14,0,0,1,2.28-1.71,4.35,4.35,0,0,1,2.07-.71,60.16,60.16,0,0,0,2.56-5.91c.76-2,1.4-4,1.93-6s.92-3.76,1.21-5.42a26.13,26.13,0,0,0,.43-4.2q0-3.85-1.22-5.41a4.27,4.27,0,0,0-3.63-1.57q-2.85,0-6.27,3.06a44.84,44.84,0,0,0-6.55,7.48,49.15,49.15,0,0,0-5.2,9.33A23,23,0,0,0,460.49,181.68Z"/><path class="cls-3" d="M547,186a5,5,0,0,0,1.28,3.7,4.62,4.62,0,0,0,3.42,1.28,10,10,0,0,0,5.63-1.85,24.91,24.91,0,0,0,4.91-4.27,31.69,31.69,0,0,0,4.71-6.13,2.86,2.86,0,0,1,.71-1,5.6,5.6,0,0,1,.85-.64,2.44,2.44,0,0,1,1.28-.35,3,3,0,0,1,2.07.85,2.64,2.64,0,0,1,.93,2,2.6,2.6,0,0,1-.22,1.07c-.14.33-.31.69-.5,1.06s-.38.81-.57,1.29a50.31,50.31,0,0,1-7,8.83,40.33,40.33,0,0,1-7.76,6,18.51,18.51,0,0,1-9.76,2.71,22.48,22.48,0,0,1-7.41-1.14,19.42,19.42,0,0,1-5.7-3.06,13.37,13.37,0,0,1-3.7-4.49,12.18,12.18,0,0,1-1.28-5.56,26.93,26.93,0,0,1,1.42-8.83,72.19,72.19,0,0,1,3.06-7.55q1.65-3.42,3.07-6.06a9.68,9.68,0,0,0,1.42-4.34,1.85,1.85,0,0,0-1.35-1.71,24.34,24.34,0,0,0-2.92-1,41.43,41.43,0,0,0-4.28-.71,145.25,145.25,0,0,1-7.83,17q-3.71,6.63-6,9.91a15,15,0,0,1-1.07,1.28,2.68,2.68,0,0,1-2.07.85,2.82,2.82,0,0,1-2.06-.92,2.87,2.87,0,0,1-.93-2.07,3.32,3.32,0,0,1,.64-1.92,13.15,13.15,0,0,0,.93-1.5q2-2.85,5.62-9a78.69,78.69,0,0,0,6.77-16.32,8.73,8.73,0,0,1-2.42-2.56,15.47,15.47,0,0,1-1.57-3.28,14.08,14.08,0,0,1-.71-4.7,10.71,10.71,0,0,1,.78-4.06,11.25,11.25,0,0,1,2.07-3.35,11.82,11.82,0,0,1,2.71-2.28,5.24,5.24,0,0,1,2.7-.85,6.7,6.7,0,0,1,3,.78,14.39,14.39,0,0,1,2.85,1.85,10.25,10.25,0,0,1,2.14,2.43,4.59,4.59,0,0,1,.86,2.35,10.46,10.46,0,0,1-.93,4.7,7.91,7.91,0,0,0-.93,3.56,2.39,2.39,0,0,0,1.71,2.28,11.1,11.1,0,0,0,4.28.71,24.41,24.41,0,0,0,4.06-.28c1.09-.19,2.06-.41,2.92-.65l2.42-.64a10,10,0,0,1,2.42-.28,5.18,5.18,0,0,1,4.2,2,7.38,7.38,0,0,1,1.64,4.85,13.5,13.5,0,0,1-1.64,5.77c-1.09,2.23-2.3,4.68-3.63,7.33a87.36,87.36,0,0,0-3.63,8.34A24.37,24.37,0,0,0,547,186Z"/><path class="cls-3" d="M622.33,183a36.63,36.63,0,0,1-7.83,8.83,45.21,45.21,0,0,1-9.9,6,33.43,33.43,0,0,1-14,2.71,30.34,30.34,0,0,1-10-1.57,23.93,23.93,0,0,1-7.83-4.34,19.85,19.85,0,0,1-5.13-6.63,19,19,0,0,1-1.86-8.4,35.85,35.85,0,0,1,3-14.82,40.17,40.17,0,0,1,7.55-11.47,34.22,34.22,0,0,1,9.9-7.34,23.43,23.43,0,0,1,10-2.56,14.83,14.83,0,0,1,6.13,1.28,17.5,17.5,0,0,1,5,3.35,15.27,15.27,0,0,1,3.35,4.77,13.46,13.46,0,0,1,1.21,5.56A22.41,22.41,0,0,1,607,171.43a22.08,22.08,0,0,1-7.13,5.62,23.88,23.88,0,0,1-11.18,2.35,13.79,13.79,0,0,1-3.28-.42c-.66-.1-1.37-.24-2.13-.43q0,6.4,3.7,9.83a12.58,12.58,0,0,0,8.83,3.42,20,20,0,0,0,9.12-2.07,34.43,34.43,0,0,0,7-4.48,29.4,29.4,0,0,0,5.84-6.56,3.06,3.06,0,0,1,.72-1,5.6,5.6,0,0,1,.85-.64,2.44,2.44,0,0,1,1.28-.35,3,3,0,0,1,2.07.85,2.64,2.64,0,0,1,.93,2,2.77,2.77,0,0,1-.22,1.07c-.14.33-.31.69-.5,1.06S622.52,182.49,622.33,183ZM584,172.71a13.46,13.46,0,0,0,7.27-2.14,23.57,23.57,0,0,0,5.91-5.2,27.24,27.24,0,0,0,3.92-6.34,14.6,14.6,0,0,0,1.42-5.55c0-1.9-.85-2.85-2.56-2.85a8.91,8.91,0,0,0-5.84,2.42,25.94,25.94,0,0,0-5.06,5.84,36.8,36.8,0,0,0-3.64,7.26A19.54,19.54,0,0,0,584,172.71Z"/><path class="cls-3" d="M680.6,183a35.74,35.74,0,0,1-9.26,9.26,51.7,51.7,0,0,1-12.46,6.41q-7.64,2.85-18.6,2.85a24.5,24.5,0,0,1-10-2.07,30.44,30.44,0,0,1-8.19-5.2,26.68,26.68,0,0,1-5.56-6.84,14.29,14.29,0,0,1-2.06-6.84,7.2,7.2,0,0,1,2.13-5.27,21.47,21.47,0,0,1,4.71-3.56,32,32,0,0,1,6.83-2.56q.86-1.43,2.28-3.57,1.14-1.85,3-4.63t4.27-6.62q5-7.54,8.55-10.47t6.27-2.92a5,5,0,0,1,2.35.64,15.46,15.46,0,0,1,2.28,1.5,10.18,10.18,0,0,1,1.71,1.7,2.66,2.66,0,0,1,.64,1.43A4,4,0,0,1,659,148c-.38.71-.79,1.47-1.21,2.28a20.48,20.48,0,0,0-1.14,2.56,7.85,7.85,0,0,0-.5,2.78A28.39,28.39,0,0,0,657,163a59.36,59.36,0,0,0,1.93,5.91c.71,1.86,1.35,3.66,1.92,5.42a21.83,21.83,0,0,1,.35,10.68,16.7,16.7,0,0,1-1.21,3.35,14.1,14.1,0,0,1-1.56,2.71,28.78,28.78,0,0,0,7.48-3.21,41.69,41.69,0,0,0,5.62-4.06,37.74,37.74,0,0,0,4.56-5.13,3,3,0,0,1,.71-1,5.78,5.78,0,0,1,.86-.64,2.44,2.44,0,0,1,1.28-.35,3,3,0,0,1,2.07.85,2.67,2.67,0,0,1,.92,2,2.76,2.76,0,0,1-.21,1.07c-.14.33-.31.69-.5,1.06S680.79,182.49,680.6,183ZM640.43,161q-3,4.56-5.28,8.26-2,3.28-3.63,6.13a11.59,11.59,0,0,0-1.64,3.56,49.31,49.31,0,0,0,.36,6.05,22.71,22.71,0,0,0,1.21,5.2,10.54,10.54,0,0,0,2.14,3.63,4.27,4.27,0,0,0,3.27,1.36c2.19,0,4.06-1.19,5.63-3.56a14.91,14.91,0,0,0,2.35-8.41,25,25,0,0,0-.71-5.7c-.48-2-1-4-1.5-5.91s-1-3.85-1.49-5.7A19.81,19.81,0,0,1,640.43,161Z"/><path class="cls-3" d="M738.87,183a35.9,35.9,0,0,1-9.26,9.26,51.79,51.79,0,0,1-12.47,6.41q-7.62,2.85-18.59,2.85a24.46,24.46,0,0,1-10-2.07,30.13,30.13,0,0,1-8.19-5.2,26.68,26.68,0,0,1-5.56-6.84,14.29,14.29,0,0,1-2.06-6.84,7.2,7.2,0,0,1,2.13-5.27,21.41,21.41,0,0,1,4.7-3.56,32.25,32.25,0,0,1,6.84-2.56q.85-1.43,2.28-3.57,1.14-1.85,3-4.63c1.24-1.85,2.66-4.06,4.28-6.62q5-7.54,8.55-10.47t6.26-2.92a5,5,0,0,1,2.35.64,14.47,14.47,0,0,1,2.28,1.5,9.48,9.48,0,0,1,1.71,1.7,2.59,2.59,0,0,1,.64,1.43,4,4,0,0,1-.57,1.78L716,150.27a23.88,23.88,0,0,0-1.14,2.56,8.06,8.06,0,0,0-.49,2.78,28.39,28.39,0,0,0,.85,7.41,62.1,62.1,0,0,0,1.92,5.91c.72,1.86,1.36,3.66,1.93,5.42a19.13,19.13,0,0,1,.85,5.91,19.43,19.43,0,0,1-.5,4.77,16.7,16.7,0,0,1-1.21,3.35,14.64,14.64,0,0,1-1.56,2.71,28.57,28.57,0,0,0,7.47-3.21,41.21,41.21,0,0,0,5.63-4.06,37.74,37.74,0,0,0,4.56-5.13,2.86,2.86,0,0,1,.71-1,5.78,5.78,0,0,1,.86-.64,2.41,2.41,0,0,1,1.28-.35,3,3,0,0,1,2.07.85,2.67,2.67,0,0,1,.92,2,2.76,2.76,0,0,1-.21,1.07c-.14.33-.31.69-.5,1.06S739.06,182.49,738.87,183ZM698.69,161q-3,4.56-5.27,8.26-2,3.28-3.63,6.13a11.59,11.59,0,0,0-1.64,3.56,49.31,49.31,0,0,0,.36,6.05,22.2,22.2,0,0,0,1.21,5.2,10.54,10.54,0,0,0,2.14,3.63,4.27,4.27,0,0,0,3.27,1.36c2.19,0,4.06-1.19,5.63-3.56a14.91,14.91,0,0,0,2.35-8.41,25,25,0,0,0-.71-5.7q-.72-3-1.5-5.91t-1.49-5.7A19.87,19.87,0,0,1,698.69,161Z"/><path class="cls-3" d="M739.58,188.52a10.76,10.76,0,0,1,2.78.36,13.29,13.29,0,0,0,3.35.35,17,17,0,0,0,12.53-5.34,50.49,50.49,0,0,0,9.27-13.53,115.6,115.6,0,0,0,6.83-17.88q2.85-9.69,5.27-18.38a47.08,47.08,0,0,1,5-12.68,40.46,40.46,0,0,1,5.27-7,13,13,0,0,1,6-3.42,47.25,47.25,0,0,0-10.33-3.35,69.11,69.11,0,0,0-15.6-1.64A17.53,17.53,0,0,0,759.46,109a9.25,9.25,0,0,0-4.06,7.91,12.59,12.59,0,0,0,1.06,5.49,15.71,15.71,0,0,0,2.43,3.7c.9,1,1.71,1.83,2.42,2.49a2.72,2.72,0,0,1,1.07,1.71c0,1.81-1,2.71-3,2.71a19.86,19.86,0,0,1-6.48-1.28A26.48,26.48,0,0,1,746,128a23.41,23.41,0,0,1-5.55-5.77,13.21,13.21,0,0,1-2.28-7.62,14.16,14.16,0,0,1,2.85-9.12,21.22,21.22,0,0,1,7-5.69,32,32,0,0,1,9.12-3,53,53,0,0,1,9-.85,105,105,0,0,1,12.82.71q5.7.72,11.54,1.64t12.54,1.64a153.54,153.54,0,0,0,15.82.71,43.8,43.8,0,0,0,8.83-.71,22.8,22.8,0,0,0,5.13-1.64,18,18,0,0,0,2.78-1.64,2.83,2.83,0,0,1,1.63-.71,2.89,2.89,0,0,1,2.14.85,2.75,2.75,0,0,1,.86,2,9.56,9.56,0,0,1-1.64,3.7,29.64,29.64,0,0,1-4.42,5.49,36,36,0,0,1-6.27,5,13.44,13.44,0,0,1-7.33,2.21,56.26,56.26,0,0,1-6.42-.35q-3-.36-5.27-.79c-1.71-.38-3.32-.8-4.84-1.28a5.36,5.36,0,0,0-1.43,1.28,16.08,16.08,0,0,0-2,3.49,60.92,60.92,0,0,0-2.49,6.84q-1.37,4.35-2.78,11.18-1.29,5.7-2.49,12.76t-3,14.24a124,124,0,0,1-4.34,14,54.12,54.12,0,0,1-6.34,12.19,30,30,0,0,1-9.12,8.54,24,24,0,0,1-12.61,3.21,33.58,33.58,0,0,1-8-.93,29.75,29.75,0,0,1-6.55-2.35,16.41,16.41,0,0,1-4.35-3.06,4.59,4.59,0,0,1-1.56-2.92,2.65,2.65,0,0,1,.71-2.07A2.68,2.68,0,0,1,739.58,188.52Z"/><path class="cls-3" d="M873.07,183a50.31,50.31,0,0,1-7,8.83,40.64,40.64,0,0,1-7.76,6,18.54,18.54,0,0,1-9.76,2.71,16.55,16.55,0,0,1-10.12-3.06,12.53,12.53,0,0,1-4.84-9.05,37.4,37.4,0,0,1-6.13,6.13,39.63,39.63,0,0,1-6.41,4.13,16.47,16.47,0,0,1-7.69,1.85,14.55,14.55,0,0,1-5.49-1.07,13.18,13.18,0,0,1-4.56-3.06,15.14,15.14,0,0,1-4.2-10.69,42.07,42.07,0,0,1,2.92-15.24,53.87,53.87,0,0,1,7.62-13.61,41.91,41.91,0,0,1,10.55-9.76,21.84,21.84,0,0,1,18.94-2.63,20.69,20.69,0,0,1,4.85,2.35,16.58,16.58,0,0,1,3.42,3.28,17.75,17.75,0,0,1,3.35.35,12.28,12.28,0,0,1,3.27,1.14,7.52,7.52,0,0,1,2.5,2.07,5,5,0,0,1,1,3.13,17.4,17.4,0,0,1-1.28,5.13c-.85,2.38-1.8,5-2.85,7.91s-2,5.89-2.85,9a31.39,31.39,0,0,0-1.28,8.19,4,4,0,0,0,1.07,2.85,3.76,3.76,0,0,0,2.92,1.14,10,10,0,0,0,5.63-1.85,24.91,24.91,0,0,0,4.91-4.27,31.27,31.27,0,0,0,4.7-6.13,2.92,2.92,0,0,1,.72-1,5.13,5.13,0,0,1,.85-.64,2.44,2.44,0,0,1,1.28-.35,3,3,0,0,1,2.07.85,2.67,2.67,0,0,1,.92,2,2.76,2.76,0,0,1-.21,1.07c-.14.33-.31.69-.5,1.06S873.26,182.49,873.07,183ZM840,157.75a6.3,6.3,0,0,0-1.5-4.63,4.91,4.91,0,0,0-3.63-1.5c-2.09,0-4.23,1.1-6.41,3.28a35.46,35.46,0,0,0-5.91,8,54,54,0,0,0-4.35,10.33,34.3,34.3,0,0,0-1.71,10q0,6.41,4.13,6.41,2.57,0,5.92-3.42a45.61,45.61,0,0,0,6.34-8.4A64.71,64.71,0,0,0,838,167.37,27.83,27.83,0,0,0,840,157.75Z"/><path class="cls-3" d="M931.34,183a35.9,35.9,0,0,1-9.26,9.26,51.79,51.79,0,0,1-12.47,6.41Q902,201.49,891,201.49a24.46,24.46,0,0,1-10-2.07,30.13,30.13,0,0,1-8.19-5.2,26.68,26.68,0,0,1-5.56-6.84,14.31,14.31,0,0,1-2.07-6.84,7.2,7.2,0,0,1,2.14-5.27,21.41,21.41,0,0,1,4.7-3.56,32.25,32.25,0,0,1,6.84-2.56q.86-1.43,2.28-3.57,1.14-1.85,3-4.63c1.24-1.85,2.66-4.06,4.28-6.62q5-7.54,8.54-10.47t6.27-2.92a5,5,0,0,1,2.35.64,14.47,14.47,0,0,1,2.28,1.5,9.48,9.48,0,0,1,1.71,1.7,2.59,2.59,0,0,1,.64,1.43,4,4,0,0,1-.57,1.78l-1.21,2.28a23.88,23.88,0,0,0-1.14,2.56,8.08,8.08,0,0,0-.5,2.78,28.36,28.36,0,0,0,.86,7.41,62.1,62.1,0,0,0,1.92,5.91c.72,1.86,1.36,3.66,1.93,5.42a19.13,19.13,0,0,1,.85,5.91,19.43,19.43,0,0,1-.5,4.77,16.7,16.7,0,0,1-1.21,3.35,14.11,14.11,0,0,1-1.57,2.71,28.49,28.49,0,0,0,7.48-3.21,41.85,41.85,0,0,0,5.63-4.06,37.74,37.74,0,0,0,4.56-5.13,2.86,2.86,0,0,1,.71-1,5.78,5.78,0,0,1,.86-.64,2.41,2.41,0,0,1,1.28-.35,3,3,0,0,1,2.07.85,2.67,2.67,0,0,1,.92,2,2.76,2.76,0,0,1-.21,1.07c-.15.33-.31.69-.5,1.06S931.53,182.49,931.34,183ZM891.16,161q-3,4.56-5.27,8.26-2,3.28-3.63,6.13a11.59,11.59,0,0,0-1.64,3.56A49.31,49.31,0,0,0,881,185a22.2,22.2,0,0,0,1.21,5.2,10.54,10.54,0,0,0,2.14,3.63,4.27,4.27,0,0,0,3.27,1.36c2.19,0,4.06-1.19,5.63-3.56a14.91,14.91,0,0,0,2.35-8.41,25,25,0,0,0-.71-5.7q-.72-3-1.5-5.91t-1.49-5.7A19.87,19.87,0,0,1,891.16,161Z"/><path class="cls-3" d="M950.29,190.94a10,10,0,0,0,5.62-1.85,25,25,0,0,0,4.92-4.27,31.27,31.27,0,0,0,4.7-6.13,2.86,2.86,0,0,1,.71-1,5.78,5.78,0,0,1,.86-.64,2.41,2.41,0,0,1,1.28-.35,3,3,0,0,1,2.07.85,2.67,2.67,0,0,1,.92,2,2.76,2.76,0,0,1-.21,1.07c-.14.33-.31.69-.5,1.06s-.38.81-.57,1.29a50.78,50.78,0,0,1-7,8.83,40.41,40.41,0,0,1-7.77,6,18.48,18.48,0,0,1-9.75,2.71,22.5,22.5,0,0,1-13.47-4.7,20.18,20.18,0,0,1-4.84-5.42,12.8,12.8,0,0,1-1.93-6.83,46.16,46.16,0,0,1,.72-7.34c.47-2.9,1.14-6.06,2-9.48s1.83-7,2.92-10.82,2.26-7.55,3.49-11.26h-3.84c-.76,0-1.14-.42-1.14-1.28a6,6,0,0,1,1.35-3.06,3.72,3.72,0,0,1,2.92-1.93h2.85q2.13-5.84,4.2-10.75a72.69,72.69,0,0,1,4.06-8.34,5.52,5.52,0,0,1,1.57-1.92,3.58,3.58,0,0,1,2.28-.78,7.76,7.76,0,0,1,3.49,1,23.21,23.21,0,0,1,3.63,2.35,18,18,0,0,1,2.85,2.78,4.23,4.23,0,0,1,1.14,2.42,17.39,17.39,0,0,1-1.35,4.49q-1.37,3.49-3.35,8.76h9.55c.75,0,1.14.43,1.14,1.29a3.43,3.43,0,0,1-.43,1.42,8.87,8.87,0,0,1-1.07,1.64,9.56,9.56,0,0,1-1.35,1.35,2.29,2.29,0,0,1-1.43.57h-8.83q-1.71,4.71-3.49,10T946,165c-1,3.41-1.73,6.72-2.35,9.9a45.35,45.35,0,0,0-.92,8.62,7,7,0,0,0,2.2,5.34A7.55,7.55,0,0,0,950.29,190.94Z"/><path class="cls-3" d="M994.59,191.23a17.74,17.74,0,0,0,5.77-.86,20.06,20.06,0,0,0,4.28-2,21.16,21.16,0,0,0,3.06-2.35c.85-.81,1.52-1.45,2-1.92l1-1,1-.64a2.12,2.12,0,0,1,1.14-.36,2.9,2.9,0,0,1,2.13.86,2.73,2.73,0,0,1,.86,2,1.79,1.79,0,0,1-.36,1.07,8.65,8.65,0,0,0-.64,1.07c-.28.38-.57.81-.85,1.28a34.33,34.33,0,0,1-6.7,6.13,41.05,41.05,0,0,1-7.76,4.13,27,27,0,0,1-10.33,1.85,30.3,30.3,0,0,1-10-1.57,24,24,0,0,1-7.84-4.34,19.85,19.85,0,0,1-5.13-6.63,19.14,19.14,0,0,1-1.85-8.4,36,36,0,0,1,3-14.82,40.38,40.38,0,0,1,7.55-11.47,34.22,34.22,0,0,1,9.9-7.34,23.43,23.43,0,0,1,10-2.56,14.82,14.82,0,0,1,6.12,1.28,17.69,17.69,0,0,1,5,3.35,15.43,15.43,0,0,1,3.35,4.77,13.63,13.63,0,0,1,1.21,5.56,21.36,21.36,0,0,1-1.14,6.2,21.11,21.11,0,0,1-3.78,6.91,22.15,22.15,0,0,1-7.12,5.62,23.88,23.88,0,0,1-11.18,2.35,13.73,13.73,0,0,1-3.28-.42c-.67-.1-1.38-.24-2.14-.43,0,4.27,1.26,7.46,3.78,9.54A13.48,13.48,0,0,0,994.59,191.23Zm-12-18.52a13.44,13.44,0,0,0,7.27-2.14,23.57,23.57,0,0,0,5.91-5.2,27.24,27.24,0,0,0,3.92-6.34,14.45,14.45,0,0,0,1.43-5.55c0-1.9-.86-2.85-2.57-2.85a9,9,0,0,0-5.84,2.42,26.19,26.19,0,0,0-5.06,5.84,37.31,37.31,0,0,0-3.63,7.26A19.59,19.59,0,0,0,982.62,172.71Z"/><path class="cls-4" d="M348.94,203.2a51.51,51.51,0,0,1-12-1.43,33.58,33.58,0,0,1-10.76-4.56,25.83,25.83,0,0,1-7.83-8.05,21.68,21.68,0,0,1-3.07-11.75,26.84,26.84,0,0,1,2.14-11,36.14,36.14,0,0,1,5.34-8.69,37.63,37.63,0,0,1,7-6.55,77.55,77.55,0,0,1,7.05-4.56,46.29,46.29,0,0,1,5.63-2.78c1.57-.62,2.5-1,2.78-1.07a9.62,9.62,0,0,1-1.57-.78,15.25,15.25,0,0,1-3.13-2.43,20.93,20.93,0,0,1-3.28-4.2,16.74,16.74,0,0,1-2.13-6.27q-10.83-1-16.17-4.27t-5.35-8.41a13.34,13.34,0,0,1,2.07-7,28.88,28.88,0,0,1,4.91-6.12,31.72,31.72,0,0,1,5.77-4.42,10.09,10.09,0,0,1,4.49-1.71,1.1,1.1,0,0,1,1,.43,1.51,1.51,0,0,1,.28.85,5.6,5.6,0,0,1-1.28,2.5,7.26,7.26,0,0,0-1.28,4.34,11,11,0,0,0,2,6.34,18.89,18.89,0,0,0,5.56,5.2,29.79,29.79,0,0,1,6.48-8.26,48,48,0,0,1,9.4-6.7,49.42,49.42,0,0,1,11.05-4.41,43.62,43.62,0,0,1,11.39-1.57,27.25,27.25,0,0,1,7.2.92,20.66,20.66,0,0,1,5.84,2.57,12.53,12.53,0,0,1,3.92,4,9.93,9.93,0,0,1,1.42,5.2,11,11,0,0,1-2.85,7.12,26.25,26.25,0,0,1-8.19,6.2,60.33,60.33,0,0,1-12.89,4.7,90.77,90.77,0,0,1-17,2.49,23.25,23.25,0,0,0,.64,4.35,17.32,17.32,0,0,0,1.22,3.35,29.12,29.12,0,0,0,1.56,3c.76-.09,1.66-.24,2.71-.43.85-.09,1.87-.19,3.06-.28s2.54-.15,4.06-.15q8.42,0,8.41,5,0,2.13-2.49,4.35a9.67,9.67,0,0,1-6.63,2.2,28.38,28.38,0,0,1-4.7-.35,21.32,21.32,0,0,1-3.71-.93,16,16,0,0,1-3.13-1.42,45.23,45.23,0,0,0-9.4,7.4,41.29,41.29,0,0,0-6.48,9.12A26.29,26.29,0,0,0,335.13,177q0,9,4.84,13.32t13.82,4.35a27,27,0,0,0,14.53-4.28A38,38,0,0,0,380,178.69a2.86,2.86,0,0,1,.71-1,5.78,5.78,0,0,1,.86-.64,2.41,2.41,0,0,1,1.28-.35,2.89,2.89,0,0,1,2.14.85,2.74,2.74,0,0,1,.85,2,6.42,6.42,0,0,1-.57,2.13l-.57,1.14a42.49,42.49,0,0,1-5.7,7.48,40.72,40.72,0,0,1-7.9,6.49,43.29,43.29,0,0,1-10.05,4.63A39.68,39.68,0,0,1,348.94,203.2ZM375,102a16.35,16.35,0,0,0-6.56,1.43,23.65,23.65,0,0,0-6.12,3.92,28.34,28.34,0,0,0-5.13,6,27,27,0,0,0-3.42,7.62,60.54,60.54,0,0,0,11.32-1,37.2,37.2,0,0,0,9.05-2.85,17.49,17.49,0,0,0,6-4.42,8.67,8.67,0,0,0,2.14-5.7,4.11,4.11,0,0,0-2.14-3.63A9.38,9.38,0,0,0,375,102Z"/><path class="cls-4" d="M397,159.32a104.48,104.48,0,0,1-6.76,14.6q-3.35,5.78-5.63,9.05a13.3,13.3,0,0,1-1.07,1.28,2.66,2.66,0,0,1-2.06.85,3.17,3.17,0,0,1-3-3,3.33,3.33,0,0,1,.65-1.92,14.36,14.36,0,0,0,.92-1.5q2-2.85,5.63-9a79.24,79.24,0,0,0,6.77-16.32A9.79,9.79,0,0,1,395,149.2a19.7,19.7,0,0,1,4.28-3.13,23,23,0,0,1,4.91-2,17.89,17.89,0,0,1,4.7-.71q5.26,0,7.27,5.41T418.75,167a34.51,34.51,0,0,0,5.34-9.55,24,24,0,0,0,1.64-6.69c0-.86.64-1.73,1.93-2.64a24.87,24.87,0,0,1,4.34-2.42,35.9,35.9,0,0,1,4.7-1.71,14.41,14.41,0,0,1,3-.64c1.81,0,2.71.86,2.71,2.56q0,1.44-2.06,5a69.86,69.86,0,0,1-5.42,7.84q-3.35,4.27-7.48,8.62a63.58,63.58,0,0,1-8.4,7.48q.57,8.4,3.2,12.25a8.29,8.29,0,0,0,7.2,3.84,10,10,0,0,0,5.62-1.85,25,25,0,0,0,4.92-4.27,31.27,31.27,0,0,0,4.7-6.13,2.86,2.86,0,0,1,.71-1,5.78,5.78,0,0,1,.86-.64,2.41,2.41,0,0,1,1.28-.35,3,3,0,0,1,2.07.85,2.67,2.67,0,0,1,.92,2,2.76,2.76,0,0,1-.21,1.07c-.14.33-.31.69-.5,1.06s-.38.81-.57,1.29a50.78,50.78,0,0,1-7,8.83,40.41,40.41,0,0,1-7.77,6,18.48,18.48,0,0,1-9.75,2.71,25.3,25.3,0,0,1-13.18-3.35q-5.64-3.34-7.91-11.47-2.43,2.43-5.34,5t-5.84,4.77a40.13,40.13,0,0,1-5.63,3.63,10.48,10.48,0,0,1-4.7,1.43,1.73,1.73,0,0,1-2-2.14,8.47,8.47,0,0,1,.64-2.7,22,22,0,0,1,1.71-3.5,25.93,25.93,0,0,1,2.28-3.2,4.85,4.85,0,0,1,2.35-1.71,25.11,25.11,0,0,0,7.91-3.42q4.07-2.56,7.34-5.13-.72-6-1.14-10c-.29-2.66-.52-4.82-.71-6.48a15.39,15.39,0,0,0-.72-3.56c-.28-.72-.66-1.07-1.14-1.07Q397.67,157.61,397,159.32Z"/><path class="cls-4" d="M515.49,183a23.62,23.62,0,0,1-6.13,6.12,32.33,32.33,0,0,1-7.76,4.28,29.41,29.41,0,0,1-10.9,1.85c-.67,0-1.38,0-2.14-.07s-1.52-.12-2.28-.22a27.84,27.84,0,0,1-7.12,4.06,22.17,22.17,0,0,1-8.12,1.5,16.1,16.1,0,0,1-6.06-1.07,19.06,19.06,0,0,1-4.49-2.49,17.13,17.13,0,0,1-3.7-3.71,70.14,70.14,0,0,0-2.64,8.34q-1.35,5.19-2.49,11t-1.85,11.54a79.72,79.72,0,0,0-.71,9.83c0,2.09-.91,3.13-2.71,3.13a19.55,19.55,0,0,1-4.27-.5,14.12,14.12,0,0,1-4.21-1.63,9.69,9.69,0,0,1-3.2-3.14,8.71,8.71,0,0,1-1.28-4.84,50.7,50.7,0,0,1,1-8.05q1-5.49,2.57-12.61t3.7-15.31q2.15-8.21,4.35-16.25t4.41-15.17q2.21-7.12,4.06-12.11a4,4,0,0,1,4-2.71,9.44,9.44,0,0,1,4.06,1.29q2.49,1.27,5.77,6.41a54.31,54.31,0,0,1,6.13-4.56,46.91,46.91,0,0,1,5.91-3.14,16,16,0,0,1,6.48-1.42,14.85,14.85,0,0,1,7,1.64,18,18,0,0,1,5.35,4.2,20.85,20.85,0,0,1,3.49,5.7,16.54,16.54,0,0,1,1.28,6.27,40.33,40.33,0,0,1-2.64,13.39,49.29,49.29,0,0,1-7.48,13.68,4.6,4.6,0,0,0,1.29.14,14.72,14.72,0,0,0,6.69-1.5,28.28,28.28,0,0,0,5.27-3.34,39,39,0,0,0,4.85-4.85,2.86,2.86,0,0,1,.71-1,5.6,5.6,0,0,1,.85-.64,2.45,2.45,0,0,1,1.29-.35,3,3,0,0,1,2.06.85,2.64,2.64,0,0,1,.93,2,2.6,2.6,0,0,1-.22,1.07c-.14.33-.31.69-.49,1.06A11.28,11.28,0,0,0,515.49,183Zm-55-1.29a14,14,0,0,0,2.14,7.55,6.48,6.48,0,0,0,5.7,3.42,7.26,7.26,0,0,0,4.7-2.13,3.39,3.39,0,0,1-.71-2,4.35,4.35,0,0,1,.78-2.35A12.13,12.13,0,0,1,475,184a14.14,14.14,0,0,1,2.28-1.71,4.35,4.35,0,0,1,2.07-.71,60.16,60.16,0,0,0,2.56-5.91c.76-2,1.4-4,1.93-6s.92-3.76,1.21-5.42a26.13,26.13,0,0,0,.43-4.2q0-3.85-1.22-5.41a4.27,4.27,0,0,0-3.63-1.57q-2.85,0-6.27,3.06a44.84,44.84,0,0,0-6.55,7.48,49.15,49.15,0,0,0-5.2,9.33A23,23,0,0,0,460.49,181.68Z"/><path class="cls-4" d="M547,186a5,5,0,0,0,1.28,3.7,4.62,4.62,0,0,0,3.42,1.28,10,10,0,0,0,5.63-1.85,24.91,24.91,0,0,0,4.91-4.27,31.69,31.69,0,0,0,4.71-6.13,2.86,2.86,0,0,1,.71-1,5.6,5.6,0,0,1,.85-.64,2.44,2.44,0,0,1,1.28-.35,3,3,0,0,1,2.07.85,2.64,2.64,0,0,1,.93,2,2.6,2.6,0,0,1-.22,1.07c-.14.33-.31.69-.5,1.06s-.38.81-.57,1.29a50.31,50.31,0,0,1-7,8.83,40.33,40.33,0,0,1-7.76,6,18.51,18.51,0,0,1-9.76,2.71,22.48,22.48,0,0,1-7.41-1.14,19.42,19.42,0,0,1-5.7-3.06,13.37,13.37,0,0,1-3.7-4.49,12.18,12.18,0,0,1-1.28-5.56,26.93,26.93,0,0,1,1.42-8.83,72.19,72.19,0,0,1,3.06-7.55q1.65-3.42,3.07-6.06a9.68,9.68,0,0,0,1.42-4.34,1.85,1.85,0,0,0-1.35-1.71,24.34,24.34,0,0,0-2.92-1,41.43,41.43,0,0,0-4.28-.71,145.25,145.25,0,0,1-7.83,17q-3.71,6.63-6,9.91a15,15,0,0,1-1.07,1.28,2.68,2.68,0,0,1-2.07.85,2.82,2.82,0,0,1-2.06-.92,2.87,2.87,0,0,1-.93-2.07,3.32,3.32,0,0,1,.64-1.92,13.15,13.15,0,0,0,.93-1.5q2-2.85,5.62-9a78.69,78.69,0,0,0,6.77-16.32,8.73,8.73,0,0,1-2.42-2.56,15.47,15.47,0,0,1-1.57-3.28,14.08,14.08,0,0,1-.71-4.7,10.71,10.71,0,0,1,.78-4.06,11.25,11.25,0,0,1,2.07-3.35,11.82,11.82,0,0,1,2.71-2.28,5.24,5.24,0,0,1,2.7-.85,6.7,6.7,0,0,1,3,.78,14.39,14.39,0,0,1,2.85,1.85,10.25,10.25,0,0,1,2.14,2.43,4.59,4.59,0,0,1,.86,2.35,10.46,10.46,0,0,1-.93,4.7,7.91,7.91,0,0,0-.93,3.56,2.39,2.39,0,0,0,1.71,2.28,11.1,11.1,0,0,0,4.28.71,24.41,24.41,0,0,0,4.06-.28c1.09-.19,2.06-.41,2.92-.65l2.42-.64a10,10,0,0,1,2.42-.28,5.18,5.18,0,0,1,4.2,2,7.38,7.38,0,0,1,1.64,4.85,13.5,13.5,0,0,1-1.64,5.77c-1.09,2.23-2.3,4.68-3.63,7.33a87.36,87.36,0,0,0-3.63,8.34A24.37,24.37,0,0,0,547,186Z"/><path class="cls-4" d="M622.33,183a36.63,36.63,0,0,1-7.83,8.83,45.21,45.21,0,0,1-9.9,6,33.43,33.43,0,0,1-14,2.71,30.34,30.34,0,0,1-10-1.57,23.93,23.93,0,0,1-7.83-4.34,19.85,19.85,0,0,1-5.13-6.63,19,19,0,0,1-1.86-8.4,35.85,35.85,0,0,1,3-14.82,40.17,40.17,0,0,1,7.55-11.47,34.22,34.22,0,0,1,9.9-7.34,23.43,23.43,0,0,1,10-2.56,14.83,14.83,0,0,1,6.13,1.28,17.5,17.5,0,0,1,5,3.35,15.27,15.27,0,0,1,3.35,4.77,13.46,13.46,0,0,1,1.21,5.56A22.41,22.41,0,0,1,607,171.43a22.08,22.08,0,0,1-7.13,5.62,23.88,23.88,0,0,1-11.18,2.35,13.79,13.79,0,0,1-3.28-.42c-.66-.1-1.37-.24-2.13-.43q0,6.4,3.7,9.83a12.58,12.58,0,0,0,8.83,3.42,20,20,0,0,0,9.12-2.07,34.43,34.43,0,0,0,7-4.48,29.4,29.4,0,0,0,5.84-6.56,3.06,3.06,0,0,1,.72-1,5.6,5.6,0,0,1,.85-.64,2.44,2.44,0,0,1,1.28-.35,3,3,0,0,1,2.07.85,2.64,2.64,0,0,1,.93,2,2.77,2.77,0,0,1-.22,1.07c-.14.33-.31.69-.5,1.06S622.52,182.49,622.33,183ZM584,172.71a13.46,13.46,0,0,0,7.27-2.14,23.57,23.57,0,0,0,5.91-5.2,27.24,27.24,0,0,0,3.92-6.34,14.6,14.6,0,0,0,1.42-5.55c0-1.9-.85-2.85-2.56-2.85a8.91,8.91,0,0,0-5.84,2.42,25.94,25.94,0,0,0-5.06,5.84,36.8,36.8,0,0,0-3.64,7.26A19.54,19.54,0,0,0,584,172.71Z"/><path class="cls-4" d="M680.6,183a35.74,35.74,0,0,1-9.26,9.26,51.7,51.7,0,0,1-12.46,6.41q-7.64,2.85-18.6,2.85a24.5,24.5,0,0,1-10-2.07,30.44,30.44,0,0,1-8.19-5.2,26.68,26.68,0,0,1-5.56-6.84,14.29,14.29,0,0,1-2.06-6.84,7.2,7.2,0,0,1,2.13-5.27,21.47,21.47,0,0,1,4.71-3.56,32,32,0,0,1,6.83-2.56q.86-1.43,2.28-3.57,1.14-1.85,3-4.63t4.27-6.62q5-7.54,8.55-10.47t6.27-2.92a5,5,0,0,1,2.35.64,15.46,15.46,0,0,1,2.28,1.5,10.18,10.18,0,0,1,1.71,1.7,2.66,2.66,0,0,1,.64,1.43A4,4,0,0,1,659,148c-.38.71-.79,1.47-1.21,2.28a20.48,20.48,0,0,0-1.14,2.56,7.85,7.85,0,0,0-.5,2.78A28.39,28.39,0,0,0,657,163a59.36,59.36,0,0,0,1.93,5.91c.71,1.86,1.35,3.66,1.92,5.42a21.83,21.83,0,0,1,.35,10.68,16.7,16.7,0,0,1-1.21,3.35,14.1,14.1,0,0,1-1.56,2.71,28.78,28.78,0,0,0,7.48-3.21,41.69,41.69,0,0,0,5.62-4.06,37.74,37.74,0,0,0,4.56-5.13,3,3,0,0,1,.71-1,5.78,5.78,0,0,1,.86-.64,2.44,2.44,0,0,1,1.28-.35,3,3,0,0,1,2.07.85,2.67,2.67,0,0,1,.92,2,2.76,2.76,0,0,1-.21,1.07c-.14.33-.31.69-.5,1.06S680.79,182.49,680.6,183ZM640.43,161q-3,4.56-5.28,8.26-2,3.28-3.63,6.13a11.59,11.59,0,0,0-1.64,3.56,49.31,49.31,0,0,0,.36,6.05,22.71,22.71,0,0,0,1.21,5.2,10.54,10.54,0,0,0,2.14,3.63,4.27,4.27,0,0,0,3.27,1.36c2.19,0,4.06-1.19,5.63-3.56a14.91,14.91,0,0,0,2.35-8.41,25,25,0,0,0-.71-5.7c-.48-2-1-4-1.5-5.91s-1-3.85-1.49-5.7A19.81,19.81,0,0,1,640.43,161Z"/><path class="cls-4" d="M738.87,183a35.9,35.9,0,0,1-9.26,9.26,51.79,51.79,0,0,1-12.47,6.41q-7.62,2.85-18.59,2.85a24.46,24.46,0,0,1-10-2.07,30.13,30.13,0,0,1-8.19-5.2,26.68,26.68,0,0,1-5.56-6.84,14.29,14.29,0,0,1-2.06-6.84,7.2,7.2,0,0,1,2.13-5.27,21.41,21.41,0,0,1,4.7-3.56,32.25,32.25,0,0,1,6.84-2.56q.85-1.43,2.28-3.57,1.14-1.85,3-4.63c1.24-1.85,2.66-4.06,4.28-6.62q5-7.54,8.55-10.47t6.26-2.92a5,5,0,0,1,2.35.64,14.47,14.47,0,0,1,2.28,1.5,9.48,9.48,0,0,1,1.71,1.7,2.59,2.59,0,0,1,.64,1.43,4,4,0,0,1-.57,1.78L716,150.27a23.88,23.88,0,0,0-1.14,2.56,8.06,8.06,0,0,0-.49,2.78,28.39,28.39,0,0,0,.85,7.41,62.1,62.1,0,0,0,1.92,5.91c.72,1.86,1.36,3.66,1.93,5.42a19.13,19.13,0,0,1,.85,5.91,19.43,19.43,0,0,1-.5,4.77,16.7,16.7,0,0,1-1.21,3.35,14.64,14.64,0,0,1-1.56,2.71,28.57,28.57,0,0,0,7.47-3.21,41.21,41.21,0,0,0,5.63-4.06,37.74,37.74,0,0,0,4.56-5.13,2.86,2.86,0,0,1,.71-1,5.78,5.78,0,0,1,.86-.64,2.41,2.41,0,0,1,1.28-.35,3,3,0,0,1,2.07.85,2.67,2.67,0,0,1,.92,2,2.76,2.76,0,0,1-.21,1.07c-.14.33-.31.69-.5,1.06S739.06,182.49,738.87,183ZM698.69,161q-3,4.56-5.27,8.26-2,3.28-3.63,6.13a11.59,11.59,0,0,0-1.64,3.56,49.31,49.31,0,0,0,.36,6.05,22.2,22.2,0,0,0,1.21,5.2,10.54,10.54,0,0,0,2.14,3.63,4.27,4.27,0,0,0,3.27,1.36c2.19,0,4.06-1.19,5.63-3.56a14.91,14.91,0,0,0,2.35-8.41,25,25,0,0,0-.71-5.7q-.72-3-1.5-5.91t-1.49-5.7A19.87,19.87,0,0,1,698.69,161Z"/><path class="cls-4" d="M739.58,188.52a10.76,10.76,0,0,1,2.78.36,13.29,13.29,0,0,0,3.35.35,17,17,0,0,0,12.53-5.34,50.49,50.49,0,0,0,9.27-13.53,115.6,115.6,0,0,0,6.83-17.88q2.85-9.69,5.27-18.38a47.08,47.08,0,0,1,5-12.68,40.46,40.46,0,0,1,5.27-7,13,13,0,0,1,6-3.42,47.25,47.25,0,0,0-10.33-3.35,69.11,69.11,0,0,0-15.6-1.64A17.53,17.53,0,0,0,759.46,109a9.25,9.25,0,0,0-4.06,7.91,12.59,12.59,0,0,0,1.06,5.49,15.71,15.71,0,0,0,2.43,3.7c.9,1,1.71,1.83,2.42,2.49a2.72,2.72,0,0,1,1.07,1.71c0,1.81-1,2.71-3,2.71a19.86,19.86,0,0,1-6.48-1.28A26.48,26.48,0,0,1,746,128a23.41,23.41,0,0,1-5.55-5.77,13.21,13.21,0,0,1-2.28-7.62,14.16,14.16,0,0,1,2.85-9.12,21.22,21.22,0,0,1,7-5.69,32,32,0,0,1,9.12-3,53,53,0,0,1,9-.85,105,105,0,0,1,12.82.71q5.7.72,11.54,1.64t12.54,1.64a153.54,153.54,0,0,0,15.82.71,43.8,43.8,0,0,0,8.83-.71,22.8,22.8,0,0,0,5.13-1.64,18,18,0,0,0,2.78-1.64,2.83,2.83,0,0,1,1.63-.71,2.89,2.89,0,0,1,2.14.85,2.75,2.75,0,0,1,.86,2,9.56,9.56,0,0,1-1.64,3.7,29.64,29.64,0,0,1-4.42,5.49,36,36,0,0,1-6.27,5,13.44,13.44,0,0,1-7.33,2.21,56.26,56.26,0,0,1-6.42-.35q-3-.36-5.27-.79c-1.71-.38-3.32-.8-4.84-1.28a5.36,5.36,0,0,0-1.43,1.28,16.08,16.08,0,0,0-2,3.49,60.92,60.92,0,0,0-2.49,6.84q-1.37,4.35-2.78,11.18-1.29,5.7-2.49,12.76t-3,14.24a124,124,0,0,1-4.34,14,54.12,54.12,0,0,1-6.34,12.19,30,30,0,0,1-9.12,8.54,24,24,0,0,1-12.61,3.21,33.58,33.58,0,0,1-8-.93,29.75,29.75,0,0,1-6.55-2.35,16.41,16.41,0,0,1-4.35-3.06,4.59,4.59,0,0,1-1.56-2.92,2.65,2.65,0,0,1,.71-2.07A2.68,2.68,0,0,1,739.58,188.52Z"/><path class="cls-4" d="M873.07,183a50.31,50.31,0,0,1-7,8.83,40.64,40.64,0,0,1-7.76,6,18.54,18.54,0,0,1-9.76,2.71,16.55,16.55,0,0,1-10.12-3.06,12.53,12.53,0,0,1-4.84-9.05,37.4,37.4,0,0,1-6.13,6.13,39.63,39.63,0,0,1-6.41,4.13,16.47,16.47,0,0,1-7.69,1.85,14.55,14.55,0,0,1-5.49-1.07,13.18,13.18,0,0,1-4.56-3.06,15.14,15.14,0,0,1-4.2-10.69,42.07,42.07,0,0,1,2.92-15.24,53.87,53.87,0,0,1,7.62-13.61,41.91,41.91,0,0,1,10.55-9.76,21.84,21.84,0,0,1,18.94-2.63,20.69,20.69,0,0,1,4.85,2.35,16.58,16.58,0,0,1,3.42,3.28,17.75,17.75,0,0,1,3.35.35,12.28,12.28,0,0,1,3.27,1.14,7.52,7.52,0,0,1,2.5,2.07,5,5,0,0,1,1,3.13,17.4,17.4,0,0,1-1.28,5.13c-.85,2.38-1.8,5-2.85,7.91s-2,5.89-2.85,9a31.39,31.39,0,0,0-1.28,8.19,4,4,0,0,0,1.07,2.85,3.76,3.76,0,0,0,2.92,1.14,10,10,0,0,0,5.63-1.85,24.91,24.91,0,0,0,4.91-4.27,31.27,31.27,0,0,0,4.7-6.13,2.92,2.92,0,0,1,.72-1,5.13,5.13,0,0,1,.85-.64,2.44,2.44,0,0,1,1.28-.35,3,3,0,0,1,2.07.85,2.67,2.67,0,0,1,.92,2,2.76,2.76,0,0,1-.21,1.07c-.14.33-.31.69-.5,1.06S873.26,182.49,873.07,183ZM840,157.75a6.3,6.3,0,0,0-1.5-4.63,4.91,4.91,0,0,0-3.63-1.5c-2.09,0-4.23,1.1-6.41,3.28a35.46,35.46,0,0,0-5.91,8,54,54,0,0,0-4.35,10.33,34.3,34.3,0,0,0-1.71,10q0,6.41,4.13,6.41,2.57,0,5.92-3.42a45.61,45.61,0,0,0,6.34-8.4A64.71,64.71,0,0,0,838,167.37,27.83,27.83,0,0,0,840,157.75Z"/><path class="cls-4" d="M931.34,183a35.9,35.9,0,0,1-9.26,9.26,51.79,51.79,0,0,1-12.47,6.41Q902,201.49,891,201.49a24.46,24.46,0,0,1-10-2.07,30.13,30.13,0,0,1-8.19-5.2,26.68,26.68,0,0,1-5.56-6.84,14.31,14.31,0,0,1-2.07-6.84,7.2,7.2,0,0,1,2.14-5.27,21.41,21.41,0,0,1,4.7-3.56,32.25,32.25,0,0,1,6.84-2.56q.86-1.43,2.28-3.57,1.14-1.85,3-4.63c1.24-1.85,2.66-4.06,4.28-6.62q5-7.54,8.54-10.47t6.27-2.92a5,5,0,0,1,2.35.64,14.47,14.47,0,0,1,2.28,1.5,9.48,9.48,0,0,1,1.71,1.7,2.59,2.59,0,0,1,.64,1.43,4,4,0,0,1-.57,1.78l-1.21,2.28a23.88,23.88,0,0,0-1.14,2.56,8.08,8.08,0,0,0-.5,2.78,28.36,28.36,0,0,0,.86,7.41,62.1,62.1,0,0,0,1.92,5.91c.72,1.86,1.36,3.66,1.93,5.42a19.13,19.13,0,0,1,.85,5.91,19.43,19.43,0,0,1-.5,4.77,16.7,16.7,0,0,1-1.21,3.35,14.11,14.11,0,0,1-1.57,2.71,28.49,28.49,0,0,0,7.48-3.21,41.85,41.85,0,0,0,5.63-4.06,37.74,37.74,0,0,0,4.56-5.13,2.86,2.86,0,0,1,.71-1,5.78,5.78,0,0,1,.86-.64,2.41,2.41,0,0,1,1.28-.35,3,3,0,0,1,2.07.85,2.67,2.67,0,0,1,.92,2,2.76,2.76,0,0,1-.21,1.07c-.15.33-.31.69-.5,1.06S931.53,182.49,931.34,183ZM891.16,161q-3,4.56-5.27,8.26-2,3.28-3.63,6.13a11.59,11.59,0,0,0-1.64,3.56A49.31,49.31,0,0,0,881,185a22.2,22.2,0,0,0,1.21,5.2,10.54,10.54,0,0,0,2.14,3.63,4.27,4.27,0,0,0,3.27,1.36c2.19,0,4.06-1.19,5.63-3.56a14.91,14.91,0,0,0,2.35-8.41,25,25,0,0,0-.71-5.7q-.72-3-1.5-5.91t-1.49-5.7A19.87,19.87,0,0,1,891.16,161Z"/><path class="cls-4" d="M950.29,190.94a10,10,0,0,0,5.62-1.85,25,25,0,0,0,4.92-4.27,31.27,31.27,0,0,0,4.7-6.13,2.86,2.86,0,0,1,.71-1,5.78,5.78,0,0,1,.86-.64,2.41,2.41,0,0,1,1.28-.35,3,3,0,0,1,2.07.85,2.67,2.67,0,0,1,.92,2,2.76,2.76,0,0,1-.21,1.07c-.14.33-.31.69-.5,1.06s-.38.81-.57,1.29a50.78,50.78,0,0,1-7,8.83,40.41,40.41,0,0,1-7.77,6,18.48,18.48,0,0,1-9.75,2.71,22.5,22.5,0,0,1-13.47-4.7,20.18,20.18,0,0,1-4.84-5.42,12.8,12.8,0,0,1-1.93-6.83,46.16,46.16,0,0,1,.72-7.34c.47-2.9,1.14-6.06,2-9.48s1.83-7,2.92-10.82,2.26-7.55,3.49-11.26h-3.84c-.76,0-1.14-.42-1.14-1.28a6,6,0,0,1,1.35-3.06,3.72,3.72,0,0,1,2.92-1.93h2.85q2.13-5.84,4.2-10.75a72.69,72.69,0,0,1,4.06-8.34,5.52,5.52,0,0,1,1.57-1.92,3.58,3.58,0,0,1,2.28-.78,7.76,7.76,0,0,1,3.49,1,23.21,23.21,0,0,1,3.63,2.35,18,18,0,0,1,2.85,2.78,4.23,4.23,0,0,1,1.14,2.42,17.39,17.39,0,0,1-1.35,4.49q-1.37,3.49-3.35,8.76h9.55c.75,0,1.14.43,1.14,1.29a3.43,3.43,0,0,1-.43,1.42,8.87,8.87,0,0,1-1.07,1.64,9.56,9.56,0,0,1-1.35,1.35,2.29,2.29,0,0,1-1.43.57h-8.83q-1.71,4.71-3.49,10T946,165c-1,3.41-1.73,6.72-2.35,9.9a45.35,45.35,0,0,0-.92,8.62,7,7,0,0,0,2.2,5.34A7.55,7.55,0,0,0,950.29,190.94Z"/><path class="cls-4" d="M994.59,191.23a17.74,17.74,0,0,0,5.77-.86,20.06,20.06,0,0,0,4.28-2,21.16,21.16,0,0,0,3.06-2.35c.85-.81,1.52-1.45,2-1.92l1-1,1-.64a2.12,2.12,0,0,1,1.14-.36,2.9,2.9,0,0,1,2.13.86,2.73,2.73,0,0,1,.86,2,1.79,1.79,0,0,1-.36,1.07,8.65,8.65,0,0,0-.64,1.07c-.28.38-.57.81-.85,1.28a34.33,34.33,0,0,1-6.7,6.13,41.05,41.05,0,0,1-7.76,4.13,27,27,0,0,1-10.33,1.85,30.3,30.3,0,0,1-10-1.57,24,24,0,0,1-7.84-4.34,19.85,19.85,0,0,1-5.13-6.63,19.14,19.14,0,0,1-1.85-8.4,36,36,0,0,1,3-14.82,40.38,40.38,0,0,1,7.55-11.47,34.22,34.22,0,0,1,9.9-7.34,23.43,23.43,0,0,1,10-2.56,14.82,14.82,0,0,1,6.12,1.28,17.69,17.69,0,0,1,5,3.35,15.43,15.43,0,0,1,3.35,4.77,13.63,13.63,0,0,1,1.21,5.56,21.36,21.36,0,0,1-1.14,6.2,21.11,21.11,0,0,1-3.78,6.91,22.15,22.15,0,0,1-7.12,5.62,23.88,23.88,0,0,1-11.18,2.35,13.73,13.73,0,0,1-3.28-.42c-.67-.1-1.38-.24-2.14-.43,0,4.27,1.26,7.46,3.78,9.54A13.48,13.48,0,0,0,994.59,191.23Zm-12-18.52a13.44,13.44,0,0,0,7.27-2.14,23.57,23.57,0,0,0,5.91-5.2,27.24,27.24,0,0,0,3.92-6.34,14.45,14.45,0,0,0,1.43-5.55c0-1.9-.86-2.85-2.57-2.85a9,9,0,0,0-5.84,2.42,26.19,26.19,0,0,0-5.06,5.84,37.31,37.31,0,0,0-3.63,7.26A19.59,19.59,0,0,0,982.62,172.71Z"/><ellipse class="cls-4" cx="178.88" cy="167.84" rx="121.28" ry="121.33"/><path class="cls-2" d="M74.23,187.8c.65,40.73,45.73,33.83,45.73,33.83l9.3,26.19c46.05-31.63,70.37-30.07,70.37-30.07-37.76,1.45-67.36,19.7-67.36,19.7l-9.92-23.95s-38.64,6.55-41.91-24.9,44.86-31.45,44.86-31.45C95.63,156,73.88,166.15,74.23,187.8Z"/><path class="cls-2" d="M279.67,115.15c8,14.29,9.71,37.09-15.86,71.15l13.43,42.59S216.46,215.17,144,251.82c0,0,39.1-35.84,122.47-33.41l-7.86-26.54s-49.48-16.34-114.31,17.23c0,0,31.14-26.73,84.19-31.64,0,0,7.53-21.62-5.24-36.36,0,0,13.07,15.25,13.12,34.22a.9.9,0,0,0,1.32.83c4.4-2.42,17.9-12.31,14-41,0,0,6.07,16.63.53,41.67a.35.35,0,0,0,.52.4c4.07-3,23.23-20.46,14.67-45-9.59-27.49-36-22-41.59-21.62-28.85,2-82.75,72.45-116.94,69.63,0,0,10.34-4.85,72.4-57.84C249.57,64.14,274.89,106.58,279.67,115.15Z"/><path class="cls-1" d="M124.62,244.57a1,1,0,0,1-.29,0,1,1,0,0,1-.59-.57l-9-25.48a56.62,56.62,0,0,1-6.58.35c-11.7,0-39-3.42-39.46-35.19a25.76,25.76,0,0,1,7.44-19.2C84,156.38,98.24,152,116.14,152c1.49,0,3,0,4.56.09a.93.93,0,0,1,0,1.86c-.27,0-27,.16-38.68,13.11-4.2,4.66-6,10.49-5.26,17.31C79,205.76,98.26,209,109.57,209a52.35,52.35,0,0,0,8-.56h.15a.94.94,0,0,1,.86.57l9.51,23c5.12-2.93,30.53-16.65,62.22-19a35.08,35.08,0,0,1,4.11-.27h.64a.93.93,0,0,1,0,1.85c-1.51.06-3,.15-4.55.26-8.06,1-30.53,5.75-65.33,29.65A1,1,0,0,1,124.62,244.57Z"/><path class="cls-4" d="M116.14,152.88c1.48,0,3,0,4.52.09,0,0-48.14,0-44.86,31.45,2.31,22.2,22.24,25.46,33.77,25.46a54.4,54.4,0,0,0,8.14-.56l9.92,24s27.22-16.78,62.76-19.43c-9,1.06-31.33,6.15-65.77,29.8l-9.3-26.19a51.52,51.52,0,0,1-7.2.45c-12.76,0-38.05-3.85-38.53-34.28-.33-20.53,19.21-30.74,46.55-30.74m78.27,60.68c.39,0,.58,0,.58,0-1.55.06-3.08.14-4.6.26a33.67,33.67,0,0,1,4-.28M116.14,151c-18.42,0-32.49,4.41-40.7,12.75a26.72,26.72,0,0,0-7.71,19.88c.52,32.58,28.42,36.1,40.39,36.1,2.57,0,4.64-.15,5.95-.28l8.8,24.79a1.87,1.87,0,0,0,1.18,1.15,1.84,1.84,0,0,0,.57.09,1.81,1.81,0,0,0,1-.33c34.6-23.76,56.89-28.54,64.9-29.49,1.5-.11,3-.19,4.49-.25a1.86,1.86,0,0,0,.05-3.71h-.7a37.24,37.24,0,0,0-4.2.28c-30.27,2.27-54.85,14.83-61.67,18.62l-9.11-22a1.86,1.86,0,0,0-1.72-1.15l-.31,0a53.68,53.68,0,0,1-7.83.54c-11,0-29.77-3.09-31.93-23.8-.68-6.56,1-12.14,5-16.6,11.38-12.64,37.73-12.8,38-12.8a1.86,1.86,0,0,0,.07-3.71c-1.54-.07-3.09-.1-4.59-.1Z"/><path class="cls-1" d="M139.33,248.57a.93.93,0,0,1-.63-1.61c.37-.34,37.75-33.77,115.05-33.77,2.24,0,4.52,0,6.79.08l-7.35-24.83c-2.38-.7-13.84-3.79-31.29-3.79-18.75,0-48.17,3.66-81.85,21.1a1,1,0,0,1-.43.11.93.93,0,0,1-.61-1.64c.32-.27,31.74-26.77,84.1-31.8,1-3.2,5.21-19.37-3-31.93-1.32-1.89-2.24-3-2.25-3a.93.93,0,0,1,.1-1.3.9.9,0,0,1,.61-.23.92.92,0,0,1,.7.32,28.7,28.7,0,0,1,2.37,3.14c4.09,5.85,10.94,17.74,11,31.69,4.08-2.26,17.3-11.89,13.52-40a.93.93,0,0,1,.7-1,.83.83,0,0,1,.22,0,.94.94,0,0,1,.87.61c.25.68,5.85,16.47.91,40.58,4.79-4.19,20.9-20.41,13.06-42.9-5-14.4-15.45-21.7-31-21.7a70.13,70.13,0,0,0-7.82.51c-.74.09-1.36.15-1.84.19-12.86.89-31.06,15.9-50.33,31.79-22.6,18.65-46,37.93-64.64,37.93-.71,0-1.42,0-2.1-.09a.92.92,0,0,1-.32-1.76c.42-.21,11.29-5.72,72.19-57.71,23.66-20.2,44.67-30.44,62.44-30.44,15.88,0,28.8,8.1,37.35,23.42,7.41,13.28,10.69,36.5-15.64,71.78l13.28,42.14a.92.92,0,0,1-.88,1.2.65.65,0,0,1-.2,0c-.12,0-11.29-2.49-29.38-2.49-24.25,0-61.84,4.39-103.28,25.34A.86.86,0,0,1,139.33,248.57Z"/><path class="cls-4" d="M238.49,88c23.14,0,33.63,17.73,36.54,23,8,14.28,9.71,37.08-15.86,71.15l13.43,42.58S261.45,222.2,243,222.2c-24.62,0-62.24,4.48-103.7,25.45,0,0,36.59-33.54,114.43-33.54,2.64,0,5.31,0,8,.12l-7.86-26.53s-12-4-32-4c-20.52,0-49.43,4.19-82.28,21.21,0,0,31.14-26.73,84.19-31.65,0,0,6.55-18.81-2.93-33.31,3.75,5.38,10.77,17.28,10.81,31.18a.92.92,0,0,0,.9.94A.84.84,0,0,0,233,172c4.4-2.42,17.9-12.31,14.05-40.95,0,0,6.07,16.63.53,41.67a.38.38,0,0,0,.33.47.34.34,0,0,0,.19-.07c4.07-3,23.23-20.45,14.67-45-6.7-19.2-21.58-22.32-31.87-22.32a95.69,95.69,0,0,0-9.72.7c-28.29,2-80.65,69.72-114.91,69.72-.68,0-1.36,0-2-.08,0,0,10.34-4.86,72.4-57.84C203.41,95.4,223.58,88,238.49,88m-19.92,48.89a29.47,29.47,0,0,1,2.31,3.05c-1.38-2-2.31-3.05-2.31-3.05M238.5,86.17h0c-18,0-39.21,10.32-63,30.66-60.5,51.65-71.56,57.37-72,57.59a1.86,1.86,0,0,0,.66,3.52c.71.06,1.45.09,2.18.09,19,0,42.5-19.39,65.24-38.14,19.15-15.8,37.23-30.72,49.8-31.59.5,0,1.14-.1,1.87-.18a66.32,66.32,0,0,1,7.72-.51c15.1,0,25.24,7.09,30.11,21.07,6.77,19.4-4.74,34-10.73,40,4-22.79-1.25-37.62-1.49-38.28a1.85,1.85,0,0,0-1.74-1.21,1.73,1.73,0,0,0-.45.05,1.85,1.85,0,0,0-1.39,2.05c3.34,24.84-6.76,34.88-11.71,38.22-.54-13.48-7.11-24.85-11.1-30.56A30.39,30.39,0,0,0,220,135.7a1.86,1.86,0,0,0-2.81,2.43h0s.89,1.05,2.18,2.88c7.56,11.58,4.21,26.4,3,30.54A175.75,175.75,0,0,0,161,189.29c-14.45,7.32-22.25,14-22.57,14.23a1.85,1.85,0,0,0-.33,2.45,1.87,1.87,0,0,0,1.54.81,1.83,1.83,0,0,0,.85-.2c33.52-17.36,62.78-21,81.43-21,16.36,0,27.4,2.74,30.54,3.62l6.85,23.12c-1.86,0-3.71-.05-5.54-.05-40.53,0-69.77,9.2-87.15,16.92-18.94,8.41-28.15,16.75-28.53,17.1a1.85,1.85,0,0,0-.27,2.42,1.83,1.83,0,0,0,1.53.8,1.78,1.78,0,0,0,.83-.2c41.27-20.87,78.71-25.25,102.85-25.25,18,0,29.07,2.45,29.18,2.48a1.9,1.9,0,0,0,.41,0,1.85,1.85,0,0,0,1.77-2.41l-13.14-41.68c11.49-15.49,18.32-30,20.28-43.07,1.63-10.79,0-20.66-4.86-29.34-8.72-15.63-21.92-23.9-38.15-23.9Z"/><path class="cls-1" d="M69.59,183.62c.65,40.73,45.73,33.83,45.73,33.83l9.3,26.19C170.67,212,195,213.58,195,213.58c-37.76,1.44-67.36,19.69-67.36,19.69l-9.92-24s-38.64,6.55-41.91-24.9S120.66,153,120.66,153C91,151.8,69.24,162,69.59,183.62Z"/><path class="cls-1" d="M275,111c8,14.28,9.71,37.08-15.86,71.15l13.43,42.58S211.82,211,139.32,247.65c0,0,39.1-35.84,122.47-33.42l-7.86-26.53s-49.48-16.35-114.31,17.23c0,0,31.14-26.73,84.19-31.65,0,0,7.53-21.62-5.24-36.36,0,0,13.07,15.25,13.12,34.23A.9.9,0,0,0,233,172c4.4-2.42,17.9-12.31,14.05-40.95,0,0,6.07,16.63.53,41.67-.07.33.26.6.52.4,4.07-3,23.23-20.45,14.67-45-9.59-27.49-35.95-22-41.59-21.62-28.85,2-82.75,72.45-116.94,69.64,0,0,10.34-4.86,72.4-57.84C244.93,60,270.25,102.41,275,111Z"/></svg>