<svg id="Capa_1" data-name="Capa 1" xmlns="http://www.w3.org/2000/svg" viewBox="0 0 1080 324.62"><defs><style>.cls-1{fill:#e8308a;}.cls-2,.cls-3{fill:#1e406a;}.cls-3{stroke:#fff;stroke-miterlimit:10;stroke-width:2.97px;}.cls-4{fill:#fff;}</style></defs><path class="cls-1" d="M363.64,209.07a50.65,50.65,0,0,1-11.75-1.4,33.26,33.26,0,0,1-10.57-4.48,25.37,25.37,0,0,1-7.69-7.91,21.31,21.31,0,0,1-3-11.54,26.4,26.4,0,0,1,2.1-10.77,36.22,36.22,0,0,1,5.24-8.54,37.36,37.36,0,0,1,6.86-6.44,76.14,76.14,0,0,1,6.93-4.47,46.11,46.11,0,0,1,5.52-2.73q2.31-.91,2.73-1a10.06,10.06,0,0,1-1.54-.77,15.37,15.37,0,0,1-3.08-2.38,20.48,20.48,0,0,1-3.21-4.13,16.41,16.41,0,0,1-2.1-6.15q-10.63-1-15.88-4.2t-5.25-8.26a13.13,13.13,0,0,1,2-6.85,28.51,28.51,0,0,1,4.83-6,31.1,31.1,0,0,1,5.66-4.34,9.89,9.89,0,0,1,4.41-1.68,1.09,1.09,0,0,1,1,.42,1.48,1.48,0,0,1,.28.84,5.53,5.53,0,0,1-1.26,2.45,7.12,7.12,0,0,0-1.26,4.27,10.79,10.79,0,0,0,2,6.23,18.45,18.45,0,0,0,5.46,5.1,29.22,29.22,0,0,1,6.36-8.11,47.18,47.18,0,0,1,9.24-6.58,49.22,49.22,0,0,1,10.84-4.34,43.43,43.43,0,0,1,11.2-1.54,26.66,26.66,0,0,1,7.06.91,20.36,20.36,0,0,1,5.74,2.52,12.5,12.5,0,0,1,3.85,3.92,9.69,9.69,0,0,1,1.4,5.11,10.85,10.85,0,0,1-2.8,7,25.86,25.86,0,0,1-8.05,6.09,59.31,59.31,0,0,1-12.66,4.62,90.31,90.31,0,0,1-16.65,2.45,21.75,21.75,0,0,0,.63,4.26,16.11,16.11,0,0,0,1.19,3.29,27.22,27.22,0,0,0,1.54,2.94c.74-.09,1.63-.23,2.65-.42.84-.09,1.85-.18,3-.28s2.5-.14,4-.14q8.25,0,8.26,4.9,0,2.1-2.45,4.27a9.49,9.49,0,0,1-6.51,2.16,27.47,27.47,0,0,1-4.62-.35,20.46,20.46,0,0,1-3.63-.9,15.77,15.77,0,0,1-3.08-1.4,44.2,44.2,0,0,0-9.24,7.27,40.72,40.72,0,0,0-6.36,9,25.72,25.72,0,0,0-2.87,12.45q0,8.82,4.76,13.08t13.57,4.27a26.46,26.46,0,0,0,14.27-4.2A37.34,37.34,0,0,0,394.14,185a2.73,2.73,0,0,1,.7-1,4.78,4.78,0,0,1,.84-.63,2.34,2.34,0,0,1,1.26-.35,2.85,2.85,0,0,1,2.1.84,2.68,2.68,0,0,1,.84,2,6.41,6.41,0,0,1-.56,2.1l-.56,1.12a41.8,41.8,0,0,1-5.6,7.34,39.92,39.92,0,0,1-7.76,6.37,42.54,42.54,0,0,1-9.87,4.55A38.91,38.91,0,0,1,363.64,209.07Zm25.61-99.35a16.06,16.06,0,0,0-6.44,1.4,23.12,23.12,0,0,0-6,3.85,28.22,28.22,0,0,0-5,5.88,26.06,26.06,0,0,0-3.36,7.48,58.48,58.48,0,0,0,11.12-1,35.75,35.75,0,0,0,8.89-2.8,17.26,17.26,0,0,0,5.87-4.33,8.54,8.54,0,0,0,2.1-5.6,4.06,4.06,0,0,0-2.1-3.57A9.25,9.25,0,0,0,389.25,109.72Z"/><path class="cls-1" d="M410.79,166a104.06,104.06,0,0,1-6.64,14.34q-3.3,5.67-5.53,8.89a13,13,0,0,1-1.05,1.26,2.62,2.62,0,0,1-2,.84,3.12,3.12,0,0,1-2.94-2.94,3.29,3.29,0,0,1,.63-1.89,12.57,12.57,0,0,0,.91-1.47q2-2.81,5.53-8.89a77.56,77.56,0,0,0,6.65-16A9.56,9.56,0,0,1,408.9,156a19.24,19.24,0,0,1,4.2-3.08,23,23,0,0,1,4.83-2,17.24,17.24,0,0,1,4.62-.7q5.18,0,7.13,5.32t2.52,17.91a33.83,33.83,0,0,0,5.25-9.38,23.67,23.67,0,0,0,1.61-6.58c0-.83.63-1.7,1.89-2.58a24.69,24.69,0,0,1,4.26-2.38,35.2,35.2,0,0,1,4.62-1.68,14.22,14.22,0,0,1,2.94-.63c1.77,0,2.66.84,2.66,2.52q0,1.4-2,4.89a67.72,67.72,0,0,1-5.32,7.7q-3.29,4.2-7.34,8.47a62.65,62.65,0,0,1-8.26,7.34q.56,8.26,3.15,12A8.12,8.12,0,0,0,442.7,197a9.82,9.82,0,0,0,5.52-1.82,24.67,24.67,0,0,0,4.83-4.19,31.15,31.15,0,0,0,4.62-6,2.61,2.61,0,0,1,.7-1,4.12,4.12,0,0,1,.84-.63,2.34,2.34,0,0,1,1.26-.35,2.9,2.9,0,0,1,2,.84,2.57,2.57,0,0,1,.91,2,2.66,2.66,0,0,1-.21,1c-.14.33-.3.68-.49,1.05s-.37.79-.56,1.26a49.31,49.31,0,0,1-6.85,8.67,39.6,39.6,0,0,1-7.63,5.88,18.23,18.23,0,0,1-9.58,2.66,24.82,24.82,0,0,1-12.94-3.29q-5.53-3.28-7.77-11.26-2.39,2.37-5.25,4.89c-1.91,1.68-3.82,3.25-5.73,4.69a40.6,40.6,0,0,1-5.53,3.57,10.29,10.29,0,0,1-4.62,1.4,2.22,2.22,0,0,1-1.47-.42,2.17,2.17,0,0,1-.49-1.68,8.16,8.16,0,0,1,.63-2.66,21.21,21.21,0,0,1,1.68-3.43,24.82,24.82,0,0,1,2.24-3.15,4.77,4.77,0,0,1,2.31-1.68A24.28,24.28,0,0,0,408.9,190q4-2.52,7.21-5-.71-5.88-1.12-9.79t-.7-6.37a15.19,15.19,0,0,0-.7-3.5c-.28-.7-.65-1.05-1.12-1.05Q411.5,164.29,410.79,166Z"/><path class="cls-1" d="M527.21,189.2a23.09,23.09,0,0,1-6,6,31.36,31.36,0,0,1-7.62,4.2,28.83,28.83,0,0,1-10.71,1.82c-.65,0-1.35,0-2.1-.07s-1.49-.12-2.24-.21a27.27,27.27,0,0,1-7,4,21.82,21.82,0,0,1-8,1.47,15.66,15.66,0,0,1-5.94-1,18.74,18.74,0,0,1-4.41-2.45,17,17,0,0,1-3.64-3.64,67,67,0,0,0-2.59,8.19q-1.34,5.1-2.45,10.84t-1.82,11.33a80.74,80.74,0,0,0-.7,9.66c0,2.05-.88,3.08-2.65,3.08a20.09,20.09,0,0,1-4.2-.49,14.15,14.15,0,0,1-4.13-1.61,9.45,9.45,0,0,1-3.15-3.08,8.62,8.62,0,0,1-1.26-4.76,49.83,49.83,0,0,1,1-7.9q1-5.39,2.52-12.39t3.64-15q2.1-8,4.27-15.95t4.33-14.9q2.17-7,4-11.89a4,4,0,0,1,3.92-2.66,9.4,9.4,0,0,1,4,1.26q2.44,1.26,5.66,6.29a52.29,52.29,0,0,1,6-4.47,44.74,44.74,0,0,1,5.81-3.08,15.59,15.59,0,0,1,6.36-1.4,14.61,14.61,0,0,1,6.86,1.61,17.65,17.65,0,0,1,5.25,4.13,20.32,20.32,0,0,1,3.43,5.59,16.2,16.2,0,0,1,1.26,6.16,39.8,39.8,0,0,1-2.59,13.15A48.44,48.44,0,0,1,505,194.37a4,4,0,0,0,1.26.14A14.53,14.53,0,0,0,512.8,193a27.55,27.55,0,0,0,5.17-3.28,38.21,38.21,0,0,0,4.76-4.76,2.73,2.73,0,0,1,.7-1,4.78,4.78,0,0,1,.84-.63,2.34,2.34,0,0,1,1.26-.35,2.94,2.94,0,0,1,2,.84,2.61,2.61,0,0,1,.91,2,2.66,2.66,0,0,1-.21,1c-.14.33-.31.68-.49,1.05A12.72,12.72,0,0,0,527.21,189.2Zm-54-1.26a13.7,13.7,0,0,0,2.1,7.41,6.35,6.35,0,0,0,5.59,3.36,7.11,7.11,0,0,0,4.62-2.1,3.31,3.31,0,0,1-.7-2,4.26,4.26,0,0,1,.77-2.3,11.1,11.1,0,0,1,1.82-2.17,13.23,13.23,0,0,1,2.24-1.68,4.16,4.16,0,0,1,2-.7,60.57,60.57,0,0,0,2.52-5.81q1.11-3,1.89-5.88t1.19-5.31a25,25,0,0,0,.41-4.13q0-3.78-1.18-5.32a4.27,4.27,0,0,0-3.57-1.54c-1.87,0-3.92,1-6.16,3a44.56,44.56,0,0,0-6.44,7.35,47.6,47.6,0,0,0-5.1,9.16A22.49,22.49,0,0,0,473.2,187.94Z"/><path class="cls-1" d="M558.13,192.14a4.91,4.91,0,0,0,1.26,3.63,4.54,4.54,0,0,0,3.36,1.26,9.79,9.79,0,0,0,5.52-1.82A24.67,24.67,0,0,0,573.1,191a31.15,31.15,0,0,0,4.62-6,2.73,2.73,0,0,1,.7-1,4.43,4.43,0,0,1,.84-.63,2.34,2.34,0,0,1,1.26-.35,2.94,2.94,0,0,1,2,.84,2.61,2.61,0,0,1,.91,2,2.66,2.66,0,0,1-.21,1c-.14.33-.31.68-.49,1.05a12.72,12.72,0,0,0-.56,1.26,49.83,49.83,0,0,1-6.86,8.67,39.83,39.83,0,0,1-7.62,5.88,18.27,18.27,0,0,1-9.59,2.66,22.26,22.26,0,0,1-7.28-1.12,18.92,18.92,0,0,1-5.59-3,13,13,0,0,1-3.64-4.41,12,12,0,0,1-1.26-5.45,26.55,26.55,0,0,1,1.4-8.68,68.5,68.5,0,0,1,3-7.42c1.07-2.23,2.07-4.22,3-5.94a9.63,9.63,0,0,0,1.4-4.27,1.82,1.82,0,0,0-1.33-1.68,24.12,24.12,0,0,0-2.87-1,40.27,40.27,0,0,0-4.2-.7,143.82,143.82,0,0,1-7.7,16.72q-3.63,6.51-5.87,9.73a13,13,0,0,1-1.05,1.26,2.63,2.63,0,0,1-2,.84,3.12,3.12,0,0,1-2.94-2.94,3.29,3.29,0,0,1,.63-1.89,14.12,14.12,0,0,0,.91-1.47q2-2.81,5.53-8.89a77.05,77.05,0,0,0,6.64-16,8.84,8.84,0,0,1-2.38-2.52,14.83,14.83,0,0,1-1.53-3.21,13.69,13.69,0,0,1-.7-4.62,10.35,10.35,0,0,1,.77-4,11.15,11.15,0,0,1,2-3.29,11.87,11.87,0,0,1,2.66-2.24,5.19,5.19,0,0,1,2.66-.84,6.65,6.65,0,0,1,2.94.77,14.65,14.65,0,0,1,2.8,1.82,10.27,10.27,0,0,1,2.1,2.38,4.55,4.55,0,0,1,.84,2.31,10.38,10.38,0,0,1-.91,4.62,7.77,7.77,0,0,0-.91,3.5,2.35,2.35,0,0,0,1.68,2.24,11.09,11.09,0,0,0,4.19.69,23.43,23.43,0,0,0,4-.28,26.61,26.61,0,0,0,2.87-.63c.84-.23,1.63-.44,2.38-.62a9.59,9.59,0,0,1,2.38-.28,5.12,5.12,0,0,1,4.13,1.95,7.29,7.29,0,0,1,1.61,4.76,13.38,13.38,0,0,1-1.61,5.67q-1.62,3.28-3.57,7.2a86.46,86.46,0,0,0-3.57,8.19A24,24,0,0,0,558.13,192.14Z"/><path class="cls-1" d="M632.15,189.2a36,36,0,0,1-7.7,8.67,44.05,44.05,0,0,1-9.72,5.88A32.92,32.92,0,0,1,601,206.41a30.15,30.15,0,0,1-9.8-1.54,23.71,23.71,0,0,1-7.7-4.27,19.6,19.6,0,0,1-5-6.51,18.75,18.75,0,0,1-1.82-8.25,35.22,35.22,0,0,1,2.94-14.55A39.52,39.52,0,0,1,587,160a33.68,33.68,0,0,1,9.73-7.2,22.86,22.86,0,0,1,9.86-2.52,14.5,14.5,0,0,1,6,1.26,17.2,17.2,0,0,1,4.9,3.29,14.84,14.84,0,0,1,3.28,4.68,13.18,13.18,0,0,1,1.19,5.46,20.83,20.83,0,0,1-1.12,6.09,20.56,20.56,0,0,1-3.7,6.78,21.77,21.77,0,0,1-7,5.53,23.49,23.49,0,0,1-11,2.31,13.25,13.25,0,0,1-3.22-.42,18.55,18.55,0,0,1-2.1-.42q0,6.3,3.64,9.65a12.32,12.32,0,0,0,8.67,3.36,19.67,19.67,0,0,0,9-2,34.15,34.15,0,0,0,6.85-4.4,29.08,29.08,0,0,0,5.74-6.44,2.73,2.73,0,0,1,.7-1,4.78,4.78,0,0,1,.84-.63,2.34,2.34,0,0,1,1.26-.35,2.94,2.94,0,0,1,2,.84,2.61,2.61,0,0,1,.91,2,2.66,2.66,0,0,1-.21,1c-.14.33-.31.68-.49,1.05A12.72,12.72,0,0,0,632.15,189.2Zm-37.64-10.08a13.19,13.19,0,0,0,7.13-2.1,23.51,23.51,0,0,0,5.81-5.1,26.83,26.83,0,0,0,3.85-6.23,14.23,14.23,0,0,0,1.4-5.46c0-1.86-.84-2.8-2.52-2.8a8.86,8.86,0,0,0-5.74,2.38,26,26,0,0,0-5,5.74,36.09,36.09,0,0,0-3.57,7.14A19,19,0,0,0,594.51,179.12Z"/><path class="cls-1" d="M689.38,189.2a35.25,35.25,0,0,1-9.1,9.09,50.8,50.8,0,0,1-12.24,6.3,52.52,52.52,0,0,1-18.26,2.8,24.16,24.16,0,0,1-9.8-2,29.84,29.84,0,0,1-8-5.11,26,26,0,0,1-5.46-6.72,14,14,0,0,1-2-6.71,7,7,0,0,1,2.1-5.18,21,21,0,0,1,4.62-3.5,32.33,32.33,0,0,1,6.71-2.52c.56-.93,1.31-2.09,2.24-3.49q1.13-1.81,2.94-4.55t4.2-6.51q4.89-7.41,8.39-10.28t6.16-2.87a4.91,4.91,0,0,1,2.31.63,14.41,14.41,0,0,1,2.24,1.47A9.5,9.5,0,0,1,668,151.7a2.56,2.56,0,0,1,.63,1.4,4,4,0,0,1-.56,1.75c-.38.7-.77,1.44-1.19,2.23a20.49,20.49,0,0,0-1.12,2.52,7.79,7.79,0,0,0-.49,2.73,27.86,27.86,0,0,0,.84,7.28,59.8,59.8,0,0,0,1.89,5.8c.7,1.82,1.33,3.6,1.89,5.32a18.78,18.78,0,0,1,.84,5.81,19.33,19.33,0,0,1-.49,4.69,17.27,17.27,0,0,1-1.19,3.28,14.12,14.12,0,0,1-1.54,2.66,27.72,27.72,0,0,0,7.34-3.15,41.9,41.9,0,0,0,5.53-4,38.33,38.33,0,0,0,4.48-5,2.61,2.61,0,0,1,.7-1,4.12,4.12,0,0,1,.84-.63,2.34,2.34,0,0,1,1.26-.35,2.94,2.94,0,0,1,2,.84,2.61,2.61,0,0,1,.91,2,2.67,2.67,0,0,1-.22,1q-.21.5-.48,1.05A12.72,12.72,0,0,0,689.38,189.2Zm-39.46-21.55q-2.94,4.48-5.18,8.11-2,3.23-3.57,6a11.44,11.44,0,0,0-1.61,3.5,50,50,0,0,0,.35,5.95,22.48,22.48,0,0,0,1.19,5.1,10.34,10.34,0,0,0,2.1,3.57,4.22,4.22,0,0,0,3.22,1.33c2.14,0,4-1.17,5.53-3.5a14.61,14.61,0,0,0,2.3-8.25,24.55,24.55,0,0,0-.69-5.6c-.47-2-1-3.89-1.47-5.81s-1-3.77-1.47-5.59A19.58,19.58,0,0,1,649.92,167.65Z"/><path class="cls-1" d="M746.6,189.2a35.06,35.06,0,0,1-9.09,9.09,51,51,0,0,1-12.24,6.3,52.56,52.56,0,0,1-18.26,2.8,24.13,24.13,0,0,1-9.8-2,29.84,29.84,0,0,1-8-5.11,26,26,0,0,1-5.46-6.72,14,14,0,0,1-2-6.71,7,7,0,0,1,2.1-5.18,21,21,0,0,1,4.62-3.5,31.91,31.91,0,0,1,6.71-2.52c.56-.93,1.31-2.09,2.24-3.49q1.13-1.81,2.94-4.55t4.2-6.51q4.89-7.41,8.39-10.28c2.33-1.91,4.39-2.87,6.16-2.87a5,5,0,0,1,2.31.63,14.41,14.41,0,0,1,2.24,1.47,9.5,9.5,0,0,1,1.68,1.68,2.53,2.53,0,0,1,.62,1.4,3.88,3.88,0,0,1-.56,1.75l-1.18,2.23A20.49,20.49,0,0,0,723,159.6a7.79,7.79,0,0,0-.49,2.73,27.86,27.86,0,0,0,.84,7.28,59.8,59.8,0,0,0,1.89,5.8c.7,1.82,1.32,3.6,1.88,5.32a21.43,21.43,0,0,1,.35,10.5,16,16,0,0,1-1.19,3.28,14.11,14.11,0,0,1-1.53,2.66,27.72,27.72,0,0,0,7.34-3.15,41.9,41.9,0,0,0,5.53-4,38.33,38.33,0,0,0,4.48-5,2.61,2.61,0,0,1,.7-1,4.31,4.31,0,0,1,.83-.63,2.39,2.39,0,0,1,1.26-.35,2.9,2.9,0,0,1,2,.84,2.57,2.57,0,0,1,.91,2,2.66,2.66,0,0,1-.21,1c-.14.33-.3.68-.49,1.05S746.79,188.73,746.6,189.2Zm-39.45-21.55q-2.94,4.48-5.18,8.11-2,3.23-3.57,6a11.44,11.44,0,0,0-1.61,3.5,50,50,0,0,0,.35,5.95,22,22,0,0,0,1.19,5.1,10.34,10.34,0,0,0,2.1,3.57,4.22,4.22,0,0,0,3.22,1.33c2.14,0,4-1.17,5.52-3.5a14.62,14.62,0,0,0,2.31-8.25,24,24,0,0,0-.7-5.6c-.46-2-.95-3.89-1.47-5.81s-1-3.77-1.47-5.59A20,20,0,0,1,707.15,167.65Z"/><path class="cls-1" d="M747.3,194.65A10.87,10.87,0,0,1,750,195a12.84,12.84,0,0,0,3.29.35,16.72,16.72,0,0,0,12.31-5.24,49.93,49.93,0,0,0,9.1-13.3,111.88,111.88,0,0,0,6.71-17.56q2.8-9.51,5.18-18.05a46,46,0,0,1,4.9-12.45,39.74,39.74,0,0,1,5.17-6.86,12.63,12.63,0,0,1,5.88-3.35,45.67,45.67,0,0,0-10.14-3.29,68,68,0,0,0-15.32-1.61,17.23,17.23,0,0,0-10.29,2.87,9.07,9.07,0,0,0-4,7.76,12.33,12.33,0,0,0,1,5.39,15.19,15.19,0,0,0,2.38,3.64c.89,1,1.68,1.79,2.38,2.45a2.62,2.62,0,0,1,1.05,1.68c0,1.77-1,2.65-2.94,2.65a19.31,19.31,0,0,1-6.36-1.26,25.65,25.65,0,0,1-6.79-3.63,23.33,23.33,0,0,1-5.46-5.67A13,13,0,0,1,745.9,122a13.86,13.86,0,0,1,2.8-9,21,21,0,0,1,6.93-5.6,31.48,31.48,0,0,1,9-2.94,52.14,52.14,0,0,1,8.89-.84,103.53,103.53,0,0,1,12.59.7q5.6.7,11.33,1.61t12.32,1.61a148.12,148.12,0,0,0,15.53.7,42.24,42.24,0,0,0,8.67-.7,21.52,21.52,0,0,0,5-1.61,17.07,17.07,0,0,0,2.73-1.61,2.61,2.61,0,0,1,3.71.14,2.7,2.7,0,0,1,.84,2,9.34,9.34,0,0,1-1.61,3.64,28.89,28.89,0,0,1-4.34,5.39,35.58,35.58,0,0,1-6.16,4.9,13.27,13.27,0,0,1-7.2,2.16,52,52,0,0,1-6.3-.35c-2-.23-3.68-.49-5.18-.77-1.67-.37-3.26-.79-4.75-1.25a5,5,0,0,0-1.4,1.25,15.57,15.57,0,0,0-2,3.43,59.4,59.4,0,0,0-2.45,6.72q-1.33,4.27-2.73,11-1.26,5.61-2.45,12.53t-2.93,14a125,125,0,0,1-4.27,13.78,52.52,52.52,0,0,1-6.23,12,29.54,29.54,0,0,1-8.95,8.4,23.63,23.63,0,0,1-12.39,3.15,33.36,33.36,0,0,1-7.9-.91,29.78,29.78,0,0,1-6.44-2.31,16,16,0,0,1-4.27-3,4.52,4.52,0,0,1-1.54-2.87,2.33,2.33,0,0,1,2.52-2.66Z"/><path class="cls-1" d="M878.41,189.2a49.36,49.36,0,0,1-6.86,8.67,39.52,39.52,0,0,1-7.62,5.88,18.27,18.27,0,0,1-9.59,2.66,16.22,16.22,0,0,1-9.93-3,12.3,12.3,0,0,1-4.76-8.89,36.45,36.45,0,0,1-6,6,38.19,38.19,0,0,1-6.29,4.06,16.19,16.19,0,0,1-7.56,1.82,14.21,14.21,0,0,1-5.39-1,12.83,12.83,0,0,1-4.47-3,14.87,14.87,0,0,1-4.13-10.49,41.32,41.32,0,0,1,2.87-15,52.55,52.55,0,0,1,7.48-13.36,40.75,40.75,0,0,1,10.36-9.58,21.45,21.45,0,0,1,18.61-2.59,20.42,20.42,0,0,1,4.75,2.31,15.75,15.75,0,0,1,3.36,3.22,17,17,0,0,1,3.29.34,12.26,12.26,0,0,1,3.22,1.12,7.57,7.57,0,0,1,2.45,2,4.89,4.89,0,0,1,1,3.08,17.3,17.3,0,0,1-1.26,5c-.84,2.33-1.78,4.92-2.8,7.76s-2,5.79-2.8,8.82a30.56,30.56,0,0,0-1.26,8,3.92,3.92,0,0,0,1.05,2.8A3.74,3.74,0,0,0,859,197a9.85,9.85,0,0,0,5.53-1.82,24.61,24.61,0,0,0,4.82-4.19,31.15,31.15,0,0,0,4.62-6,2.73,2.73,0,0,1,.7-1,4.78,4.78,0,0,1,.84-.63,2.34,2.34,0,0,1,1.26-.35,2.92,2.92,0,0,1,2,.84,2.61,2.61,0,0,1,.91,2,2.66,2.66,0,0,1-.21,1c-.14.33-.31.68-.49,1.05A12.72,12.72,0,0,0,878.41,189.2ZM846,164.43a6.21,6.21,0,0,0-1.47-4.55,4.86,4.86,0,0,0-3.57-1.47c-2,0-4.15,1.08-6.3,3.22a35,35,0,0,0-5.8,7.91,52.94,52.94,0,0,0-4.27,10.14,33.74,33.74,0,0,0-1.68,9.8q0,6.28,4.06,6.29,2.52,0,5.8-3.35a44.43,44.43,0,0,0,6.23-8.26,63.68,63.68,0,0,0,5-10.28A27.44,27.44,0,0,0,846,164.43Z"/><path class="cls-1" d="M935.64,189.2a35.25,35.25,0,0,1-9.1,9.09,50.8,50.8,0,0,1-12.24,6.3,52.52,52.52,0,0,1-18.26,2.8,24.16,24.16,0,0,1-9.8-2,29.84,29.84,0,0,1-8-5.11,26,26,0,0,1-5.46-6.72,14,14,0,0,1-2-6.71,7,7,0,0,1,2.1-5.18,21,21,0,0,1,4.62-3.5,32.33,32.33,0,0,1,6.71-2.52c.56-.93,1.31-2.09,2.24-3.49q1.13-1.81,2.94-4.55t4.2-6.51q4.89-7.41,8.39-10.28c2.33-1.91,4.39-2.87,6.16-2.87a4.91,4.91,0,0,1,2.31.63,14.41,14.41,0,0,1,2.24,1.47,9.5,9.5,0,0,1,1.68,1.68,2.56,2.56,0,0,1,.63,1.4,4,4,0,0,1-.56,1.75c-.38.7-.77,1.44-1.19,2.23a20.49,20.49,0,0,0-1.12,2.52,7.79,7.79,0,0,0-.49,2.73,27.86,27.86,0,0,0,.84,7.28,59.8,59.8,0,0,0,1.89,5.8c.7,1.82,1.33,3.6,1.89,5.32a18.78,18.78,0,0,1,.84,5.81,19.33,19.33,0,0,1-.49,4.69,17.27,17.27,0,0,1-1.19,3.28,14.12,14.12,0,0,1-1.54,2.66,27.72,27.72,0,0,0,7.34-3.15,41.9,41.9,0,0,0,5.53-4,38.33,38.33,0,0,0,4.48-5,2.61,2.61,0,0,1,.7-1,4.12,4.12,0,0,1,.84-.63A2.34,2.34,0,0,1,934,183a2.94,2.94,0,0,1,2,.84,2.6,2.6,0,0,1,.9,2,2.66,2.66,0,0,1-.21,1q-.21.5-.48,1.05A12.72,12.72,0,0,0,935.64,189.2Zm-39.46-21.55q-2.94,4.48-5.18,8.11-2,3.23-3.57,6a11.44,11.44,0,0,0-1.61,3.5,50,50,0,0,0,.35,5.95,22.48,22.48,0,0,0,1.19,5.1,10.34,10.34,0,0,0,2.1,3.57,4.22,4.22,0,0,0,3.22,1.33c2.14,0,4-1.17,5.53-3.5a14.61,14.61,0,0,0,2.3-8.25,24.55,24.55,0,0,0-.69-5.6c-.47-2-1-3.89-1.47-5.81s-1-3.77-1.47-5.59A19.58,19.58,0,0,1,896.18,167.65Z"/><path class="cls-1" d="M954.24,197a9.82,9.82,0,0,0,5.53-1.82A24.67,24.67,0,0,0,964.6,191a31.15,31.15,0,0,0,4.62-6,2.61,2.61,0,0,1,.7-1,4.12,4.12,0,0,1,.84-.63A2.33,2.33,0,0,1,972,183a2.9,2.9,0,0,1,2,.84,2.57,2.57,0,0,1,.91,2,2.66,2.66,0,0,1-.21,1c-.14.33-.3.68-.49,1.05s-.37.79-.56,1.26a49.31,49.31,0,0,1-6.85,8.67,39.6,39.6,0,0,1-7.63,5.88,18.23,18.23,0,0,1-9.58,2.66,21.31,21.31,0,0,1-6.86-1.19,21.67,21.67,0,0,1-6.37-3.43,19.77,19.77,0,0,1-4.75-5.32,12.58,12.58,0,0,1-1.89-6.71,45.46,45.46,0,0,1,.7-7.21c.47-2.84,1.12-6,2-9.3s1.79-6.91,2.87-10.64,2.21-7.41,3.42-11.05h-3.77c-.75,0-1.12-.42-1.12-1.26a5.85,5.85,0,0,1,1.33-3A3.63,3.63,0,0,1,938,145.4h2.8q2.1-5.73,4.13-10.56a70,70,0,0,1,4-8.19,5.51,5.51,0,0,1,1.54-1.89,3.54,3.54,0,0,1,2.24-.77,7.6,7.6,0,0,1,3.42,1,23.16,23.16,0,0,1,3.57,2.31,17.78,17.78,0,0,1,2.8,2.73,4.12,4.12,0,0,1,1.12,2.38,17.11,17.11,0,0,1-1.33,4.41c-.89,2.28-2,5.15-3.29,8.6h9.38c.74,0,1.12.42,1.12,1.26a3.32,3.32,0,0,1-.42,1.4,8.54,8.54,0,0,1-1.05,1.61A9.28,9.28,0,0,1,966.7,151a2.28,2.28,0,0,1-1.4.56h-8.68q-1.68,4.62-3.42,9.79t-3.15,10.22q-1.41,5-2.31,9.72a44.63,44.63,0,0,0-.91,8.47A6.83,6.83,0,0,0,949,195,7.35,7.35,0,0,0,954.24,197Z"/><path class="cls-1" d="M997.76,197.31a17.53,17.53,0,0,0,5.67-.84,19.22,19.22,0,0,0,4.19-2,19.93,19.93,0,0,0,3-2.3c.84-.8,1.49-1.43,2-1.89l1-1,1-.63a2.13,2.13,0,0,1,1.12-.35,2.85,2.85,0,0,1,2.1.84,2.68,2.68,0,0,1,.84,2,1.81,1.81,0,0,1-.35,1.05,6.4,6.4,0,0,0-.63,1q-.42.57-.84,1.26a33.12,33.12,0,0,1-6.58,6,40.5,40.5,0,0,1-7.62,4.06,26.49,26.49,0,0,1-10.15,1.82,30.09,30.09,0,0,1-9.79-1.54,23.71,23.71,0,0,1-7.7-4.27,19.76,19.76,0,0,1-5-6.51,18.74,18.74,0,0,1-1.81-8.25A35.38,35.38,0,0,1,971,171.29,39.34,39.34,0,0,1,978.45,160a33.64,33.64,0,0,1,9.72-7.2A22.9,22.9,0,0,1,998,150.3a14.53,14.53,0,0,1,6,1.26,17.15,17.15,0,0,1,4.89,3.29,14.87,14.87,0,0,1,3.29,4.68,13.34,13.34,0,0,1,1.19,5.46,20.83,20.83,0,0,1-1.12,6.09,20.59,20.59,0,0,1-3.71,6.78,21.62,21.62,0,0,1-7,5.53,23.5,23.5,0,0,1-11,2.31,13.17,13.17,0,0,1-3.21-.42,18.55,18.55,0,0,1-2.1-.42q0,6.3,3.7,9.37A13.23,13.23,0,0,0,997.76,197.31ZM986,179.12a13.24,13.24,0,0,0,7.13-2.1,23.51,23.51,0,0,0,5.81-5.1,27.17,27.17,0,0,0,3.85-6.23,14.23,14.23,0,0,0,1.4-5.46c0-1.86-.84-2.8-2.52-2.8a8.84,8.84,0,0,0-5.74,2.38,26,26,0,0,0-5,5.74,36.61,36.61,0,0,0-3.56,7.14A19,19,0,0,0,986,179.12Z"/><path class="cls-2" d="M357.17,202.6a50.78,50.78,0,0,1-11.75-1.4,32.89,32.89,0,0,1-10.56-4.48,25.36,25.36,0,0,1-7.7-7.9,21.37,21.37,0,0,1-3-11.55,26.4,26.4,0,0,1,2.1-10.77A35.93,35.93,0,0,1,331.5,158a37.25,37.25,0,0,1,6.85-6.43,76.39,76.39,0,0,1,6.93-4.48,46.9,46.9,0,0,1,5.53-2.73l2.73-1a8.65,8.65,0,0,1-1.54-.77,14.74,14.74,0,0,1-3.08-2.38A20.42,20.42,0,0,1,345.7,136a16.4,16.4,0,0,1-2.1-6.16q-10.64-1-15.88-4.2t-5.25-8.25a13.16,13.16,0,0,1,2-6.86,28.76,28.76,0,0,1,4.83-6,30.74,30.74,0,0,1,5.67-4.33,9.9,9.9,0,0,1,4.4-1.68,1.08,1.08,0,0,1,1,.42,1.48,1.48,0,0,1,.28.84,5.57,5.57,0,0,1-1.26,2.45,7.07,7.07,0,0,0-1.26,4.26,10.87,10.87,0,0,0,2,6.23,18.72,18.72,0,0,0,5.46,5.11,29.12,29.12,0,0,1,6.37-8.12,47,47,0,0,1,9.23-6.57A48.81,48.81,0,0,1,372,98.78a42.87,42.87,0,0,1,11.19-1.54,26.33,26.33,0,0,1,7.07.91,20.29,20.29,0,0,1,5.73,2.52,12.37,12.37,0,0,1,3.85,3.91,9.72,9.72,0,0,1,1.4,5.11,10.8,10.8,0,0,1-2.8,7,25.76,25.76,0,0,1-8,6.08,59.21,59.21,0,0,1-12.67,4.62,89.22,89.22,0,0,1-16.65,2.45,21.74,21.74,0,0,0,.63,4.27,17,17,0,0,0,1.19,3.29,30.07,30.07,0,0,0,1.54,2.93c.75-.09,1.63-.23,2.66-.42.84-.09,1.84-.18,3-.28s2.49-.13,4-.13q8.26,0,8.26,4.89,0,2.1-2.45,4.27a9.43,9.43,0,0,1-6.51,2.17,28.52,28.52,0,0,1-4.61-.35,20.53,20.53,0,0,1-3.64-.91,15.21,15.21,0,0,1-3.08-1.4,43.93,43.93,0,0,0-9.23,7.28,40.34,40.34,0,0,0-6.37,9,25.89,25.89,0,0,0-2.87,12.45q0,8.82,4.76,13.09t13.57,4.26A26.43,26.43,0,0,0,376.2,190a37.51,37.51,0,0,0,11.48-11.48,2.69,2.69,0,0,1,.7-1,5,5,0,0,1,.84-.63,2.34,2.34,0,0,1,1.26-.35,2.83,2.83,0,0,1,2.09.84,2.7,2.7,0,0,1,.84,2,6.16,6.16,0,0,1-.56,2.1c-.18.38-.37.75-.56,1.12a41.79,41.79,0,0,1-5.59,7.35,39.88,39.88,0,0,1-7.77,6.36,42.47,42.47,0,0,1-9.86,4.55A38.72,38.72,0,0,1,357.17,202.6Zm25.61-99.35a16.09,16.09,0,0,0-6.44,1.4,23.33,23.33,0,0,0-6,3.85,28.21,28.21,0,0,0-5,5.88,26.74,26.74,0,0,0-3.36,7.48,59.52,59.52,0,0,0,11.13-1,36.66,36.66,0,0,0,8.88-2.8,17.19,17.19,0,0,0,5.88-4.34,8.52,8.52,0,0,0,2.1-5.6,4.06,4.06,0,0,0-2.1-3.57A9.28,9.28,0,0,0,382.78,103.25Z"/><path class="cls-2" d="M404.33,159.5a103.61,103.61,0,0,1-6.65,14.35c-2.19,3.77-4,6.74-5.53,8.88a10.53,10.53,0,0,1-1,1.26,2.61,2.61,0,0,1-2,.84,3.12,3.12,0,0,1-2.94-2.94,3.29,3.29,0,0,1,.63-1.89,12.28,12.28,0,0,0,.91-1.47q1.95-2.79,5.52-8.88a77.48,77.48,0,0,0,6.65-16,9.61,9.61,0,0,1,2.59-4.06,19.58,19.58,0,0,1,4.2-3.08,22.89,22.89,0,0,1,4.82-2,17.65,17.65,0,0,1,4.62-.7q5.18,0,7.14,5.32t2.52,17.91a34.14,34.14,0,0,0,5.24-9.37,23.67,23.67,0,0,0,1.61-6.58c0-.84.63-1.7,1.89-2.59a24.43,24.43,0,0,1,4.27-2.38,34.18,34.18,0,0,1,4.62-1.68,14.31,14.31,0,0,1,2.93-.63c1.77,0,2.66.84,2.66,2.52,0,.93-.68,2.57-2,4.9a67.49,67.49,0,0,1-5.31,7.69q-3.3,4.2-7.35,8.47a63.34,63.34,0,0,1-8.25,7.35q.56,8.25,3.14,12a8.13,8.13,0,0,0,7.07,3.78,9.92,9.92,0,0,0,5.53-1.82,24.61,24.61,0,0,0,4.82-4.2,30.84,30.84,0,0,0,4.62-6,2.82,2.82,0,0,1,.7-1,6,6,0,0,1,.84-.63,2.34,2.34,0,0,1,1.26-.35,2.94,2.94,0,0,1,2,.84,2.62,2.62,0,0,1,.91,2,2.59,2.59,0,0,1-.21,1c-.14.33-.31.68-.49,1.05s-.38.79-.56,1.26a49.07,49.07,0,0,1-6.86,8.68,39.89,39.89,0,0,1-7.62,5.87,18.27,18.27,0,0,1-9.59,2.66,24.85,24.85,0,0,1-12.94-3.29q-5.54-3.28-7.77-11.26-2.37,2.38-5.24,4.9T399.92,195a40,40,0,0,1-5.53,3.57,10.29,10.29,0,0,1-4.62,1.4,1.7,1.7,0,0,1-1.95-2.1,8.16,8.16,0,0,1,.63-2.66,20.73,20.73,0,0,1,1.68-3.42,22.56,22.56,0,0,1,2.23-3.15,4.81,4.81,0,0,1,2.31-1.68,24.68,24.68,0,0,0,7.77-3.36,86.28,86.28,0,0,0,7.2-5c-.46-3.91-.84-7.18-1.12-9.79s-.51-4.73-.7-6.37a14.78,14.78,0,0,0-.69-3.5c-.28-.7-.66-1.05-1.12-1.05Q405,157.82,404.33,159.5Z"/><path class="cls-2" d="M520.74,182.73a23.24,23.24,0,0,1-6,6,32,32,0,0,1-7.63,4.2,28.78,28.78,0,0,1-10.7,1.81c-.66,0-1.36,0-2.1-.07s-1.5-.11-2.24-.21a27.49,27.49,0,0,1-7,4,21.81,21.81,0,0,1-8,1.47,15.72,15.72,0,0,1-5.95-1.05,18.39,18.39,0,0,1-4.41-2.45,16.93,16.93,0,0,1-3.64-3.63,65.86,65.86,0,0,0-2.58,8.18q-1.33,5.1-2.45,10.84t-1.82,11.34a78.69,78.69,0,0,0-.7,9.65c0,2.05-.89,3.08-2.66,3.08a19.52,19.52,0,0,1-4.2-.49,13.88,13.88,0,0,1-4.13-1.61,9.51,9.51,0,0,1-3.14-3.08,8.58,8.58,0,0,1-1.26-4.75,48.74,48.74,0,0,1,1-7.91q1-5.38,2.51-12.38t3.64-15q2.1-8.05,4.27-15.95t4.34-14.91q2.16-7,4-11.89a4,4,0,0,1,3.91-2.66,9.32,9.32,0,0,1,4,1.26q2.45,1.26,5.67,6.3a53.5,53.5,0,0,1,6-4.48,46.69,46.69,0,0,1,5.81-3.08,15.6,15.6,0,0,1,6.37-1.4,14.57,14.57,0,0,1,6.85,1.61,17.81,17.81,0,0,1,5.25,4.13,20.28,20.28,0,0,1,3.43,5.6,16.11,16.11,0,0,1,1.26,6.15,39.6,39.6,0,0,1-2.59,13.16,48.58,48.58,0,0,1-7.35,13.43,4.36,4.36,0,0,0,1.26.14,14.5,14.5,0,0,0,6.58-1.47,28.53,28.53,0,0,0,5.18-3.29,37.48,37.48,0,0,0,4.75-4.76,3,3,0,0,1,.7-1,6,6,0,0,1,.84-.63,2.34,2.34,0,0,1,1.26-.35,2.92,2.92,0,0,1,2,.84,2.62,2.62,0,0,1,.7,3c-.14.33-.3.68-.49,1.05S520.93,182.26,520.74,182.73Zm-54-1.26a13.71,13.71,0,0,0,2.1,7.42,6.36,6.36,0,0,0,5.6,3.36,7.09,7.09,0,0,0,4.61-2.1,3.39,3.39,0,0,1-.69-2,4.25,4.25,0,0,1,.76-2.31,11.78,11.78,0,0,1,1.82-2.17,13.23,13.23,0,0,1,2.24-1.68,4.27,4.27,0,0,1,2-.7,59.5,59.5,0,0,0,2.52-5.81q1.13-3,1.89-5.87c.51-1.91.91-3.69,1.19-5.32a25.12,25.12,0,0,0,.42-4.13c0-2.51-.4-4.29-1.19-5.31a4.21,4.21,0,0,0-3.57-1.54q-2.81,0-6.16,3a44,44,0,0,0-6.43,7.34,47.19,47.19,0,0,0-5.11,9.17A22.59,22.59,0,0,0,466.73,181.47Z"/><path class="cls-2" d="M551.66,185.67a4.92,4.92,0,0,0,1.26,3.64,4.54,4.54,0,0,0,3.36,1.26,9.9,9.9,0,0,0,5.53-1.82,24.39,24.39,0,0,0,4.83-4.2,31.21,31.21,0,0,0,4.61-6,3,3,0,0,1,.7-1,6,6,0,0,1,.84-.63,2.34,2.34,0,0,1,1.26-.35,2.92,2.92,0,0,1,2,.84,2.62,2.62,0,0,1,.7,3c-.14.33-.3.68-.49,1.05s-.37.79-.56,1.26a49.07,49.07,0,0,1-6.86,8.68,39.58,39.58,0,0,1-7.62,5.87,18.27,18.27,0,0,1-9.59,2.66,21.93,21.93,0,0,1-7.27-1.12,18.75,18.75,0,0,1-5.6-3,13,13,0,0,1-3.64-4.4,12,12,0,0,1-1.26-5.46,26.55,26.55,0,0,1,1.4-8.68,70.38,70.38,0,0,1,3-7.41c1.07-2.24,2.08-4.22,3-6a9.6,9.6,0,0,0,1.4-4.27,1.84,1.84,0,0,0-1.33-1.68,23.53,23.53,0,0,0-2.87-1,37.39,37.39,0,0,0-4.2-.7A144,144,0,0,1,526.62,173c-2.43,4.33-4.39,7.58-5.88,9.72a13,13,0,0,1-1,1.26,2.62,2.62,0,0,1-2,.84,3.12,3.12,0,0,1-2.94-2.94,3.29,3.29,0,0,1,.63-1.89,11.1,11.1,0,0,0,.91-1.47q2-2.79,5.53-8.88a78,78,0,0,0,6.65-16,8.58,8.58,0,0,1-2.38-2.52,14.46,14.46,0,0,1-1.54-3.22,13.61,13.61,0,0,1-.7-4.62,10.45,10.45,0,0,1,.77-4,11.05,11.05,0,0,1,2-3.29,11.65,11.65,0,0,1,2.66-2.24,5.18,5.18,0,0,1,2.65-.84,6.58,6.58,0,0,1,2.94.77,14.19,14.19,0,0,1,2.8,1.82,10.07,10.07,0,0,1,2.1,2.38,4.49,4.49,0,0,1,.84,2.3,10.25,10.25,0,0,1-.91,4.62,7.8,7.8,0,0,0-.91,3.5,2.35,2.35,0,0,0,1.68,2.24,10.91,10.91,0,0,0,4.2.7,23.6,23.6,0,0,0,4-.28c1.07-.19,2-.4,2.86-.63l2.38-.63a9.64,9.64,0,0,1,2.38-.28,5.09,5.09,0,0,1,4.13,2,7.27,7.27,0,0,1,1.61,4.76,13.38,13.38,0,0,1-1.61,5.66q-1.6,3.3-3.57,7.21a85.16,85.16,0,0,0-3.57,8.18A24,24,0,0,0,551.66,185.67Z"/><path class="cls-2" d="M625.68,182.73a35.79,35.79,0,0,1-7.69,8.68,44.75,44.75,0,0,1-9.73,5.87,32.89,32.89,0,0,1-13.78,2.66,29.88,29.88,0,0,1-9.8-1.54,23.48,23.48,0,0,1-7.69-4.27,19.37,19.37,0,0,1-5-6.5,18.82,18.82,0,0,1-1.82-8.26,35.29,35.29,0,0,1,2.94-14.55,39.28,39.28,0,0,1,7.42-11.26,33.36,33.36,0,0,1,9.72-7.21,22.9,22.9,0,0,1,9.87-2.52,14.49,14.49,0,0,1,6,1.26,17.07,17.07,0,0,1,4.9,3.29,15.07,15.07,0,0,1,3.29,4.69,13.26,13.26,0,0,1,1.19,5.45,21.16,21.16,0,0,1-1.12,6.09,20.92,20.92,0,0,1-3.71,6.79,21.88,21.88,0,0,1-7,5.52,23.46,23.46,0,0,1-11,2.31,13.25,13.25,0,0,1-3.22-.42,19.47,19.47,0,0,1-2.1-.42q0,6.3,3.64,9.66a12.36,12.36,0,0,0,8.68,3.36,19.78,19.78,0,0,0,9-2,33.82,33.82,0,0,0,6.86-4.41,28.79,28.79,0,0,0,5.73-6.44,3,3,0,0,1,.7-1,6,6,0,0,1,.84-.63,2.34,2.34,0,0,1,1.26-.35,2.92,2.92,0,0,1,2,.84,2.62,2.62,0,0,1,.7,3c-.14.33-.3.68-.49,1.05S625.87,182.26,625.68,182.73ZM588,172.66a13.25,13.25,0,0,0,7.14-2.1,23.29,23.29,0,0,0,5.8-5.11,26.29,26.29,0,0,0,3.85-6.23,14.24,14.24,0,0,0,1.4-5.45c0-1.87-.84-2.8-2.52-2.8a8.77,8.77,0,0,0-5.73,2.38,25.68,25.68,0,0,0-5,5.73,36.09,36.09,0,0,0-3.57,7.14A19.25,19.25,0,0,0,588,172.66Z"/><path class="cls-2" d="M682.91,182.73a35.13,35.13,0,0,1-9.1,9.1,50.45,50.45,0,0,1-12.24,6.29q-7.49,2.81-18.26,2.8a24.08,24.08,0,0,1-9.79-2,29.81,29.81,0,0,1-8-5.11,25.91,25.91,0,0,1-5.46-6.71,14,14,0,0,1-2-6.72,7,7,0,0,1,2.09-5.17,20.7,20.7,0,0,1,4.62-3.5,31.13,31.13,0,0,1,6.72-2.52c.56-.93,1.3-2.1,2.24-3.5q1.11-1.82,2.93-4.55c1.22-1.82,2.61-4,4.2-6.5q4.9-7.43,8.4-10.29t6.15-2.87a4.91,4.91,0,0,1,2.31.63,14.41,14.41,0,0,1,2.24,1.47,9.5,9.5,0,0,1,1.68,1.68,2.56,2.56,0,0,1,.63,1.4,4,4,0,0,1-.56,1.75l-1.19,2.24a20.65,20.65,0,0,0-1.12,2.52,7.75,7.75,0,0,0-.49,2.73,27.83,27.83,0,0,0,.84,7.27,60.92,60.92,0,0,0,1.89,5.81q1,2.73,1.89,5.32a18.71,18.71,0,0,1,.84,5.8,19.33,19.33,0,0,1-.49,4.69,16.72,16.72,0,0,1-1.19,3.29,14.44,14.44,0,0,1-1.54,2.66,28.46,28.46,0,0,0,7.35-3.15,40.84,40.84,0,0,0,5.52-4,37.09,37.09,0,0,0,4.48-5,2.82,2.82,0,0,1,.7-1,6,6,0,0,1,.84-.63,2.34,2.34,0,0,1,1.26-.35,2.92,2.92,0,0,1,2,.84,2.62,2.62,0,0,1,.91,2,2.59,2.59,0,0,1-.21,1c-.14.33-.31.68-.49,1.05S683.1,182.26,682.91,182.73Zm-39.46-21.55q-2.94,4.48-5.18,8.12c-1.3,2.15-2.49,4.15-3.56,6a11.17,11.17,0,0,0-1.61,3.49,47.71,47.71,0,0,0,.35,5.95,22.05,22.05,0,0,0,1.19,5.11,10.54,10.54,0,0,0,2.09,3.56,4.24,4.24,0,0,0,3.22,1.33q3.22,0,5.53-3.49a14.65,14.65,0,0,0,2.31-8.26,24.58,24.58,0,0,0-.7-5.6c-.47-1.95-1-3.89-1.47-5.8s-1-3.78-1.47-5.6A19.58,19.58,0,0,1,643.45,161.18Z"/><path class="cls-2" d="M740.14,182.73a35.29,35.29,0,0,1-9.1,9.1,50.45,50.45,0,0,1-12.24,6.29q-7.49,2.81-18.26,2.8a24.16,24.16,0,0,1-9.8-2,29.75,29.75,0,0,1-8-5.11,25.91,25.91,0,0,1-5.46-6.71,14,14,0,0,1-2-6.72,7,7,0,0,1,2.1-5.17,20.7,20.7,0,0,1,4.62-3.5,31.13,31.13,0,0,1,6.72-2.52c.56-.93,1.3-2.1,2.23-3.5q1.13-1.82,2.94-4.55c1.21-1.82,2.61-4,4.2-6.5q4.89-7.43,8.4-10.29t6.15-2.87a4.91,4.91,0,0,1,2.31.63,14.41,14.41,0,0,1,2.24,1.47,9.5,9.5,0,0,1,1.68,1.68,2.56,2.56,0,0,1,.63,1.4,4,4,0,0,1-.56,1.75c-.38.7-.77,1.45-1.19,2.24a20.65,20.65,0,0,0-1.12,2.52,7.75,7.75,0,0,0-.49,2.73,27.83,27.83,0,0,0,.84,7.27A60.92,60.92,0,0,0,718.8,169q1.05,2.73,1.89,5.32a18.71,18.71,0,0,1,.84,5.8,19.33,19.33,0,0,1-.49,4.69,17.39,17.39,0,0,1-1.19,3.29,14.44,14.44,0,0,1-1.54,2.66,28.39,28.39,0,0,0,7.34-3.15,40.37,40.37,0,0,0,5.53-4,37.09,37.09,0,0,0,4.48-5,2.82,2.82,0,0,1,.7-1,5,5,0,0,1,.84-.63,2.34,2.34,0,0,1,1.26-.35,2.94,2.94,0,0,1,2,.84,2.62,2.62,0,0,1,.91,2,2.59,2.59,0,0,1-.21,1c-.14.33-.31.68-.49,1.05S740.32,182.26,740.14,182.73Zm-39.46-21.55q-2.94,4.48-5.18,8.12c-1.31,2.15-2.5,4.15-3.57,6a11.44,11.44,0,0,0-1.61,3.49,49.7,49.7,0,0,0,.35,5.95,22.57,22.57,0,0,0,1.19,5.11,10.39,10.39,0,0,0,2.1,3.56,4.22,4.22,0,0,0,3.22,1.33q3.23,0,5.53-3.49A14.65,14.65,0,0,0,705,183a24.58,24.58,0,0,0-.7-5.6c-.47-1.95-1-3.89-1.47-5.8s-1-3.78-1.47-5.6A19.58,19.58,0,0,1,700.68,161.18Z"/><path class="cls-2" d="M740.84,188.19a10.73,10.73,0,0,1,2.72.35,13.36,13.36,0,0,0,3.29.35,16.73,16.73,0,0,0,12.32-5.25,49.78,49.78,0,0,0,9.09-13.29A113.66,113.66,0,0,0,775,152.79q2.79-9.51,5.17-18a46,46,0,0,1,4.9-12.46,39.59,39.59,0,0,1,5.18-6.85,12.65,12.65,0,0,1,5.88-3.36A46.33,46.33,0,0,0,786,108.78a67.9,67.9,0,0,0-15.32-1.61A17.23,17.23,0,0,0,760.35,110a9.09,9.09,0,0,0-4,7.77,12.28,12.28,0,0,0,1,5.38,15.19,15.19,0,0,0,2.38,3.64c.88,1,1.67,1.8,2.37,2.45a2.62,2.62,0,0,1,1.05,1.68c0,1.77-1,2.66-2.93,2.66a19.41,19.41,0,0,1-6.37-1.26,25.84,25.84,0,0,1-6.79-3.64,23.12,23.12,0,0,1-5.45-5.67,12.91,12.91,0,0,1-2.24-7.48,13.94,13.94,0,0,1,2.79-9,20.94,20.94,0,0,1,6.93-5.59,31.55,31.55,0,0,1,9-2.94,51.94,51.94,0,0,1,8.88-.84,101.55,101.55,0,0,1,12.59.7q5.6.7,11.34,1.61t12.31,1.61a150.9,150.9,0,0,0,15.53.7,43.14,43.14,0,0,0,8.68-.7,22.58,22.58,0,0,0,5-1.61,16.91,16.91,0,0,0,2.73-1.61,2.76,2.76,0,0,1,1.61-.7,2.85,2.85,0,0,1,2.1.84,2.68,2.68,0,0,1,.84,2,9.38,9.38,0,0,1-1.61,3.63,28.57,28.57,0,0,1-4.34,5.39,35.5,35.5,0,0,1-6.15,4.9,13.26,13.26,0,0,1-7.21,2.17,54.12,54.12,0,0,1-6.3-.35c-1.95-.23-3.68-.49-5.17-.77q-2.52-.56-4.76-1.26a5.37,5.37,0,0,0-1.4,1.26,15.74,15.74,0,0,0-2,3.43,59.12,59.12,0,0,0-2.45,6.71q-1.32,4.28-2.72,11-1.26,5.6-2.45,12.52t-2.94,14A124.39,124.39,0,0,1,786,176.43a52.81,52.81,0,0,1-6.23,12,29.39,29.39,0,0,1-8.95,8.39,23.61,23.61,0,0,1-12.38,3.15,32.93,32.93,0,0,1-7.91-.91,28.94,28.94,0,0,1-6.44-2.31,15.69,15.69,0,0,1-4.26-3,4.45,4.45,0,0,1-1.54-2.86,2.33,2.33,0,0,1,2.52-2.66Z"/><path class="cls-2" d="M871.94,182.73a49.49,49.49,0,0,1-6.85,8.68,40,40,0,0,1-7.63,5.87,18.23,18.23,0,0,1-9.58,2.66,16.21,16.21,0,0,1-9.94-3q-4.07-3-4.76-8.88a36.33,36.33,0,0,1-6,6,38.06,38.06,0,0,1-6.3,4.06,16.17,16.17,0,0,1-7.56,1.82,14.16,14.16,0,0,1-5.38-1.05,12.78,12.78,0,0,1-4.48-3,14.9,14.9,0,0,1-3-4.61,15.1,15.1,0,0,1-1.12-5.88,41.22,41.22,0,0,1,2.87-15,52.47,52.47,0,0,1,7.49-13.37A40.9,40.9,0,0,1,820,147.47a21.45,21.45,0,0,1,18.61-2.59,20.71,20.71,0,0,1,4.76,2.31,16,16,0,0,1,3.36,3.22,17,17,0,0,1,3.28.35,11.91,11.91,0,0,1,3.22,1.12,7.35,7.35,0,0,1,2.45,2,4.87,4.87,0,0,1,1,3.08,17.33,17.33,0,0,1-1.26,5l-2.8,7.77c-1,2.84-2,5.78-2.8,8.81a30.69,30.69,0,0,0-1.26,8.05,4,4,0,0,0,1,2.8,3.74,3.74,0,0,0,2.87,1.12,9.9,9.9,0,0,0,5.53-1.82,24.39,24.39,0,0,0,4.83-4.2,30.43,30.43,0,0,0,4.61-6,3,3,0,0,1,.7-1,6,6,0,0,1,.84-.63,2.39,2.39,0,0,1,1.26-.35,2.92,2.92,0,0,1,2,.84,2.62,2.62,0,0,1,.7,3c-.14.33-.3.68-.49,1.05S872.13,182.26,871.94,182.73ZM839.48,158a6.18,6.18,0,0,0-1.47-4.54,4.86,4.86,0,0,0-3.57-1.47q-3.08,0-6.29,3.22a34.7,34.7,0,0,0-5.81,7.9,53.31,53.31,0,0,0-4.27,10.15,33.63,33.63,0,0,0-1.68,9.79q0,6.3,4.06,6.3c1.68,0,3.61-1.12,5.81-3.36a44.41,44.41,0,0,0,6.22-8.26,62.86,62.86,0,0,0,5-10.28A27.44,27.44,0,0,0,839.48,158Z"/><path class="cls-2" d="M929.17,182.73a35.13,35.13,0,0,1-9.1,9.1,50.45,50.45,0,0,1-12.24,6.29q-7.49,2.81-18.26,2.8a24.08,24.08,0,0,1-9.79-2,29.81,29.81,0,0,1-8-5.11,25.91,25.91,0,0,1-5.46-6.71,14,14,0,0,1-2-6.72,7,7,0,0,1,2.1-5.17,20.7,20.7,0,0,1,4.62-3.5,31.13,31.13,0,0,1,6.72-2.52c.56-.93,1.3-2.1,2.24-3.5q1.11-1.82,2.93-4.55c1.22-1.82,2.61-4,4.2-6.5q4.91-7.43,8.4-10.29t6.15-2.87a4.91,4.91,0,0,1,2.31.63,14.41,14.41,0,0,1,2.24,1.47,9.5,9.5,0,0,1,1.68,1.68,2.56,2.56,0,0,1,.63,1.4,4,4,0,0,1-.56,1.75l-1.19,2.24a20.65,20.65,0,0,0-1.12,2.52,7.75,7.75,0,0,0-.49,2.73,27.83,27.83,0,0,0,.84,7.27,60.92,60.92,0,0,0,1.89,5.81q1,2.73,1.89,5.32a18.71,18.71,0,0,1,.84,5.8,19.33,19.33,0,0,1-.49,4.69,16.72,16.72,0,0,1-1.19,3.29,14.44,14.44,0,0,1-1.54,2.66,28.46,28.46,0,0,0,7.35-3.15,40.84,40.84,0,0,0,5.52-4,37.09,37.09,0,0,0,4.48-5,2.82,2.82,0,0,1,.7-1,6,6,0,0,1,.84-.63,2.34,2.34,0,0,1,1.26-.35,2.92,2.92,0,0,1,2,.84,2.62,2.62,0,0,1,.91,2,2.59,2.59,0,0,1-.21,1c-.14.33-.31.68-.49,1.05S929.35,182.26,929.17,182.73Zm-39.46-21.55q-2.94,4.48-5.18,8.12c-1.3,2.15-2.49,4.15-3.56,6a11.17,11.17,0,0,0-1.61,3.49,47.71,47.71,0,0,0,.35,5.95,22.05,22.05,0,0,0,1.19,5.11,10.54,10.54,0,0,0,2.09,3.56,4.24,4.24,0,0,0,3.22,1.33q3.22,0,5.53-3.49a14.65,14.65,0,0,0,2.31-8.26,24.58,24.58,0,0,0-.7-5.6c-.47-1.95-1-3.89-1.47-5.8s-1-3.78-1.47-5.6A19.58,19.58,0,0,1,889.71,161.18Z"/><path class="cls-2" d="M947.78,190.57a9.87,9.87,0,0,0,5.52-1.82,24.39,24.39,0,0,0,4.83-4.2,30.84,30.84,0,0,0,4.62-6,2.82,2.82,0,0,1,.7-1,5.48,5.48,0,0,1,.84-.63,2.34,2.34,0,0,1,1.26-.35,2.94,2.94,0,0,1,2,.84,2.62,2.62,0,0,1,.91,2,2.59,2.59,0,0,1-.21,1c-.14.33-.31.68-.49,1.05s-.38.79-.56,1.26a49.53,49.53,0,0,1-6.86,8.68,40,40,0,0,1-7.63,5.87,18.21,18.21,0,0,1-9.58,2.66,22.07,22.07,0,0,1-13.22-4.62,19.92,19.92,0,0,1-4.76-5.31,12.59,12.59,0,0,1-1.89-6.72,46.67,46.67,0,0,1,.7-7.21q.71-4.26,2-9.3t2.87-10.63q1.6-5.6,3.43-11.06h-3.78c-.75,0-1.12-.42-1.12-1.26a5.88,5.88,0,0,1,1.33-3,3.64,3.64,0,0,1,2.87-1.88h2.8q2.08-5.74,4.12-10.57a69.05,69.05,0,0,1,4-8.18A5.44,5.44,0,0,1,944,118.3a3.54,3.54,0,0,1,2.24-.77,7.64,7.64,0,0,1,3.43,1,21.77,21.77,0,0,1,3.57,2.31,17.23,17.23,0,0,1,2.79,2.72,4.15,4.15,0,0,1,1.12,2.38,16.89,16.89,0,0,1-1.33,4.41c-.88,2.29-2,5.16-3.28,8.61h9.37c.75,0,1.12.42,1.12,1.25a3.28,3.28,0,0,1-.42,1.4,8.54,8.54,0,0,1-1.05,1.61,8.36,8.36,0,0,1-1.33,1.33,2.2,2.2,0,0,1-1.4.56h-8.67q-1.68,4.62-3.43,9.8t-3.15,10.21q-1.4,5-2.31,9.73a44.45,44.45,0,0,0-.91,8.46,6.84,6.84,0,0,0,2.17,5.25A7.42,7.42,0,0,0,947.78,190.57Z"/><path class="cls-2" d="M991.29,190.85A17.44,17.44,0,0,0,997,190a19.54,19.54,0,0,0,4.2-2,21.18,21.18,0,0,0,3-2.31c.83-.79,1.49-1.42,2-1.89l1-1c.28-.19.61-.39,1-.63a2.13,2.13,0,0,1,1.12-.35,2.85,2.85,0,0,1,2.1.84,2.68,2.68,0,0,1,.84,2,1.81,1.81,0,0,1-.35,1.05,9.12,9.12,0,0,0-.63,1,13.77,13.77,0,0,0-.84,1.26,33.29,33.29,0,0,1-6.57,6,39.73,39.73,0,0,1-7.63,4.06A26.47,26.47,0,0,1,986,199.94a29.88,29.88,0,0,1-9.8-1.54,23.53,23.53,0,0,1-7.7-4.27,19.46,19.46,0,0,1-5-6.5,18.82,18.82,0,0,1-1.82-8.26,35.29,35.29,0,0,1,2.94-14.55A39.47,39.47,0,0,1,972,153.56a33.54,33.54,0,0,1,9.73-7.21,22.86,22.86,0,0,1,9.86-2.52,14.5,14.5,0,0,1,6,1.26,17.2,17.2,0,0,1,4.9,3.29,14.88,14.88,0,0,1,3.28,4.69,13.1,13.1,0,0,1,1.19,5.45,22.06,22.06,0,0,1-4.82,12.88,21.88,21.88,0,0,1-7,5.52,23.49,23.49,0,0,1-11,2.31,13.25,13.25,0,0,1-3.22-.42,18.55,18.55,0,0,1-2.1-.42q0,6.3,3.71,9.38A13.26,13.26,0,0,0,991.29,190.85Zm-11.75-18.19a13.19,13.19,0,0,0,7.13-2.1,23.34,23.34,0,0,0,5.81-5.11,26.62,26.62,0,0,0,3.85-6.23,14.24,14.24,0,0,0,1.4-5.45c0-1.87-.84-2.8-2.52-2.8a8.81,8.81,0,0,0-5.74,2.38,25.9,25.9,0,0,0-5,5.73,36.09,36.09,0,0,0-3.57,7.14A19,19,0,0,0,979.54,172.66Z"/><path class="cls-3" d="M357.17,202.6a50.78,50.78,0,0,1-11.75-1.4,32.89,32.89,0,0,1-10.56-4.48,25.36,25.36,0,0,1-7.7-7.9,21.37,21.37,0,0,1-3-11.55,26.4,26.4,0,0,1,2.1-10.77A35.93,35.93,0,0,1,331.5,158a37.25,37.25,0,0,1,6.85-6.43,76.39,76.39,0,0,1,6.93-4.48,46.9,46.9,0,0,1,5.53-2.73l2.73-1a8.65,8.65,0,0,1-1.54-.77,14.74,14.74,0,0,1-3.08-2.38A20.42,20.42,0,0,1,345.7,136a16.4,16.4,0,0,1-2.1-6.16q-10.64-1-15.88-4.2t-5.25-8.25a13.16,13.16,0,0,1,2-6.86,28.76,28.76,0,0,1,4.83-6,30.74,30.74,0,0,1,5.67-4.33,9.9,9.9,0,0,1,4.4-1.68,1.08,1.08,0,0,1,1,.42,1.48,1.48,0,0,1,.28.84,5.57,5.57,0,0,1-1.26,2.45,7.07,7.07,0,0,0-1.26,4.26,10.87,10.87,0,0,0,2,6.23,18.72,18.72,0,0,0,5.46,5.11,29.12,29.12,0,0,1,6.37-8.12,47,47,0,0,1,9.23-6.57A48.81,48.81,0,0,1,372,98.78a42.87,42.87,0,0,1,11.19-1.54,26.33,26.33,0,0,1,7.07.91,20.29,20.29,0,0,1,5.73,2.52,12.37,12.37,0,0,1,3.85,3.91,9.72,9.72,0,0,1,1.4,5.11,10.8,10.8,0,0,1-2.8,7,25.76,25.76,0,0,1-8,6.08,59.21,59.21,0,0,1-12.67,4.62,89.22,89.22,0,0,1-16.65,2.45,21.74,21.74,0,0,0,.63,4.27,17,17,0,0,0,1.19,3.29,30.07,30.07,0,0,0,1.54,2.93c.75-.09,1.63-.23,2.66-.42.84-.09,1.84-.18,3-.28s2.49-.13,4-.13q8.26,0,8.26,4.89,0,2.1-2.45,4.27a9.43,9.43,0,0,1-6.51,2.17,28.52,28.52,0,0,1-4.61-.35,20.53,20.53,0,0,1-3.64-.91,15.21,15.21,0,0,1-3.08-1.4,43.93,43.93,0,0,0-9.23,7.28,40.34,40.34,0,0,0-6.37,9,25.89,25.89,0,0,0-2.87,12.45q0,8.82,4.76,13.09t13.57,4.26A26.43,26.43,0,0,0,376.2,190a37.51,37.51,0,0,0,11.48-11.48,2.69,2.69,0,0,1,.7-1,5,5,0,0,1,.84-.63,2.34,2.34,0,0,1,1.26-.35,2.83,2.83,0,0,1,2.09.84,2.7,2.7,0,0,1,.84,2,6.16,6.16,0,0,1-.56,2.1c-.18.38-.37.75-.56,1.12a41.79,41.79,0,0,1-5.59,7.35,39.88,39.88,0,0,1-7.77,6.36,42.47,42.47,0,0,1-9.86,4.55A38.72,38.72,0,0,1,357.17,202.6Zm25.61-99.35a16.09,16.09,0,0,0-6.44,1.4,23.33,23.33,0,0,0-6,3.85,28.21,28.21,0,0,0-5,5.88,26.74,26.74,0,0,0-3.36,7.48,59.52,59.52,0,0,0,11.13-1,36.66,36.66,0,0,0,8.88-2.8,17.19,17.19,0,0,0,5.88-4.34,8.52,8.52,0,0,0,2.1-5.6,4.06,4.06,0,0,0-2.1-3.57A9.28,9.28,0,0,0,382.78,103.25Z"/><path class="cls-3" d="M404.33,159.5a103.61,103.61,0,0,1-6.65,14.35c-2.19,3.77-4,6.74-5.53,8.88a10.53,10.53,0,0,1-1,1.26,2.61,2.61,0,0,1-2,.84,3.12,3.12,0,0,1-2.94-2.94,3.29,3.29,0,0,1,.63-1.89,12.28,12.28,0,0,0,.91-1.47q1.95-2.79,5.52-8.88a77.48,77.48,0,0,0,6.65-16,9.61,9.61,0,0,1,2.59-4.06,19.58,19.58,0,0,1,4.2-3.08,22.89,22.89,0,0,1,4.82-2,17.65,17.65,0,0,1,4.62-.7q5.18,0,7.14,5.32t2.52,17.91a34.14,34.14,0,0,0,5.24-9.37,23.67,23.67,0,0,0,1.61-6.58c0-.84.63-1.7,1.89-2.59a24.43,24.43,0,0,1,4.27-2.38,34.18,34.18,0,0,1,4.62-1.68,14.31,14.31,0,0,1,2.93-.63c1.77,0,2.66.84,2.66,2.52,0,.93-.68,2.57-2,4.9a67.49,67.49,0,0,1-5.31,7.69q-3.3,4.2-7.35,8.47a63.34,63.34,0,0,1-8.25,7.35q.56,8.25,3.14,12a8.13,8.13,0,0,0,7.07,3.78,9.92,9.92,0,0,0,5.53-1.82,24.61,24.61,0,0,0,4.82-4.2,30.84,30.84,0,0,0,4.62-6,2.82,2.82,0,0,1,.7-1,6,6,0,0,1,.84-.63,2.34,2.34,0,0,1,1.26-.35,2.94,2.94,0,0,1,2,.84,2.62,2.62,0,0,1,.91,2,2.59,2.59,0,0,1-.21,1c-.14.33-.31.68-.49,1.05s-.38.79-.56,1.26a49.07,49.07,0,0,1-6.86,8.68,39.89,39.89,0,0,1-7.62,5.87,18.27,18.27,0,0,1-9.59,2.66,24.85,24.85,0,0,1-12.94-3.29q-5.54-3.28-7.77-11.26-2.37,2.38-5.24,4.9T399.92,195a40,40,0,0,1-5.53,3.57,10.29,10.29,0,0,1-4.62,1.4,1.7,1.7,0,0,1-1.95-2.1,8.16,8.16,0,0,1,.63-2.66,20.73,20.73,0,0,1,1.68-3.42,22.56,22.56,0,0,1,2.23-3.15,4.81,4.81,0,0,1,2.31-1.68,24.68,24.68,0,0,0,7.77-3.36,86.28,86.28,0,0,0,7.2-5c-.46-3.91-.84-7.18-1.12-9.79s-.51-4.73-.7-6.37a14.78,14.78,0,0,0-.69-3.5c-.28-.7-.66-1.05-1.12-1.05Q405,157.82,404.33,159.5Z"/><path class="cls-3" d="M520.74,182.73a23.24,23.24,0,0,1-6,6,32,32,0,0,1-7.63,4.2,28.78,28.78,0,0,1-10.7,1.81c-.66,0-1.36,0-2.1-.07s-1.5-.11-2.24-.21a27.49,27.49,0,0,1-7,4,21.81,21.81,0,0,1-8,1.47,15.72,15.72,0,0,1-5.95-1.05,18.39,18.39,0,0,1-4.41-2.45,16.93,16.93,0,0,1-3.64-3.63,65.86,65.86,0,0,0-2.58,8.18q-1.33,5.1-2.45,10.84t-1.82,11.34a78.69,78.69,0,0,0-.7,9.65c0,2.05-.89,3.08-2.66,3.08a19.52,19.52,0,0,1-4.2-.49,13.88,13.88,0,0,1-4.13-1.61,9.51,9.51,0,0,1-3.14-3.08,8.58,8.58,0,0,1-1.26-4.75,48.74,48.74,0,0,1,1-7.91q1-5.38,2.51-12.38t3.64-15q2.1-8.05,4.27-15.95t4.34-14.91q2.16-7,4-11.89a4,4,0,0,1,3.91-2.66,9.32,9.32,0,0,1,4,1.26q2.45,1.26,5.67,6.3a53.5,53.5,0,0,1,6-4.48,46.69,46.69,0,0,1,5.81-3.08,15.6,15.6,0,0,1,6.37-1.4,14.57,14.57,0,0,1,6.85,1.61,17.81,17.81,0,0,1,5.25,4.13,20.28,20.28,0,0,1,3.43,5.6,16.11,16.11,0,0,1,1.26,6.15,39.6,39.6,0,0,1-2.59,13.16,48.58,48.58,0,0,1-7.35,13.43,4.36,4.36,0,0,0,1.26.14,14.5,14.5,0,0,0,6.58-1.47,28.53,28.53,0,0,0,5.18-3.29,37.48,37.48,0,0,0,4.75-4.76,3,3,0,0,1,.7-1,6,6,0,0,1,.84-.63,2.34,2.34,0,0,1,1.26-.35,2.92,2.92,0,0,1,2,.84,2.62,2.62,0,0,1,.7,3c-.14.33-.3.68-.49,1.05S520.93,182.26,520.74,182.73Zm-54-1.26a13.71,13.71,0,0,0,2.1,7.42,6.36,6.36,0,0,0,5.6,3.36,7.09,7.09,0,0,0,4.61-2.1,3.39,3.39,0,0,1-.69-2,4.25,4.25,0,0,1,.76-2.31,11.78,11.78,0,0,1,1.82-2.17,13.23,13.23,0,0,1,2.24-1.68,4.27,4.27,0,0,1,2-.7,59.5,59.5,0,0,0,2.52-5.81q1.13-3,1.89-5.87c.51-1.91.91-3.69,1.19-5.32a25.12,25.12,0,0,0,.42-4.13c0-2.51-.4-4.29-1.19-5.31a4.21,4.21,0,0,0-3.57-1.54q-2.81,0-6.16,3a44,44,0,0,0-6.43,7.34,47.19,47.19,0,0,0-5.11,9.17A22.59,22.59,0,0,0,466.73,181.47Z"/><path class="cls-3" d="M551.66,185.67a4.92,4.92,0,0,0,1.26,3.64,4.54,4.54,0,0,0,3.36,1.26,9.9,9.9,0,0,0,5.53-1.82,24.39,24.39,0,0,0,4.83-4.2,31.21,31.21,0,0,0,4.61-6,3,3,0,0,1,.7-1,6,6,0,0,1,.84-.63,2.34,2.34,0,0,1,1.26-.35,2.92,2.92,0,0,1,2,.84,2.62,2.62,0,0,1,.7,3c-.14.33-.3.68-.49,1.05s-.37.79-.56,1.26a49.07,49.07,0,0,1-6.86,8.68,39.58,39.58,0,0,1-7.62,5.87,18.27,18.27,0,0,1-9.59,2.66,21.93,21.93,0,0,1-7.27-1.12,18.75,18.75,0,0,1-5.6-3,13,13,0,0,1-3.64-4.4,12,12,0,0,1-1.26-5.46,26.55,26.55,0,0,1,1.4-8.68,70.38,70.38,0,0,1,3-7.41c1.07-2.24,2.08-4.22,3-6a9.6,9.6,0,0,0,1.4-4.27,1.84,1.84,0,0,0-1.33-1.68,23.53,23.53,0,0,0-2.87-1,37.39,37.39,0,0,0-4.2-.7A144,144,0,0,1,526.62,173c-2.43,4.33-4.39,7.58-5.88,9.72a13,13,0,0,1-1,1.26,2.62,2.62,0,0,1-2,.84,3.12,3.12,0,0,1-2.94-2.94,3.29,3.29,0,0,1,.63-1.89,11.1,11.1,0,0,0,.91-1.47q2-2.79,5.53-8.88a78,78,0,0,0,6.65-16,8.58,8.58,0,0,1-2.38-2.52,14.46,14.46,0,0,1-1.54-3.22,13.61,13.61,0,0,1-.7-4.62,10.45,10.45,0,0,1,.77-4,11.05,11.05,0,0,1,2-3.29,11.65,11.65,0,0,1,2.66-2.24,5.18,5.18,0,0,1,2.65-.84,6.58,6.58,0,0,1,2.94.77,14.19,14.19,0,0,1,2.8,1.82,10.07,10.07,0,0,1,2.1,2.38,4.49,4.49,0,0,1,.84,2.3,10.25,10.25,0,0,1-.91,4.62,7.8,7.8,0,0,0-.91,3.5,2.35,2.35,0,0,0,1.68,2.24,10.91,10.91,0,0,0,4.2.7,23.6,23.6,0,0,0,4-.28c1.07-.19,2-.4,2.86-.63l2.38-.63a9.64,9.64,0,0,1,2.38-.28,5.09,5.09,0,0,1,4.13,2,7.27,7.27,0,0,1,1.61,4.76,13.38,13.38,0,0,1-1.61,5.66q-1.6,3.3-3.57,7.21a85.16,85.16,0,0,0-3.57,8.18A24,24,0,0,0,551.66,185.67Z"/><path class="cls-3" d="M625.68,182.73a35.79,35.79,0,0,1-7.69,8.68,44.75,44.75,0,0,1-9.73,5.87,32.89,32.89,0,0,1-13.78,2.66,29.88,29.88,0,0,1-9.8-1.54,23.48,23.48,0,0,1-7.69-4.27,19.37,19.37,0,0,1-5-6.5,18.82,18.82,0,0,1-1.82-8.26,35.29,35.29,0,0,1,2.94-14.55,39.28,39.28,0,0,1,7.42-11.26,33.36,33.36,0,0,1,9.72-7.21,22.9,22.9,0,0,1,9.87-2.52,14.49,14.49,0,0,1,6,1.26,17.07,17.07,0,0,1,4.9,3.29,15.07,15.07,0,0,1,3.29,4.69,13.26,13.26,0,0,1,1.19,5.45,21.16,21.16,0,0,1-1.12,6.09,20.92,20.92,0,0,1-3.71,6.79,21.88,21.88,0,0,1-7,5.52,23.46,23.46,0,0,1-11,2.31,13.25,13.25,0,0,1-3.22-.42,19.47,19.47,0,0,1-2.1-.42q0,6.3,3.64,9.66a12.36,12.36,0,0,0,8.68,3.36,19.78,19.78,0,0,0,9-2,33.82,33.82,0,0,0,6.86-4.41,28.79,28.79,0,0,0,5.73-6.44,3,3,0,0,1,.7-1,6,6,0,0,1,.84-.63,2.34,2.34,0,0,1,1.26-.35,2.92,2.92,0,0,1,2,.84,2.62,2.62,0,0,1,.7,3c-.14.33-.3.68-.49,1.05S625.87,182.26,625.68,182.73ZM588,172.66a13.25,13.25,0,0,0,7.14-2.1,23.29,23.29,0,0,0,5.8-5.11,26.29,26.29,0,0,0,3.85-6.23,14.24,14.24,0,0,0,1.4-5.45c0-1.87-.84-2.8-2.52-2.8a8.77,8.77,0,0,0-5.73,2.38,25.68,25.68,0,0,0-5,5.73,36.09,36.09,0,0,0-3.57,7.14A19.25,19.25,0,0,0,588,172.66Z"/><path class="cls-3" d="M682.91,182.73a35.13,35.13,0,0,1-9.1,9.1,50.45,50.45,0,0,1-12.24,6.29q-7.49,2.81-18.26,2.8a24.08,24.08,0,0,1-9.79-2,29.81,29.81,0,0,1-8-5.11,25.91,25.91,0,0,1-5.46-6.71,14,14,0,0,1-2-6.72,7,7,0,0,1,2.09-5.17,20.7,20.7,0,0,1,4.62-3.5,31.13,31.13,0,0,1,6.72-2.52c.56-.93,1.3-2.1,2.24-3.5q1.11-1.82,2.93-4.55c1.22-1.82,2.61-4,4.2-6.5q4.9-7.43,8.4-10.29t6.15-2.87a4.91,4.91,0,0,1,2.31.63,14.41,14.41,0,0,1,2.24,1.47,9.5,9.5,0,0,1,1.68,1.68,2.56,2.56,0,0,1,.63,1.4,4,4,0,0,1-.56,1.75l-1.19,2.24a20.65,20.65,0,0,0-1.12,2.52,7.75,7.75,0,0,0-.49,2.73,27.83,27.83,0,0,0,.84,7.27,60.92,60.92,0,0,0,1.89,5.81q1,2.73,1.89,5.32a18.71,18.71,0,0,1,.84,5.8,19.33,19.33,0,0,1-.49,4.69,16.72,16.72,0,0,1-1.19,3.29,14.44,14.44,0,0,1-1.54,2.66,28.46,28.46,0,0,0,7.35-3.15,40.84,40.84,0,0,0,5.52-4,37.09,37.09,0,0,0,4.48-5,2.82,2.82,0,0,1,.7-1,6,6,0,0,1,.84-.63,2.34,2.34,0,0,1,1.26-.35,2.92,2.92,0,0,1,2,.84,2.62,2.62,0,0,1,.91,2,2.59,2.59,0,0,1-.21,1c-.14.33-.31.68-.49,1.05S683.1,182.26,682.91,182.73Zm-39.46-21.55q-2.94,4.48-5.18,8.12c-1.3,2.15-2.49,4.15-3.56,6a11.17,11.17,0,0,0-1.61,3.49,47.71,47.71,0,0,0,.35,5.95,22.05,22.05,0,0,0,1.19,5.11,10.54,10.54,0,0,0,2.09,3.56,4.24,4.24,0,0,0,3.22,1.33q3.22,0,5.53-3.49a14.65,14.65,0,0,0,2.31-8.26,24.58,24.58,0,0,0-.7-5.6c-.47-1.95-1-3.89-1.47-5.8s-1-3.78-1.47-5.6A19.58,19.58,0,0,1,643.45,161.18Z"/><path class="cls-3" d="M740.14,182.73a35.29,35.29,0,0,1-9.1,9.1,50.45,50.45,0,0,1-12.24,6.29q-7.49,2.81-18.26,2.8a24.16,24.16,0,0,1-9.8-2,29.75,29.75,0,0,1-8-5.11,25.91,25.91,0,0,1-5.46-6.71,14,14,0,0,1-2-6.72,7,7,0,0,1,2.1-5.17,20.7,20.7,0,0,1,4.62-3.5,31.13,31.13,0,0,1,6.72-2.52c.56-.93,1.3-2.1,2.23-3.5q1.13-1.82,2.94-4.55c1.21-1.82,2.61-4,4.2-6.5q4.89-7.43,8.4-10.29t6.15-2.87a4.91,4.91,0,0,1,2.31.63,14.41,14.41,0,0,1,2.24,1.47,9.5,9.5,0,0,1,1.68,1.68,2.56,2.56,0,0,1,.63,1.4,4,4,0,0,1-.56,1.75c-.38.7-.77,1.45-1.19,2.24a20.65,20.65,0,0,0-1.12,2.52,7.75,7.75,0,0,0-.49,2.73,27.83,27.83,0,0,0,.84,7.27A60.92,60.92,0,0,0,718.8,169q1.05,2.73,1.89,5.32a18.71,18.71,0,0,1,.84,5.8,19.33,19.33,0,0,1-.49,4.69,17.39,17.39,0,0,1-1.19,3.29,14.44,14.44,0,0,1-1.54,2.66,28.39,28.39,0,0,0,7.34-3.15,40.37,40.37,0,0,0,5.53-4,37.09,37.09,0,0,0,4.48-5,2.82,2.82,0,0,1,.7-1,5,5,0,0,1,.84-.63,2.34,2.34,0,0,1,1.26-.35,2.94,2.94,0,0,1,2,.84,2.62,2.62,0,0,1,.91,2,2.59,2.59,0,0,1-.21,1c-.14.33-.31.68-.49,1.05S740.32,182.26,740.14,182.73Zm-39.46-21.55q-2.94,4.48-5.18,8.12c-1.31,2.15-2.5,4.15-3.57,6a11.44,11.44,0,0,0-1.61,3.49,49.7,49.7,0,0,0,.35,5.95,22.57,22.57,0,0,0,1.19,5.11,10.39,10.39,0,0,0,2.1,3.56,4.22,4.22,0,0,0,3.22,1.33q3.23,0,5.53-3.49A14.65,14.65,0,0,0,705,183a24.58,24.58,0,0,0-.7-5.6c-.47-1.95-1-3.89-1.47-5.8s-1-3.78-1.47-5.6A19.58,19.58,0,0,1,700.68,161.18Z"/><path class="cls-3" d="M740.84,188.19a10.73,10.73,0,0,1,2.72.35,13.36,13.36,0,0,0,3.29.35,16.73,16.73,0,0,0,12.32-5.25,49.78,49.78,0,0,0,9.09-13.29A113.66,113.66,0,0,0,775,152.79q2.79-9.51,5.17-18a46,46,0,0,1,4.9-12.46,39.59,39.59,0,0,1,5.18-6.85,12.65,12.65,0,0,1,5.88-3.36A46.33,46.33,0,0,0,786,108.78a67.9,67.9,0,0,0-15.32-1.61A17.23,17.23,0,0,0,760.35,110a9.09,9.09,0,0,0-4,7.77,12.28,12.28,0,0,0,1,5.38,15.19,15.19,0,0,0,2.38,3.64c.88,1,1.67,1.8,2.37,2.45a2.62,2.62,0,0,1,1.05,1.68c0,1.77-1,2.66-2.93,2.66a19.41,19.41,0,0,1-6.37-1.26,25.84,25.84,0,0,1-6.79-3.64,23.12,23.12,0,0,1-5.45-5.67,12.91,12.91,0,0,1-2.24-7.48,13.94,13.94,0,0,1,2.79-9,20.94,20.94,0,0,1,6.93-5.59,31.55,31.55,0,0,1,9-2.94,51.94,51.94,0,0,1,8.88-.84,101.55,101.55,0,0,1,12.59.7q5.6.7,11.34,1.61t12.31,1.61a150.9,150.9,0,0,0,15.53.7,43.14,43.14,0,0,0,8.68-.7,22.58,22.58,0,0,0,5-1.61,16.91,16.91,0,0,0,2.73-1.61,2.76,2.76,0,0,1,1.61-.7,2.85,2.85,0,0,1,2.1.84,2.68,2.68,0,0,1,.84,2,9.38,9.38,0,0,1-1.61,3.63,28.57,28.57,0,0,1-4.34,5.39,35.5,35.5,0,0,1-6.15,4.9,13.26,13.26,0,0,1-7.21,2.17,54.12,54.12,0,0,1-6.3-.35c-1.95-.23-3.68-.49-5.17-.77q-2.52-.56-4.76-1.26a5.37,5.37,0,0,0-1.4,1.26,15.74,15.74,0,0,0-2,3.43,59.12,59.12,0,0,0-2.45,6.71q-1.32,4.28-2.72,11-1.26,5.6-2.45,12.52t-2.94,14A124.39,124.39,0,0,1,786,176.43a52.81,52.81,0,0,1-6.23,12,29.39,29.39,0,0,1-8.95,8.39,23.61,23.61,0,0,1-12.38,3.15,32.93,32.93,0,0,1-7.91-.91,28.94,28.94,0,0,1-6.44-2.31,15.69,15.69,0,0,1-4.26-3,4.45,4.45,0,0,1-1.54-2.86,2.33,2.33,0,0,1,2.52-2.66Z"/><path class="cls-3" d="M871.94,182.73a49.49,49.49,0,0,1-6.85,8.68,40,40,0,0,1-7.63,5.87,18.23,18.23,0,0,1-9.58,2.66,16.21,16.21,0,0,1-9.94-3q-4.07-3-4.76-8.88a36.33,36.33,0,0,1-6,6,38.06,38.06,0,0,1-6.3,4.06,16.17,16.17,0,0,1-7.56,1.82,14.16,14.16,0,0,1-5.38-1.05,12.78,12.78,0,0,1-4.48-3,14.9,14.9,0,0,1-3-4.61,15.1,15.1,0,0,1-1.12-5.88,41.22,41.22,0,0,1,2.87-15,52.47,52.47,0,0,1,7.49-13.37A40.9,40.9,0,0,1,820,147.47a21.45,21.45,0,0,1,18.61-2.59,20.71,20.71,0,0,1,4.76,2.31,16,16,0,0,1,3.36,3.22,17,17,0,0,1,3.28.35,11.91,11.91,0,0,1,3.22,1.12,7.35,7.35,0,0,1,2.45,2,4.87,4.87,0,0,1,1,3.08,17.33,17.33,0,0,1-1.26,5l-2.8,7.77c-1,2.84-2,5.78-2.8,8.81a30.69,30.69,0,0,0-1.26,8.05,4,4,0,0,0,1,2.8,3.74,3.74,0,0,0,2.87,1.12,9.9,9.9,0,0,0,5.53-1.82,24.39,24.39,0,0,0,4.83-4.2,30.43,30.43,0,0,0,4.61-6,3,3,0,0,1,.7-1,6,6,0,0,1,.84-.63,2.39,2.39,0,0,1,1.26-.35,2.92,2.92,0,0,1,2,.84,2.62,2.62,0,0,1,.7,3c-.14.33-.3.68-.49,1.05S872.13,182.26,871.94,182.73ZM839.48,158a6.18,6.18,0,0,0-1.47-4.54,4.86,4.86,0,0,0-3.57-1.47q-3.08,0-6.29,3.22a34.7,34.7,0,0,0-5.81,7.9,53.31,53.31,0,0,0-4.27,10.15,33.63,33.63,0,0,0-1.68,9.79q0,6.3,4.06,6.3c1.68,0,3.61-1.12,5.81-3.36a44.41,44.41,0,0,0,6.22-8.26,62.86,62.86,0,0,0,5-10.28A27.44,27.44,0,0,0,839.48,158Z"/><path class="cls-3" d="M929.17,182.73a35.13,35.13,0,0,1-9.1,9.1,50.45,50.45,0,0,1-12.24,6.29q-7.49,2.81-18.26,2.8a24.08,24.08,0,0,1-9.79-2,29.81,29.81,0,0,1-8-5.11,25.91,25.91,0,0,1-5.46-6.71,14,14,0,0,1-2-6.72,7,7,0,0,1,2.1-5.17,20.7,20.7,0,0,1,4.62-3.5,31.13,31.13,0,0,1,6.72-2.52c.56-.93,1.3-2.1,2.24-3.5q1.11-1.82,2.93-4.55c1.22-1.82,2.61-4,4.2-6.5q4.91-7.43,8.4-10.29t6.15-2.87a4.91,4.91,0,0,1,2.31.63,14.41,14.41,0,0,1,2.24,1.47,9.5,9.5,0,0,1,1.68,1.68,2.56,2.56,0,0,1,.63,1.4,4,4,0,0,1-.56,1.75l-1.19,2.24a20.65,20.65,0,0,0-1.12,2.52,7.75,7.75,0,0,0-.49,2.73,27.83,27.83,0,0,0,.84,7.27,60.92,60.92,0,0,0,1.89,5.81q1,2.73,1.89,5.32a18.71,18.71,0,0,1,.84,5.8,19.33,19.33,0,0,1-.49,4.69,16.72,16.72,0,0,1-1.19,3.29,14.44,14.44,0,0,1-1.54,2.66,28.46,28.46,0,0,0,7.35-3.15,40.84,40.84,0,0,0,5.52-4,37.09,37.09,0,0,0,4.48-5,2.82,2.82,0,0,1,.7-1,6,6,0,0,1,.84-.63,2.34,2.34,0,0,1,1.26-.35,2.92,2.92,0,0,1,2,.84,2.62,2.62,0,0,1,.91,2,2.59,2.59,0,0,1-.21,1c-.14.33-.31.68-.49,1.05S929.35,182.26,929.17,182.73Zm-39.46-21.55q-2.94,4.48-5.18,8.12c-1.3,2.15-2.49,4.15-3.56,6a11.17,11.17,0,0,0-1.61,3.49,47.71,47.71,0,0,0,.35,5.95,22.05,22.05,0,0,0,1.19,5.11,10.54,10.54,0,0,0,2.09,3.56,4.24,4.24,0,0,0,3.22,1.33q3.22,0,5.53-3.49a14.65,14.65,0,0,0,2.31-8.26,24.58,24.58,0,0,0-.7-5.6c-.47-1.95-1-3.89-1.47-5.8s-1-3.78-1.47-5.6A19.58,19.58,0,0,1,889.71,161.18Z"/><path class="cls-3" d="M947.78,190.57a9.87,9.87,0,0,0,5.52-1.82,24.39,24.39,0,0,0,4.83-4.2,30.84,30.84,0,0,0,4.62-6,2.82,2.82,0,0,1,.7-1,5.48,5.48,0,0,1,.84-.63,2.34,2.34,0,0,1,1.26-.35,2.94,2.94,0,0,1,2,.84,2.62,2.62,0,0,1,.91,2,2.59,2.59,0,0,1-.21,1c-.14.33-.31.68-.49,1.05s-.38.79-.56,1.26a49.53,49.53,0,0,1-6.86,8.68,40,40,0,0,1-7.63,5.87,18.21,18.21,0,0,1-9.58,2.66,22.07,22.07,0,0,1-13.22-4.62,19.92,19.92,0,0,1-4.76-5.31,12.59,12.59,0,0,1-1.89-6.72,46.67,46.67,0,0,1,.7-7.21q.71-4.26,2-9.3t2.87-10.63q1.6-5.6,3.43-11.06h-3.78c-.75,0-1.12-.42-1.12-1.26a5.88,5.88,0,0,1,1.33-3,3.64,3.64,0,0,1,2.87-1.88h2.8q2.08-5.74,4.12-10.57a69.05,69.05,0,0,1,4-8.18A5.44,5.44,0,0,1,944,118.3a3.54,3.54,0,0,1,2.24-.77,7.64,7.64,0,0,1,3.43,1,21.77,21.77,0,0,1,3.57,2.31,17.23,17.23,0,0,1,2.79,2.72,4.15,4.15,0,0,1,1.12,2.38,16.89,16.89,0,0,1-1.33,4.41c-.88,2.29-2,5.16-3.28,8.61h9.37c.75,0,1.12.42,1.12,1.25a3.28,3.28,0,0,1-.42,1.4,8.54,8.54,0,0,1-1.05,1.61,8.36,8.36,0,0,1-1.33,1.33,2.2,2.2,0,0,1-1.4.56h-8.67q-1.68,4.62-3.43,9.8t-3.15,10.21q-1.4,5-2.31,9.73a44.45,44.45,0,0,0-.91,8.46,6.84,6.84,0,0,0,2.17,5.25A7.42,7.42,0,0,0,947.78,190.57Z"/><path class="cls-3" d="M991.29,190.85A17.44,17.44,0,0,0,997,190a19.54,19.54,0,0,0,4.2-2,21.18,21.18,0,0,0,3-2.31c.83-.79,1.49-1.42,2-1.89l1-1c.28-.19.61-.39,1-.63a2.13,2.13,0,0,1,1.12-.35,2.85,2.85,0,0,1,2.1.84,2.68,2.68,0,0,1,.84,2,1.81,1.81,0,0,1-.35,1.05,9.12,9.12,0,0,0-.63,1,13.77,13.77,0,0,0-.84,1.26,33.29,33.29,0,0,1-6.57,6,39.73,39.73,0,0,1-7.63,4.06A26.47,26.47,0,0,1,986,199.94a29.88,29.88,0,0,1-9.8-1.54,23.53,23.53,0,0,1-7.7-4.27,19.46,19.46,0,0,1-5-6.5,18.82,18.82,0,0,1-1.82-8.26,35.29,35.29,0,0,1,2.94-14.55A39.47,39.47,0,0,1,972,153.56a33.54,33.54,0,0,1,9.73-7.21,22.86,22.86,0,0,1,9.86-2.52,14.5,14.5,0,0,1,6,1.26,17.2,17.2,0,0,1,4.9,3.29,14.88,14.88,0,0,1,3.28,4.69,13.1,13.1,0,0,1,1.19,5.45,22.06,22.06,0,0,1-4.82,12.88,21.88,21.88,0,0,1-7,5.52,23.49,23.49,0,0,1-11,2.31,13.25,13.25,0,0,1-3.22-.42,18.55,18.55,0,0,1-2.1-.42q0,6.3,3.71,9.38A13.26,13.26,0,0,0,991.29,190.85Zm-11.75-18.19a13.19,13.19,0,0,0,7.13-2.1,23.34,23.34,0,0,0,5.81-5.11,26.62,26.62,0,0,0,3.85-6.23,14.24,14.24,0,0,0,1.4-5.45c0-1.87-.84-2.8-2.52-2.8a8.81,8.81,0,0,0-5.74,2.38,25.9,25.9,0,0,0-5,5.73,36.09,36.09,0,0,0-3.57,7.14A19,19,0,0,0,979.54,172.66Z"/><path class="cls-2" d="M357.17,202.6a50.78,50.78,0,0,1-11.75-1.4,32.89,32.89,0,0,1-10.56-4.48,25.36,25.36,0,0,1-7.7-7.9,21.37,21.37,0,0,1-3-11.55,26.4,26.4,0,0,1,2.1-10.77A35.93,35.93,0,0,1,331.5,158a37.25,37.25,0,0,1,6.85-6.43,76.39,76.39,0,0,1,6.93-4.48,46.9,46.9,0,0,1,5.53-2.73l2.73-1a8.65,8.65,0,0,1-1.54-.77,14.74,14.74,0,0,1-3.08-2.38A20.42,20.42,0,0,1,345.7,136a16.4,16.4,0,0,1-2.1-6.16q-10.64-1-15.88-4.2t-5.25-8.25a13.16,13.16,0,0,1,2-6.86,28.76,28.76,0,0,1,4.83-6,30.74,30.74,0,0,1,5.67-4.33,9.9,9.9,0,0,1,4.4-1.68,1.08,1.08,0,0,1,1,.42,1.48,1.48,0,0,1,.28.84,5.57,5.57,0,0,1-1.26,2.45,7.07,7.07,0,0,0-1.26,4.26,10.87,10.87,0,0,0,2,6.23,18.72,18.72,0,0,0,5.46,5.11,29.12,29.12,0,0,1,6.37-8.12,47,47,0,0,1,9.23-6.57A48.81,48.81,0,0,1,372,98.78a42.87,42.87,0,0,1,11.19-1.54,26.33,26.33,0,0,1,7.07.91,20.29,20.29,0,0,1,5.73,2.52,12.37,12.37,0,0,1,3.85,3.91,9.72,9.72,0,0,1,1.4,5.11,10.8,10.8,0,0,1-2.8,7,25.76,25.76,0,0,1-8,6.08,59.21,59.21,0,0,1-12.67,4.62,89.22,89.22,0,0,1-16.65,2.45,21.74,21.74,0,0,0,.63,4.27,17,17,0,0,0,1.19,3.29,30.07,30.07,0,0,0,1.54,2.93c.75-.09,1.63-.23,2.66-.42.84-.09,1.84-.18,3-.28s2.49-.13,4-.13q8.26,0,8.26,4.89,0,2.1-2.45,4.27a9.43,9.43,0,0,1-6.51,2.17,28.52,28.52,0,0,1-4.61-.35,20.53,20.53,0,0,1-3.64-.91,15.21,15.21,0,0,1-3.08-1.4,43.93,43.93,0,0,0-9.23,7.28,40.34,40.34,0,0,0-6.37,9,25.89,25.89,0,0,0-2.87,12.45q0,8.82,4.76,13.09t13.57,4.26A26.43,26.43,0,0,0,376.2,190a37.51,37.51,0,0,0,11.48-11.48,2.69,2.69,0,0,1,.7-1,5,5,0,0,1,.84-.63,2.34,2.34,0,0,1,1.26-.35,2.83,2.83,0,0,1,2.09.84,2.7,2.7,0,0,1,.84,2,6.16,6.16,0,0,1-.56,2.1c-.18.38-.37.75-.56,1.12a41.79,41.79,0,0,1-5.59,7.35,39.88,39.88,0,0,1-7.77,6.36,42.47,42.47,0,0,1-9.86,4.55A38.72,38.72,0,0,1,357.17,202.6Zm25.61-99.35a16.09,16.09,0,0,0-6.44,1.4,23.33,23.33,0,0,0-6,3.85,28.21,28.21,0,0,0-5,5.88,26.74,26.74,0,0,0-3.36,7.48,59.52,59.52,0,0,0,11.13-1,36.66,36.66,0,0,0,8.88-2.8,17.19,17.19,0,0,0,5.88-4.34,8.52,8.52,0,0,0,2.1-5.6,4.06,4.06,0,0,0-2.1-3.57A9.28,9.28,0,0,0,382.78,103.25Z"/><path class="cls-2" d="M404.33,159.5a103.61,103.61,0,0,1-6.65,14.35c-2.19,3.77-4,6.74-5.53,8.88a10.53,10.53,0,0,1-1,1.26,2.61,2.61,0,0,1-2,.84,3.12,3.12,0,0,1-2.94-2.94,3.29,3.29,0,0,1,.63-1.89,12.28,12.28,0,0,0,.91-1.47q1.95-2.79,5.52-8.88a77.48,77.48,0,0,0,6.65-16,9.61,9.61,0,0,1,2.59-4.06,19.58,19.58,0,0,1,4.2-3.08,22.89,22.89,0,0,1,4.82-2,17.65,17.65,0,0,1,4.62-.7q5.18,0,7.14,5.32t2.52,17.91a34.14,34.14,0,0,0,5.24-9.37,23.67,23.67,0,0,0,1.61-6.58c0-.84.63-1.7,1.89-2.59a24.43,24.43,0,0,1,4.27-2.38,34.18,34.18,0,0,1,4.62-1.68,14.31,14.31,0,0,1,2.93-.63c1.77,0,2.66.84,2.66,2.52,0,.93-.68,2.57-2,4.9a67.49,67.49,0,0,1-5.31,7.69q-3.3,4.2-7.35,8.47a63.34,63.34,0,0,1-8.25,7.35q.56,8.25,3.14,12a8.13,8.13,0,0,0,7.07,3.78,9.92,9.92,0,0,0,5.53-1.82,24.61,24.61,0,0,0,4.82-4.2,30.84,30.84,0,0,0,4.62-6,2.82,2.82,0,0,1,.7-1,6,6,0,0,1,.84-.63,2.34,2.34,0,0,1,1.26-.35,2.94,2.94,0,0,1,2,.84,2.62,2.62,0,0,1,.91,2,2.59,2.59,0,0,1-.21,1c-.14.33-.31.68-.49,1.05s-.38.79-.56,1.26a49.07,49.07,0,0,1-6.86,8.68,39.89,39.89,0,0,1-7.62,5.87,18.27,18.27,0,0,1-9.59,2.66,24.85,24.85,0,0,1-12.94-3.29q-5.54-3.28-7.77-11.26-2.37,2.38-5.24,4.9T399.92,195a40,40,0,0,1-5.53,3.57,10.29,10.29,0,0,1-4.62,1.4,1.7,1.7,0,0,1-1.95-2.1,8.16,8.16,0,0,1,.63-2.66,20.73,20.73,0,0,1,1.68-3.42,22.56,22.56,0,0,1,2.23-3.15,4.81,4.81,0,0,1,2.31-1.68,24.68,24.68,0,0,0,7.77-3.36,86.28,86.28,0,0,0,7.2-5c-.46-3.91-.84-7.18-1.12-9.79s-.51-4.73-.7-6.37a14.78,14.78,0,0,0-.69-3.5c-.28-.7-.66-1.05-1.12-1.05Q405,157.82,404.33,159.5Z"/><path class="cls-2" d="M520.74,182.73a23.24,23.24,0,0,1-6,6,32,32,0,0,1-7.63,4.2,28.78,28.78,0,0,1-10.7,1.81c-.66,0-1.36,0-2.1-.07s-1.5-.11-2.24-.21a27.49,27.49,0,0,1-7,4,21.81,21.81,0,0,1-8,1.47,15.72,15.72,0,0,1-5.95-1.05,18.39,18.39,0,0,1-4.41-2.45,16.93,16.93,0,0,1-3.64-3.63,65.86,65.86,0,0,0-2.58,8.18q-1.33,5.1-2.45,10.84t-1.82,11.34a78.69,78.69,0,0,0-.7,9.65c0,2.05-.89,3.08-2.66,3.08a19.52,19.52,0,0,1-4.2-.49,13.88,13.88,0,0,1-4.13-1.61,9.51,9.51,0,0,1-3.14-3.08,8.58,8.58,0,0,1-1.26-4.75,48.74,48.74,0,0,1,1-7.91q1-5.38,2.51-12.38t3.64-15q2.1-8.05,4.27-15.95t4.34-14.91q2.16-7,4-11.89a4,4,0,0,1,3.91-2.66,9.32,9.32,0,0,1,4,1.26q2.45,1.26,5.67,6.3a53.5,53.5,0,0,1,6-4.48,46.69,46.69,0,0,1,5.81-3.08,15.6,15.6,0,0,1,6.37-1.4,14.57,14.57,0,0,1,6.85,1.61,17.81,17.81,0,0,1,5.25,4.13,20.28,20.28,0,0,1,3.43,5.6,16.11,16.11,0,0,1,1.26,6.15,39.6,39.6,0,0,1-2.59,13.16,48.58,48.58,0,0,1-7.35,13.43,4.36,4.36,0,0,0,1.26.14,14.5,14.5,0,0,0,6.58-1.47,28.53,28.53,0,0,0,5.18-3.29,37.48,37.48,0,0,0,4.75-4.76,3,3,0,0,1,.7-1,6,6,0,0,1,.84-.63,2.34,2.34,0,0,1,1.26-.35,2.92,2.92,0,0,1,2,.84,2.62,2.62,0,0,1,.7,3c-.14.33-.3.68-.49,1.05S520.93,182.26,520.74,182.73Zm-54-1.26a13.71,13.71,0,0,0,2.1,7.42,6.36,6.36,0,0,0,5.6,3.36,7.09,7.09,0,0,0,4.61-2.1,3.39,3.39,0,0,1-.69-2,4.25,4.25,0,0,1,.76-2.31,11.78,11.78,0,0,1,1.82-2.17,13.23,13.23,0,0,1,2.24-1.68,4.27,4.27,0,0,1,2-.7,59.5,59.5,0,0,0,2.52-5.81q1.13-3,1.89-5.87c.51-1.91.91-3.69,1.19-5.32a25.12,25.12,0,0,0,.42-4.13c0-2.51-.4-4.29-1.19-5.31a4.21,4.21,0,0,0-3.57-1.54q-2.81,0-6.16,3a44,44,0,0,0-6.43,7.34,47.19,47.19,0,0,0-5.11,9.17A22.59,22.59,0,0,0,466.73,181.47Z"/><path class="cls-2" d="M551.66,185.67a4.92,4.92,0,0,0,1.26,3.64,4.54,4.54,0,0,0,3.36,1.26,9.9,9.9,0,0,0,5.53-1.82,24.39,24.39,0,0,0,4.83-4.2,31.21,31.21,0,0,0,4.61-6,3,3,0,0,1,.7-1,6,6,0,0,1,.84-.63,2.34,2.34,0,0,1,1.26-.35,2.92,2.92,0,0,1,2,.84,2.62,2.62,0,0,1,.7,3c-.14.33-.3.68-.49,1.05s-.37.79-.56,1.26a49.07,49.07,0,0,1-6.86,8.68,39.58,39.58,0,0,1-7.62,5.87,18.27,18.27,0,0,1-9.59,2.66,21.93,21.93,0,0,1-7.27-1.12,18.75,18.75,0,0,1-5.6-3,13,13,0,0,1-3.64-4.4,12,12,0,0,1-1.26-5.46,26.55,26.55,0,0,1,1.4-8.68,70.38,70.38,0,0,1,3-7.41c1.07-2.24,2.08-4.22,3-6a9.6,9.6,0,0,0,1.4-4.27,1.84,1.84,0,0,0-1.33-1.68,23.53,23.53,0,0,0-2.87-1,37.39,37.39,0,0,0-4.2-.7A144,144,0,0,1,526.62,173c-2.43,4.33-4.39,7.58-5.88,9.72a13,13,0,0,1-1,1.26,2.62,2.62,0,0,1-2,.84,3.12,3.12,0,0,1-2.94-2.94,3.29,3.29,0,0,1,.63-1.89,11.1,11.1,0,0,0,.91-1.47q2-2.79,5.53-8.88a78,78,0,0,0,6.65-16,8.58,8.58,0,0,1-2.38-2.52,14.46,14.46,0,0,1-1.54-3.22,13.61,13.61,0,0,1-.7-4.62,10.45,10.45,0,0,1,.77-4,11.05,11.05,0,0,1,2-3.29,11.65,11.65,0,0,1,2.66-2.24,5.18,5.18,0,0,1,2.65-.84,6.58,6.58,0,0,1,2.94.77,14.19,14.19,0,0,1,2.8,1.82,10.07,10.07,0,0,1,2.1,2.38,4.49,4.49,0,0,1,.84,2.3,10.25,10.25,0,0,1-.91,4.62,7.8,7.8,0,0,0-.91,3.5,2.35,2.35,0,0,0,1.68,2.24,10.91,10.91,0,0,0,4.2.7,23.6,23.6,0,0,0,4-.28c1.07-.19,2-.4,2.86-.63l2.38-.63a9.64,9.64,0,0,1,2.38-.28,5.09,5.09,0,0,1,4.13,2,7.27,7.27,0,0,1,1.61,4.76,13.38,13.38,0,0,1-1.61,5.66q-1.6,3.3-3.57,7.21a85.16,85.16,0,0,0-3.57,8.18A24,24,0,0,0,551.66,185.67Z"/><path class="cls-2" d="M625.68,182.73a35.79,35.79,0,0,1-7.69,8.68,44.75,44.75,0,0,1-9.73,5.87,32.89,32.89,0,0,1-13.78,2.66,29.88,29.88,0,0,1-9.8-1.54,23.48,23.48,0,0,1-7.69-4.27,19.37,19.37,0,0,1-5-6.5,18.82,18.82,0,0,1-1.82-8.26,35.29,35.29,0,0,1,2.94-14.55,39.28,39.28,0,0,1,7.42-11.26,33.36,33.36,0,0,1,9.72-7.21,22.9,22.9,0,0,1,9.87-2.52,14.49,14.49,0,0,1,6,1.26,17.07,17.07,0,0,1,4.9,3.29,15.07,15.07,0,0,1,3.29,4.69,13.26,13.26,0,0,1,1.19,5.45,21.16,21.16,0,0,1-1.12,6.09,20.92,20.92,0,0,1-3.71,6.79,21.88,21.88,0,0,1-7,5.52,23.46,23.46,0,0,1-11,2.31,13.25,13.25,0,0,1-3.22-.42,19.47,19.47,0,0,1-2.1-.42q0,6.3,3.64,9.66a12.36,12.36,0,0,0,8.68,3.36,19.78,19.78,0,0,0,9-2,33.82,33.82,0,0,0,6.86-4.41,28.79,28.79,0,0,0,5.73-6.44,3,3,0,0,1,.7-1,6,6,0,0,1,.84-.63,2.34,2.34,0,0,1,1.26-.35,2.92,2.92,0,0,1,2,.84,2.62,2.62,0,0,1,.7,3c-.14.33-.3.68-.49,1.05S625.87,182.26,625.68,182.73ZM588,172.66a13.25,13.25,0,0,0,7.14-2.1,23.29,23.29,0,0,0,5.8-5.11,26.29,26.29,0,0,0,3.85-6.23,14.24,14.24,0,0,0,1.4-5.45c0-1.87-.84-2.8-2.52-2.8a8.77,8.77,0,0,0-5.73,2.38,25.68,25.68,0,0,0-5,5.73,36.09,36.09,0,0,0-3.57,7.14A19.25,19.25,0,0,0,588,172.66Z"/><path class="cls-2" d="M682.91,182.73a35.13,35.13,0,0,1-9.1,9.1,50.45,50.45,0,0,1-12.24,6.29q-7.49,2.81-18.26,2.8a24.08,24.08,0,0,1-9.79-2,29.81,29.81,0,0,1-8-5.11,25.91,25.91,0,0,1-5.46-6.71,14,14,0,0,1-2-6.72,7,7,0,0,1,2.09-5.17,20.7,20.7,0,0,1,4.62-3.5,31.13,31.13,0,0,1,6.72-2.52c.56-.93,1.3-2.1,2.24-3.5q1.11-1.82,2.93-4.55c1.22-1.82,2.61-4,4.2-6.5q4.9-7.43,8.4-10.29t6.15-2.87a4.91,4.91,0,0,1,2.31.63,14.41,14.41,0,0,1,2.24,1.47,9.5,9.5,0,0,1,1.68,1.68,2.56,2.56,0,0,1,.63,1.4,4,4,0,0,1-.56,1.75l-1.19,2.24a20.65,20.65,0,0,0-1.12,2.52,7.75,7.75,0,0,0-.49,2.73,27.83,27.83,0,0,0,.84,7.27,60.92,60.92,0,0,0,1.89,5.81q1,2.73,1.89,5.32a18.71,18.71,0,0,1,.84,5.8,19.33,19.33,0,0,1-.49,4.69,16.72,16.72,0,0,1-1.19,3.29,14.44,14.44,0,0,1-1.54,2.66,28.46,28.46,0,0,0,7.35-3.15,40.84,40.84,0,0,0,5.52-4,37.09,37.09,0,0,0,4.48-5,2.82,2.82,0,0,1,.7-1,6,6,0,0,1,.84-.63,2.34,2.34,0,0,1,1.26-.35,2.92,2.92,0,0,1,2,.84,2.62,2.62,0,0,1,.91,2,2.59,2.59,0,0,1-.21,1c-.14.33-.31.68-.49,1.05S683.1,182.26,682.91,182.73Zm-39.46-21.55q-2.94,4.48-5.18,8.12c-1.3,2.15-2.49,4.15-3.56,6a11.17,11.17,0,0,0-1.61,3.49,47.71,47.71,0,0,0,.35,5.95,22.05,22.05,0,0,0,1.19,5.11,10.54,10.54,0,0,0,2.09,3.56,4.24,4.24,0,0,0,3.22,1.33q3.22,0,5.53-3.49a14.65,14.65,0,0,0,2.31-8.26,24.58,24.58,0,0,0-.7-5.6c-.47-1.95-1-3.89-1.47-5.8s-1-3.78-1.47-5.6A19.58,19.58,0,0,1,643.45,161.18Z"/><path class="cls-2" d="M740.14,182.73a35.29,35.29,0,0,1-9.1,9.1,50.45,50.45,0,0,1-12.24,6.29q-7.49,2.81-18.26,2.8a24.16,24.16,0,0,1-9.8-2,29.75,29.75,0,0,1-8-5.11,25.91,25.91,0,0,1-5.46-6.71,14,14,0,0,1-2-6.72,7,7,0,0,1,2.1-5.17,20.7,20.7,0,0,1,4.62-3.5,31.13,31.13,0,0,1,6.72-2.52c.56-.93,1.3-2.1,2.23-3.5q1.13-1.82,2.94-4.55c1.21-1.82,2.61-4,4.2-6.5q4.89-7.43,8.4-10.29t6.15-2.87a4.91,4.91,0,0,1,2.31.63,14.41,14.41,0,0,1,2.24,1.47,9.5,9.5,0,0,1,1.68,1.68,2.56,2.56,0,0,1,.63,1.4,4,4,0,0,1-.56,1.75c-.38.7-.77,1.45-1.19,2.24a20.65,20.65,0,0,0-1.12,2.52,7.75,7.75,0,0,0-.49,2.73,27.83,27.83,0,0,0,.84,7.27A60.92,60.92,0,0,0,718.8,169q1.05,2.73,1.89,5.32a18.71,18.71,0,0,1,.84,5.8,19.33,19.33,0,0,1-.49,4.69,17.39,17.39,0,0,1-1.19,3.29,14.44,14.44,0,0,1-1.54,2.66,28.39,28.39,0,0,0,7.34-3.15,40.37,40.37,0,0,0,5.53-4,37.09,37.09,0,0,0,4.48-5,2.82,2.82,0,0,1,.7-1,5,5,0,0,1,.84-.63,2.34,2.34,0,0,1,1.26-.35,2.94,2.94,0,0,1,2,.84,2.62,2.62,0,0,1,.91,2,2.59,2.59,0,0,1-.21,1c-.14.33-.31.68-.49,1.05S740.32,182.26,740.14,182.73Zm-39.46-21.55q-2.94,4.48-5.18,8.12c-1.31,2.15-2.5,4.15-3.57,6a11.44,11.44,0,0,0-1.61,3.49,49.7,49.7,0,0,0,.35,5.95,22.57,22.57,0,0,0,1.19,5.11,10.39,10.39,0,0,0,2.1,3.56,4.22,4.22,0,0,0,3.22,1.33q3.23,0,5.53-3.49A14.65,14.65,0,0,0,705,183a24.58,24.58,0,0,0-.7-5.6c-.47-1.95-1-3.89-1.47-5.8s-1-3.78-1.47-5.6A19.58,19.58,0,0,1,700.68,161.18Z"/><path class="cls-2" d="M740.84,188.19a10.73,10.73,0,0,1,2.72.35,13.36,13.36,0,0,0,3.29.35,16.73,16.73,0,0,0,12.32-5.25,49.78,49.78,0,0,0,9.09-13.29A113.66,113.66,0,0,0,775,152.79q2.79-9.51,5.17-18a46,46,0,0,1,4.9-12.46,39.59,39.59,0,0,1,5.18-6.85,12.65,12.65,0,0,1,5.88-3.36A46.33,46.33,0,0,0,786,108.78a67.9,67.9,0,0,0-15.32-1.61A17.23,17.23,0,0,0,760.35,110a9.09,9.09,0,0,0-4,7.77,12.28,12.28,0,0,0,1,5.38,15.19,15.19,0,0,0,2.38,3.64c.88,1,1.67,1.8,2.37,2.45a2.62,2.62,0,0,1,1.05,1.68c0,1.77-1,2.66-2.93,2.66a19.41,19.41,0,0,1-6.37-1.26,25.84,25.84,0,0,1-6.79-3.64,23.12,23.12,0,0,1-5.45-5.67,12.91,12.91,0,0,1-2.24-7.48,13.94,13.94,0,0,1,2.79-9,20.94,20.94,0,0,1,6.93-5.59,31.55,31.55,0,0,1,9-2.94,51.94,51.94,0,0,1,8.88-.84,101.55,101.55,0,0,1,12.59.7q5.6.7,11.34,1.61t12.31,1.61a150.9,150.9,0,0,0,15.53.7,43.14,43.14,0,0,0,8.68-.7,22.58,22.58,0,0,0,5-1.61,16.91,16.91,0,0,0,2.73-1.61,2.76,2.76,0,0,1,1.61-.7,2.85,2.85,0,0,1,2.1.84,2.68,2.68,0,0,1,.84,2,9.38,9.38,0,0,1-1.61,3.63,28.57,28.57,0,0,1-4.34,5.39,35.5,35.5,0,0,1-6.15,4.9,13.26,13.26,0,0,1-7.21,2.17,54.12,54.12,0,0,1-6.3-.35c-1.95-.23-3.68-.49-5.17-.77q-2.52-.56-4.76-1.26a5.37,5.37,0,0,0-1.4,1.26,15.74,15.74,0,0,0-2,3.43,59.12,59.12,0,0,0-2.45,6.71q-1.32,4.28-2.72,11-1.26,5.6-2.45,12.52t-2.94,14A124.39,124.39,0,0,1,786,176.43a52.81,52.81,0,0,1-6.23,12,29.39,29.39,0,0,1-8.95,8.39,23.61,23.61,0,0,1-12.38,3.15,32.93,32.93,0,0,1-7.91-.91,28.94,28.94,0,0,1-6.44-2.31,15.69,15.69,0,0,1-4.26-3,4.45,4.45,0,0,1-1.54-2.86,2.33,2.33,0,0,1,2.52-2.66Z"/><path class="cls-2" d="M871.94,182.73a49.49,49.49,0,0,1-6.85,8.68,40,40,0,0,1-7.63,5.87,18.23,18.23,0,0,1-9.58,2.66,16.21,16.21,0,0,1-9.94-3q-4.07-3-4.76-8.88a36.33,36.33,0,0,1-6,6,38.06,38.06,0,0,1-6.3,4.06,16.17,16.17,0,0,1-7.56,1.82,14.16,14.16,0,0,1-5.38-1.05,12.78,12.78,0,0,1-4.48-3,14.9,14.9,0,0,1-3-4.61,15.1,15.1,0,0,1-1.12-5.88,41.22,41.22,0,0,1,2.87-15,52.47,52.47,0,0,1,7.49-13.37A40.9,40.9,0,0,1,820,147.47a21.45,21.45,0,0,1,18.61-2.59,20.71,20.71,0,0,1,4.76,2.31,16,16,0,0,1,3.36,3.22,17,17,0,0,1,3.28.35,11.91,11.91,0,0,1,3.22,1.12,7.35,7.35,0,0,1,2.45,2,4.87,4.87,0,0,1,1,3.08,17.33,17.33,0,0,1-1.26,5l-2.8,7.77c-1,2.84-2,5.78-2.8,8.81a30.69,30.69,0,0,0-1.26,8.05,4,4,0,0,0,1,2.8,3.74,3.74,0,0,0,2.87,1.12,9.9,9.9,0,0,0,5.53-1.82,24.39,24.39,0,0,0,4.83-4.2,30.43,30.43,0,0,0,4.61-6,3,3,0,0,1,.7-1,6,6,0,0,1,.84-.63,2.39,2.39,0,0,1,1.26-.35,2.92,2.92,0,0,1,2,.84,2.62,2.62,0,0,1,.7,3c-.14.33-.3.68-.49,1.05S872.13,182.26,871.94,182.73ZM839.48,158a6.18,6.18,0,0,0-1.47-4.54,4.86,4.86,0,0,0-3.57-1.47q-3.08,0-6.29,3.22a34.7,34.7,0,0,0-5.81,7.9,53.31,53.31,0,0,0-4.27,10.15,33.63,33.63,0,0,0-1.68,9.79q0,6.3,4.06,6.3c1.68,0,3.61-1.12,5.81-3.36a44.41,44.41,0,0,0,6.22-8.26,62.86,62.86,0,0,0,5-10.28A27.44,27.44,0,0,0,839.48,158Z"/><path class="cls-2" d="M929.17,182.73a35.13,35.13,0,0,1-9.1,9.1,50.45,50.45,0,0,1-12.24,6.29q-7.49,2.81-18.26,2.8a24.08,24.08,0,0,1-9.79-2,29.81,29.81,0,0,1-8-5.11,25.91,25.91,0,0,1-5.46-6.71,14,14,0,0,1-2-6.72,7,7,0,0,1,2.1-5.17,20.7,20.7,0,0,1,4.62-3.5,31.13,31.13,0,0,1,6.72-2.52c.56-.93,1.3-2.1,2.24-3.5q1.11-1.82,2.93-4.55c1.22-1.82,2.61-4,4.2-6.5q4.91-7.43,8.4-10.29t6.15-2.87a4.91,4.91,0,0,1,2.31.63,14.41,14.41,0,0,1,2.24,1.47,9.5,9.5,0,0,1,1.68,1.68,2.56,2.56,0,0,1,.63,1.4,4,4,0,0,1-.56,1.75l-1.19,2.24a20.65,20.65,0,0,0-1.12,2.52,7.75,7.75,0,0,0-.49,2.73,27.83,27.83,0,0,0,.84,7.27,60.92,60.92,0,0,0,1.89,5.81q1,2.73,1.89,5.32a18.71,18.71,0,0,1,.84,5.8,19.33,19.33,0,0,1-.49,4.69,16.72,16.72,0,0,1-1.19,3.29,14.44,14.44,0,0,1-1.54,2.66,28.46,28.46,0,0,0,7.35-3.15,40.84,40.84,0,0,0,5.52-4,37.09,37.09,0,0,0,4.48-5,2.82,2.82,0,0,1,.7-1,6,6,0,0,1,.84-.63,2.34,2.34,0,0,1,1.26-.35,2.92,2.92,0,0,1,2,.84,2.62,2.62,0,0,1,.91,2,2.59,2.59,0,0,1-.21,1c-.14.33-.31.68-.49,1.05S929.35,182.26,929.17,182.73Zm-39.46-21.55q-2.94,4.48-5.18,8.12c-1.3,2.15-2.49,4.15-3.56,6a11.17,11.17,0,0,0-1.61,3.49,47.71,47.71,0,0,0,.35,5.95,22.05,22.05,0,0,0,1.19,5.11,10.54,10.54,0,0,0,2.09,3.56,4.24,4.24,0,0,0,3.22,1.33q3.22,0,5.53-3.49a14.65,14.65,0,0,0,2.31-8.26,24.58,24.58,0,0,0-.7-5.6c-.47-1.95-1-3.89-1.47-5.8s-1-3.78-1.47-5.6A19.58,19.58,0,0,1,889.71,161.18Z"/><path class="cls-2" d="M947.78,190.57a9.87,9.87,0,0,0,5.52-1.82,24.39,24.39,0,0,0,4.83-4.2,30.84,30.84,0,0,0,4.62-6,2.82,2.82,0,0,1,.7-1,5.48,5.48,0,0,1,.84-.63,2.34,2.34,0,0,1,1.26-.35,2.94,2.94,0,0,1,2,.84,2.62,2.62,0,0,1,.91,2,2.59,2.59,0,0,1-.21,1c-.14.33-.31.68-.49,1.05s-.38.79-.56,1.26a49.53,49.53,0,0,1-6.86,8.68,40,40,0,0,1-7.63,5.87,18.21,18.21,0,0,1-9.58,2.66,22.07,22.07,0,0,1-13.22-4.62,19.92,19.92,0,0,1-4.76-5.31,12.59,12.59,0,0,1-1.89-6.72,46.67,46.67,0,0,1,.7-7.21q.71-4.26,2-9.3t2.87-10.63q1.6-5.6,3.43-11.06h-3.78c-.75,0-1.12-.42-1.12-1.26a5.88,5.88,0,0,1,1.33-3,3.64,3.64,0,0,1,2.87-1.88h2.8q2.08-5.74,4.12-10.57a69.05,69.05,0,0,1,4-8.18A5.44,5.44,0,0,1,944,118.3a3.54,3.54,0,0,1,2.24-.77,7.64,7.64,0,0,1,3.43,1,21.77,21.77,0,0,1,3.57,2.31,17.23,17.23,0,0,1,2.79,2.72,4.15,4.15,0,0,1,1.12,2.38,16.89,16.89,0,0,1-1.33,4.41c-.88,2.29-2,5.16-3.28,8.61h9.37c.75,0,1.12.42,1.12,1.25a3.28,3.28,0,0,1-.42,1.4,8.54,8.54,0,0,1-1.05,1.61,8.36,8.36,0,0,1-1.33,1.33,2.2,2.2,0,0,1-1.4.56h-8.67q-1.68,4.62-3.43,9.8t-3.15,10.21q-1.4,5-2.31,9.73a44.45,44.45,0,0,0-.91,8.46,6.84,6.84,0,0,0,2.17,5.25A7.42,7.42,0,0,0,947.78,190.57Z"/><path class="cls-2" d="M991.29,190.85A17.44,17.44,0,0,0,997,190a19.54,19.54,0,0,0,4.2-2,21.18,21.18,0,0,0,3-2.31c.83-.79,1.49-1.42,2-1.89l1-1c.28-.19.61-.39,1-.63a2.13,2.13,0,0,1,1.12-.35,2.85,2.85,0,0,1,2.1.84,2.68,2.68,0,0,1,.84,2,1.81,1.81,0,0,1-.35,1.05,9.12,9.12,0,0,0-.63,1,13.77,13.77,0,0,0-.84,1.26,33.29,33.29,0,0,1-6.57,6,39.73,39.73,0,0,1-7.63,4.06A26.47,26.47,0,0,1,986,199.94a29.88,29.88,0,0,1-9.8-1.54,23.53,23.53,0,0,1-7.7-4.27,19.46,19.46,0,0,1-5-6.5,18.82,18.82,0,0,1-1.82-8.26,35.29,35.29,0,0,1,2.94-14.55A39.47,39.47,0,0,1,972,153.56a33.54,33.54,0,0,1,9.73-7.21,22.86,22.86,0,0,1,9.86-2.52,14.5,14.5,0,0,1,6,1.26,17.2,17.2,0,0,1,4.9,3.29,14.88,14.88,0,0,1,3.28,4.69,13.1,13.1,0,0,1,1.19,5.45,22.06,22.06,0,0,1-4.82,12.88,21.88,21.88,0,0,1-7,5.52,23.49,23.49,0,0,1-11,2.31,13.25,13.25,0,0,1-3.22-.42,18.55,18.55,0,0,1-2.1-.42q0,6.3,3.71,9.38A13.26,13.26,0,0,0,991.29,190.85Zm-11.75-18.19a13.19,13.19,0,0,0,7.13-2.1,23.34,23.34,0,0,0,5.81-5.11,26.62,26.62,0,0,0,3.85-6.23,14.24,14.24,0,0,0,1.4-5.45c0-1.87-.84-2.8-2.52-2.8a8.81,8.81,0,0,0-5.74,2.38,25.9,25.9,0,0,0-5,5.73,36.09,36.09,0,0,0-3.57,7.14A19,19,0,0,0,979.54,172.66Z"/><ellipse class="cls-4" cx="178.57" cy="169.8" rx="120.77" ry="120.82"/><path class="cls-2" d="M178.57,52.57A117.23,117.23,0,1,1,61.39,169.8,117.21,117.21,0,0,1,178.57,52.57m0-7.17A124.42,124.42,0,0,0,90.64,257.77,124.38,124.38,0,0,0,266.51,81.84,123.52,123.52,0,0,0,178.57,45.4Z"/><path class="cls-1" d="M77.46,189.09c.63,39.35,44.19,32.69,44.19,32.69l9,25.3c44.5-30.56,68-29.05,68-29.05-36.49,1.4-65.08,19-65.08,19L124,213.92s-37.33,6.33-40.5-24.06,43.35-30.39,43.35-30.39C98.14,158.34,77.13,168.17,77.46,189.09Z"/><path class="cls-1" d="M276,118.9c7.7,13.8,9.38,35.83-15.32,68.74l13,41.15S214.89,215.53,144.84,251c0,0,37.78-34.63,118.33-32.29L255.58,193s-47.81-15.8-110.45,16.64c0,0,30.08-25.82,81.34-30.57,0,0,7.28-20.89-5.06-35.14,0,0,12.62,14.74,12.67,33.08a.88.88,0,0,0,1.28.8c4.26-2.35,17.3-11.9,13.57-39.57,0,0,5.87,16.06.52,40.26a.33.33,0,0,0,.5.38c3.94-2.93,22.45-19.76,14.17-43.49-9.27-26.57-34.73-21.27-40.18-20.89-27.88,1.93-80,70-113,67.28,0,0,10-4.7,70-55.89C246.88,69.61,271.34,110.62,276,118.9Z"/><path class="cls-2" d="M126.15,243.94a.9.9,0,0,1-.28,0,.89.89,0,0,1-.56-.56l-8.75-24.62a55,55,0,0,1-6.35.35c-11.3,0-37.64-3.32-38.13-34a24.87,24.87,0,0,1,7.19-18.55c7.65-7.78,21.39-12.06,38.69-12.06,1.44,0,2.92,0,4.4.09a.9.9,0,0,1,0,1.79c-.26,0-26.09.16-37.37,12.67-4.06,4.51-5.77,10.13-5.08,16.73,2.16,20.71,20.81,23.8,31.74,23.8a53.1,53.1,0,0,0,7.72-.53l.15,0a.92.92,0,0,1,.83.56l9.19,22.19c4.94-2.83,29.49-16.09,60.11-18.38a34.44,34.44,0,0,1,4-.26h.62a.9.9,0,0,1,0,1.79c-1.45.06-2.93.14-4.4.25-7.79.92-29.5,5.55-63.12,28.64A.86.86,0,0,1,126.15,243.94Z"/><path class="cls-4" d="M118,155.35c1.43,0,2.89,0,4.36.09,0,0-46.5,0-43.34,30.38,2.23,21.45,21.49,24.61,32.63,24.61a51.81,51.81,0,0,0,7.87-.55L129.06,233s26.3-16.22,60.64-18.78c-8.75,1-30.28,5.95-63.55,28.79l-9-25.3a50.48,50.48,0,0,1-7,.43c-12.33,0-36.76-3.72-37.23-33.12-.32-19.84,18.56-29.7,45-29.7M193.58,214h.56c-1.49.06-3,.15-4.44.26a32.9,32.9,0,0,1,3.88-.27M118,153.56c-17.8,0-31.4,4.26-39.33,12.32a25.74,25.74,0,0,0-7.44,19.2c.5,31.48,27.45,34.88,39,34.88,2.48,0,4.48-.14,5.75-.27l8.5,23.95a1.8,1.8,0,0,0,1.14,1.11,1.71,1.71,0,0,0,.55.09,1.81,1.81,0,0,0,1-.32c33.43-23,55-27.57,62.7-28.49,1.45-.11,2.91-.19,4.34-.24a1.8,1.8,0,0,0,0-3.59h-.68a36.24,36.24,0,0,0-4.05.27c-29.25,2.19-53,14.33-59.59,18l-8.81-21.26a1.78,1.78,0,0,0-1.65-1.1,1.51,1.51,0,0,0-.3,0,50.43,50.43,0,0,1-7.57.52c-10.63,0-28.76-3-30.85-23-.66-6.33,1-11.73,4.86-16,11-12.22,36.45-12.38,36.7-12.38a1.79,1.79,0,0,0,.07-3.58c-1.49-.06-3-.09-4.43-.09Z"/><path class="cls-2" d="M140.36,247.81a.9.9,0,0,1-.61-1.56c.36-.32,36.48-32.63,111.17-32.63,2.16,0,4.36,0,6.56.08l-7.11-24C248.08,189,237,186,220.15,186c-18.12,0-46.55,3.54-79.1,20.39a.86.86,0,0,1-.41.1.89.89,0,0,1-.74-.39.88.88,0,0,1,.16-1.18c.3-.26,30.66-25.87,81.25-30.73.93-3.09,5-18.72-2.9-30.85-1.28-1.82-2.16-2.86-2.17-2.87a.89.89,0,0,1,.1-1.26.88.88,0,0,1,.58-.22.91.91,0,0,1,.68.31,29,29,0,0,1,2.29,3c4,5.66,10.57,17.14,10.61,30.63,3.95-2.19,16.71-11.5,13.06-38.65a.9.9,0,0,1,.68-1,.76.76,0,0,1,.21,0,.89.89,0,0,1,.84.59c.24.65,5.66,15.91.88,39.21,4.63-4,20.2-19.72,12.62-41.45-4.85-13.91-14.93-21-29.94-21a65.71,65.71,0,0,0-7.55.5l-1.78.18c-12.43.86-30,15.36-48.63,30.71-21.84,18-44.43,36.65-62.46,36.65-.69,0-1.36,0-2-.08a.9.9,0,0,1-.81-.74.89.89,0,0,1,.5-1c.41-.2,10.91-5.52,69.75-55.76C198.7,101.69,219,91.8,236.17,91.8c15.35,0,27.83,7.82,36.09,22.62,7.16,12.83,10.33,35.27-15.11,69.36L270,224.49a.87.87,0,0,1-.19.87.88.88,0,0,1-.66.29.68.68,0,0,1-.2,0c-.11,0-10.89-2.41-28.38-2.41-23.43,0-59.75,4.25-99.79,24.49A.82.82,0,0,1,140.36,247.81Z"/><path class="cls-4" d="M236.17,92.69c22.36,0,32.5,17.14,35.31,22.17,7.7,13.8,9.37,35.83-15.32,68.75l13,41.15s-10.77-2.44-28.58-2.44c-23.79,0-60.14,4.34-100.19,24.59,0,0,35.35-32.4,110.56-32.4,2.55,0,5.13,0,7.77.12L251.09,189s-11.63-3.84-30.94-3.85c-19.84,0-47.76,4.06-79.51,20.5,0,0,30.09-25.83,81.35-30.58,0,0,6.33-18.18-2.84-32.18,3.63,5.19,10.41,16.69,10.45,30.12a.89.89,0,0,0,.87.91.93.93,0,0,0,.41-.11c4.25-2.35,17.29-11.9,13.57-39.57,0,0,5.87,16.07.52,40.26a.35.35,0,0,0,.32.45.32.32,0,0,0,.18-.06c3.93-2.93,22.45-19.77,14.17-43.5-6.48-18.55-20.85-21.56-30.79-21.56-4.29,0-7.75.56-9.39.67-27.33,1.89-77.93,67.36-111,67.36-.66,0-1.31,0-2-.08,0,0,10-4.69,70-55.88,25.85-22.07,45.33-29.2,59.74-29.2m-19.25,47.24a26.56,26.56,0,0,1,2.23,2.95c-1.32-1.9-2.23-2.95-2.23-2.95m19.26-49h0c-17.39,0-37.89,10-60.91,29.62-59.1,50.45-69.45,55.58-69.55,55.63a1.79,1.79,0,0,0,.61,3.41c.69.06,1.4.09,2.11.09,18.35,0,41.06-18.74,63-36.85,18.5-15.27,36-29.68,48.12-30.52.49,0,1.1-.1,1.81-.18a64.92,64.92,0,0,1,7.46-.49c14.59,0,24.38,6.85,29.09,20.36,6.54,18.74-4.58,32.87-10.37,38.63,3.89-22-1.2-36.35-1.44-37a1.77,1.77,0,0,0-1.68-1.18,1.58,1.58,0,0,0-.43.05,1.79,1.79,0,0,0-1.35,2c3.23,24-6.53,33.7-11.31,36.93-.52-13-6.87-24-10.72-29.53a30.77,30.77,0,0,0-2.36-3.12,1.78,1.78,0,0,0-1.36-.62,1.81,1.81,0,0,0-1.17.44,1.79,1.79,0,0,0-.19,2.52s.88,1,2.11,2.79c7.31,11.19,4.07,25.51,3,29.51a169.63,169.63,0,0,0-59.34,17.14c-14,7.07-21.49,13.48-21.81,13.75a1.79,1.79,0,0,0,2,2.95c32.38-16.77,60.65-20.29,78.67-20.29,15.81,0,26.48,2.64,29.51,3.49l6.62,22.34c-1.8,0-3.59-.05-5.35-.05-39.17,0-67.41,8.89-84.21,16.35-18.3,8.13-27.19,16.18-27.56,16.52a1.79,1.79,0,0,0-.27,2.34,1.78,1.78,0,0,0,2.29.58c39.87-20.16,76.05-24.39,99.37-24.39,17.37,0,28.09,2.36,28.19,2.39a1.8,1.8,0,0,0,2.11-2.29l-12.7-40.28c11.11-15,17.7-29,19.6-41.61,1.57-10.42,0-20-4.69-28.34-8.43-15.11-21.18-23.09-36.87-23.09Z"/><path class="cls-2" d="M73,185.05c.62,39.35,44.19,32.69,44.19,32.69l9,25.3c44.5-30.55,68-29,68-29-36.48,1.4-65.08,19-65.08,19l-9.58-23.15S82.14,216.21,79,185.82s43.34-30.38,43.34-30.38C93.65,154.31,72.65,164.13,73,185.05Z"/><path class="cls-2" d="M271.48,114.86c7.7,13.8,9.37,35.83-15.32,68.75l13,41.15s-58.72-13.27-128.77,22.15c0,0,37.77-34.63,118.33-32.28L251.09,189s-47.8-15.8-110.45,16.65c0,0,30.09-25.83,81.35-30.58,0,0,7.27-20.89-5.07-35.13,0,0,12.63,14.74,12.68,33.07a.88.88,0,0,0,1.28.8c4.25-2.35,17.29-11.9,13.57-39.57,0,0,5.87,16.07.52,40.26a.34.34,0,0,0,.5.39c3.93-2.93,22.45-19.77,14.17-43.5-9.27-26.56-34.74-21.27-40.18-20.89-27.88,1.93-80,70-113,67.28,0,0,10-4.69,70-55.88C242.39,65.57,266.86,106.58,271.48,114.86Z"/></svg>