<svg id="Capa_1" data-name="Capa 1" xmlns="http://www.w3.org/2000/svg" viewBox="0 0 1080 1920"><defs><style>.cls-1,.cls-5{fill:#1e406a;}.cls-2,.cls-6,.cls-7{fill:#fff;}.cls-3,.cls-4{fill:#e8308a;}.cls-4,.cls-5,.cls-6,.cls-7{font-size:188.44px;font-family:Milkshake;}.cls-6{stroke:#1e406a;stroke-miterlimit:10;stroke-width:4px;}</style></defs><rect class="cls-1" y="-12.79" width="1080" height="1948.24"/><path class="cls-2" d="M515.41,1100.06a269.4,269.4,0,1,1,190.49-78.9A267.62,267.62,0,0,1,515.41,1100.06Z"/><path class="cls-1" d="M515.41,569.28c144.37,0,261.4,117,261.4,261.39s-117,261.39-261.4,261.39S254,975,254,830.67s117-261.39,261.39-261.39m0-16a276.51,276.51,0,1,0,108,21.8,275.79,275.79,0,0,0-108-21.8Z"/><path class="cls-3" d="M289.87,873.67c1.39,87.74,98.57,72.89,98.57,72.89l20,56.41c99.26-68.12,151.67-64.77,151.67-64.77C478.76,941.32,415,980.64,415,980.64L393.59,929s-83.28,14.11-90.34-53.64,96.69-67.75,96.69-67.75C336,805.12,289.13,827,289.87,873.67Z"/><path class="cls-3" d="M732.65,717.17c17.18,30.77,20.92,79.89-34.18,153.28l28.94,91.75s-131-29.57-287.24,49.4c0,0,84.26-77.21,264-72l-16.94-57.17S580.54,847.23,440.8,919.57c0,0,67.12-57.59,181.45-68.17,0,0,16.23-46.58-11.29-78.34,0,0,28.16,32.86,28.28,73.74a1.94,1.94,0,0,0,2.85,1.78c9.49-5.23,38.57-26.53,30.27-88.22,0,0,13.09,35.82,1.15,89.77a.75.75,0,0,0,1.13.85c8.77-6.53,50.06-44.06,31.6-97-20.67-59.23-77.48-47.42-89.63-46.58-62.18,4.31-178.36,156.09-252,150,0,0,22.28-10.47,156-124.61C667.77,607.27,722.35,698.71,732.65,717.17Z"/><path class="cls-1" d="M398.47,996a1.86,1.86,0,0,1-.61-.1,2,2,0,0,1-1.27-1.23l-19.5-54.89a124.42,124.42,0,0,1-14.18.76c-14.29,0-35-2.19-52.47-12.62-21.15-12.63-32.11-33.89-32.57-63.19-.26-16.39,5.13-30.31,16-41.37C311,806,341.6,796.45,380.19,796.45c3.22,0,6.52.06,9.83.19a2,2,0,0,1-.08,4c-.58,0-58.23.34-83.37,28.25-9.05,10.05-12.86,22.59-11.33,37.3,4.81,46.17,46.42,53.06,70.79,53.06a115.91,115.91,0,0,0,17.23-1.19l.33,0a2,2,0,0,1,1.85,1.23l20.5,49.49c11-6.31,65.79-35.87,134.1-41a77.37,77.37,0,0,1,8.84-.59c.93,0,1.39,0,1.39,0a2,2,0,0,1,0,4c-3.24.13-6.53.31-9.8.56-17.38,2-65.8,12.38-140.81,63.86A2,2,0,0,1,398.47,996Z"/><path class="cls-2" d="M380.19,798.45c3.2,0,6.46.06,9.75.19,0,0-103.74,0-96.69,67.75,5,47.83,47.95,54.86,72.79,54.86A116.25,116.25,0,0,0,383.59,920L405,971.64s58.67-36.16,135.26-41.88C520.72,932.06,472.7,943,398.48,994l-20-56.41a113.63,113.63,0,0,1-15.53,1c-27.5,0-82-8.29-83-73.84-.71-44.24,41.41-66.22,100.32-66.22M548.88,929.18c.84,0,1.27,0,1.27,0q-5,.19-9.92.56a77.08,77.08,0,0,1,8.65-.58M380.19,794.45c-19.15,0-36.33,2.26-51.05,6.73-15.39,4.67-27.73,11.65-36.68,20.74-11.28,11.47-16.86,25.87-16.59,42.81.48,30,11.76,51.87,33.55,64.87,17.86,10.67,38.95,12.91,53.49,12.91,5.54,0,10-.32,12.83-.6l19,53.4a4,4,0,0,0,3.76,2.66,4,4,0,0,0,2.27-.7c74.58-51.19,122.61-61.48,139.87-63.52,3.23-.24,6.49-.43,9.69-.55a4,4,0,0,0,.1-8c-.09,0-.59,0-1.52,0a78.55,78.55,0,0,0-9,.6c-40,3-75.1,14.35-97.46,23.35a310.74,310.74,0,0,0-35.47,16.76L387.28,918.5a4,4,0,0,0-3.69-2.47,3.88,3.88,0,0,0-.67.06A114.36,114.36,0,0,1,366,917.25c-23.71,0-64.16-6.66-68.81-51.27-1.47-14.12,2.17-26.14,10.82-35.74,24.53-27.25,81.32-27.6,81.89-27.6a4,4,0,0,0,.16-8c-3.34-.13-6.67-.19-9.91-.19Z"/><path class="cls-1" d="M430.17,1004.6a2,2,0,0,1-1.35-3.47c.81-.75,20.42-18.49,60.94-36.48,37.29-16.55,100-36.29,187-36.29,4.83,0,9.74.06,14.64.18l-15.85-53.49c-5.12-1.51-29.82-8.17-67.42-8.17-40.42,0-103.84,7.89-176.43,45.47a2,2,0,0,1-2.22-3.3c.17-.14,17.32-14.73,48.25-30.38a376.86,376.86,0,0,1,133-38.14c2.07-6.88,11.22-41.72-6.48-68.77-2.84-4.07-4.81-6.38-4.83-6.4a2,2,0,0,1,1.52-3.3,2,2,0,0,1,1.51.69,64.51,64.51,0,0,1,5.12,6.76c8.8,12.6,23.56,38.2,23.65,68.25,9.06-5,37.25-25.86,29.14-86.14a2,2,0,0,1,1.5-2.21,2,2,0,0,1,.48-.06,2,2,0,0,1,1.88,1.32c.53,1.45,12.62,35.51,2,87.5a104.16,104.16,0,0,0,22.7-28.23c11.26-20.77,13.09-42.4,5.46-64.28-10.83-31-33.3-46.74-66.79-46.74a149.41,149.41,0,0,0-16.85,1.1c-1.57.18-2.92.33-4,.4-27.71,1.92-66.94,34.25-108.47,68.49-48.72,40.17-99.11,81.71-139.31,81.71-1.54,0-3.07-.07-4.55-.19a2,2,0,0,1-.68-3.8c.92-.45,24.33-12.31,155.6-124.32,51-43.51,96.26-65.57,134.56-65.57,34.24,0,62.08,17.45,80.51,50.45,10.22,18.32,13.67,39.15,10.24,61.93-4.23,28.12-19,59.3-43.95,92.71l28.63,90.77a2,2,0,0,1-.44,1.95,2,2,0,0,1-1.47.65,2.12,2.12,0,0,1-.44-.05c-.24,0-24.31-5.37-63.32-5.37-52.25,0-133.28,9.47-222.58,54.61A2.08,2.08,0,0,1,430.17,1004.6Z"/><path class="cls-2" d="M643.89,658.74c49.87,0,72.49,38.2,78.76,49.43,17.18,30.77,20.92,79.89-34.18,153.28l28.94,91.75s-24-5.42-63.76-5.42c-53.06,0-134.13,9.66-223.48,54.82,0,0,78.86-72.24,246.61-72.24,5.69,0,11.45.08,17.34.26l-16.94-57.17s-26-8.57-69-8.57c-44.25,0-106.54,9-177.35,45.69,0,0,67.12-57.59,181.45-68.17,0,0,14.13-40.54-6.32-71.76,8.09,11.57,23.23,37.21,23.31,67.16a2,2,0,0,0,1.93,2,1.83,1.83,0,0,0,.92-.24c9.49-5.23,38.57-26.53,30.27-88.22,0,0,13.09,35.82,1.15,89.77a.79.79,0,0,0,.71,1,.7.7,0,0,0,.42-.14c8.77-6.53,50.06-44.06,31.6-97-14.44-41.37-46.51-48.08-68.68-48.08-9.57,0-17.29,1.25-20.95,1.5-61,4.22-173.82,150.2-247.65,150.2q-2.22,0-4.38-.18s22.28-10.47,156-124.61c57.67-49.21,101.14-65.09,133.27-65.09M601,764.06a60.42,60.42,0,0,1,5,6.58c-2.95-4.23-5-6.58-5-6.58m42.95-109.32h0c-38.8,0-84.51,22.23-135.86,66-131.83,112.49-154.94,123.93-155.15,124a4,4,0,0,0,1.37,7.61c1.53.12,3.12.19,4.71.19,40.92,0,91.59-41.77,140.59-82.17,41.27-34,80.26-66.16,107.33-68,1.09-.07,2.46-.22,4-.4a146.34,146.34,0,0,1,16.63-1.09c32.55,0,54.39,15.28,64.9,45.4,7.44,21.33,5.65,42.41-5.33,62.66a102.75,102.75,0,0,1-17.84,23.61c8.72-49.17-2.65-81.19-3.17-82.61a4,4,0,0,0-3.76-2.63,4,4,0,0,0-1,.12,4,4,0,0,0-3,4.42c7.2,53.53-14.58,75.14-25.24,82.34-1.16-29-15.32-53.53-23.92-65.83a64.79,64.79,0,0,0-5.26-7,4,4,0,0,0-6.06,5.22c.07.08,2,2.32,4.7,6.22,16.34,25,9.1,56.88,6.59,65.79a378.6,378.6,0,0,0-132.36,38.21c-31.15,15.76-48,30-48.65,30.65a4,4,0,0,0,2.6,7,3.91,3.91,0,0,0,1.84-.45c72.24-37.39,135.31-45.24,175.49-45.24,35.26,0,59.07,5.89,65.83,7.79l14.76,49.81c-4-.08-8-.12-11.94-.12-38.55,0-75.61,3.83-110.16,11.38a404.89,404.89,0,0,0-77.68,25.09c-40.81,18.11-60.65,36.07-61.47,36.82a4,4,0,0,0,4.5,6.52c88.95-45,169.64-54.39,221.67-54.39,38.75,0,62.65,5.27,62.89,5.32a3.77,3.77,0,0,0,.88.1,4,4,0,0,0,3.81-5.2L692.9,862.2c24.77-33.36,39.48-64.57,43.72-92.78,3.5-23.23,0-44.49-10.47-63.2a110.45,110.45,0,0,0-23.91-30c-16.48-14.25-36.11-21.48-58.33-21.48Z"/><text class="cls-4" transform="translate(72.87 1331.55)">ExpressTaste</text><text class="cls-5" transform="translate(64.16 1322.84)">ExpressTaste</text><text class="cls-6" transform="translate(64.16 1322.84)">ExpressTaste</text><path class="cls-1" d="M279.87,864.67c1.39,87.74,98.57,72.89,98.57,72.89l20,56.41c99.26-68.12,151.67-64.77,151.67-64.77C468.76,932.32,405,971.64,405,971.64L383.59,920s-83.28,14.11-90.34-53.64,96.69-67.75,96.69-67.75C326,796.12,279.13,818,279.87,864.67Z"/><path class="cls-1" d="M722.65,708.17c17.18,30.77,20.92,79.89-34.18,153.28l28.94,91.75s-131-29.57-287.24,49.4c0,0,84.26-77.21,264-72l-16.94-57.17S570.54,838.23,430.8,910.57c0,0,67.12-57.59,181.45-68.17,0,0,16.23-46.58-11.29-78.34,0,0,28.16,32.86,28.28,73.74a1.94,1.94,0,0,0,2.85,1.78c9.49-5.23,38.57-26.53,30.27-88.22,0,0,13.09,35.82,1.15,89.77a.75.75,0,0,0,1.13.85c8.77-6.53,50.06-44.06,31.6-97-20.67-59.23-77.48-47.42-89.63-46.58-62.18,4.31-178.36,156.09-252,150,0,0,22.28-10.47,156-124.61C657.77,598.27,712.35,689.71,722.65,708.17Z"/><text class="cls-7" transform="translate(64.16 1322.84)">ExpressTaste</text></svg>