<svg id="Capa_1" data-name="Capa 1" xmlns="http://www.w3.org/2000/svg" viewBox="0 0 1080 324.62"><defs><style>.cls-1{fill:#1e406a;}.cls-2{fill:#e8308a;}.cls-3,.cls-4{fill:#fff;}.cls-3{stroke:#1e406a;stroke-miterlimit:10;stroke-width:4px;}</style></defs><rect class="cls-1" y="-12.71" width="1080" height="337.33"/><path class="cls-2" d="M121.49,211.25a68,68,0,0,1-15.83-1.89,44.59,44.59,0,0,1-14.23-6,34.17,34.17,0,0,1-10.36-10.64,28.75,28.75,0,0,1-4-15.55,35.67,35.67,0,0,1,2.82-14.51,48.31,48.31,0,0,1,7.07-11.49,49.42,49.42,0,0,1,9.23-8.67,102.77,102.77,0,0,1,9.33-6,62.8,62.8,0,0,1,7.44-3.68c2.08-.81,3.3-1.28,3.68-1.41a12.93,12.93,0,0,1-2.07-1,20.28,20.28,0,0,1-4.15-3.2,27.31,27.31,0,0,1-4.33-5.56,22,22,0,0,1-2.83-8.29q-14.33-1.32-21.39-5.65T74.76,96.49a17.62,17.62,0,0,1,2.73-9.24,38.67,38.67,0,0,1,6.5-8.1,42,42,0,0,1,7.63-5.84q3.85-2.27,5.94-2.26a1.47,1.47,0,0,1,1.31.56,2,2,0,0,1,.38,1.13c0,.64-.56,1.73-1.69,3.3a9.59,9.59,0,0,0-1.7,5.75,14.58,14.58,0,0,0,2.64,8.39,25,25,0,0,0,7.35,6.87,39.46,39.46,0,0,1,8.57-10.93,63.24,63.24,0,0,1,12.44-8.85,65.6,65.6,0,0,1,14.6-5.84,58.18,58.18,0,0,1,15.08-2.08,35.38,35.38,0,0,1,9.51,1.23A27.45,27.45,0,0,1,173.78,74,16.6,16.6,0,0,1,179,79.25a13,13,0,0,1,1.89,6.87,14.6,14.6,0,0,1-3.77,9.43,34.94,34.94,0,0,1-10.84,8.19A79.36,79.36,0,0,1,149.19,110a120.15,120.15,0,0,1-22.43,3.3,30.35,30.35,0,0,0,.85,5.75,22.76,22.76,0,0,0,1.6,4.43,37.86,37.86,0,0,0,2.08,4c1-.12,2.19-.31,3.58-.56,1.13-.13,2.48-.25,4-.38s3.36-.19,5.37-.19q11.11,0,11.12,6.6c0,1.88-1.1,3.8-3.3,5.74a12.72,12.72,0,0,1-8.76,2.92,37.21,37.21,0,0,1-6.22-.47,27.57,27.57,0,0,1-4.9-1.22,20.43,20.43,0,0,1-4.15-1.89,59.47,59.47,0,0,0-12.43,9.8,54.88,54.88,0,0,0-8.58,12.06,34.89,34.89,0,0,0-3.86,16.77q0,11.88,6.41,17.62t18.27,5.75a35.63,35.63,0,0,0,19.22-5.65,50.39,50.39,0,0,0,15.46-15.45,3.62,3.62,0,0,1,.94-1.32,6.43,6.43,0,0,1,1.13-.85,3.17,3.17,0,0,1,1.7-.47,3.79,3.79,0,0,1,2.82,1.13,3.58,3.58,0,0,1,1.13,2.64,8.52,8.52,0,0,1-.75,2.82c-.25.51-.5,1-.76,1.51a56.68,56.68,0,0,1-7.53,9.89,53.84,53.84,0,0,1-10.46,8.58,57.43,57.43,0,0,1-13.29,6.12A52.18,52.18,0,0,1,121.49,211.25ZM156,77.46a21.69,21.69,0,0,0-8.67,1.88,31.36,31.36,0,0,0-8.1,5.18,37.91,37.91,0,0,0-6.78,7.92,35.87,35.87,0,0,0-4.53,10.08,79.72,79.72,0,0,0,15-1.32,48.91,48.91,0,0,0,12-3.77,23.27,23.27,0,0,0,7.92-5.84,11.5,11.5,0,0,0,2.82-7.54,5.45,5.45,0,0,0-2.82-4.8A12.39,12.39,0,0,0,156,77.46Z"/><path class="cls-2" d="M185,153.21a138.28,138.28,0,0,1-9,19.31q-4.42,7.64-7.44,12a18.47,18.47,0,0,1-1.42,1.69,3.5,3.5,0,0,1-2.73,1.13,4.21,4.21,0,0,1-4-3.95,4.48,4.48,0,0,1,.85-2.55,16.46,16.46,0,0,0,1.23-2q2.63-3.78,7.44-12t9-21.58a12.91,12.91,0,0,1,3.49-5.46,26.21,26.21,0,0,1,5.65-4.15,30.75,30.75,0,0,1,6.5-2.63,23.32,23.32,0,0,1,6.22-1q7,0,9.61,7.16t3.39,24.12a45.92,45.92,0,0,0,7.07-12.62q2.16-6.22,2.16-8.86,0-1.69,2.55-3.48a32.44,32.44,0,0,1,5.75-3.21,47.49,47.49,0,0,1,6.21-2.26,19.69,19.69,0,0,1,4-.85q3.58,0,3.58,3.39,0,1.89-2.73,6.6a91.28,91.28,0,0,1-7.16,10.36q-4.43,5.66-9.89,11.4a83.44,83.44,0,0,1-11.12,9.9q.75,11.12,4.24,16.2A10.92,10.92,0,0,0,228,195a13.25,13.25,0,0,0,7.45-2.45,33,33,0,0,0,6.5-5.65,42,42,0,0,0,6.22-8.1,3.62,3.62,0,0,1,.94-1.32,6.43,6.43,0,0,1,1.13-.85,3.17,3.17,0,0,1,1.7-.47,3.92,3.92,0,0,1,2.73,1.13,3.53,3.53,0,0,1,.94,4q-.28.66-.66,1.41c-.25.51-.5,1.07-.75,1.7a66.15,66.15,0,0,1-9.24,11.68,53.57,53.57,0,0,1-10.27,7.92,24.58,24.58,0,0,1-12.9,3.58,33.43,33.43,0,0,1-17.43-4.43q-7.45-4.43-10.46-15.17-3.21,3.21-7.07,6.59T179.05,201a53.25,53.25,0,0,1-7.44,4.8,13.8,13.8,0,0,1-6.22,1.89,2.29,2.29,0,0,1-2.64-2.83,11.12,11.12,0,0,1,.85-3.58,28.84,28.84,0,0,1,2.26-4.62,32.57,32.57,0,0,1,3-4.24,6.44,6.44,0,0,1,3.11-2.26,33.18,33.18,0,0,0,10.46-4.52,118,118,0,0,0,9.7-6.78q-.94-7.92-1.51-13.19c-.37-3.52-.69-6.38-.94-8.58a19.9,19.9,0,0,0-.94-4.71c-.38-.94-.88-1.41-1.51-1.41C186.37,151,185.62,151.7,185,153.21Z"/><path class="cls-2" d="M341.77,184.49a31.19,31.19,0,0,1-8.1,8.1,42.54,42.54,0,0,1-10.27,5.65A38.6,38.6,0,0,1,309,200.69c-.88,0-1.82,0-2.83-.09s-2-.16-3-.28a37,37,0,0,1-9.42,5.37,29.34,29.34,0,0,1-10.74,2,21.2,21.2,0,0,1-8-1.42A25.23,25.23,0,0,1,269,203a23,23,0,0,1-4.9-4.9,89.06,89.06,0,0,0-3.48,11q-1.8,6.87-3.3,14.6T254.9,239a106.33,106.33,0,0,0-.94,13c0,2.76-1.2,4.14-3.58,4.14a27.25,27.25,0,0,1-5.66-.65,19.22,19.22,0,0,1-5.56-2.17,12.79,12.79,0,0,1-4.23-4.15,11.51,11.51,0,0,1-1.7-6.4,66.5,66.5,0,0,1,1.32-10.65q1.32-7.26,3.39-16.68t4.9-20.25q2.82-10.84,5.75-21.49t5.84-20.07q2.91-9.42,5.37-16a5.32,5.32,0,0,1,5.27-3.58,12.58,12.58,0,0,1,5.38,1.69q3.29,1.69,7.63,8.48a72,72,0,0,1,8.1-6A61.19,61.19,0,0,1,294,134a20.87,20.87,0,0,1,8.57-1.89,19.71,19.71,0,0,1,9.24,2.17,23.88,23.88,0,0,1,7.06,5.56,27.17,27.17,0,0,1,4.62,7.54,21.76,21.76,0,0,1,1.7,8.29,53.56,53.56,0,0,1-3.49,17.71,65.35,65.35,0,0,1-9.89,18.09,5.51,5.51,0,0,0,1.69.19,19.52,19.52,0,0,0,8.86-2,37.47,37.47,0,0,0,7-4.43,51.65,51.65,0,0,0,6.41-6.4,3.62,3.62,0,0,1,.94-1.32,6.43,6.43,0,0,1,1.13-.85,3.17,3.17,0,0,1,1.7-.47,3.92,3.92,0,0,1,2.73,1.13,3.47,3.47,0,0,1,1.23,2.64,3.52,3.52,0,0,1-.29,1.41q-.29.66-.66,1.41C342.27,183.3,342,183.86,341.77,184.49ZM269,182.79a18.43,18.43,0,0,0,2.83,10q2.82,4.51,7.54,4.52c2,0,4.08-.94,6.21-2.82a4.58,4.58,0,0,1-.94-2.64,5.74,5.74,0,0,1,1-3.11,15.5,15.5,0,0,1,2.45-2.92,17.41,17.41,0,0,1,3-2.26,5.68,5.68,0,0,1,2.74-1,80.84,80.84,0,0,0,3.39-7.82c1-2.7,1.85-5.33,2.54-7.91s1.23-5,1.6-7.16a33.58,33.58,0,0,0,.57-5.56c0-3.39-.54-5.78-1.6-7.16a5.7,5.7,0,0,0-4.81-2.07q-3.77,0-8.29,4.05a59.37,59.37,0,0,0-8.67,9.89,64.76,64.76,0,0,0-6.88,12.34A30.5,30.5,0,0,0,269,182.79Z"/><path class="cls-2" d="M383.41,188.45a6.66,6.66,0,0,0,1.7,4.9,6.11,6.11,0,0,0,4.52,1.69,13.22,13.22,0,0,0,7.44-2.45,32.78,32.78,0,0,0,6.51-5.65,41.6,41.6,0,0,0,6.21-8.1,3.67,3.67,0,0,1,.95-1.32,6.07,6.07,0,0,1,1.13-.85,3.14,3.14,0,0,1,1.69-.47,3.92,3.92,0,0,1,2.74,1.13,3.53,3.53,0,0,1,.94,4q-.28.66-.66,1.41c-.26.51-.51,1.07-.76,1.7a66.11,66.11,0,0,1-9.23,11.68,53.57,53.57,0,0,1-10.27,7.92,24.61,24.61,0,0,1-12.91,3.58,29.87,29.87,0,0,1-9.8-1.51,25.57,25.57,0,0,1-7.53-4,17.61,17.61,0,0,1-4.9-5.94,16.21,16.21,0,0,1-1.7-7.35,35.49,35.49,0,0,1,1.89-11.68,92.57,92.57,0,0,1,4.05-10q2.16-4.52,4.05-8a13,13,0,0,0,1.88-5.74,2.42,2.42,0,0,0-1.79-2.26,28.62,28.62,0,0,0-3.86-1.32,54.2,54.2,0,0,0-5.65-.95,193.18,193.18,0,0,1-10.37,22.52q-4.9,8.76-7.91,13.1a17.94,17.94,0,0,1-1.41,1.69,3.54,3.54,0,0,1-2.74,1.13,3.77,3.77,0,0,1-2.73-1.22,3.81,3.81,0,0,1-1.22-2.73,4.46,4.46,0,0,1,.84-2.55,16.46,16.46,0,0,0,1.23-2q2.64-3.78,7.44-12t8.95-21.58a11.68,11.68,0,0,1-3.2-3.39,19.68,19.68,0,0,1-2.07-4.33,18.45,18.45,0,0,1-.95-6.22,14.07,14.07,0,0,1,1-5.37,15,15,0,0,1,2.73-4.43,15.92,15.92,0,0,1,3.58-3,7,7,0,0,1,3.58-1.14,8.87,8.87,0,0,1,4,1,19.55,19.55,0,0,1,3.77,2.45,13.82,13.82,0,0,1,2.83,3.2,6.18,6.18,0,0,1,1.13,3.11,13.8,13.8,0,0,1-1.23,6.22,10.51,10.51,0,0,0-1.22,4.71,3.15,3.15,0,0,0,2.26,3,14.73,14.73,0,0,0,5.65.94,31.07,31.07,0,0,0,5.37-.38,38.71,38.71,0,0,0,3.87-.85c1.13-.31,2.19-.59,3.2-.84a13.17,13.17,0,0,1,3.2-.38,6.88,6.88,0,0,1,5.56,2.64,9.79,9.79,0,0,1,2.17,6.41,18.07,18.07,0,0,1-2.17,7.63q-2.18,4.43-4.8,9.7a112.21,112.21,0,0,0-4.81,11A32,32,0,0,0,383.41,188.45Z"/><path class="cls-2" d="M483.09,184.49a47.83,47.83,0,0,1-10.36,11.68,59.79,59.79,0,0,1-13.1,7.92,44.37,44.37,0,0,1-18.56,3.58,40.4,40.4,0,0,1-13.19-2.08,31.77,31.77,0,0,1-10.36-5.74,26.25,26.25,0,0,1-6.78-8.77A25.16,25.16,0,0,1,408.28,180a47.47,47.47,0,0,1,4-19.6,53.17,53.17,0,0,1,10-15.17,45.21,45.21,0,0,1,13.1-9.71,30.84,30.84,0,0,1,13.28-3.39,19.5,19.5,0,0,1,8.1,1.7,23,23,0,0,1,6.6,4.43,20.19,20.19,0,0,1,4.43,6.31,18,18,0,0,1,1.6,7.35,29.65,29.65,0,0,1-6.5,17.34,29.4,29.4,0,0,1-9.42,7.44q-5.94,3.11-14.8,3.11a17.72,17.72,0,0,1-4.33-.57,27.1,27.1,0,0,1-2.83-.56q0,8.47,4.9,13a16.66,16.66,0,0,0,11.69,4.52,26.65,26.65,0,0,0,12.06-2.73,45.92,45.92,0,0,0,9.23-5.94,39.32,39.32,0,0,0,7.73-8.66,3.5,3.5,0,0,1,.94-1.32,6.07,6.07,0,0,1,1.13-.85,3.14,3.14,0,0,1,1.69-.47,3.92,3.92,0,0,1,2.74,1.13,3.53,3.53,0,0,1,.94,4q-.28.66-.66,1.41C483.6,183.3,483.35,183.86,483.09,184.49ZM432.4,170.92a17.81,17.81,0,0,0,9.62-2.83,31.6,31.6,0,0,0,7.82-6.87,36.51,36.51,0,0,0,5.18-8.39,19.26,19.26,0,0,0,1.88-7.35q0-3.76-3.39-3.77a11.88,11.88,0,0,0-7.73,3.21,35,35,0,0,0-6.69,7.72,49.29,49.29,0,0,0-4.8,9.61A25.79,25.79,0,0,0,432.4,170.92Z"/><path class="cls-2" d="M560.16,184.49a47.34,47.34,0,0,1-12.24,12.25,68.66,68.66,0,0,1-16.49,8.48Q521.35,209,506.84,209a32.42,32.42,0,0,1-13.19-2.73,40.18,40.18,0,0,1-10.84-6.88,35,35,0,0,1-7.35-9,18.82,18.82,0,0,1-2.73-9.05,9.46,9.46,0,0,1,2.83-7,27.94,27.94,0,0,1,6.22-4.71,42.34,42.34,0,0,1,9-3.39c.75-1.25,1.76-2.83,3-4.71,1-1.63,2.33-3.68,4-6.13s3.52-5.37,5.65-8.76q6.6-10,11.31-13.85T523,128.9a6.57,6.57,0,0,1,3.11.85,18.27,18.27,0,0,1,3,2,12.68,12.68,0,0,1,2.26,2.26,3.47,3.47,0,0,1,.85,1.88,5.39,5.39,0,0,1-.76,2.36c-.5.94-1,2-1.6,3a29,29,0,0,0-1.51,3.39,10.58,10.58,0,0,0-.66,3.68,37.67,37.67,0,0,0,1.13,9.8q1.14,4.14,2.55,7.82t2.54,7.16a25.07,25.07,0,0,1,1.13,7.82,25.6,25.6,0,0,1-.66,6.31,22.29,22.29,0,0,1-1.6,4.43,19.39,19.39,0,0,1-2.07,3.58,37.81,37.81,0,0,0,9.89-4.24,56.64,56.64,0,0,0,7.45-5.37,52.3,52.3,0,0,0,6-6.78,3.5,3.5,0,0,1,.94-1.32,6.07,6.07,0,0,1,1.13-.85,3.14,3.14,0,0,1,1.69-.47,3.92,3.92,0,0,1,2.74,1.13,3.53,3.53,0,0,1,.94,4q-.29.66-.66,1.41C560.67,183.3,560.42,183.86,560.16,184.49Zm-53.13-29q-4,6-7,10.93-2.64,4.33-4.8,8.1c-1.45,2.52-2.17,4.08-2.17,4.71a66.86,66.86,0,0,0,.47,8,29.86,29.86,0,0,0,1.6,6.88,14.15,14.15,0,0,0,2.83,4.8,5.68,5.68,0,0,0,4.34,1.79c2.88,0,5.37-1.57,7.44-4.71a19.73,19.73,0,0,0,3.11-11.12,33,33,0,0,0-.94-7.53c-.64-2.64-1.29-5.25-2-7.82s-1.35-5.09-2-7.54A26.49,26.49,0,0,1,507,155.47Z"/><path class="cls-2" d="M637.24,184.49A47.53,47.53,0,0,1,625,196.74a68.66,68.66,0,0,1-16.49,8.48Q598.42,209,583.91,209a32.42,32.42,0,0,1-13.19-2.73,40.18,40.18,0,0,1-10.84-6.88,35,35,0,0,1-7.35-9,18.82,18.82,0,0,1-2.73-9.05,9.46,9.46,0,0,1,2.83-7,27.94,27.94,0,0,1,6.22-4.71,42.34,42.34,0,0,1,9-3.39c.75-1.25,1.76-2.83,3-4.71,1-1.63,2.33-3.68,4-6.13s3.52-5.37,5.66-8.76q6.59-10,11.3-13.85t8.29-3.86a6.57,6.57,0,0,1,3.11.85,18.27,18.27,0,0,1,3,2A12.68,12.68,0,0,1,608.5,134a3.47,3.47,0,0,1,.85,1.88,5.39,5.39,0,0,1-.76,2.36c-.5.94-1,2-1.6,3a29,29,0,0,0-1.51,3.39,10.58,10.58,0,0,0-.66,3.68,37.67,37.67,0,0,0,1.13,9.8q1.14,4.14,2.55,7.82t2.54,7.16a25.07,25.07,0,0,1,1.13,7.82,25.6,25.6,0,0,1-.66,6.31,22.29,22.29,0,0,1-1.6,4.43,19.39,19.39,0,0,1-2.07,3.58,37.81,37.81,0,0,0,9.89-4.24,56.64,56.64,0,0,0,7.45-5.37,52.3,52.3,0,0,0,6-6.78,3.5,3.5,0,0,1,.94-1.32,6.43,6.43,0,0,1,1.13-.85,3.14,3.14,0,0,1,1.69-.47,3.92,3.92,0,0,1,2.74,1.13,3.53,3.53,0,0,1,.94,4q-.28.66-.66,1.41C637.74,183.3,637.49,183.86,637.24,184.49Zm-53.14-29q-4,6-7,10.93-2.64,4.33-4.8,8.1c-1.45,2.52-2.17,4.08-2.17,4.71a66.86,66.86,0,0,0,.47,8,30.38,30.38,0,0,0,1.6,6.88,14.15,14.15,0,0,0,2.83,4.8,5.68,5.68,0,0,0,4.34,1.79c2.88,0,5.37-1.57,7.44-4.71a19.73,19.73,0,0,0,3.11-11.12,33,33,0,0,0-.94-7.53c-.64-2.64-1.29-5.25-2-7.82s-1.35-5.09-2-7.54A26.49,26.49,0,0,1,584.1,155.47Z"/><path class="cls-2" d="M638.18,191.84a14.54,14.54,0,0,1,3.67.47,17.88,17.88,0,0,0,4.43.47,22.5,22.5,0,0,0,16.58-7.07,66.85,66.85,0,0,0,12.25-17.9,151.83,151.83,0,0,0,9-23.65q3.76-12.81,7-24.31,2.82-10.74,6.59-16.77a53.74,53.74,0,0,1,7-9.23,17.17,17.17,0,0,1,7.92-4.52Q708.28,87.07,699,84.9a91.57,91.57,0,0,0-20.64-2.17q-8.47,0-13.85,3.87a12.21,12.21,0,0,0-5.37,10.45,16.51,16.51,0,0,0,1.42,7.26,20.36,20.36,0,0,0,3.2,4.9q1.78,2,3.2,3.3a3.53,3.53,0,0,1,1.42,2.26c0,2.38-1.32,3.58-4,3.58a26.15,26.15,0,0,1-8.57-1.7,34.46,34.46,0,0,1-9.14-4.9,31.33,31.33,0,0,1-7.35-7.63,17.48,17.48,0,0,1-3-10.08q0-7.35,3.77-12.06a28.1,28.1,0,0,1,9.33-7.54,42.73,42.73,0,0,1,12.06-4,70.53,70.53,0,0,1,12-1.13,137.23,137.23,0,0,1,17,1q7.54.95,15.27,2.16t16.58,2.17a200.49,200.49,0,0,0,20.92.94,57.24,57.24,0,0,0,11.68-.94,29.57,29.57,0,0,0,6.78-2.17,23.41,23.41,0,0,0,3.68-2.16,3.74,3.74,0,0,1,2.16-1,3.84,3.84,0,0,1,2.83,1.13,3.61,3.61,0,0,1,1.13,2.64c0,.88-.72,2.52-2.16,4.9a39.13,39.13,0,0,1-5.85,7.26,47.39,47.39,0,0,1-8.29,6.59,17.84,17.84,0,0,1-9.7,2.92,70.6,70.6,0,0,1-8.48-.47c-2.64-.31-5-.66-7-1-2.27-.5-4.4-1.06-6.41-1.69a7.24,7.24,0,0,0-1.89,1.69A21.26,21.26,0,0,0,719,97.9a78.31,78.31,0,0,0-3.3,9q-1.8,5.74-3.68,14.79-1.69,7.55-3.29,16.86t-4,18.85A167.75,167.75,0,0,1,699,176a71.17,71.17,0,0,1-8.38,16.11,39.78,39.78,0,0,1-12.06,11.31,31.86,31.86,0,0,1-16.68,4.24,44.42,44.42,0,0,1-10.65-1.23,39.16,39.16,0,0,1-8.66-3.11,21.16,21.16,0,0,1-5.75-4.05c-1.39-1.44-2.08-2.73-2.08-3.86a3.15,3.15,0,0,1,3.4-3.58Z"/><path class="cls-2" d="M814.74,184.49a66.11,66.11,0,0,1-9.23,11.68,53.89,53.89,0,0,1-10.27,7.92,24.61,24.61,0,0,1-12.91,3.58A21.84,21.84,0,0,1,769,203.61q-5.46-4.05-6.41-12a49.23,49.23,0,0,1-8.1,8.1,51.46,51.46,0,0,1-8.48,5.47,21.75,21.75,0,0,1-10.17,2.45,19.16,19.16,0,0,1-7.26-1.42,17.33,17.33,0,0,1-6-4.05,20,20,0,0,1-5.56-14.13,55.38,55.38,0,0,1,3.87-20.16,70.48,70.48,0,0,1,10.08-18A55,55,0,0,1,744.83,137a28.86,28.86,0,0,1,25.06-3.48,27.17,27.17,0,0,1,6.41,3.11,21.37,21.37,0,0,1,4.52,4.33,23,23,0,0,1,4.43.47,16.19,16.19,0,0,1,4.33,1.51,10,10,0,0,1,3.3,2.73,6.56,6.56,0,0,1,1.32,4.15,23.3,23.3,0,0,1-1.69,6.78l-3.77,10.46q-2.09,5.74-3.77,11.87a41.28,41.28,0,0,0-1.7,10.83,5.26,5.26,0,0,0,1.42,3.77,5,5,0,0,0,3.86,1.51,13.25,13.25,0,0,0,7.44-2.45,32.72,32.72,0,0,0,6.5-5.65,41.63,41.63,0,0,0,6.22-8.1,3.62,3.62,0,0,1,.94-1.32,6.43,6.43,0,0,1,1.13-.85,3.17,3.17,0,0,1,1.7-.47,3.92,3.92,0,0,1,2.73,1.13,3.47,3.47,0,0,1,1.23,2.64,3.52,3.52,0,0,1-.29,1.41q-.27.66-.66,1.41C815.24,183.3,815,183.86,814.74,184.49ZM771,151.14q0-4.15-2-6.13a6.56,6.56,0,0,0-4.81-2q-4.14,0-8.48,4.34A47.21,47.21,0,0,0,747.94,158a71.71,71.71,0,0,0-5.75,13.66,45.67,45.67,0,0,0-2.26,13.19q0,8.49,5.47,8.49,3.39,0,7.82-4.53a59.67,59.67,0,0,0,8.38-11.12,84.6,84.6,0,0,0,6.69-13.85A36.83,36.83,0,0,0,771,151.14Z"/><path class="cls-2" d="M891.81,184.49a47.38,47.38,0,0,1-12.25,12.25,68.47,68.47,0,0,1-16.49,8.48Q853,209,838.48,209a32.46,32.46,0,0,1-13.19-2.73,40.13,40.13,0,0,1-10.83-6.88,35,35,0,0,1-7.35-9,18.82,18.82,0,0,1-2.73-9.05,9.49,9.49,0,0,1,2.82-7,28.41,28.41,0,0,1,6.22-4.71,42.43,42.43,0,0,1,9.05-3.39c.75-1.25,1.75-2.83,3-4.71,1-1.63,2.32-3.68,4-6.13s3.51-5.37,5.65-8.76q6.6-10,11.31-13.85t8.29-3.86a6.6,6.6,0,0,1,3.11.85,18.61,18.61,0,0,1,3,2,12.35,12.35,0,0,1,2.26,2.26,3.39,3.39,0,0,1,.85,1.88,5.36,5.36,0,0,1-.75,2.36c-.51.94-1,2-1.6,3a27.42,27.42,0,0,0-1.51,3.39,10.58,10.58,0,0,0-.66,3.68,37.67,37.67,0,0,0,1.13,9.8,81.52,81.52,0,0,0,2.54,7.82c.95,2.45,1.79,4.84,2.55,7.16a28.83,28.83,0,0,1,.47,14.13,22.94,22.94,0,0,1-1.6,4.43,18.85,18.85,0,0,1-2.08,3.58,37.88,37.88,0,0,0,9.9-4.24,55.82,55.82,0,0,0,7.44-5.37,51.57,51.57,0,0,0,6-6.78,3.62,3.62,0,0,1,.94-1.32,6.43,6.43,0,0,1,1.13-.85,3.17,3.17,0,0,1,1.7-.47,3.92,3.92,0,0,1,2.73,1.13,3.47,3.47,0,0,1,1.23,2.64,3.52,3.52,0,0,1-.29,1.41q-.29.66-.66,1.41C892.31,183.3,892.06,183.86,891.81,184.49Zm-53.14-29q-4,6-7,10.93-2.64,4.33-4.81,8.1c-1.44,2.52-2.16,4.08-2.16,4.71a64.85,64.85,0,0,0,.47,8,29.86,29.86,0,0,0,1.6,6.88,14,14,0,0,0,2.83,4.8,5.67,5.67,0,0,0,4.33,1.79q4.34,0,7.44-4.71a19.65,19.65,0,0,0,3.11-11.12,32.45,32.45,0,0,0-.94-7.53q-.95-4-2-7.82t-2-7.54A26.49,26.49,0,0,1,838.67,155.47Z"/><path class="cls-2" d="M916.87,195a13.28,13.28,0,0,0,7.45-2.45,33,33,0,0,0,6.5-5.65,41.6,41.6,0,0,0,6.21-8.1,3.67,3.67,0,0,1,1-1.32,6.07,6.07,0,0,1,1.13-.85,3.14,3.14,0,0,1,1.69-.47,3.92,3.92,0,0,1,2.74,1.13,3.53,3.53,0,0,1,.94,4q-.29.66-.66,1.41c-.25.51-.5,1.07-.75,1.7a66.62,66.62,0,0,1-9.24,11.68,53.57,53.57,0,0,1-10.27,7.92,24.61,24.61,0,0,1-12.91,3.58,29.9,29.9,0,0,1-17.8-6.22,26.85,26.85,0,0,1-6.41-7.16,17,17,0,0,1-2.54-9,61.33,61.33,0,0,1,.94-9.7q.95-5.74,2.64-12.53t3.86-14.32q2.16-7.55,4.62-14.89h-5.09c-1,0-1.51-.57-1.51-1.7a7.9,7.9,0,0,1,1.79-4q1.79-2.54,3.86-2.54h3.77q2.84-7.73,5.56-14.23a95.12,95.12,0,0,1,5.37-11,7.33,7.33,0,0,1,2.07-2.55,4.76,4.76,0,0,1,3-1A10.22,10.22,0,0,1,919.42,98a30.46,30.46,0,0,1,4.8,3.1,23.62,23.62,0,0,1,3.77,3.68,5.62,5.62,0,0,1,1.51,3.2q0,1.32-1.79,5.94t-4.43,11.59H935.9c1,0,1.51.56,1.51,1.69a4.54,4.54,0,0,1-.56,1.89,11.33,11.33,0,0,1-1.42,2.16,11.73,11.73,0,0,1-1.79,1.8,3,3,0,0,1-1.88.75H920.08Q917.82,140,915.46,147t-4.24,13.76q-1.89,6.78-3.11,13.09a60.18,60.18,0,0,0-1.23,11.4,9.24,9.24,0,0,0,2.93,7.07A10,10,0,0,0,916.87,195Z"/><path class="cls-2" d="M975.47,195.42a23.67,23.67,0,0,0,7.64-1.13,26.53,26.53,0,0,0,5.65-2.64,26.87,26.87,0,0,0,4-3.11c1.13-1.07,2-1.91,2.64-2.54l1.32-1.32c.37-.25.81-.54,1.32-.85a2.83,2.83,0,0,1,1.5-.47,3.81,3.81,0,0,1,2.83,1.13,3.62,3.62,0,0,1,1.13,2.64,2.41,2.41,0,0,1-.47,1.41,11,11,0,0,0-.85,1.41c-.37.51-.75,1.07-1.13,1.7a44.9,44.9,0,0,1-8.86,8.1A54.06,54.06,0,0,1,982,205.22a35.7,35.7,0,0,1-13.67,2.45,40.4,40.4,0,0,1-13.19-2.08,31.77,31.77,0,0,1-10.36-5.74,26.25,26.25,0,0,1-6.78-8.77A25.15,25.15,0,0,1,935.53,180a47.47,47.47,0,0,1,4-19.6,53.17,53.17,0,0,1,10-15.17,45.34,45.34,0,0,1,13.1-9.71,30.84,30.84,0,0,1,13.28-3.39,19.5,19.5,0,0,1,8.1,1.7,23,23,0,0,1,6.6,4.43,20.19,20.19,0,0,1,4.43,6.31,18,18,0,0,1,1.6,7.35,29.65,29.65,0,0,1-6.5,17.34,29.4,29.4,0,0,1-9.42,7.44q-5.94,3.11-14.8,3.11a17.72,17.72,0,0,1-4.33-.57,27.1,27.1,0,0,1-2.83-.56q0,8.47,5,12.62A17.8,17.8,0,0,0,975.47,195.42Zm-15.82-24.5a17.8,17.8,0,0,0,9.61-2.83,31.6,31.6,0,0,0,7.82-6.87,36.51,36.51,0,0,0,5.18-8.39,19.26,19.26,0,0,0,1.88-7.35q0-3.76-3.39-3.77a11.88,11.88,0,0,0-7.73,3.21,35,35,0,0,0-6.69,7.72,49.29,49.29,0,0,0-4.8,9.61A25.74,25.74,0,0,0,959.65,170.92Z"/><path class="cls-1" d="M112.78,202.54A68,68,0,0,1,97,200.65a44.14,44.14,0,0,1-14.23-6A34.17,34.17,0,0,1,72.36,184a28.84,28.84,0,0,1-4-15.55,35.67,35.67,0,0,1,2.82-14.51,48.31,48.31,0,0,1,7.07-11.49,49.75,49.75,0,0,1,9.23-8.67,102.77,102.77,0,0,1,9.33-6,62.8,62.8,0,0,1,7.44-3.68c2.08-.81,3.3-1.28,3.68-1.41a12,12,0,0,1-2.07-1,19.93,19.93,0,0,1-4.15-3.2,27.31,27.31,0,0,1-4.33-5.56,22,22,0,0,1-2.83-8.29q-14.32-1.32-21.39-5.65T66.05,87.78a17.65,17.65,0,0,1,2.73-9.23,38.79,38.79,0,0,1,6.5-8.11,42,42,0,0,1,7.63-5.84c2.58-1.5,4.55-2.26,5.94-2.26a1.48,1.48,0,0,1,1.32.57A2,2,0,0,1,90.54,64c0,.63-.56,1.73-1.69,3.29a9.61,9.61,0,0,0-1.7,5.75,14.58,14.58,0,0,0,2.64,8.39,25.19,25.19,0,0,0,7.35,6.88,39.36,39.36,0,0,1,8.57-10.93,63.16,63.16,0,0,1,12.44-8.86,65.6,65.6,0,0,1,14.6-5.84,58.15,58.15,0,0,1,15.08-2.07,35.39,35.39,0,0,1,9.51,1.22,27.45,27.45,0,0,1,7.73,3.39,16.7,16.7,0,0,1,5.18,5.28,13,13,0,0,1,1.89,6.88,14.6,14.6,0,0,1-3.77,9.42A34.79,34.79,0,0,1,157.53,95a79.36,79.36,0,0,1-17.05,6.22,120.15,120.15,0,0,1-22.43,3.3,30.35,30.35,0,0,0,.85,5.75,22.76,22.76,0,0,0,1.6,4.43,37.86,37.86,0,0,0,2.08,4c1-.12,2.19-.31,3.58-.56,1.13-.13,2.48-.25,4.05-.38s3.36-.19,5.37-.19q11.11,0,11.12,6.6,0,2.82-3.3,5.75a12.72,12.72,0,0,1-8.76,2.92,38.39,38.39,0,0,1-6.22-.47,28.41,28.41,0,0,1-4.9-1.23,21,21,0,0,1-4.15-1.88A59.68,59.68,0,0,0,106.94,139a55,55,0,0,0-8.58,12.07,34.84,34.84,0,0,0-3.86,16.77q0,11.87,6.41,17.61t18.28,5.75a35.65,35.65,0,0,0,19.22-5.65,50.36,50.36,0,0,0,15.45-15.45,3.62,3.62,0,0,1,.94-1.32,6.43,6.43,0,0,1,1.13-.85,3.17,3.17,0,0,1,1.7-.47,3.83,3.83,0,0,1,2.82,1.13,3.58,3.58,0,0,1,1.13,2.64,8.52,8.52,0,0,1-.75,2.82l-.75,1.51a56.75,56.75,0,0,1-7.54,9.89,53.84,53.84,0,0,1-10.46,8.58,57.54,57.54,0,0,1-13.28,6.12A52.25,52.25,0,0,1,112.78,202.54ZM147.26,68.75a21.69,21.69,0,0,0-8.67,1.88,31.36,31.36,0,0,0-8.1,5.18,38.21,38.21,0,0,0-6.78,7.92,35.57,35.57,0,0,0-4.52,10.08,79.61,79.61,0,0,0,15-1.32,48.48,48.48,0,0,0,12-3.77,23.27,23.27,0,0,0,7.92-5.84,11.5,11.5,0,0,0,2.82-7.54,5.46,5.46,0,0,0-2.82-4.8A12.48,12.48,0,0,0,147.26,68.75Z"/><path class="cls-1" d="M176.28,144.5a138.28,138.28,0,0,1-8.95,19.31q-4.43,7.63-7.44,12a18.25,18.25,0,0,1-1.42,1.7,3.54,3.54,0,0,1-2.73,1.13,4.23,4.23,0,0,1-4-4,4.42,4.42,0,0,1,.85-2.54,17.26,17.26,0,0,0,1.23-2q2.63-3.76,7.44-12a104.27,104.27,0,0,0,8.95-21.57,12.88,12.88,0,0,1,3.49-5.47,26.16,26.16,0,0,1,5.65-4.14,30.26,30.26,0,0,1,6.5-2.64,23.33,23.33,0,0,1,6.22-.94q7,0,9.61,7.16t3.39,24.12a45.83,45.83,0,0,0,7.07-12.63c1.44-4.15,2.17-7.1,2.17-8.86,0-1.13.84-2.29,2.54-3.48a34.14,34.14,0,0,1,5.75-3.21,47.09,47.09,0,0,1,6.22-2.26,19.23,19.23,0,0,1,3.95-.84q3.58,0,3.58,3.39,0,1.87-2.73,6.59a92.22,92.22,0,0,1-7.16,10.37q-4.42,5.66-9.89,11.4A84,84,0,0,1,205.49,165q.75,11.11,4.24,16.2a10.92,10.92,0,0,0,9.51,5.09,13.25,13.25,0,0,0,7.45-2.45,33,33,0,0,0,6.5-5.65,42,42,0,0,0,6.22-8.1,3.62,3.62,0,0,1,.94-1.32,6.43,6.43,0,0,1,1.13-.85,3.17,3.17,0,0,1,1.7-.47,4,4,0,0,1,2.73,1.13,3.53,3.53,0,0,1,.94,4q-.28.66-.66,1.41c-.25.51-.5,1.07-.75,1.7a66.15,66.15,0,0,1-9.24,11.68,53.57,53.57,0,0,1-10.27,7.92A24.58,24.58,0,0,1,213,199a33.46,33.46,0,0,1-17.43-4.43q-7.46-4.42-10.46-15.17c-2.14,2.14-4.5,4.33-7.07,6.6s-5.15,4.36-7.72,6.31a53.9,53.9,0,0,1-7.45,4.8,13.8,13.8,0,0,1-6.22,1.89,3,3,0,0,1-2-.57,2.93,2.93,0,0,1-.65-2.26,11.05,11.05,0,0,1,.84-3.58,29.26,29.26,0,0,1,2.26-4.62,32.57,32.57,0,0,1,3-4.24,6.49,6.49,0,0,1,3.11-2.26,33.18,33.18,0,0,0,10.46-4.52,118,118,0,0,0,9.7-6.78q-.94-7.92-1.51-13.19c-.37-3.52-.69-6.38-.94-8.58a20,20,0,0,0-.94-4.71c-.38-.94-.88-1.41-1.51-1.41C177.66,142.24,176.91,143,176.28,144.5Z"/><path class="cls-1" d="M333.06,175.78a31.19,31.19,0,0,1-8.1,8.1,42.89,42.89,0,0,1-10.27,5.66A38.8,38.8,0,0,1,300.27,192c-.88,0-1.82,0-2.82-.1s-2-.15-3-.28A37,37,0,0,1,285,197a29.34,29.34,0,0,1-10.74,2,21,21,0,0,1-8-1.42,25.23,25.23,0,0,1-5.94-3.29,23,23,0,0,1-4.9-4.9,89.61,89.61,0,0,0-3.48,11c-1.2,4.59-2.3,9.45-3.3,14.61s-1.82,10.23-2.45,15.26a106.46,106.46,0,0,0-.94,13c0,2.76-1.2,4.15-3.58,4.15a26.47,26.47,0,0,1-5.65-.66,18.73,18.73,0,0,1-5.56-2.17,12.73,12.73,0,0,1-4.24-4.15,11.59,11.59,0,0,1-1.7-6.4,66.63,66.63,0,0,1,1.32-10.65q1.32-7.26,3.39-16.68t4.9-20.25q2.84-10.85,5.75-21.49t5.84-20.06q2.92-9.42,5.37-16a5.32,5.32,0,0,1,5.28-3.58,12.48,12.48,0,0,1,5.37,1.7q3.28,1.7,7.63,8.47a73.22,73.22,0,0,1,8.1-6,62.48,62.48,0,0,1,7.82-4.14,20.86,20.86,0,0,1,8.57-1.88,19.7,19.7,0,0,1,9.24,2.16,23.75,23.75,0,0,1,7.06,5.56,27.32,27.32,0,0,1,4.62,7.54,21.76,21.76,0,0,1,1.7,8.29A53.26,53.26,0,0,1,313,164.66a64.81,64.81,0,0,1-9.89,18.09,5.55,5.55,0,0,0,1.69.19,19.52,19.52,0,0,0,8.86-2,37.47,37.47,0,0,0,7-4.43,51,51,0,0,0,6.41-6.4,3.62,3.62,0,0,1,.94-1.32,6.43,6.43,0,0,1,1.13-.85,3.17,3.17,0,0,1,1.7-.47,4,4,0,0,1,2.73,1.13,3.47,3.47,0,0,1,1.23,2.64,3.52,3.52,0,0,1-.29,1.41q-.29.66-.66,1.41C333.56,174.59,333.31,175.15,333.06,175.78Zm-72.74-1.7a18.49,18.49,0,0,0,2.83,10q2.82,4.53,7.54,4.52,3,0,6.22-2.82a4.52,4.52,0,0,1-1-2.64,5.77,5.77,0,0,1,1-3.11,15.5,15.5,0,0,1,2.45-2.92,17.41,17.41,0,0,1,3-2.26,5.65,5.65,0,0,1,2.74-.94,83,83,0,0,0,3.39-7.82q1.5-4.05,2.54-7.92t1.61-7.16a34.54,34.54,0,0,0,.56-5.56c0-3.39-.54-5.77-1.6-7.16a5.7,5.7,0,0,0-4.81-2.07q-3.76,0-8.29,4a59.83,59.83,0,0,0-8.67,9.89,64.49,64.49,0,0,0-6.87,12.35A30.26,30.26,0,0,0,260.32,174.08Z"/><path class="cls-1" d="M374.7,179.74a6.63,6.63,0,0,0,1.7,4.9,6.11,6.11,0,0,0,4.52,1.69,13.28,13.28,0,0,0,7.45-2.45,33,33,0,0,0,6.5-5.65,42,42,0,0,0,6.22-8.1,3.5,3.5,0,0,1,.94-1.32,6.07,6.07,0,0,1,1.13-.85,3.14,3.14,0,0,1,1.69-.47,4,4,0,0,1,2.74,1.13,3.53,3.53,0,0,1,.94,4q-.28.66-.66,1.41c-.25.51-.5,1.07-.75,1.7a66.62,66.62,0,0,1-9.24,11.68,53.57,53.57,0,0,1-10.27,7.92A24.61,24.61,0,0,1,374.7,199a29.77,29.77,0,0,1-9.79-1.51,25.05,25.05,0,0,1-7.54-4,17.52,17.52,0,0,1-4.9-5.94,16.21,16.21,0,0,1-1.7-7.35,35.53,35.53,0,0,1,1.89-11.68,92.57,92.57,0,0,1,4-10q2.16-4.51,4.05-8a13,13,0,0,0,1.88-5.75,2.42,2.42,0,0,0-1.79-2.26,30.08,30.08,0,0,0-3.86-1.32,51.84,51.84,0,0,0-5.65-.94A193.72,193.72,0,0,1,341,162.68q-4.89,8.77-7.91,13.1a16.3,16.3,0,0,1-1.41,1.7,3.57,3.57,0,0,1-2.74,1.13,4.21,4.21,0,0,1-4-4,4.35,4.35,0,0,1,.85-2.54,18.42,18.42,0,0,0,1.22-2q2.64-3.76,7.44-12t8.95-21.57a11.85,11.85,0,0,1-3.2-3.4,20.15,20.15,0,0,1-2.07-4.33,18.46,18.46,0,0,1-.94-6.22,14.14,14.14,0,0,1,1-5.37,15,15,0,0,1,2.73-4.43,16.14,16.14,0,0,1,3.58-3,7,7,0,0,1,3.58-1.13,8.85,8.85,0,0,1,4,1,20,20,0,0,1,3.77,2.45,13.66,13.66,0,0,1,2.83,3.21,6.11,6.11,0,0,1,1.13,3.11,13.79,13.79,0,0,1-1.23,6.21,10.65,10.65,0,0,0-1.22,4.71,3.15,3.15,0,0,0,2.26,3,14.73,14.73,0,0,0,5.65.94,32.23,32.23,0,0,0,5.37-.37c1.45-.26,2.74-.54,3.87-.85s2.19-.6,3.2-.85a13.17,13.17,0,0,1,3.2-.38,6.87,6.87,0,0,1,5.56,2.64,9.81,9.81,0,0,1,2.17,6.41,18.07,18.07,0,0,1-2.17,7.63c-1.44,2.95-3.05,6.19-4.8,9.7a115.75,115.75,0,0,0-4.81,11A32.24,32.24,0,0,0,374.7,179.74Z"/><path class="cls-1" d="M474.39,175.78A48.08,48.08,0,0,1,464,187.46a59.94,59.94,0,0,1-13.09,7.92A44.42,44.42,0,0,1,432.36,199a40.4,40.4,0,0,1-13.19-2.07,32,32,0,0,1-10.36-5.75,26.32,26.32,0,0,1-6.78-8.76,25.23,25.23,0,0,1-2.45-11.12,47.67,47.67,0,0,1,3.95-19.6,53.17,53.17,0,0,1,10-15.17,45.12,45.12,0,0,1,13.1-9.7,30.84,30.84,0,0,1,13.28-3.39,19.5,19.5,0,0,1,8.1,1.69,22.83,22.83,0,0,1,6.6,4.43,20.31,20.31,0,0,1,4.43,6.31,18,18,0,0,1,1.6,7.35,29.65,29.65,0,0,1-6.5,17.34,29.4,29.4,0,0,1-9.42,7.44q-5.94,3.1-14.8,3.11a17.72,17.72,0,0,1-4.33-.57,27.1,27.1,0,0,1-2.83-.56q0,8.48,4.9,13a16.62,16.62,0,0,0,11.69,4.52,26.65,26.65,0,0,0,12.06-2.73,46.35,46.35,0,0,0,9.23-5.93,39.12,39.12,0,0,0,7.73-8.67,3.5,3.5,0,0,1,.94-1.32,6.43,6.43,0,0,1,1.13-.85,3.14,3.14,0,0,1,1.69-.47,4,4,0,0,1,2.74,1.13,3.53,3.53,0,0,1,.94,4q-.29.66-.66,1.41C474.89,174.59,474.64,175.15,474.39,175.78ZM423.7,162.21a17.88,17.88,0,0,0,9.61-2.82,31.85,31.85,0,0,0,7.82-6.88,36.51,36.51,0,0,0,5.18-8.39,19.26,19.26,0,0,0,1.88-7.35q0-3.77-3.39-3.76a11.87,11.87,0,0,0-7.73,3.2,34.9,34.9,0,0,0-6.68,7.72,48.78,48.78,0,0,0-4.81,9.61A25.74,25.74,0,0,0,423.7,162.21Z"/><path class="cls-1" d="M551.46,175.78A47.53,47.53,0,0,1,539.21,188a68.11,68.11,0,0,1-16.49,8.48q-10.08,3.77-24.59,3.77a32.43,32.43,0,0,1-13.19-2.74,40.16,40.16,0,0,1-10.84-6.87,35.25,35.25,0,0,1-7.35-9,18.79,18.79,0,0,1-2.73-9,9.47,9.47,0,0,1,2.83-7,27.94,27.94,0,0,1,6.22-4.71,42.34,42.34,0,0,1,9-3.39q1.13-1.87,3-4.71,1.5-2.44,3.95-6.12t5.66-8.77q6.58-10,11.3-13.85t8.29-3.86a6.57,6.57,0,0,1,3.11.85,18.27,18.27,0,0,1,3,2,13,13,0,0,1,2.26,2.26,3.47,3.47,0,0,1,.85,1.88,5.35,5.35,0,0,1-.76,2.36c-.5.94-1,1.95-1.6,3a28.43,28.43,0,0,0-1.51,3.4,10.53,10.53,0,0,0-.66,3.67,37.21,37.21,0,0,0,1.14,9.8,81.52,81.52,0,0,0,2.54,7.82q1.41,3.67,2.54,7.16a25.12,25.12,0,0,1,1.13,7.82,25.55,25.55,0,0,1-.66,6.31,22.29,22.29,0,0,1-1.6,4.43,19.39,19.39,0,0,1-2.07,3.58,37.81,37.81,0,0,0,9.89-4.24,56,56,0,0,0,7.45-5.37,50.32,50.32,0,0,0,6-6.78,3.5,3.5,0,0,1,.94-1.32,6.43,6.43,0,0,1,1.13-.85,3.14,3.14,0,0,1,1.69-.47,4,4,0,0,1,2.74,1.13,3.53,3.53,0,0,1,.94,4q-.29.66-.66,1.41C552,174.59,551.71,175.15,551.46,175.78Zm-53.14-29q-4,6-7,10.93-2.64,4.34-4.8,8.1t-2.17,4.71a66.86,66.86,0,0,0,.47,8,30.38,30.38,0,0,0,1.6,6.88,14.3,14.3,0,0,0,2.83,4.81,5.73,5.73,0,0,0,4.34,1.79c2.88,0,5.37-1.57,7.44-4.72a19.69,19.69,0,0,0,3.11-11.11,33,33,0,0,0-.94-7.54c-.63-2.64-1.29-5.24-2-7.82s-1.35-5.09-2-7.54A26.42,26.42,0,0,1,498.32,146.76Z"/><path class="cls-1" d="M628.53,175.78A47.53,47.53,0,0,1,616.28,188a68.11,68.11,0,0,1-16.49,8.48q-10.08,3.77-24.59,3.77A32.43,32.43,0,0,1,562,197.54a40.16,40.16,0,0,1-10.84-6.87,35.25,35.25,0,0,1-7.35-9,18.79,18.79,0,0,1-2.73-9,9.47,9.47,0,0,1,2.83-7,27.94,27.94,0,0,1,6.22-4.71,42.34,42.34,0,0,1,9-3.39c.76-1.25,1.76-2.82,3-4.71q1.5-2.44,3.95-6.12t5.66-8.77q6.59-10,11.3-13.85t8.29-3.86a6.57,6.57,0,0,1,3.11.85,18.27,18.27,0,0,1,3,2,13,13,0,0,1,2.26,2.26,3.39,3.39,0,0,1,.85,1.88,5.35,5.35,0,0,1-.76,2.36c-.5.94-1,1.95-1.6,3a26.88,26.88,0,0,0-1.5,3.4,10.32,10.32,0,0,0-.67,3.67,37.21,37.21,0,0,0,1.14,9.8,81.52,81.52,0,0,0,2.54,7.82q1.41,3.67,2.54,7.16a25.12,25.12,0,0,1,1.13,7.82,25.55,25.55,0,0,1-.66,6.31,22.29,22.29,0,0,1-1.6,4.43,19.39,19.39,0,0,1-2.07,3.58,37.81,37.81,0,0,0,9.89-4.24,56,56,0,0,0,7.45-5.37,50.32,50.32,0,0,0,6-6.78,3.62,3.62,0,0,1,.94-1.32,6.43,6.43,0,0,1,1.13-.85,3.15,3.15,0,0,1,1.7-.47,4,4,0,0,1,2.73,1.13,3.53,3.53,0,0,1,.94,4q-.29.66-.66,1.41C629,174.59,628.78,175.15,628.53,175.78Zm-53.14-29q-4,6-7,10.93-2.64,4.34-4.8,8.1t-2.17,4.71a66.86,66.86,0,0,0,.47,8,29.84,29.84,0,0,0,1.61,6.88,14.13,14.13,0,0,0,2.82,4.81,5.73,5.73,0,0,0,4.34,1.79c2.88,0,5.37-1.57,7.44-4.72a19.69,19.69,0,0,0,3.11-11.11,33,33,0,0,0-.94-7.54c-.63-2.64-1.29-5.24-2-7.82s-1.35-5.09-2-7.54A26.42,26.42,0,0,1,575.39,146.76Z"/><path class="cls-1" d="M629.47,183.13a14.54,14.54,0,0,1,3.67.47,17.42,17.42,0,0,0,4.43.47A22.49,22.49,0,0,0,654.15,177,67.07,67.07,0,0,0,666.4,159.1a151.83,151.83,0,0,0,9.05-23.65q3.76-12.81,7-24.3,2.82-10.74,6.59-16.77a53.34,53.34,0,0,1,7-9.24,17.1,17.1,0,0,1,7.91-4.52q-4.33-2.27-13.66-4.43A91.55,91.55,0,0,0,669.61,74c-5.66,0-10.27,1.29-13.86,3.87a12.22,12.22,0,0,0-5.37,10.46,16.61,16.61,0,0,0,1.42,7.25,20.67,20.67,0,0,0,3.2,4.9q1.79,2,3.2,3.3a3.53,3.53,0,0,1,1.42,2.26q0,3.59-4,3.58a26.15,26.15,0,0,1-8.57-1.7A34.61,34.61,0,0,1,638,103a31.33,31.33,0,0,1-7.35-7.63,17.48,17.48,0,0,1-3-10.08q0-7.35,3.77-12.06a28.1,28.1,0,0,1,9.33-7.54,42.5,42.5,0,0,1,12.06-4,69.54,69.54,0,0,1,12-1.13,137.2,137.2,0,0,1,16.95.94q7.55.94,15.27,2.16t16.58,2.17a200.49,200.49,0,0,0,20.92.94,57.24,57.24,0,0,0,11.68-.94,29.57,29.57,0,0,0,6.78-2.17,23,23,0,0,0,3.68-2.16,3.71,3.71,0,0,1,2.17-.94,3.79,3.79,0,0,1,2.82,1.13,3.58,3.58,0,0,1,1.13,2.63c0,.88-.72,2.52-2.16,4.9a39.13,39.13,0,0,1-5.85,7.26,47,47,0,0,1-8.29,6.59,17.84,17.84,0,0,1-9.7,2.92,70.6,70.6,0,0,1-8.48-.47c-2.64-.31-5-.66-7-1q-3.39-.75-6.41-1.7a7,7,0,0,0-1.88,1.7,20.67,20.67,0,0,0-2.64,4.61,78.31,78.31,0,0,0-3.3,9q-1.8,5.74-3.67,14.79-1.71,7.55-3.3,16.87t-4,18.84a167.75,167.75,0,0,1-5.75,18.56A70.77,70.77,0,0,1,682,183.41a39.78,39.78,0,0,1-12.06,11.31A31.86,31.86,0,0,1,653.21,199a44.42,44.42,0,0,1-10.65-1.23,39.16,39.16,0,0,1-8.66-3.11,21.16,21.16,0,0,1-5.75-4.05c-1.38-1.44-2.07-2.73-2.07-3.86a3.13,3.13,0,0,1,3.39-3.58Z"/><path class="cls-1" d="M806,175.78a66.11,66.11,0,0,1-9.23,11.68,53.57,53.57,0,0,1-10.27,7.92A24.61,24.61,0,0,1,773.62,199a21.85,21.85,0,0,1-13.38-4.05q-5.46-4-6.4-12a49.67,49.67,0,0,1-8.11,8.1,50.82,50.82,0,0,1-8.48,5.47A21.75,21.75,0,0,1,727.08,199a19,19,0,0,1-7.26-1.42,17.33,17.33,0,0,1-6-4,20,20,0,0,1-4-6.22,20.24,20.24,0,0,1-1.51-7.91,55.42,55.42,0,0,1,3.87-20.16,70.48,70.48,0,0,1,10.08-18,55,55,0,0,1,13.94-12.91,29,29,0,0,1,25.06-3.48,27.56,27.56,0,0,1,6.41,3.11,21.13,21.13,0,0,1,4.52,4.33,23,23,0,0,1,4.43.47,16.38,16.38,0,0,1,4.34,1.51,10,10,0,0,1,3.29,2.73,6.56,6.56,0,0,1,1.32,4.15,23.3,23.3,0,0,1-1.69,6.78L780,158.35q-2.09,5.75-3.77,11.87a41.35,41.35,0,0,0-1.7,10.84,5.29,5.29,0,0,0,1.42,3.77,5,5,0,0,0,3.86,1.5,13.25,13.25,0,0,0,7.44-2.45,32.72,32.72,0,0,0,6.5-5.65,41.24,41.24,0,0,0,6.22-8.1,3.74,3.74,0,0,1,.94-1.32,6.43,6.43,0,0,1,1.13-.85,3.2,3.2,0,0,1,1.7-.47,3.92,3.92,0,0,1,2.73,1.13,3.47,3.47,0,0,1,1.23,2.64,3.69,3.69,0,0,1-.28,1.41q-.29.66-.66,1.41C806.53,174.59,806.28,175.15,806,175.78Zm-43.71-33.35c0-2.76-.66-4.81-2-6.13a6.54,6.54,0,0,0-4.81-2q-4.14,0-8.48,4.34a47.06,47.06,0,0,0-7.82,10.65A72.36,72.36,0,0,0,733.48,163a45.67,45.67,0,0,0-2.26,13.19q0,8.47,5.47,8.48,3.39,0,7.82-4.53A59.58,59.58,0,0,0,752.89,169a85.39,85.39,0,0,0,6.69-13.85A37,37,0,0,0,762.32,142.43Z"/><path class="cls-1" d="M883.1,175.78A47.22,47.22,0,0,1,870.85,188a68.11,68.11,0,0,1-16.49,8.48q-10.08,3.77-24.59,3.77a32.47,32.47,0,0,1-13.19-2.74,40.1,40.1,0,0,1-10.83-6.87,35.25,35.25,0,0,1-7.35-9,18.79,18.79,0,0,1-2.73-9,9.5,9.5,0,0,1,2.82-7,28.41,28.41,0,0,1,6.22-4.71,42.43,42.43,0,0,1,9-3.39q1.13-1.87,3-4.71c1-1.63,2.32-3.67,4-6.12s3.51-5.37,5.65-8.77q6.6-10,11.31-13.85t8.29-3.86a6.6,6.6,0,0,1,3.11.85,18.61,18.61,0,0,1,3,2,12.35,12.35,0,0,1,2.26,2.26,3.39,3.39,0,0,1,.85,1.88,5.32,5.32,0,0,1-.75,2.36l-1.6,3a26.92,26.92,0,0,0-1.51,3.4,10.53,10.53,0,0,0-.66,3.67,37.67,37.67,0,0,0,1.13,9.8,81.52,81.52,0,0,0,2.54,7.82c.95,2.45,1.79,4.84,2.55,7.16a28.83,28.83,0,0,1,.47,14.13,22.94,22.94,0,0,1-1.6,4.43,19.39,19.39,0,0,1-2.07,3.58,37.81,37.81,0,0,0,9.89-4.24,55.82,55.82,0,0,0,7.44-5.37,50.32,50.32,0,0,0,6-6.78,3.62,3.62,0,0,1,.94-1.32,6.43,6.43,0,0,1,1.13-.85,3.2,3.2,0,0,1,1.7-.47,4,4,0,0,1,2.73,1.13,3.47,3.47,0,0,1,1.23,2.64,3.52,3.52,0,0,1-.29,1.41c-.18.44-.4.91-.65,1.41S883.35,175.15,883.1,175.78Zm-53.14-29q-4,6-7,10.93-2.64,4.34-4.8,8.1T816,170.5a64.85,64.85,0,0,0,.47,8,29.86,29.86,0,0,0,1.6,6.88,14.14,14.14,0,0,0,2.83,4.81,5.71,5.71,0,0,0,4.33,1.79q4.34,0,7.44-4.72a19.62,19.62,0,0,0,3.11-11.11,32.46,32.46,0,0,0-.94-7.54c-.63-2.64-1.29-5.24-2-7.82s-1.35-5.09-2-7.54A26.42,26.42,0,0,1,830,146.76Z"/><path class="cls-1" d="M908.16,186.33a13.28,13.28,0,0,0,7.45-2.45,33,33,0,0,0,6.5-5.65,42,42,0,0,0,6.22-8.1,3.5,3.5,0,0,1,.94-1.32,6.43,6.43,0,0,1,1.13-.85,3.14,3.14,0,0,1,1.69-.47,4,4,0,0,1,2.74,1.13,3.53,3.53,0,0,1,.94,4q-.28.66-.66,1.41c-.25.51-.5,1.07-.75,1.7a66.62,66.62,0,0,1-9.24,11.68,53.57,53.57,0,0,1-10.27,7.92A24.58,24.58,0,0,1,901.94,199a29.72,29.72,0,0,1-17.8-6.22,26.85,26.85,0,0,1-6.41-7.16,16.93,16.93,0,0,1-2.54-9.05,61.43,61.43,0,0,1,.94-9.7q.95-5.75,2.64-12.53T882.63,140q2.16-7.54,4.62-14.89h-5.09c-1,0-1.51-.56-1.51-1.69a8,8,0,0,1,1.79-4.06q1.78-2.53,3.86-2.54h3.77q2.83-7.72,5.56-14.23a95.12,95.12,0,0,1,5.37-11A7.3,7.3,0,0,1,903.07,89a4.77,4.77,0,0,1,3-1,10.22,10.22,0,0,1,4.62,1.32,29.83,29.83,0,0,1,4.8,3.11,23.58,23.58,0,0,1,3.77,3.67,5.65,5.65,0,0,1,1.51,3.2q0,1.32-1.79,5.94t-4.43,11.59h12.62c1,0,1.51.56,1.51,1.7a4.5,4.5,0,0,1-.56,1.88,12.46,12.46,0,0,1-3.21,4,3,3,0,0,1-1.88.75H911.37q-2.26,6.22-4.62,13.19T902.51,152q-1.89,6.78-3.11,13.09a60.11,60.11,0,0,0-1.22,11.4,9.22,9.22,0,0,0,2.92,7.07A10,10,0,0,0,908.16,186.33Z"/><path class="cls-1" d="M966.77,186.71a23.65,23.65,0,0,0,7.63-1.13,26,26,0,0,0,5.65-2.64,26.87,26.87,0,0,0,4.05-3.11c1.13-1.06,2-1.91,2.64-2.54l1.32-1.32,1.32-.85a2.84,2.84,0,0,1,1.51-.47,3.83,3.83,0,0,1,2.82,1.13,3.58,3.58,0,0,1,1.13,2.64,2.41,2.41,0,0,1-.47,1.41,11,11,0,0,0-.85,1.41c-.37.51-.75,1.07-1.13,1.7a45.13,45.13,0,0,1-8.85,8.1,53.9,53.9,0,0,1-10.27,5.47A35.7,35.7,0,0,1,959.6,199a40.4,40.4,0,0,1-13.19-2.07,32,32,0,0,1-10.36-5.75,26.32,26.32,0,0,1-6.78-8.76,25.23,25.23,0,0,1-2.45-11.12,47.67,47.67,0,0,1,3.95-19.6,53.17,53.17,0,0,1,10-15.17,45.12,45.12,0,0,1,13.1-9.7,30.84,30.84,0,0,1,13.28-3.39,19.5,19.5,0,0,1,8.1,1.69,22.83,22.83,0,0,1,6.6,4.43,20.31,20.31,0,0,1,4.43,6.31,18,18,0,0,1,1.6,7.35,29.65,29.65,0,0,1-6.5,17.34A29.4,29.4,0,0,1,972,168q-5.94,3.1-14.8,3.11a17.72,17.72,0,0,1-4.33-.57,27.1,27.1,0,0,1-2.83-.56q0,8.48,5,12.62A17.83,17.83,0,0,0,966.77,186.71Zm-15.83-24.5a17.88,17.88,0,0,0,9.61-2.82,31.85,31.85,0,0,0,7.82-6.88,36.51,36.51,0,0,0,5.18-8.39,19.26,19.26,0,0,0,1.88-7.35q0-3.77-3.39-3.76a11.82,11.82,0,0,0-7.72,3.2,34.68,34.68,0,0,0-6.69,7.72,48.78,48.78,0,0,0-4.81,9.61A25.74,25.74,0,0,0,950.94,162.21Z"/><path class="cls-3" d="M112.78,202.54A68,68,0,0,1,97,200.65a44.14,44.14,0,0,1-14.23-6A34.17,34.17,0,0,1,72.36,184a28.84,28.84,0,0,1-4-15.55,35.67,35.67,0,0,1,2.82-14.51,48.31,48.31,0,0,1,7.07-11.49,49.75,49.75,0,0,1,9.23-8.67,102.77,102.77,0,0,1,9.33-6,62.8,62.8,0,0,1,7.44-3.68c2.08-.81,3.3-1.28,3.68-1.41a12,12,0,0,1-2.07-1,19.93,19.93,0,0,1-4.15-3.2,27.31,27.31,0,0,1-4.33-5.56,22,22,0,0,1-2.83-8.29q-14.32-1.32-21.39-5.65T66.05,87.78a17.65,17.65,0,0,1,2.73-9.23,38.79,38.79,0,0,1,6.5-8.11,42,42,0,0,1,7.63-5.84c2.58-1.5,4.55-2.26,5.94-2.26a1.48,1.48,0,0,1,1.32.57A2,2,0,0,1,90.54,64c0,.63-.56,1.73-1.69,3.29a9.61,9.61,0,0,0-1.7,5.75,14.58,14.58,0,0,0,2.64,8.39,25.19,25.19,0,0,0,7.35,6.88,39.36,39.36,0,0,1,8.57-10.93,63.16,63.16,0,0,1,12.44-8.86,65.6,65.6,0,0,1,14.6-5.84,58.15,58.15,0,0,1,15.08-2.07,35.39,35.39,0,0,1,9.51,1.22,27.45,27.45,0,0,1,7.73,3.39,16.7,16.7,0,0,1,5.18,5.28,13,13,0,0,1,1.89,6.88,14.6,14.6,0,0,1-3.77,9.42A34.79,34.79,0,0,1,157.53,95a79.36,79.36,0,0,1-17.05,6.22,120.15,120.15,0,0,1-22.43,3.3,30.35,30.35,0,0,0,.85,5.75,22.76,22.76,0,0,0,1.6,4.43,37.86,37.86,0,0,0,2.08,4c1-.12,2.19-.31,3.58-.56,1.13-.13,2.48-.25,4.05-.38s3.36-.19,5.37-.19q11.11,0,11.12,6.6,0,2.82-3.3,5.75a12.72,12.72,0,0,1-8.76,2.92,38.39,38.39,0,0,1-6.22-.47,28.41,28.41,0,0,1-4.9-1.23,21,21,0,0,1-4.15-1.88A59.68,59.68,0,0,0,106.94,139a55,55,0,0,0-8.58,12.07,34.84,34.84,0,0,0-3.86,16.77q0,11.87,6.41,17.61t18.28,5.75a35.65,35.65,0,0,0,19.22-5.65,50.36,50.36,0,0,0,15.45-15.45,3.62,3.62,0,0,1,.94-1.32,6.43,6.43,0,0,1,1.13-.85,3.17,3.17,0,0,1,1.7-.47,3.83,3.83,0,0,1,2.82,1.13,3.58,3.58,0,0,1,1.13,2.64,8.52,8.52,0,0,1-.75,2.82l-.75,1.51a56.75,56.75,0,0,1-7.54,9.89,53.84,53.84,0,0,1-10.46,8.58,57.54,57.54,0,0,1-13.28,6.12A52.25,52.25,0,0,1,112.78,202.54ZM147.26,68.75a21.69,21.69,0,0,0-8.67,1.88,31.36,31.36,0,0,0-8.1,5.18,38.21,38.21,0,0,0-6.78,7.92,35.57,35.57,0,0,0-4.52,10.08,79.61,79.61,0,0,0,15-1.32,48.48,48.48,0,0,0,12-3.77,23.27,23.27,0,0,0,7.92-5.84,11.5,11.5,0,0,0,2.82-7.54,5.46,5.46,0,0,0-2.82-4.8A12.48,12.48,0,0,0,147.26,68.75Z"/><path class="cls-3" d="M176.28,144.5a138.28,138.28,0,0,1-8.95,19.31q-4.43,7.63-7.44,12a18.25,18.25,0,0,1-1.42,1.7,3.54,3.54,0,0,1-2.73,1.13,4.23,4.23,0,0,1-4-4,4.42,4.42,0,0,1,.85-2.54,17.26,17.26,0,0,0,1.23-2q2.63-3.76,7.44-12a104.27,104.27,0,0,0,8.95-21.57,12.88,12.88,0,0,1,3.49-5.47,26.16,26.16,0,0,1,5.65-4.14,30.26,30.26,0,0,1,6.5-2.64,23.33,23.33,0,0,1,6.22-.94q7,0,9.61,7.16t3.39,24.12a45.83,45.83,0,0,0,7.07-12.63c1.44-4.15,2.17-7.1,2.17-8.86,0-1.13.84-2.29,2.54-3.48a34.14,34.14,0,0,1,5.75-3.21,47.09,47.09,0,0,1,6.22-2.26,19.23,19.23,0,0,1,3.95-.84q3.58,0,3.58,3.39,0,1.87-2.73,6.59a92.22,92.22,0,0,1-7.16,10.37q-4.42,5.66-9.89,11.4A84,84,0,0,1,205.49,165q.75,11.11,4.24,16.2a10.92,10.92,0,0,0,9.51,5.09,13.25,13.25,0,0,0,7.45-2.45,33,33,0,0,0,6.5-5.65,42,42,0,0,0,6.22-8.1,3.62,3.62,0,0,1,.94-1.32,6.43,6.43,0,0,1,1.13-.85,3.17,3.17,0,0,1,1.7-.47,4,4,0,0,1,2.73,1.13,3.53,3.53,0,0,1,.94,4q-.28.66-.66,1.41c-.25.51-.5,1.07-.75,1.7a66.15,66.15,0,0,1-9.24,11.68,53.57,53.57,0,0,1-10.27,7.92A24.58,24.58,0,0,1,213,199a33.46,33.46,0,0,1-17.43-4.43q-7.46-4.42-10.46-15.17c-2.14,2.14-4.5,4.33-7.07,6.6s-5.15,4.36-7.72,6.31a53.9,53.9,0,0,1-7.45,4.8,13.8,13.8,0,0,1-6.22,1.89,3,3,0,0,1-2-.57,2.93,2.93,0,0,1-.65-2.26,11.05,11.05,0,0,1,.84-3.58,29.26,29.26,0,0,1,2.26-4.62,32.57,32.57,0,0,1,3-4.24,6.49,6.49,0,0,1,3.11-2.26,33.18,33.18,0,0,0,10.46-4.52,118,118,0,0,0,9.7-6.78q-.94-7.92-1.51-13.19c-.37-3.52-.69-6.38-.94-8.58a20,20,0,0,0-.94-4.71c-.38-.94-.88-1.41-1.51-1.41C177.66,142.24,176.91,143,176.28,144.5Z"/><path class="cls-3" d="M333.06,175.78a31.19,31.19,0,0,1-8.1,8.1,42.89,42.89,0,0,1-10.27,5.66A38.8,38.8,0,0,1,300.27,192c-.88,0-1.82,0-2.82-.1s-2-.15-3-.28A37,37,0,0,1,285,197a29.34,29.34,0,0,1-10.74,2,21,21,0,0,1-8-1.42,25.23,25.23,0,0,1-5.94-3.29,23,23,0,0,1-4.9-4.9,89.61,89.61,0,0,0-3.48,11c-1.2,4.59-2.3,9.45-3.3,14.61s-1.82,10.23-2.45,15.26a106.46,106.46,0,0,0-.94,13c0,2.76-1.2,4.15-3.58,4.15a26.47,26.47,0,0,1-5.65-.66,18.73,18.73,0,0,1-5.56-2.17,12.73,12.73,0,0,1-4.24-4.15,11.59,11.59,0,0,1-1.7-6.4,66.63,66.63,0,0,1,1.32-10.65q1.32-7.26,3.39-16.68t4.9-20.25q2.84-10.85,5.75-21.49t5.84-20.06q2.92-9.42,5.37-16a5.32,5.32,0,0,1,5.28-3.58,12.48,12.48,0,0,1,5.37,1.7q3.28,1.7,7.63,8.47a73.22,73.22,0,0,1,8.1-6,62.48,62.48,0,0,1,7.82-4.14,20.86,20.86,0,0,1,8.57-1.88,19.7,19.7,0,0,1,9.24,2.16,23.75,23.75,0,0,1,7.06,5.56,27.32,27.32,0,0,1,4.62,7.54,21.76,21.76,0,0,1,1.7,8.29A53.26,53.26,0,0,1,313,164.66a64.81,64.81,0,0,1-9.89,18.09,5.55,5.55,0,0,0,1.69.19,19.52,19.52,0,0,0,8.86-2,37.47,37.47,0,0,0,7-4.43,51,51,0,0,0,6.41-6.4,3.62,3.62,0,0,1,.94-1.32,6.43,6.43,0,0,1,1.13-.85,3.17,3.17,0,0,1,1.7-.47,4,4,0,0,1,2.73,1.13,3.47,3.47,0,0,1,1.23,2.64,3.52,3.52,0,0,1-.29,1.41q-.29.66-.66,1.41C333.56,174.59,333.31,175.15,333.06,175.78Zm-72.74-1.7a18.49,18.49,0,0,0,2.83,10q2.82,4.53,7.54,4.52,3,0,6.22-2.82a4.52,4.52,0,0,1-1-2.64,5.77,5.77,0,0,1,1-3.11,15.5,15.5,0,0,1,2.45-2.92,17.41,17.41,0,0,1,3-2.26,5.65,5.65,0,0,1,2.74-.94,83,83,0,0,0,3.39-7.82q1.5-4.05,2.54-7.92t1.61-7.16a34.54,34.54,0,0,0,.56-5.56c0-3.39-.54-5.77-1.6-7.16a5.7,5.7,0,0,0-4.81-2.07q-3.76,0-8.29,4a59.83,59.83,0,0,0-8.67,9.89,64.49,64.49,0,0,0-6.87,12.35A30.26,30.26,0,0,0,260.32,174.08Z"/><path class="cls-3" d="M374.7,179.74a6.63,6.63,0,0,0,1.7,4.9,6.11,6.11,0,0,0,4.52,1.69,13.28,13.28,0,0,0,7.45-2.45,33,33,0,0,0,6.5-5.65,42,42,0,0,0,6.22-8.1,3.5,3.5,0,0,1,.94-1.32,6.07,6.07,0,0,1,1.13-.85,3.14,3.14,0,0,1,1.69-.47,4,4,0,0,1,2.74,1.13,3.53,3.53,0,0,1,.94,4q-.28.66-.66,1.41c-.25.51-.5,1.07-.75,1.7a66.62,66.62,0,0,1-9.24,11.68,53.57,53.57,0,0,1-10.27,7.92A24.61,24.61,0,0,1,374.7,199a29.77,29.77,0,0,1-9.79-1.51,25.05,25.05,0,0,1-7.54-4,17.52,17.52,0,0,1-4.9-5.94,16.21,16.21,0,0,1-1.7-7.35,35.53,35.53,0,0,1,1.89-11.68,92.57,92.57,0,0,1,4-10q2.16-4.51,4.05-8a13,13,0,0,0,1.88-5.75,2.42,2.42,0,0,0-1.79-2.26,30.08,30.08,0,0,0-3.86-1.32,51.84,51.84,0,0,0-5.65-.94A193.72,193.72,0,0,1,341,162.68q-4.89,8.77-7.91,13.1a16.3,16.3,0,0,1-1.41,1.7,3.57,3.57,0,0,1-2.74,1.13,4.21,4.21,0,0,1-4-4,4.35,4.35,0,0,1,.85-2.54,18.42,18.42,0,0,0,1.22-2q2.64-3.76,7.44-12t8.95-21.57a11.85,11.85,0,0,1-3.2-3.4,20.15,20.15,0,0,1-2.07-4.33,18.46,18.46,0,0,1-.94-6.22,14.14,14.14,0,0,1,1-5.37,15,15,0,0,1,2.73-4.43,16.14,16.14,0,0,1,3.58-3,7,7,0,0,1,3.58-1.13,8.85,8.85,0,0,1,4,1,20,20,0,0,1,3.77,2.45,13.66,13.66,0,0,1,2.83,3.21,6.11,6.11,0,0,1,1.13,3.11,13.79,13.79,0,0,1-1.23,6.21,10.65,10.65,0,0,0-1.22,4.71,3.15,3.15,0,0,0,2.26,3,14.73,14.73,0,0,0,5.65.94,32.23,32.23,0,0,0,5.37-.37c1.45-.26,2.74-.54,3.87-.85s2.19-.6,3.2-.85a13.17,13.17,0,0,1,3.2-.38,6.87,6.87,0,0,1,5.56,2.64,9.81,9.81,0,0,1,2.17,6.41,18.07,18.07,0,0,1-2.17,7.63c-1.44,2.95-3.05,6.19-4.8,9.7a115.75,115.75,0,0,0-4.81,11A32.24,32.24,0,0,0,374.7,179.74Z"/><path class="cls-3" d="M474.39,175.78A48.08,48.08,0,0,1,464,187.46a59.94,59.94,0,0,1-13.09,7.92A44.42,44.42,0,0,1,432.36,199a40.4,40.4,0,0,1-13.19-2.07,32,32,0,0,1-10.36-5.75,26.32,26.32,0,0,1-6.78-8.76,25.23,25.23,0,0,1-2.45-11.12,47.67,47.67,0,0,1,3.95-19.6,53.17,53.17,0,0,1,10-15.17,45.12,45.12,0,0,1,13.1-9.7,30.84,30.84,0,0,1,13.28-3.39,19.5,19.5,0,0,1,8.1,1.69,22.83,22.83,0,0,1,6.6,4.43,20.31,20.31,0,0,1,4.43,6.31,18,18,0,0,1,1.6,7.35,29.65,29.65,0,0,1-6.5,17.34,29.4,29.4,0,0,1-9.42,7.44q-5.94,3.1-14.8,3.11a17.72,17.72,0,0,1-4.33-.57,27.1,27.1,0,0,1-2.83-.56q0,8.48,4.9,13a16.62,16.62,0,0,0,11.69,4.52,26.65,26.65,0,0,0,12.06-2.73,46.35,46.35,0,0,0,9.23-5.93,39.12,39.12,0,0,0,7.73-8.67,3.5,3.5,0,0,1,.94-1.32,6.43,6.43,0,0,1,1.13-.85,3.14,3.14,0,0,1,1.69-.47,4,4,0,0,1,2.74,1.13,3.53,3.53,0,0,1,.94,4q-.29.66-.66,1.41C474.89,174.59,474.64,175.15,474.39,175.78ZM423.7,162.21a17.88,17.88,0,0,0,9.61-2.82,31.85,31.85,0,0,0,7.82-6.88,36.51,36.51,0,0,0,5.18-8.39,19.26,19.26,0,0,0,1.88-7.35q0-3.77-3.39-3.76a11.87,11.87,0,0,0-7.73,3.2,34.9,34.9,0,0,0-6.68,7.72,48.78,48.78,0,0,0-4.81,9.61A25.74,25.74,0,0,0,423.7,162.21Z"/><path class="cls-3" d="M551.46,175.78A47.53,47.53,0,0,1,539.21,188a68.11,68.11,0,0,1-16.49,8.48q-10.08,3.77-24.59,3.77a32.43,32.43,0,0,1-13.19-2.74,40.16,40.16,0,0,1-10.84-6.87,35.25,35.25,0,0,1-7.35-9,18.79,18.79,0,0,1-2.73-9,9.47,9.47,0,0,1,2.83-7,27.94,27.94,0,0,1,6.22-4.71,42.34,42.34,0,0,1,9-3.39q1.13-1.87,3-4.71,1.5-2.44,3.95-6.12t5.66-8.77q6.58-10,11.3-13.85t8.29-3.86a6.57,6.57,0,0,1,3.11.85,18.27,18.27,0,0,1,3,2,13,13,0,0,1,2.26,2.26,3.47,3.47,0,0,1,.85,1.88,5.35,5.35,0,0,1-.76,2.36c-.5.94-1,1.95-1.6,3a28.43,28.43,0,0,0-1.51,3.4,10.53,10.53,0,0,0-.66,3.67,37.21,37.21,0,0,0,1.14,9.8,81.52,81.52,0,0,0,2.54,7.82q1.41,3.67,2.54,7.16a25.12,25.12,0,0,1,1.13,7.82,25.55,25.55,0,0,1-.66,6.31,22.29,22.29,0,0,1-1.6,4.43,19.39,19.39,0,0,1-2.07,3.58,37.81,37.81,0,0,0,9.89-4.24,56,56,0,0,0,7.45-5.37,50.32,50.32,0,0,0,6-6.78,3.5,3.5,0,0,1,.94-1.32,6.43,6.43,0,0,1,1.13-.85,3.14,3.14,0,0,1,1.69-.47,4,4,0,0,1,2.74,1.13,3.53,3.53,0,0,1,.94,4q-.29.66-.66,1.41C552,174.59,551.71,175.15,551.46,175.78Zm-53.14-29q-4,6-7,10.93-2.64,4.34-4.8,8.1t-2.17,4.71a66.86,66.86,0,0,0,.47,8,30.38,30.38,0,0,0,1.6,6.88,14.3,14.3,0,0,0,2.83,4.81,5.73,5.73,0,0,0,4.34,1.79c2.88,0,5.37-1.57,7.44-4.72a19.69,19.69,0,0,0,3.11-11.11,33,33,0,0,0-.94-7.54c-.63-2.64-1.29-5.24-2-7.82s-1.35-5.09-2-7.54A26.42,26.42,0,0,1,498.32,146.76Z"/><path class="cls-3" d="M628.53,175.78A47.53,47.53,0,0,1,616.28,188a68.11,68.11,0,0,1-16.49,8.48q-10.08,3.77-24.59,3.77A32.43,32.43,0,0,1,562,197.54a40.16,40.16,0,0,1-10.84-6.87,35.25,35.25,0,0,1-7.35-9,18.79,18.79,0,0,1-2.73-9,9.47,9.47,0,0,1,2.83-7,27.94,27.94,0,0,1,6.22-4.71,42.34,42.34,0,0,1,9-3.39c.76-1.25,1.76-2.82,3-4.71q1.5-2.44,3.95-6.12t5.66-8.77q6.59-10,11.3-13.85t8.29-3.86a6.57,6.57,0,0,1,3.11.85,18.27,18.27,0,0,1,3,2,13,13,0,0,1,2.26,2.26,3.39,3.39,0,0,1,.85,1.88,5.35,5.35,0,0,1-.76,2.36c-.5.94-1,1.95-1.6,3a26.88,26.88,0,0,0-1.5,3.4,10.32,10.32,0,0,0-.67,3.67,37.21,37.21,0,0,0,1.14,9.8,81.52,81.52,0,0,0,2.54,7.82q1.41,3.67,2.54,7.16a25.12,25.12,0,0,1,1.13,7.82,25.55,25.55,0,0,1-.66,6.31,22.29,22.29,0,0,1-1.6,4.43,19.39,19.39,0,0,1-2.07,3.58,37.81,37.81,0,0,0,9.89-4.24,56,56,0,0,0,7.45-5.37,50.32,50.32,0,0,0,6-6.78,3.62,3.62,0,0,1,.94-1.32,6.43,6.43,0,0,1,1.13-.85,3.15,3.15,0,0,1,1.7-.47,4,4,0,0,1,2.73,1.13,3.53,3.53,0,0,1,.94,4q-.29.66-.66,1.41C629,174.59,628.78,175.15,628.53,175.78Zm-53.14-29q-4,6-7,10.93-2.64,4.34-4.8,8.1t-2.17,4.71a66.86,66.86,0,0,0,.47,8,29.84,29.84,0,0,0,1.61,6.88,14.13,14.13,0,0,0,2.82,4.81,5.73,5.73,0,0,0,4.34,1.79c2.88,0,5.37-1.57,7.44-4.72a19.69,19.69,0,0,0,3.11-11.11,33,33,0,0,0-.94-7.54c-.63-2.64-1.29-5.24-2-7.82s-1.35-5.09-2-7.54A26.42,26.42,0,0,1,575.39,146.76Z"/><path class="cls-3" d="M629.47,183.13a14.54,14.54,0,0,1,3.67.47,17.42,17.42,0,0,0,4.43.47A22.49,22.49,0,0,0,654.15,177,67.07,67.07,0,0,0,666.4,159.1a151.83,151.83,0,0,0,9.05-23.65q3.76-12.81,7-24.3,2.82-10.74,6.59-16.77a53.34,53.34,0,0,1,7-9.24,17.1,17.1,0,0,1,7.91-4.52q-4.33-2.27-13.66-4.43A91.55,91.55,0,0,0,669.61,74c-5.66,0-10.27,1.29-13.86,3.87a12.22,12.22,0,0,0-5.37,10.46,16.61,16.61,0,0,0,1.42,7.25,20.67,20.67,0,0,0,3.2,4.9q1.79,2,3.2,3.3a3.53,3.53,0,0,1,1.42,2.26q0,3.59-4,3.58a26.15,26.15,0,0,1-8.57-1.7A34.61,34.61,0,0,1,638,103a31.33,31.33,0,0,1-7.35-7.63,17.48,17.48,0,0,1-3-10.08q0-7.35,3.77-12.06a28.1,28.1,0,0,1,9.33-7.54,42.5,42.5,0,0,1,12.06-4,69.54,69.54,0,0,1,12-1.13,137.2,137.2,0,0,1,16.95.94q7.55.94,15.27,2.16t16.58,2.17a200.49,200.49,0,0,0,20.92.94,57.24,57.24,0,0,0,11.68-.94,29.57,29.57,0,0,0,6.78-2.17,23,23,0,0,0,3.68-2.16,3.71,3.71,0,0,1,2.17-.94,3.79,3.79,0,0,1,2.82,1.13,3.58,3.58,0,0,1,1.13,2.63c0,.88-.72,2.52-2.16,4.9a39.13,39.13,0,0,1-5.85,7.26,47,47,0,0,1-8.29,6.59,17.84,17.84,0,0,1-9.7,2.92,70.6,70.6,0,0,1-8.48-.47c-2.64-.31-5-.66-7-1q-3.39-.75-6.41-1.7a7,7,0,0,0-1.88,1.7,20.67,20.67,0,0,0-2.64,4.61,78.31,78.31,0,0,0-3.3,9q-1.8,5.74-3.67,14.79-1.71,7.55-3.3,16.87t-4,18.84a167.75,167.75,0,0,1-5.75,18.56A70.77,70.77,0,0,1,682,183.41a39.78,39.78,0,0,1-12.06,11.31A31.86,31.86,0,0,1,653.21,199a44.42,44.42,0,0,1-10.65-1.23,39.16,39.16,0,0,1-8.66-3.11,21.16,21.16,0,0,1-5.75-4.05c-1.38-1.44-2.07-2.73-2.07-3.86a3.13,3.13,0,0,1,3.39-3.58Z"/><path class="cls-3" d="M806,175.78a66.11,66.11,0,0,1-9.23,11.68,53.57,53.57,0,0,1-10.27,7.92A24.61,24.61,0,0,1,773.62,199a21.85,21.85,0,0,1-13.38-4.05q-5.46-4-6.4-12a49.67,49.67,0,0,1-8.11,8.1,50.82,50.82,0,0,1-8.48,5.47A21.75,21.75,0,0,1,727.08,199a19,19,0,0,1-7.26-1.42,17.33,17.33,0,0,1-6-4,20,20,0,0,1-4-6.22,20.24,20.24,0,0,1-1.51-7.91,55.42,55.42,0,0,1,3.87-20.16,70.48,70.48,0,0,1,10.08-18,55,55,0,0,1,13.94-12.91,29,29,0,0,1,25.06-3.48,27.56,27.56,0,0,1,6.41,3.11,21.13,21.13,0,0,1,4.52,4.33,23,23,0,0,1,4.43.47,16.38,16.38,0,0,1,4.34,1.51,10,10,0,0,1,3.29,2.73,6.56,6.56,0,0,1,1.32,4.15,23.3,23.3,0,0,1-1.69,6.78L780,158.35q-2.09,5.75-3.77,11.87a41.35,41.35,0,0,0-1.7,10.84,5.29,5.29,0,0,0,1.42,3.77,5,5,0,0,0,3.86,1.5,13.25,13.25,0,0,0,7.44-2.45,32.72,32.72,0,0,0,6.5-5.65,41.24,41.24,0,0,0,6.22-8.1,3.74,3.74,0,0,1,.94-1.32,6.43,6.43,0,0,1,1.13-.85,3.2,3.2,0,0,1,1.7-.47,3.92,3.92,0,0,1,2.73,1.13,3.47,3.47,0,0,1,1.23,2.64,3.69,3.69,0,0,1-.28,1.41q-.29.66-.66,1.41C806.53,174.59,806.28,175.15,806,175.78Zm-43.71-33.35c0-2.76-.66-4.81-2-6.13a6.54,6.54,0,0,0-4.81-2q-4.14,0-8.48,4.34a47.06,47.06,0,0,0-7.82,10.65A72.36,72.36,0,0,0,733.48,163a45.67,45.67,0,0,0-2.26,13.19q0,8.47,5.47,8.48,3.39,0,7.82-4.53A59.58,59.58,0,0,0,752.89,169a85.39,85.39,0,0,0,6.69-13.85A37,37,0,0,0,762.32,142.43Z"/><path class="cls-3" d="M883.1,175.78A47.22,47.22,0,0,1,870.85,188a68.11,68.11,0,0,1-16.49,8.48q-10.08,3.77-24.59,3.77a32.47,32.47,0,0,1-13.19-2.74,40.1,40.1,0,0,1-10.83-6.87,35.25,35.25,0,0,1-7.35-9,18.79,18.79,0,0,1-2.73-9,9.5,9.5,0,0,1,2.82-7,28.41,28.41,0,0,1,6.22-4.71,42.43,42.43,0,0,1,9-3.39q1.13-1.87,3-4.71c1-1.63,2.32-3.67,4-6.12s3.51-5.37,5.65-8.77q6.6-10,11.31-13.85t8.29-3.86a6.6,6.6,0,0,1,3.11.85,18.61,18.61,0,0,1,3,2,12.35,12.35,0,0,1,2.26,2.26,3.39,3.39,0,0,1,.85,1.88,5.32,5.32,0,0,1-.75,2.36l-1.6,3a26.92,26.92,0,0,0-1.51,3.4,10.53,10.53,0,0,0-.66,3.67,37.67,37.67,0,0,0,1.13,9.8,81.52,81.52,0,0,0,2.54,7.82c.95,2.45,1.79,4.84,2.55,7.16a28.83,28.83,0,0,1,.47,14.13,22.94,22.94,0,0,1-1.6,4.43,19.39,19.39,0,0,1-2.07,3.58,37.81,37.81,0,0,0,9.89-4.24,55.82,55.82,0,0,0,7.44-5.37,50.32,50.32,0,0,0,6-6.78,3.62,3.62,0,0,1,.94-1.32,6.43,6.43,0,0,1,1.13-.85,3.2,3.2,0,0,1,1.7-.47,4,4,0,0,1,2.73,1.13,3.47,3.47,0,0,1,1.23,2.64,3.52,3.52,0,0,1-.29,1.41c-.18.44-.4.91-.65,1.41S883.35,175.15,883.1,175.78Zm-53.14-29q-4,6-7,10.93-2.64,4.34-4.8,8.1T816,170.5a64.85,64.85,0,0,0,.47,8,29.86,29.86,0,0,0,1.6,6.88,14.14,14.14,0,0,0,2.83,4.81,5.71,5.71,0,0,0,4.33,1.79q4.34,0,7.44-4.72a19.62,19.62,0,0,0,3.11-11.11,32.46,32.46,0,0,0-.94-7.54c-.63-2.64-1.29-5.24-2-7.82s-1.35-5.09-2-7.54A26.42,26.42,0,0,1,830,146.76Z"/><path class="cls-3" d="M908.16,186.33a13.28,13.28,0,0,0,7.45-2.45,33,33,0,0,0,6.5-5.65,42,42,0,0,0,6.22-8.1,3.5,3.5,0,0,1,.94-1.32,6.43,6.43,0,0,1,1.13-.85,3.14,3.14,0,0,1,1.69-.47,4,4,0,0,1,2.74,1.13,3.53,3.53,0,0,1,.94,4q-.28.66-.66,1.41c-.25.51-.5,1.07-.75,1.7a66.62,66.62,0,0,1-9.24,11.68,53.57,53.57,0,0,1-10.27,7.92A24.58,24.58,0,0,1,901.94,199a29.72,29.72,0,0,1-17.8-6.22,26.85,26.85,0,0,1-6.41-7.16,16.93,16.93,0,0,1-2.54-9.05,61.43,61.43,0,0,1,.94-9.7q.95-5.75,2.64-12.53T882.63,140q2.16-7.54,4.62-14.89h-5.09c-1,0-1.51-.56-1.51-1.69a8,8,0,0,1,1.79-4.06q1.78-2.53,3.86-2.54h3.77q2.83-7.72,5.56-14.23a95.12,95.12,0,0,1,5.37-11A7.3,7.3,0,0,1,903.07,89a4.77,4.77,0,0,1,3-1,10.22,10.22,0,0,1,4.62,1.32,29.83,29.83,0,0,1,4.8,3.11,23.58,23.58,0,0,1,3.77,3.67,5.65,5.65,0,0,1,1.51,3.2q0,1.32-1.79,5.94t-4.43,11.59h12.62c1,0,1.51.56,1.51,1.7a4.5,4.5,0,0,1-.56,1.88,12.46,12.46,0,0,1-3.21,4,3,3,0,0,1-1.88.75H911.37q-2.26,6.22-4.62,13.19T902.51,152q-1.89,6.78-3.11,13.09a60.11,60.11,0,0,0-1.22,11.4,9.22,9.22,0,0,0,2.92,7.07A10,10,0,0,0,908.16,186.33Z"/><path class="cls-3" d="M966.77,186.71a23.65,23.65,0,0,0,7.63-1.13,26,26,0,0,0,5.65-2.64,26.87,26.87,0,0,0,4.05-3.11c1.13-1.06,2-1.91,2.64-2.54l1.32-1.32,1.32-.85a2.84,2.84,0,0,1,1.51-.47,3.83,3.83,0,0,1,2.82,1.13,3.58,3.58,0,0,1,1.13,2.64,2.41,2.41,0,0,1-.47,1.41,11,11,0,0,0-.85,1.41c-.37.51-.75,1.07-1.13,1.7a45.13,45.13,0,0,1-8.85,8.1,53.9,53.9,0,0,1-10.27,5.47A35.7,35.7,0,0,1,959.6,199a40.4,40.4,0,0,1-13.19-2.07,32,32,0,0,1-10.36-5.75,26.32,26.32,0,0,1-6.78-8.76,25.23,25.23,0,0,1-2.45-11.12,47.67,47.67,0,0,1,3.95-19.6,53.17,53.17,0,0,1,10-15.17,45.12,45.12,0,0,1,13.1-9.7,30.84,30.84,0,0,1,13.28-3.39,19.5,19.5,0,0,1,8.1,1.69,22.83,22.83,0,0,1,6.6,4.43,20.31,20.31,0,0,1,4.43,6.31,18,18,0,0,1,1.6,7.35,29.65,29.65,0,0,1-6.5,17.34A29.4,29.4,0,0,1,972,168q-5.94,3.1-14.8,3.11a17.72,17.72,0,0,1-4.33-.57,27.1,27.1,0,0,1-2.83-.56q0,8.48,5,12.62A17.83,17.83,0,0,0,966.77,186.71Zm-15.83-24.5a17.88,17.88,0,0,0,9.61-2.82,31.85,31.85,0,0,0,7.82-6.88,36.51,36.51,0,0,0,5.18-8.39,19.26,19.26,0,0,0,1.88-7.35q0-3.77-3.39-3.76a11.82,11.82,0,0,0-7.72,3.2,34.68,34.68,0,0,0-6.69,7.72,48.78,48.78,0,0,0-4.81,9.61A25.74,25.74,0,0,0,950.94,162.21Z"/><path class="cls-4" d="M112.78,202.54A68,68,0,0,1,97,200.65a44.14,44.14,0,0,1-14.23-6A34.17,34.17,0,0,1,72.36,184a28.84,28.84,0,0,1-4-15.55,35.67,35.67,0,0,1,2.82-14.51,48.31,48.31,0,0,1,7.07-11.49,49.75,49.75,0,0,1,9.23-8.67,102.77,102.77,0,0,1,9.33-6,62.8,62.8,0,0,1,7.44-3.68c2.08-.81,3.3-1.28,3.68-1.41a12,12,0,0,1-2.07-1,19.93,19.93,0,0,1-4.15-3.2,27.31,27.31,0,0,1-4.33-5.56,22,22,0,0,1-2.83-8.29q-14.32-1.32-21.39-5.65T66.05,87.78a17.65,17.65,0,0,1,2.73-9.23,38.79,38.79,0,0,1,6.5-8.11,42,42,0,0,1,7.63-5.84c2.58-1.5,4.55-2.26,5.94-2.26a1.48,1.48,0,0,1,1.32.57A2,2,0,0,1,90.54,64c0,.63-.56,1.73-1.69,3.29a9.61,9.61,0,0,0-1.7,5.75,14.58,14.58,0,0,0,2.64,8.39,25.19,25.19,0,0,0,7.35,6.88,39.36,39.36,0,0,1,8.57-10.93,63.16,63.16,0,0,1,12.44-8.86,65.6,65.6,0,0,1,14.6-5.84,58.15,58.15,0,0,1,15.08-2.07,35.39,35.39,0,0,1,9.51,1.22,27.45,27.45,0,0,1,7.73,3.39,16.7,16.7,0,0,1,5.18,5.28,13,13,0,0,1,1.89,6.88,14.6,14.6,0,0,1-3.77,9.42A34.79,34.79,0,0,1,157.53,95a79.36,79.36,0,0,1-17.05,6.22,120.15,120.15,0,0,1-22.43,3.3,30.35,30.35,0,0,0,.85,5.75,22.76,22.76,0,0,0,1.6,4.43,37.86,37.86,0,0,0,2.08,4c1-.12,2.19-.31,3.58-.56,1.13-.13,2.48-.25,4.05-.38s3.36-.19,5.37-.19q11.11,0,11.12,6.6,0,2.82-3.3,5.75a12.72,12.72,0,0,1-8.76,2.92,38.39,38.39,0,0,1-6.22-.47,28.41,28.41,0,0,1-4.9-1.23,21,21,0,0,1-4.15-1.88A59.68,59.68,0,0,0,106.94,139a55,55,0,0,0-8.58,12.07,34.84,34.84,0,0,0-3.86,16.77q0,11.87,6.41,17.61t18.28,5.75a35.65,35.65,0,0,0,19.22-5.65,50.36,50.36,0,0,0,15.45-15.45,3.62,3.62,0,0,1,.94-1.32,6.43,6.43,0,0,1,1.13-.85,3.17,3.17,0,0,1,1.7-.47,3.83,3.83,0,0,1,2.82,1.13,3.58,3.58,0,0,1,1.13,2.64,8.52,8.52,0,0,1-.75,2.82l-.75,1.51a56.75,56.75,0,0,1-7.54,9.89,53.84,53.84,0,0,1-10.46,8.58,57.54,57.54,0,0,1-13.28,6.12A52.25,52.25,0,0,1,112.78,202.54ZM147.26,68.75a21.69,21.69,0,0,0-8.67,1.88,31.36,31.36,0,0,0-8.1,5.18,38.21,38.21,0,0,0-6.78,7.92,35.57,35.57,0,0,0-4.52,10.08,79.61,79.61,0,0,0,15-1.32,48.48,48.48,0,0,0,12-3.77,23.27,23.27,0,0,0,7.92-5.84,11.5,11.5,0,0,0,2.82-7.54,5.46,5.46,0,0,0-2.82-4.8A12.48,12.48,0,0,0,147.26,68.75Z"/><path class="cls-4" d="M176.28,144.5a138.28,138.28,0,0,1-8.95,19.31q-4.43,7.63-7.44,12a18.25,18.25,0,0,1-1.42,1.7,3.54,3.54,0,0,1-2.73,1.13,4.23,4.23,0,0,1-4-4,4.42,4.42,0,0,1,.85-2.54,17.26,17.26,0,0,0,1.23-2q2.63-3.76,7.44-12a104.27,104.27,0,0,0,8.95-21.57,12.88,12.88,0,0,1,3.49-5.47,26.16,26.16,0,0,1,5.65-4.14,30.26,30.26,0,0,1,6.5-2.64,23.33,23.33,0,0,1,6.22-.94q7,0,9.61,7.16t3.39,24.12a45.83,45.83,0,0,0,7.07-12.63c1.44-4.15,2.17-7.1,2.17-8.86,0-1.13.84-2.29,2.54-3.48a34.14,34.14,0,0,1,5.75-3.21,47.09,47.09,0,0,1,6.22-2.26,19.23,19.23,0,0,1,3.95-.84q3.58,0,3.58,3.39,0,1.87-2.73,6.59a92.22,92.22,0,0,1-7.16,10.37q-4.42,5.66-9.89,11.4A84,84,0,0,1,205.49,165q.75,11.11,4.24,16.2a10.92,10.92,0,0,0,9.51,5.09,13.25,13.25,0,0,0,7.45-2.45,33,33,0,0,0,6.5-5.65,42,42,0,0,0,6.22-8.1,3.62,3.62,0,0,1,.94-1.32,6.43,6.43,0,0,1,1.13-.85,3.17,3.17,0,0,1,1.7-.47,4,4,0,0,1,2.73,1.13,3.53,3.53,0,0,1,.94,4q-.28.66-.66,1.41c-.25.51-.5,1.07-.75,1.7a66.15,66.15,0,0,1-9.24,11.68,53.57,53.57,0,0,1-10.27,7.92A24.58,24.58,0,0,1,213,199a33.46,33.46,0,0,1-17.43-4.43q-7.46-4.42-10.46-15.17c-2.14,2.14-4.5,4.33-7.07,6.6s-5.15,4.36-7.72,6.31a53.9,53.9,0,0,1-7.45,4.8,13.8,13.8,0,0,1-6.22,1.89,3,3,0,0,1-2-.57,2.93,2.93,0,0,1-.65-2.26,11.05,11.05,0,0,1,.84-3.58,29.26,29.26,0,0,1,2.26-4.62,32.57,32.57,0,0,1,3-4.24,6.49,6.49,0,0,1,3.11-2.26,33.18,33.18,0,0,0,10.46-4.52,118,118,0,0,0,9.7-6.78q-.94-7.92-1.51-13.19c-.37-3.52-.69-6.38-.94-8.58a20,20,0,0,0-.94-4.71c-.38-.94-.88-1.41-1.51-1.41C177.66,142.24,176.91,143,176.28,144.5Z"/><path class="cls-4" d="M333.06,175.78a31.19,31.19,0,0,1-8.1,8.1,42.89,42.89,0,0,1-10.27,5.66A38.8,38.8,0,0,1,300.27,192c-.88,0-1.82,0-2.82-.1s-2-.15-3-.28A37,37,0,0,1,285,197a29.34,29.34,0,0,1-10.74,2,21,21,0,0,1-8-1.42,25.23,25.23,0,0,1-5.94-3.29,23,23,0,0,1-4.9-4.9,89.61,89.61,0,0,0-3.48,11c-1.2,4.59-2.3,9.45-3.3,14.61s-1.82,10.23-2.45,15.26a106.46,106.46,0,0,0-.94,13c0,2.76-1.2,4.15-3.58,4.15a26.47,26.47,0,0,1-5.65-.66,18.73,18.73,0,0,1-5.56-2.17,12.73,12.73,0,0,1-4.24-4.15,11.59,11.59,0,0,1-1.7-6.4,66.63,66.63,0,0,1,1.32-10.65q1.32-7.26,3.39-16.68t4.9-20.25q2.84-10.85,5.75-21.49t5.84-20.06q2.92-9.42,5.37-16a5.32,5.32,0,0,1,5.28-3.58,12.48,12.48,0,0,1,5.37,1.7q3.28,1.7,7.63,8.47a73.22,73.22,0,0,1,8.1-6,62.48,62.48,0,0,1,7.82-4.14,20.86,20.86,0,0,1,8.57-1.88,19.7,19.7,0,0,1,9.24,2.16,23.75,23.75,0,0,1,7.06,5.56,27.32,27.32,0,0,1,4.62,7.54,21.76,21.76,0,0,1,1.7,8.29A53.26,53.26,0,0,1,313,164.66a64.81,64.81,0,0,1-9.89,18.09,5.55,5.55,0,0,0,1.69.19,19.52,19.52,0,0,0,8.86-2,37.47,37.47,0,0,0,7-4.43,51,51,0,0,0,6.41-6.4,3.62,3.62,0,0,1,.94-1.32,6.43,6.43,0,0,1,1.13-.85,3.17,3.17,0,0,1,1.7-.47,4,4,0,0,1,2.73,1.13,3.47,3.47,0,0,1,1.23,2.64,3.52,3.52,0,0,1-.29,1.41q-.29.66-.66,1.41C333.56,174.59,333.31,175.15,333.06,175.78Zm-72.74-1.7a18.49,18.49,0,0,0,2.83,10q2.82,4.53,7.54,4.52,3,0,6.22-2.82a4.52,4.52,0,0,1-1-2.64,5.77,5.77,0,0,1,1-3.11,15.5,15.5,0,0,1,2.45-2.92,17.41,17.41,0,0,1,3-2.26,5.65,5.65,0,0,1,2.74-.94,83,83,0,0,0,3.39-7.82q1.5-4.05,2.54-7.92t1.61-7.16a34.54,34.54,0,0,0,.56-5.56c0-3.39-.54-5.77-1.6-7.16a5.7,5.7,0,0,0-4.81-2.07q-3.76,0-8.29,4a59.83,59.83,0,0,0-8.67,9.89,64.49,64.49,0,0,0-6.87,12.35A30.26,30.26,0,0,0,260.32,174.08Z"/><path class="cls-4" d="M374.7,179.74a6.63,6.63,0,0,0,1.7,4.9,6.11,6.11,0,0,0,4.52,1.69,13.28,13.28,0,0,0,7.45-2.45,33,33,0,0,0,6.5-5.65,42,42,0,0,0,6.22-8.1,3.5,3.5,0,0,1,.94-1.32,6.07,6.07,0,0,1,1.13-.85,3.14,3.14,0,0,1,1.69-.47,4,4,0,0,1,2.74,1.13,3.53,3.53,0,0,1,.94,4q-.28.66-.66,1.41c-.25.51-.5,1.07-.75,1.7a66.62,66.62,0,0,1-9.24,11.68,53.57,53.57,0,0,1-10.27,7.92A24.61,24.61,0,0,1,374.7,199a29.77,29.77,0,0,1-9.79-1.51,25.05,25.05,0,0,1-7.54-4,17.52,17.52,0,0,1-4.9-5.94,16.21,16.21,0,0,1-1.7-7.35,35.53,35.53,0,0,1,1.89-11.68,92.57,92.57,0,0,1,4-10q2.16-4.51,4.05-8a13,13,0,0,0,1.88-5.75,2.42,2.42,0,0,0-1.79-2.26,30.08,30.08,0,0,0-3.86-1.32,51.84,51.84,0,0,0-5.65-.94A193.72,193.72,0,0,1,341,162.68q-4.89,8.77-7.91,13.1a16.3,16.3,0,0,1-1.41,1.7,3.57,3.57,0,0,1-2.74,1.13,4.21,4.21,0,0,1-4-4,4.35,4.35,0,0,1,.85-2.54,18.42,18.42,0,0,0,1.22-2q2.64-3.76,7.44-12t8.95-21.57a11.85,11.85,0,0,1-3.2-3.4,20.15,20.15,0,0,1-2.07-4.33,18.46,18.46,0,0,1-.94-6.22,14.14,14.14,0,0,1,1-5.37,15,15,0,0,1,2.73-4.43,16.14,16.14,0,0,1,3.58-3,7,7,0,0,1,3.58-1.13,8.85,8.85,0,0,1,4,1,20,20,0,0,1,3.77,2.45,13.66,13.66,0,0,1,2.83,3.21,6.11,6.11,0,0,1,1.13,3.11,13.79,13.79,0,0,1-1.23,6.21,10.65,10.65,0,0,0-1.22,4.71,3.15,3.15,0,0,0,2.26,3,14.73,14.73,0,0,0,5.65.94,32.23,32.23,0,0,0,5.37-.37c1.45-.26,2.74-.54,3.87-.85s2.19-.6,3.2-.85a13.17,13.17,0,0,1,3.2-.38,6.87,6.87,0,0,1,5.56,2.64,9.81,9.81,0,0,1,2.17,6.41,18.07,18.07,0,0,1-2.17,7.63c-1.44,2.95-3.05,6.19-4.8,9.7a115.75,115.75,0,0,0-4.81,11A32.24,32.24,0,0,0,374.7,179.74Z"/><path class="cls-4" d="M474.39,175.78A48.08,48.08,0,0,1,464,187.46a59.94,59.94,0,0,1-13.09,7.92A44.42,44.42,0,0,1,432.36,199a40.4,40.4,0,0,1-13.19-2.07,32,32,0,0,1-10.36-5.75,26.32,26.32,0,0,1-6.78-8.76,25.23,25.23,0,0,1-2.45-11.12,47.67,47.67,0,0,1,3.95-19.6,53.17,53.17,0,0,1,10-15.17,45.12,45.12,0,0,1,13.1-9.7,30.84,30.84,0,0,1,13.28-3.39,19.5,19.5,0,0,1,8.1,1.69,22.83,22.83,0,0,1,6.6,4.43,20.31,20.31,0,0,1,4.43,6.31,18,18,0,0,1,1.6,7.35,29.65,29.65,0,0,1-6.5,17.34,29.4,29.4,0,0,1-9.42,7.44q-5.94,3.1-14.8,3.11a17.72,17.72,0,0,1-4.33-.57,27.1,27.1,0,0,1-2.83-.56q0,8.48,4.9,13a16.62,16.62,0,0,0,11.69,4.52,26.65,26.65,0,0,0,12.06-2.73,46.35,46.35,0,0,0,9.23-5.93,39.12,39.12,0,0,0,7.73-8.67,3.5,3.5,0,0,1,.94-1.32,6.43,6.43,0,0,1,1.13-.85,3.14,3.14,0,0,1,1.69-.47,4,4,0,0,1,2.74,1.13,3.53,3.53,0,0,1,.94,4q-.29.66-.66,1.41C474.89,174.59,474.64,175.15,474.39,175.78ZM423.7,162.21a17.88,17.88,0,0,0,9.61-2.82,31.85,31.85,0,0,0,7.82-6.88,36.51,36.51,0,0,0,5.18-8.39,19.26,19.26,0,0,0,1.88-7.35q0-3.77-3.39-3.76a11.87,11.87,0,0,0-7.73,3.2,34.9,34.9,0,0,0-6.68,7.72,48.78,48.78,0,0,0-4.81,9.61A25.74,25.74,0,0,0,423.7,162.21Z"/><path class="cls-4" d="M551.46,175.78A47.53,47.53,0,0,1,539.21,188a68.11,68.11,0,0,1-16.49,8.48q-10.08,3.77-24.59,3.77a32.43,32.43,0,0,1-13.19-2.74,40.16,40.16,0,0,1-10.84-6.87,35.25,35.25,0,0,1-7.35-9,18.79,18.79,0,0,1-2.73-9,9.47,9.47,0,0,1,2.83-7,27.94,27.94,0,0,1,6.22-4.71,42.34,42.34,0,0,1,9-3.39q1.13-1.87,3-4.71,1.5-2.44,3.95-6.12t5.66-8.77q6.58-10,11.3-13.85t8.29-3.86a6.57,6.57,0,0,1,3.11.85,18.27,18.27,0,0,1,3,2,13,13,0,0,1,2.26,2.26,3.47,3.47,0,0,1,.85,1.88,5.35,5.35,0,0,1-.76,2.36c-.5.94-1,1.95-1.6,3a28.43,28.43,0,0,0-1.51,3.4,10.53,10.53,0,0,0-.66,3.67,37.21,37.21,0,0,0,1.14,9.8,81.52,81.52,0,0,0,2.54,7.82q1.41,3.67,2.54,7.16a25.12,25.12,0,0,1,1.13,7.82,25.55,25.55,0,0,1-.66,6.31,22.29,22.29,0,0,1-1.6,4.43,19.39,19.39,0,0,1-2.07,3.58,37.81,37.81,0,0,0,9.89-4.24,56,56,0,0,0,7.45-5.37,50.32,50.32,0,0,0,6-6.78,3.5,3.5,0,0,1,.94-1.32,6.43,6.43,0,0,1,1.13-.85,3.14,3.14,0,0,1,1.69-.47,4,4,0,0,1,2.74,1.13,3.53,3.53,0,0,1,.94,4q-.29.66-.66,1.41C552,174.59,551.71,175.15,551.46,175.78Zm-53.14-29q-4,6-7,10.93-2.64,4.34-4.8,8.1t-2.17,4.71a66.86,66.86,0,0,0,.47,8,30.38,30.38,0,0,0,1.6,6.88,14.3,14.3,0,0,0,2.83,4.81,5.73,5.73,0,0,0,4.34,1.79c2.88,0,5.37-1.57,7.44-4.72a19.69,19.69,0,0,0,3.11-11.11,33,33,0,0,0-.94-7.54c-.63-2.64-1.29-5.24-2-7.82s-1.35-5.09-2-7.54A26.42,26.42,0,0,1,498.32,146.76Z"/><path class="cls-4" d="M628.53,175.78A47.53,47.53,0,0,1,616.28,188a68.11,68.11,0,0,1-16.49,8.48q-10.08,3.77-24.59,3.77A32.43,32.43,0,0,1,562,197.54a40.16,40.16,0,0,1-10.84-6.87,35.25,35.25,0,0,1-7.35-9,18.79,18.79,0,0,1-2.73-9,9.47,9.47,0,0,1,2.83-7,27.94,27.94,0,0,1,6.22-4.71,42.34,42.34,0,0,1,9-3.39c.76-1.25,1.76-2.82,3-4.71q1.5-2.44,3.95-6.12t5.66-8.77q6.59-10,11.3-13.85t8.29-3.86a6.57,6.57,0,0,1,3.11.85,18.27,18.27,0,0,1,3,2,13,13,0,0,1,2.26,2.26,3.39,3.39,0,0,1,.85,1.88,5.35,5.35,0,0,1-.76,2.36c-.5.94-1,1.95-1.6,3a26.88,26.88,0,0,0-1.5,3.4,10.32,10.32,0,0,0-.67,3.67,37.21,37.21,0,0,0,1.14,9.8,81.52,81.52,0,0,0,2.54,7.82q1.41,3.67,2.54,7.16a25.12,25.12,0,0,1,1.13,7.82,25.55,25.55,0,0,1-.66,6.31,22.29,22.29,0,0,1-1.6,4.43,19.39,19.39,0,0,1-2.07,3.58,37.81,37.81,0,0,0,9.89-4.24,56,56,0,0,0,7.45-5.37,50.32,50.32,0,0,0,6-6.78,3.62,3.62,0,0,1,.94-1.32,6.43,6.43,0,0,1,1.13-.85,3.15,3.15,0,0,1,1.7-.47,4,4,0,0,1,2.73,1.13,3.53,3.53,0,0,1,.94,4q-.29.66-.66,1.41C629,174.59,628.78,175.15,628.53,175.78Zm-53.14-29q-4,6-7,10.93-2.64,4.34-4.8,8.1t-2.17,4.71a66.86,66.86,0,0,0,.47,8,29.84,29.84,0,0,0,1.61,6.88,14.13,14.13,0,0,0,2.82,4.81,5.73,5.73,0,0,0,4.34,1.79c2.88,0,5.37-1.57,7.44-4.72a19.69,19.69,0,0,0,3.11-11.11,33,33,0,0,0-.94-7.54c-.63-2.64-1.29-5.24-2-7.82s-1.35-5.09-2-7.54A26.42,26.42,0,0,1,575.39,146.76Z"/><path class="cls-4" d="M629.47,183.13a14.54,14.54,0,0,1,3.67.47,17.42,17.42,0,0,0,4.43.47A22.49,22.49,0,0,0,654.15,177,67.07,67.07,0,0,0,666.4,159.1a151.83,151.83,0,0,0,9.05-23.65q3.76-12.81,7-24.3,2.82-10.74,6.59-16.77a53.34,53.34,0,0,1,7-9.24,17.1,17.1,0,0,1,7.91-4.52q-4.33-2.27-13.66-4.43A91.55,91.55,0,0,0,669.61,74c-5.66,0-10.27,1.29-13.86,3.87a12.22,12.22,0,0,0-5.37,10.46,16.61,16.61,0,0,0,1.42,7.25,20.67,20.67,0,0,0,3.2,4.9q1.79,2,3.2,3.3a3.53,3.53,0,0,1,1.42,2.26q0,3.59-4,3.58a26.15,26.15,0,0,1-8.57-1.7A34.61,34.61,0,0,1,638,103a31.33,31.33,0,0,1-7.35-7.63,17.48,17.48,0,0,1-3-10.08q0-7.35,3.77-12.06a28.1,28.1,0,0,1,9.33-7.54,42.5,42.5,0,0,1,12.06-4,69.54,69.54,0,0,1,12-1.13,137.2,137.2,0,0,1,16.95.94q7.55.94,15.27,2.16t16.58,2.17a200.49,200.49,0,0,0,20.92.94,57.24,57.24,0,0,0,11.68-.94,29.57,29.57,0,0,0,6.78-2.17,23,23,0,0,0,3.68-2.16,3.71,3.71,0,0,1,2.17-.94,3.79,3.79,0,0,1,2.82,1.13,3.58,3.58,0,0,1,1.13,2.63c0,.88-.72,2.52-2.16,4.9a39.13,39.13,0,0,1-5.85,7.26,47,47,0,0,1-8.29,6.59,17.84,17.84,0,0,1-9.7,2.92,70.6,70.6,0,0,1-8.48-.47c-2.64-.31-5-.66-7-1q-3.39-.75-6.41-1.7a7,7,0,0,0-1.88,1.7,20.67,20.67,0,0,0-2.64,4.61,78.31,78.31,0,0,0-3.3,9q-1.8,5.74-3.67,14.79-1.71,7.55-3.3,16.87t-4,18.84a167.75,167.75,0,0,1-5.75,18.56A70.77,70.77,0,0,1,682,183.41a39.78,39.78,0,0,1-12.06,11.31A31.86,31.86,0,0,1,653.21,199a44.42,44.42,0,0,1-10.65-1.23,39.16,39.16,0,0,1-8.66-3.11,21.16,21.16,0,0,1-5.75-4.05c-1.38-1.44-2.07-2.73-2.07-3.86a3.13,3.13,0,0,1,3.39-3.58Z"/><path class="cls-4" d="M806,175.78a66.11,66.11,0,0,1-9.23,11.68,53.57,53.57,0,0,1-10.27,7.92A24.61,24.61,0,0,1,773.62,199a21.85,21.85,0,0,1-13.38-4.05q-5.46-4-6.4-12a49.67,49.67,0,0,1-8.11,8.1,50.82,50.82,0,0,1-8.48,5.47A21.75,21.75,0,0,1,727.08,199a19,19,0,0,1-7.26-1.42,17.33,17.33,0,0,1-6-4,20,20,0,0,1-4-6.22,20.24,20.24,0,0,1-1.51-7.91,55.42,55.42,0,0,1,3.87-20.16,70.48,70.48,0,0,1,10.08-18,55,55,0,0,1,13.94-12.91,29,29,0,0,1,25.06-3.48,27.56,27.56,0,0,1,6.41,3.11,21.13,21.13,0,0,1,4.52,4.33,23,23,0,0,1,4.43.47,16.38,16.38,0,0,1,4.34,1.51,10,10,0,0,1,3.29,2.73,6.56,6.56,0,0,1,1.32,4.15,23.3,23.3,0,0,1-1.69,6.78L780,158.35q-2.09,5.75-3.77,11.87a41.35,41.35,0,0,0-1.7,10.84,5.29,5.29,0,0,0,1.42,3.77,5,5,0,0,0,3.86,1.5,13.25,13.25,0,0,0,7.44-2.45,32.72,32.72,0,0,0,6.5-5.65,41.24,41.24,0,0,0,6.22-8.1,3.74,3.74,0,0,1,.94-1.32,6.43,6.43,0,0,1,1.13-.85,3.2,3.2,0,0,1,1.7-.47,3.92,3.92,0,0,1,2.73,1.13,3.47,3.47,0,0,1,1.23,2.64,3.69,3.69,0,0,1-.28,1.41q-.29.66-.66,1.41C806.53,174.59,806.28,175.15,806,175.78Zm-43.71-33.35c0-2.76-.66-4.81-2-6.13a6.54,6.54,0,0,0-4.81-2q-4.14,0-8.48,4.34a47.06,47.06,0,0,0-7.82,10.65A72.36,72.36,0,0,0,733.48,163a45.67,45.67,0,0,0-2.26,13.19q0,8.47,5.47,8.48,3.39,0,7.82-4.53A59.58,59.58,0,0,0,752.89,169a85.39,85.39,0,0,0,6.69-13.85A37,37,0,0,0,762.32,142.43Z"/><path class="cls-4" d="M883.1,175.78A47.22,47.22,0,0,1,870.85,188a68.11,68.11,0,0,1-16.49,8.48q-10.08,3.77-24.59,3.77a32.47,32.47,0,0,1-13.19-2.74,40.1,40.1,0,0,1-10.83-6.87,35.25,35.25,0,0,1-7.35-9,18.79,18.79,0,0,1-2.73-9,9.5,9.5,0,0,1,2.82-7,28.41,28.41,0,0,1,6.22-4.71,42.43,42.43,0,0,1,9-3.39q1.13-1.87,3-4.71c1-1.63,2.32-3.67,4-6.12s3.51-5.37,5.65-8.77q6.6-10,11.31-13.85t8.29-3.86a6.6,6.6,0,0,1,3.11.85,18.61,18.61,0,0,1,3,2,12.35,12.35,0,0,1,2.26,2.26,3.39,3.39,0,0,1,.85,1.88,5.32,5.32,0,0,1-.75,2.36l-1.6,3a26.92,26.92,0,0,0-1.51,3.4,10.53,10.53,0,0,0-.66,3.67,37.67,37.67,0,0,0,1.13,9.8,81.52,81.52,0,0,0,2.54,7.82c.95,2.45,1.79,4.84,2.55,7.16a28.83,28.83,0,0,1,.47,14.13,22.94,22.94,0,0,1-1.6,4.43,19.39,19.39,0,0,1-2.07,3.58,37.81,37.81,0,0,0,9.89-4.24,55.82,55.82,0,0,0,7.44-5.37,50.32,50.32,0,0,0,6-6.78,3.62,3.62,0,0,1,.94-1.32,6.43,6.43,0,0,1,1.13-.85,3.2,3.2,0,0,1,1.7-.47,4,4,0,0,1,2.73,1.13,3.47,3.47,0,0,1,1.23,2.64,3.52,3.52,0,0,1-.29,1.41c-.18.44-.4.91-.65,1.41S883.35,175.15,883.1,175.78Zm-53.14-29q-4,6-7,10.93-2.64,4.34-4.8,8.1T816,170.5a64.85,64.85,0,0,0,.47,8,29.86,29.86,0,0,0,1.6,6.88,14.14,14.14,0,0,0,2.83,4.81,5.71,5.71,0,0,0,4.33,1.79q4.34,0,7.44-4.72a19.62,19.62,0,0,0,3.11-11.11,32.46,32.46,0,0,0-.94-7.54c-.63-2.64-1.29-5.24-2-7.82s-1.35-5.09-2-7.54A26.42,26.42,0,0,1,830,146.76Z"/><path class="cls-4" d="M908.16,186.33a13.28,13.28,0,0,0,7.45-2.45,33,33,0,0,0,6.5-5.65,42,42,0,0,0,6.22-8.1,3.5,3.5,0,0,1,.94-1.32,6.43,6.43,0,0,1,1.13-.85,3.14,3.14,0,0,1,1.69-.47,4,4,0,0,1,2.74,1.13,3.53,3.53,0,0,1,.94,4q-.28.66-.66,1.41c-.25.51-.5,1.07-.75,1.7a66.62,66.62,0,0,1-9.24,11.68,53.57,53.57,0,0,1-10.27,7.92A24.58,24.58,0,0,1,901.94,199a29.72,29.72,0,0,1-17.8-6.22,26.85,26.85,0,0,1-6.41-7.16,16.93,16.93,0,0,1-2.54-9.05,61.43,61.43,0,0,1,.94-9.7q.95-5.75,2.64-12.53T882.63,140q2.16-7.54,4.62-14.89h-5.09c-1,0-1.51-.56-1.51-1.69a8,8,0,0,1,1.79-4.06q1.78-2.53,3.86-2.54h3.77q2.83-7.72,5.56-14.23a95.12,95.12,0,0,1,5.37-11A7.3,7.3,0,0,1,903.07,89a4.77,4.77,0,0,1,3-1,10.22,10.22,0,0,1,4.62,1.32,29.83,29.83,0,0,1,4.8,3.11,23.58,23.58,0,0,1,3.77,3.67,5.65,5.65,0,0,1,1.51,3.2q0,1.32-1.79,5.94t-4.43,11.59h12.62c1,0,1.51.56,1.51,1.7a4.5,4.5,0,0,1-.56,1.88,12.46,12.46,0,0,1-3.21,4,3,3,0,0,1-1.88.75H911.37q-2.26,6.22-4.62,13.19T902.51,152q-1.89,6.78-3.11,13.09a60.11,60.11,0,0,0-1.22,11.4,9.22,9.22,0,0,0,2.92,7.07A10,10,0,0,0,908.16,186.33Z"/><path class="cls-4" d="M966.77,186.71a23.65,23.65,0,0,0,7.63-1.13,26,26,0,0,0,5.65-2.64,26.87,26.87,0,0,0,4.05-3.11c1.13-1.06,2-1.91,2.64-2.54l1.32-1.32,1.32-.85a2.84,2.84,0,0,1,1.51-.47,3.83,3.83,0,0,1,2.82,1.13,3.58,3.58,0,0,1,1.13,2.64,2.41,2.41,0,0,1-.47,1.41,11,11,0,0,0-.85,1.41c-.37.51-.75,1.07-1.13,1.7a45.13,45.13,0,0,1-8.85,8.1,53.9,53.9,0,0,1-10.27,5.47A35.7,35.7,0,0,1,959.6,199a40.4,40.4,0,0,1-13.19-2.07,32,32,0,0,1-10.36-5.75,26.32,26.32,0,0,1-6.78-8.76,25.23,25.23,0,0,1-2.45-11.12,47.67,47.67,0,0,1,3.95-19.6,53.17,53.17,0,0,1,10-15.17,45.12,45.12,0,0,1,13.1-9.7,30.84,30.84,0,0,1,13.28-3.39,19.5,19.5,0,0,1,8.1,1.69,22.83,22.83,0,0,1,6.6,4.43,20.31,20.31,0,0,1,4.43,6.31,18,18,0,0,1,1.6,7.35,29.65,29.65,0,0,1-6.5,17.34A29.4,29.4,0,0,1,972,168q-5.94,3.1-14.8,3.11a17.72,17.72,0,0,1-4.33-.57,27.1,27.1,0,0,1-2.83-.56q0,8.48,5,12.62A17.83,17.83,0,0,0,966.77,186.71Zm-15.83-24.5a17.88,17.88,0,0,0,9.61-2.82,31.85,31.85,0,0,0,7.82-6.88,36.51,36.51,0,0,0,5.18-8.39,19.26,19.26,0,0,0,1.88-7.35q0-3.77-3.39-3.76a11.82,11.82,0,0,0-7.72,3.2,34.68,34.68,0,0,0-6.69,7.72,48.78,48.78,0,0,0-4.81,9.61A25.74,25.74,0,0,0,950.94,162.21Z"/></svg>